<svg width="120" height="120" fill="none" xmlns="http://www.w3.org/2000/svg"><g clip-path="url(#clip0_2648_2425)"><path d="M5 6.012h110v107H5v-107z" fill="url(#paint0_radial_2648_2425)"/><path d="M5 6.012h110v107H5v-107zM0 118.013h120v-117H0v117zm78.6-75.3c0-.4.15-.6.6-.6h7.85c.4 0 .6.15.6.6v39.45c0 .4-.1.6-.6.6H79.3c-.5 0-.65-.25-.65-.65v-39.4h-.05zm-.55-11.35c0-3.2 2.25-5.1 5.1-5.1 3.05 0 5.1 2.05 5.1 5.1 0 3.3-2.15 5.1-5.2 5.1-2.9 0-5-1.8-5-5.1zm-22.5 27.8c-1.4-5.55-4.7-17.65-5.95-23.5h-.1c-1.05 5.85-3.7 15.75-5.8 23.5h11.85zm-13.9 8.1l-3.95 15c-.1.4-.25.5-.75.5H29.6c-.5 0-.6-.15-.5-.75l14.2-49.7c.25-.9.4-1.7.5-4.15 0-.35.15-.5.4-.5h10.5c.35 0 .5.1.6.5l15.9 53.95c.1.4 0 .65-.4.65h-8.3c-.4 0-.65-.1-.75-.45l-4.1-15.05h-16z" fill="#FF7F18"/></g><defs><radialGradient id="paint0_radial_2648_2425" cx="0" cy="0" r="1" gradientUnits="userSpaceOnUse" gradientTransform="matrix(83.6001 0 0 80.9402 41.229 29.99)"><stop stop-color="#423325" stop-opacity=".98"/><stop offset="1" stop-color="#1C0A00"/></radialGradient><clipPath id="clip0_2648_2425"><path fill="#fff" transform="translate(0 1)" d="M0 0h120v117.024H0z"/></clipPath></defs></svg>