<svg width="120" height="120" fill="none" xmlns="http://www.w3.org/2000/svg"><path d="M59.5 119.697l-34.631-9.614-7.718-86.56h84.801l-7.725 86.547-34.727 9.627z" fill="#264DE4"/><path d="M87.613 104.559l6.602-73.958H59.552v81.737l28.06-7.779z" fill="#2965F1"/><path d="M34.844 62.704l.951 10.616h23.757V62.704H34.844zm-1.912-21.487l.965 10.616h25.655V41.217h-26.62zm26.62 49.058l-.047.013-11.823-3.193-.756-8.466H36.27l1.488 16.669 21.746 6.036.049-.013V90.275z" fill="#EBEBEB"/><path d="M37.11 0h12.857v5.377h-7.48v5.377h7.48v5.377H37.11V0zm15.429 0h12.858v4.676h-7.481v.935h7.48v10.754H52.54v-4.91h7.481v-.935h-7.482V0zm15.43 0h12.858v4.676h-7.481v.935h7.48v10.754H67.97v-4.91h7.48v-.935h-7.48V0z" fill="#000"/><path d="M84.192 62.704l1.916-21.487H59.515v10.616h14.96l-.967 10.871H59.515V73.32h13.073l-1.233 13.77-11.84 3.195v11.045l21.763-6.031.16-1.794 2.495-27.95.26-2.85z" fill="#fff"/></svg>