<svg width="120" height="120" fill="none" xmlns="http://www.w3.org/2000/svg"><g clip-path="url(#clip0_2648_2425)"><path d="M103.265 66.703c-4.195.024-7.828 1.032-10.875 2.532-1.125-2.227-2.25-4.172-2.437-5.625-.21-1.688-.469-2.72-.21-4.734.257-2.016 1.429-4.876 1.429-5.11-.024-.211-.258-1.242-2.672-1.266-2.414-.023-4.5.469-4.735 1.102a26.915 26.915 0 00-1.007 3.586c-.422 2.203-4.828 10.008-7.336 14.11-.82-1.595-1.524-3-1.665-4.126-.21-1.687-.468-2.719-.21-4.734.258-2.016 1.43-4.875 1.43-5.11-.024-.21-.258-1.242-2.672-1.265-2.415-.024-4.5.468-4.735 1.101-.234.633-.492 2.133-1.007 3.586-.493 1.453-6.352 14.485-7.876 17.883a72.471 72.471 0 01-1.945 4.055c-.492.937-.023.07-.07.164l-.657 1.242v.024c-.328.586-.68 1.148-.844 1.148-.117 0-.351-1.57.047-3.726.867-4.524 2.977-11.579 2.954-11.836 0-.118.398-1.36-1.36-1.993-1.71-.632-2.32.422-2.46.422-.141 0-.259.375-.259.375s1.899-7.945-3.633-7.945c-3.468 0-8.25 3.774-10.617 7.219-1.5.82-4.687 2.554-8.062 4.406-1.29.703-2.625 1.453-3.89 2.133l-.258-.282C20.93 66.891 8.53 61.83 9.047 52.22c.187-3.492 1.406-12.703 23.812-23.86 18.352-9.14 33.047-6.632 35.602-1.054 3.633 7.969-7.852 22.781-26.93 24.914-7.265.82-11.086-1.992-12.047-3.047-1.007-1.101-1.148-1.148-1.523-.937-.61.328-.234 1.312 0 1.898.562 1.477 2.906 4.102 6.89 5.414 3.492 1.149 12.024 1.781 22.337-2.203 11.554-4.477 20.578-16.898 17.93-27.281-2.696-10.57-20.227-14.04-36.798-8.156-9.867 3.515-20.555 9-28.242 16.195C.938 42.633-.516 50.086.094 53.18 2.227 64.219 17.437 71.414 23.53 76.735c-.305.163-.586.328-.844.468-3.047 1.5-14.648 7.57-17.554 13.992-3.282 7.266.515 12.493 3.046 13.196 7.829 2.18 15.844-1.734 20.18-8.18 4.312-6.445 3.797-14.812 1.805-18.633l-.07-.14 2.39-1.407c1.547-.914 3.07-1.757 4.406-2.484-.75 2.039-1.289 4.453-1.57 7.969-.328 4.125 1.36 9.468 3.586 11.578.984.914 2.156.937 2.883.937 2.578 0 3.75-2.133 5.039-4.687 1.594-3.117 3-6.727 3-6.727s-1.758 9.774 3.047 9.774c1.758 0 3.515-2.274 4.312-3.446v.024s.047-.07.14-.235c.1-.145.193-.293.282-.445v-.047c.703-1.218 2.274-4.007 4.617-8.625 3.023-5.953 5.93-13.406 5.93-13.406s.281 1.828 1.148 4.828c.516 1.782 1.64 3.727 2.508 5.625-.703.985-1.125 1.547-1.125 1.547l.023.024a66.465 66.465 0 01-1.85 2.344c-2.391 2.859-5.25 6.117-5.626 7.055-.445 1.1-.351 1.921.516 2.578.633.468 1.758.562 2.953.468 2.156-.14 3.656-.68 4.406-1.008a15.26 15.26 0 003.797-1.992c2.344-1.734 3.773-4.195 3.633-7.476-.07-1.805-.656-3.586-1.383-5.274.211-.304.422-.61.633-.937 3.703-5.414 6.562-11.367 6.562-11.367s.282 1.828 1.149 4.828c.445 1.523 1.336 3.188 2.133 4.828-3.47 2.836-5.649 6.117-6.399 8.274-1.383 3.984-.304 5.789 1.735 6.21.913.188 2.226-.234 3.21-.656a14.547 14.547 0 004.055-2.086c2.344-1.734 4.594-4.148 4.477-7.406-.07-1.5-.469-2.976-1.008-4.383 2.953-1.218 6.773-1.921 11.625-1.336 10.43 1.22 12.492 7.735 12.094 10.454-.399 2.719-2.578 4.218-3.305 4.687-.727.445-.961.61-.891.938.094.492.422.468 1.055.375.867-.141 5.484-2.227 5.672-7.242.281-6.447-5.836-13.478-16.688-13.408zM22.828 93.821c-3.445 3.773-8.297 5.203-10.36 3.984-2.226-1.29-1.36-6.844 2.883-10.852 2.579-2.437 5.93-4.687 8.133-6.07.492-.305 1.242-.75 2.133-1.289.14-.093.234-.14.234-.14.164-.094.352-.212.54-.329 1.57 5.719.07 10.735-3.563 14.696zm25.195-17.133c-1.195 2.93-3.726 10.453-5.25 10.031-1.313-.352-2.11-6.047-.258-11.672.938-2.836 2.93-6.21 4.102-7.523 1.898-2.11 3.96-2.813 4.477-1.946.609 1.125-2.32 9.282-3.07 11.11zm20.79 9.937c-.516.258-.985.446-1.196.305-.164-.094.21-.445.21-.445s2.602-2.79 3.633-4.078c.586-.75 1.29-1.617 2.04-2.602v.281c0 3.375-3.235 5.625-4.688 6.54zm16.03-3.656c-.375-.281-.328-1.148.938-3.867.492-1.078 1.617-2.883 3.562-4.594.235.703.376 1.383.352 2.016-.023 4.218-3.023 5.789-4.852 6.445z" fill="#CF649A"/></g><defs><clipPath id="clip0_2648_2425"><path fill="#fff" transform="translate(0 15)" d="M0 0h120v90H0z"/></clipPath></defs></svg>