<svg width="120" height="120" fill="none" xmlns="http://www.w3.org/2000/svg"><path d="M101.949 23.523l-7.726 86.547-34.727 9.627-34.631-9.614-7.717-86.56h84.801z" fill="#E44D26"/><path d="M59.549 112.338l28.06-7.779 6.603-73.958H59.549v81.737z" fill="#F16529"/><path d="M44.53 51.833h15.018V41.217h-26.62l.254 2.848 2.61 29.255h23.756V62.704H45.5l-.97-10.871zm2.392 26.796H36.267l1.487 16.669 21.746 6.036.05-.013V90.275l-.047.013-11.824-3.193-.755-8.466z" fill="#EBEBEB"/><path d="M25.038 0h5.395v5.33h4.935V0h5.396v16.141h-5.395v-5.405h-4.936v5.405h-5.395V0zm22.82 5.353h-4.749V0h14.897v5.353h-4.752V16.14h-5.395V5.353h-.001zM60.37 0h5.625l3.46 5.672L72.914 0h5.627v16.141h-5.373v-8l-3.711 5.739h-.093L65.65 8.14v8.001h-5.28V0zm20.855 0h5.397v10.806h7.587v5.335H81.225V0z" fill="#000"/><path d="M59.512 73.32h13.073l-1.233 13.77-11.84 3.195v11.045l21.764-6.031.16-1.794 2.494-27.95.26-2.85H59.511V73.32zm0-21.513v.026h25.643l.213-2.386.484-5.382.254-2.848H59.512v10.59z" fill="#fff"/></svg>