<svg width="120" height="120" fill="none" xmlns="http://www.w3.org/2000/svg"><g clip-path="url(#clip0_2648_2425)"><g clip-path="url(#clip1_2648_2425)"><path d="M60 0C26.86 0 0 26.86 0 60s26.86 60 60 60 60-26.86 60-60S93.14 0 60 0zM12.893 60.624l46.483 46.483c-25.526-.331-46.152-20.957-46.483-46.483zm57.653 45.307L14.069 49.454c4.79-20.942 23.534-36.57 45.931-36.57 15.653 0 29.525 7.636 38.093 19.386l-6.523 5.756C84.62 28.06 73.07 21.538 60 21.538c-16.642 0-30.816 10.57-36.173 25.363L73.1 96.168c11.967-4.334 21.168-14.434 24.25-26.942H76.93V60h30.193c-.005 22.397-15.634 41.141-36.576 45.931z" fill="#744C9E"/></g></g><defs><clipPath id="clip0_2648_2425"><path fill="#fff" d="M0 0h120v120H0z"/></clipPath><clipPath id="clip1_2648_2425"><path fill="#fff" d="M0 0h120v120H0z"/></clipPath></defs></svg>