<svg width="120" height="120" fill="none" xmlns="http://www.w3.org/2000/svg"><g clip-path="url(#clip0_2648_2425)" fill-rule="evenodd" clip-rule="evenodd"><path d="M24.383 45.03l35.491 69.47L.219 45.031h24.163zm70.994 0L59.885 114.5l59.656-69.468H95.377z" fill="#EA6C00"/><path d="M24.382 45.03h70.984L59.874 114.5 24.382 45.031z" fill="#FDAD00"/><path d="M59.874 6.53L26.25 10.086 24.382 45.03l35.492-38.5zm0 0l33.624 3.555 1.868 34.945-35.492-38.5z" fill="#FDD231"/><path d="M119.541 45.03L93.509 10.084l1.868 34.946h24.164zm-119.322 0L26.25 10.084 24.382 45.03H.22z" fill="#FDAD00"/><path d="M59.874 6.53l-35.492 38.5h70.984L59.874 6.53z" fill="#FEEEB7"/></g><defs><clipPath id="clip0_2648_2425"><path fill="#fff" transform="translate(0 6)" d="M0 0h120v108.624H0z"/></clipPath></defs></svg>