<svg width="120" height="120" fill="none" xmlns="http://www.w3.org/2000/svg"><g clip-path="url(#clip0_4693_13644)" fill="#E13238"><path d="M74.824 116.342l1.15-19.172 3.178-5.424s-7.231 2.958-19.337 2.958-19.227-2.903-19.227-2.903l3.56 5.916 1.26 18.625c0 1.997 6.585 3.615 14.708 3.615 8.123 0 14.708-1.618 14.708-3.615zm-3.63-89.533l2.416-9.546L86.984 3.192 83.459.188 69.299 15.18l-2.803 11.405c-2.11-.07-4.222-.106-6.334-.105-14.912 0-27 1.7-27 3.795 0 2.096 12.088 3.796 27 3.796s27-1.7 27-3.796c0-1.543-6.556-2.872-15.967-3.465z"/><path d="M69.796 32.156s-.523.117-2.062.124c-1.539.006-2.631-.01-3.067-.407-.117-.106-.18-.318-.18-.46.001-.273.195-.434.44-.534l.234.365c-.102.035-.16.077-.16.12 0 .208 1.574.35 2.778.334 1.205-.015 2.66-.114 2.661-.318 0-.062-.11-.12-.301-.165l.232-.363c.312.096.584.284.584.608-.003.55-.704.634-1.159.696zM86.96 3.219c.336-.388-.175-1.382-1.14-2.219-.967-.836-2.022-1.2-2.36-.811-.336.388.175 1.382 1.14 2.218.967.837 2.023 1.2 2.36.812zM74.182 69.511c-.317-3.05 6.67-7.466 4.877-7.607-3.86.22-5.782 4.524-7.724 9.03-.712 1.653-3.147 8.696-4.744 7.829s2.07-6.659 3.098-10.099c-1.186.87-5.536 4.25-6.657 1.085-1.802 1.53-5.653 2.36-5.218-1.661-.959 1.698-3.11 4.07-5.693 3.084-3.392-1.294 1.965-12.098 3.297-11.553 1.332.545-.269 3.006-.688 3.962-.922 2.103-1.988 4.748-1.276 5.289 1.22.927 4.537-3.508 4.611-3.606.62-.82 2.389-6.183 3.813-5.567 1.425.615-3.554 7.697-1.692 9.103.376.283 1.912-.175 2.846-1.186.605-.654.397-2.103 2.413-6.91 2.015-4.806 3.812-10.792 5.194-10.336 1.382.456.243 3.528-.253 4.673-2.327 5.376-6.351 14.256-4.453 13.584 1.897-.672 2.886-.712 4.744-2.886 1.858-2.175 1.773-5.757 3.011-5.68 1.24.076 1.031 1.224.73 2.099 1.22-1.395 5.78-4.334 6.88-1.424 1.304 3.445-6.523 8.422-4.572 8.168 1.903-.248 4.986-2.2 6.302-3.975l3.623-32.571s-3.646 3.017-26.839 3.017c-23.193 0-26.461-2.954-26.461-2.954l3.084 29.729c1.637-4.653 5.525-14.065 11.653-13.749 2.787.144 6.509 5.511 3.321 5.693-1.35.077-1.486-2.679-3.084-3.084-1.153-.292-2.758.646-3.795 1.661-2.07 2.025-6.519 10.013-5.93 13.996.748 5.077 7.006-1.764 8.065-3.796.745-1.43 1.249-5.67 2.88-5.225 1.63.445-.142 4.82-1.325 8.688-1.328 4.343-2.026 8.925-3.69 8.398-1.665-.526 1.047-6.134.948-7.116-1.564 1.443-4.447 5.098-8.135 3.29l1.916 18.46s5.091 4.023 20.428 4.023c15.336 0 20.616-3.96 20.616-3.96l2.378-21.383c-1.946 1.895-8.105 5.26-8.5 1.467z"/></g><defs><clipPath id="clip0_4693_13644"><path fill="#fff" transform="translate(33)" d="M0 0h54.288v120H0z"/></clipPath></defs></svg>