<svg width="120" height="120" fill="none" xmlns="http://www.w3.org/2000/svg"><g clip-path="url(#clip0_2648_2425)"><path d="M21.032 29.076s2.05 7.902 2.341 10.537c.293 2.634-5.268 8.487-5.268 11.414 0 2.927 1.17 8.195 7.61 10.83 6.439 2.633 7.316 9.364 7.316 13.463 0 4.097-2.341 11.998-2.341 11.998s-1.463 19.609 6.438 23.121c7.902 3.511 6.146 3.511 7.902 3.511 1.755 0 14.633 5.27 22.242 3.221 7.61-2.049 9.657-4.39 9.657-4.39s7.61.585 9.951-6.147c2.343-6.731 3.805-20.779 2.927-27.218-.878-6.44-2.049-14.925 3.219-17.852 5.27-2.928 10.829-6.438 9.951-9.366-.878-2.927-5.56-7.024-5.56-7.024s-1.17-7.316-.293-9.073c.877-1.756 6.146-6.147 3.219-9.365-2.925-3.22-8.195-3.22-8.195-3.22l-6.73.585s-11.415-10.243-26.34-9.657c-14.926.585-24.292 9.657-24.292 9.657s-4.975-1.756-9.366 0c-4.39 1.757-5.265 0-4.388 4.975z" fill="#FBA919"/><path d="M47.775 72.651s-5.796 8.862-10.047 15.15c-.658.974 4.25 1.041 4.25 1.041l5.797-16.191zm2.76-18.373s-1.748 4.359-2.705 6.669c-1.039 2.512-5 3.762-5 3.762s2.053-2.154 2.053-7.61c0-2.288 2.955-3.198 2.955-3.198l2.696.377z" fill="#E78724"/><path d="M48.77 56.742s-3.58 4.262-10.226 1.875c-6.647-2.385-7.329-10.908-7.329-13.294 0-2.386 12.612 2.386 14.317 3.409 1.705 1.023 4.942 5.112 3.237 8.01zM23.663 11.213S29.8 10.02 33.89 13.258c4.092 3.238 5.284 5.795 5.284 5.795l-6.895 5.465s-3.33-1.544-4.353-5.976c-1.023-4.432-.341-6.477-4.26-7.329z" fill="#E78724"/><path d="M46.98 44.435c-2.641-3.75-6.995-5.385-10.47-5.656-5.927-.463-8.741 1.632-8.741 1.632s9.706.41 12.504 4.085c5.208 6.84 12.806 7.395 14.021 5.893-1.405.07-2.95-.626-4.604-2.19-1.034-.98-1.872-2.573-2.71-3.764zm-16.386 13.26s-10.769-3.703-8.722-7.452c2.044-3.75.417-5.793.417-5.793s-6.014 4.489-4.482 9.261c.943 2.929 2.522 5.05 11.198 9.115 4.161 7.73.86 21.642 1.057 21.707.33.11 5.842-2.725 5.466-15.74-.115-3.997-.434-9.454-4.934-11.098zm14.113-39.812a2231.432 2231.432 0 00-10.702 5.489l2.435 1.218c-.233.376-.345.6-.345.6l2.5 1.137s6.1 4.42 9.838 7.26c-1.246-3.837-4.905-9.866-4.905-9.866s-1.036-2.77 1.179-5.839zm15.002 93.515c-13.88 0-18.582-7.046-18.582-7.046l2.17 5.282c.82 2.285 9.566 9.396 16.39 9.396" fill="#E78724"/><path d="M42.648 99.59s1.277 7.805 6.39 7.805c4.345 0 5.625-6.593 5.625-7.955l-12.015.15zm-8.51-11.77c.455-1.25 2.045-6.307 2.556-10.908.613-5.512.39-13.572.39-13.572s-1.365 5.284-2.558 6.137c-1.192.852-3.409 6.647-3.409 6.647S29.93 84.75 29.366 87.65c1.564.313 2.88-.608 4.773.17zM21.791 53.626s2.896-1.024 3.75-7.33c.851-6.306-1.024-11.76-1.024-11.76s.17 8.692-.852 10.397c-1.023 1.704-1.874 2.216-3.068 4.432-1.194 2.217.51 3.578 1.194 4.26z" fill="#E78724"/><path d="M25.25 12.705l-.592-.375c-1.743.059.592.375.592.375z" fill="#FDC168"/><path d="M47.064 16.015s-2.726-.454-4.09-2.499c-1.364-2.045-5.227-6.136-11.385-6.182-6.157-.046-12.25 1.637-12.25 1.637l5.319 3.36c.562-.018 1.546-.01 3.172.044 6.674.222 7.701 6.823 7.701 6.823l23.52-3.239" fill="#FBA919"/><path d="M49.337 52.476s-3.182 3.182-8.068 2.159c-4.887-1.023-7.842-3.182-8.069-6.932-.227-3.75 1.024-5.226 1.024-5.226s5.453 1.705 8.068 3.978c2.614 2.272 4.545 5.908 7.045 6.021z" fill="#fff"/><path d="M45.487 51.34s-2.76 1.26-5.844.234c-4.037-1.347-4.306-5.546-4.306-5.546s-2.478 7.269 4.467 8.668c5.57 1.122 8.864-2.106 8.864-2.106l-3.181-1.25z" fill="#C9C9C9"/><path d="M47.448 14.473C47.15 8.24 52.26 3.275 54.032 3.063c.098 1.056-.099 5.177 1.671 6.444C56.22 6.14 57.961 2.43 64.843 0c-1.474 3.91-.197 7.184.412 8.701 4.699-4.265 7.865-3.56 7.865-3.56s-3.265 5.634-1.988 9.331c-9.433-.74-23.638 1.002-23.684.002zm-20 9.496c-2.251-1.868-.573-3.6-.751-5.722-.097-1.13-.186-2.194-.558-2.782-2.072-3.27-6.958-4.263-7.007-4.274l-2.293-.449 1.518-1.776c.197-.23 6.43-6.178 16.08-3.063 6.748 2.176 11.744 9.557 11.93 9.855l-3.384 1.592c-.04-.063-3.99-7.001-9.78-8.868-4.68-1.51-8.994-.073-10.841.868 1.964.784 4.532 2.213 6.08 4.655.73 1.154.853 2.607.972 4.014.157 1.862.303 3.62 1.674 4.759l-3.64 1.19zm-6.012 27.26s2.836-3.517 3.676-10.36c.33-2.695-.256-8.01-1.194-10.056.17 5.028-1.107 10.057-1.107 10.057s-.862 9.336-1.375 10.359z" fill="#463014"/><path d="M36.39 20.417c-.002-.007-.91-3.977-3.429-5.982-3.553-2.826-7.89-1.322-7.933-1.31l-.63-1.945c.21-.068 5.169-1.63 9.739 1.582 4.597 3.23 5.148 6.159 5.196 6.482l-2.943 1.173zm-6.047 28.29s-1.488-2.13-1.22-4.472c.133-1.157.67-2.344 1.626-2.766 1.779-.781 2.567 1.235 2.567 1.235s-2.503.617-2.973 6.003z" fill="#463014"/><path d="M46.679 51.953c.062.116.094.181.094.181s-4.64 3.483-9.396-.051c-2.546-1.894-2.306-6.578-1.526-8.564a15.3 15.3 0 015.186 2.256c-1.817-1.622-3.407-2.816-3.403-2.843l-2.065-.585-4.014-1.376c-.052.306-1.516 7.169 2.71 11.845 1.873 2.073 10.655 6.717 14.825-1.223l-2.411.36z" fill="#463014"/><path d="M46.245 52.463c2.612 3.977 9.204 1.704 9.091-2.5 0 0-4.405 2.431-8.296-2.045-2.273-2.613-9.553-9.817-19.426-7.423 6.818 1.5 15.845 7.728 18.63 11.968z" fill="#463014"/><path d="M26.692 63.686c.628.363 2.845 2.658 2.846 6.092 0 1.721-.17 10.37-1.023 15.654 1.281.833 2.174 1.01 3.45 1.859.64-6.12 1.098-14.989.884-18.57-.244-4.08-2.43-6.82-4.456-7.988a85.029 85.029 0 00-1.966-1.085c-3.47-1.876-7.06-3.816-7.06-7.129 0-2.592 1.008-3.402 2.074-4.261l.115-.094c.708-.572 1.509-1.22 1.983-2.285 1.295-2.911 1.507-10.328 0-12.21-.75-.939-2.763-4.094-2.184-6.214.22-.809.73-1.409 1.56-1.833.877-.45 2.063-.678 3.523-.678 2.867 0 6.048.873 7.689 1.393 5.863 1.858 12.939 7.216 14.967 8.814.058.045.092.071.099.075l1.297.903-.811-1.358c-.05-.085-5.19-8.537-14.382-11.636-1.788-.603-5.301-1.615-8.754-1.615-2.055 0-3.8.36-5.18 1.066-1.683.861-2.823 2.235-3.297 3.972-1.16 4.257 2.62 8.997 2.748 9.148.441.787.628 6.502-.39 8.79-.14.315-.524.625-1.01 1.018-.152.123-.322.25-.503.387-1.436 1.085-3.608 2.723-3.608 6.499 0 5.166 5.236 7.967 9.444 10.22.69.37 1.35.722 1.945 1.066z" fill="#463014"/><path d="M27.448 23.97c-2.251-1.868-.573-3.601-.751-5.723-.097-1.129-.186-2.194-.558-2.782-2.072-3.27-6.958-4.263-7.007-4.273l-2.293-.45 1.518-1.775c.197-.23 6.43-6.18 16.08-3.064 6.748 2.176 11.744 9.557 11.93 9.855l-3.384 1.592c-.04-.063-3.99-7-9.78-8.868-4.68-1.51-8.994-.073-10.841.869 1.964.784 4.532 2.212 6.08 4.655.73 1.154.853 2.606.972 4.013.157 1.863.303 3.62 1.674 4.76l-3.64 1.19z" fill="#463014"/><path d="M27.375 24.352l-.145-.121c-1.669-1.385-1.373-2.75-1.086-4.07.13-.61.268-1.239.212-1.885-.091-1.087-.179-2.112-.506-2.629-1.972-3.114-6.739-4.111-6.786-4.121l-2.864-.562 1.899-2.22c.035-.042 4.038-4.082 10.817-4.082 1.848 0 3.742.307 5.625.916 7.044 2.27 12.07 9.924 12.117 10l.203.325-4.003 1.882-.16-.255c-.431-.734-4.227-6.993-9.596-8.725a13.424 13.424 0 00-4.128-.64 15.05 15.05 0 00-5.769 1.17c1.855.836 4.105 2.242 5.528 4.487.774 1.223.9 2.717 1.022 4.161.151 1.796.293 3.484 1.553 4.53l.475.394-4.407 1.445z" fill="#463014"/><path d="M36.39 20.417c-.002-.007-.91-3.977-3.429-5.982-3.553-2.826-7.89-1.322-7.933-1.31l-.63-1.945c.21-.068 5.169-1.63 9.739 1.582 4.597 3.23 5.148 6.159 5.196 6.482l-2.943 1.173z" fill="#463014"/><path d="M36.145 20.882l-.088-.39c-.01-.039-.9-3.873-3.31-5.789-1.372-1.092-3.028-1.648-4.917-1.648-1.475 0-2.571.353-2.69.394l-.326.108-.845-2.596.324-.104c.145-.047 1.461-.457 3.323-.457 2.456 0 4.778.72 6.717 2.083 4.713 3.311 5.288 6.374 5.337 6.712l.042.267-3.567 1.42zm-8.315-8.507c2.019 0 3.868.62 5.343 1.794 2.139 1.704 3.145 4.71 3.45 5.79l2.318-.925c-.21-.819-1.135-3.275-5-5.993-1.85-1.3-3.977-1.958-6.325-1.958-1.289 0-2.29.205-2.784.33l.418 1.293c.485-.13 1.418-.331 2.58-.331zm20.994 93.148c-1.007 0-2.035-.365-2.747-.982-.545-.47-2.39-2.164-3.203-4.239-.303-.776-.235-1.397.205-1.843.304-.307.934-.672 2.213-.672l.91-.002 4.47-.001h1.496c.973 0 1.67.21 2.07.62.516.53.351 1.203.207 1.557-.25.621-1.288 2.64-3.045 4.518-.628.673-1.544 1.044-2.576 1.044zm1.056-52.825l-3.636-.234s.93 1.639 1.532 3.758c.68 2.396-.622 5.9-.622 5.9s4.848-5.49 2.726-9.424zm-4.54 62.426c-12.94-.994-17.494-13.223-17.494-15.77l3.38.001-1.69-.001h1.69c.017 1.101 3.456 11.562 14.374 12.401l-.26 3.369z" fill="#463014"/><path d="M41.705 93.213c-.203-1.168-.223-2.277.023-3.366-.983-.74-2.748-1.014-4.072-1.443-1.083-.685-6.624.702-10.644-4.163-5.037-6.092-3.977-9.729-3.977-9.729-1.292 1.435-2.543.888-4.512 7.579-1.971 6.691.926 11.356 6.324 16.04 2.55 2.212 6.156 3.123 9.258 3.472-1.04-1.043 1.774-1.147 3.713-1.873-.154-1.566.105-3.086 1.272-4.31.704-.737 1.61-1.178 2.55-1.53.052-.12.096-.233.146-.35a2.98 2.98 0 01-.081-.327z" fill="#fff"/><path d="M37.792 99.69a11.81 11.81 0 01-.28-1.001c-.09-.368-.536-1.411.014-.22a4.413 4.413 0 01-.301-.936c-8.744-.011-16.35-6.014-14.88-18.634-1.145-1.52-2.748 3.064-2.748 3.064s-4.377 12.709 6.928 17.635c3.766 1.642 7.095 2.82 7.88 2.345 1.636.332 3.113-.809 3.667-1.559a8.375 8.375 0 01-.28-.694z" fill="#C9C9C9"/><path d="M41.547 91.384a7.022 7.022 0 01.747-3.125c.036-.071.077-.139.116-.208-3.365-.029-7.24-.35-10.539-1.672-3.626-1.45-8.163-6.413-8.942-12.244 0 0-6.83 5.27-4.824 16.551 1.884 10.593 10.748 14.046 20.858 14.63.005-.068-1.137-2.428-.776-3.873-5.74.417-12.16-1.8-15.258-6.9-2.837-4.666-2.042-12.634-.876-13.801 2.844 8.974 13.078 10.798 19.494 10.642z" fill="#463014"/><path d="M42.606 84.96c-1.82 5.338-5.535 9.658-5.535 9.658s5.112-.232 5.394-1.137c.209-.666 4.615-10.982 6.306-23.066-1.59 2.614-6.01 14.087-6.165 14.544z" fill="#463014"/><path d="M71.565 72.651s5.794 8.862 10.047 15.15c.657.974-4.253 1.041-4.253 1.041l-5.794-16.191zm-2.76-18.373s1.747 4.359 2.702 6.669c1.04 2.512 5 3.762 5 3.762s-2.053-2.154-2.053-7.61c0-2.288-2.954-3.198-2.954-3.198l-2.695.377z" fill="#E78724"/><path d="M70.57 56.742s3.58 4.262 10.227 1.875c6.648-2.386 7.329-10.908 7.329-13.294 0-2.386-12.612 2.386-14.317 3.409-1.705 1.023-4.943 5.112-3.239 8.01zm25.106-45.529s-6.136-1.194-10.227 2.045c-4.09 3.238-5.284 5.795-5.284 5.795l6.895 5.465s3.333-1.545 4.355-5.977c1.022-4.43.341-6.476 4.26-7.328z" fill="#E78724"/><path d="M72.36 44.436c2.641-3.75 6.993-5.386 10.47-5.657 5.928-.463 8.74 1.632 8.74 1.632s-9.706.41-12.505 4.085c-5.208 6.84-12.804 7.395-14.019 5.893 1.405.07 2.951-.626 4.604-2.19 1.033-.979 1.872-2.573 2.71-3.763zm16.386 13.258s10.768-3.702 8.723-7.45c-2.045-3.75-.419-5.794-.419-5.794s6.015 4.489 4.481 9.26c-.942 2.93-2.521 5.05-11.197 9.116-4.161 7.73-.86 21.642-1.056 21.707-.33.11-5.842-2.725-5.466-15.74.115-3.997.434-9.454 4.934-11.099zM74.633 17.883a2246.268 2246.268 0 0110.702 5.489l-2.434 1.218c.232.376.344.6.344.6l-2.499 1.137s-6.1 4.42-9.839 7.261c1.245-3.838 4.904-9.867 4.904-9.867s1.038-2.77-1.178-5.838zm-15.001 93.515c13.878 0 18.58-7.046 18.58-7.046l-2.169 5.282c-.82 2.285-9.567 9.396-16.39 9.396" fill="#E78724"/><path d="M76.692 99.59s-1.278 7.805-6.39 7.805c-4.344 0-5.625-6.593-5.625-7.955l12.015.15zm8.51-11.77c-.455-1.25-2.046-6.307-2.558-10.908-.612-5.512-.388-13.572-.388-13.572s1.364 5.284 2.556 6.137c1.194.852 3.409 6.647 3.409 6.647s1.187 8.626 1.752 11.526c-1.564.313-2.878-.608-4.772.17zM97.55 53.626s-2.898-1.024-3.75-7.33c-.852-6.306 1.023-11.76 1.023-11.76s-.17 8.692.852 10.397c1.024 1.705 1.875 2.216 3.069 4.432 1.192 2.216-.513 3.578-1.194 4.26z" fill="#E78724"/><path d="M94.09 12.705l.592-.375c1.744.059-.592.375-.592.375z" fill="#FDC168"/><path d="M72.274 16.015s2.727-.454 4.09-2.499c1.364-2.045 5.228-6.136 11.386-6.182C93.908 7.288 100 8.97 100 8.97l-5.318 3.36c-.563-.019-1.546-.011-3.174.043-6.673.222-7.7 6.823-7.7 6.823l-23.52-3.238" fill="#FBA919"/><path d="M70.002 52.476s3.182 3.182 8.068 2.159c4.886-1.023 7.84-3.182 8.068-6.932.227-3.75-1.022-5.226-1.022-5.226s-5.455 1.705-8.069 3.978c-2.613 2.273-4.544 5.908-7.045 6.021z" fill="#fff"/><path d="M73.852 51.34s2.76 1.26 5.844.234c4.039-1.347 4.308-5.546 4.308-5.546s2.475 7.269-4.47 8.668c-5.568 1.122-8.863-2.106-8.863-2.106l3.181-1.25z" fill="#C9C9C9"/><path d="M91.891 23.97c2.251-1.868.575-3.601.753-5.723.095-1.129.184-2.194.556-2.782 2.072-3.27 6.958-4.263 7.009-4.273l2.294-.45-1.519-1.775c-.197-.23-6.431-6.18-16.081-3.064-6.748 2.176-11.744 9.557-11.93 9.855l3.383 1.592c.041-.063 3.992-7 9.782-8.868 4.68-1.51 8.993-.073 10.84.869-1.963.784-4.532 2.212-6.08 4.655-.73 1.154-.852 2.606-.97 4.013-.157 1.863-.305 3.62-1.676 4.76l3.64 1.19zm6.01 27.26s-2.833-3.518-3.673-10.36c-.33-2.696.255-8.012 1.192-10.057-.17 5.028 1.11 10.057 1.11 10.057s.861 9.336 1.372 10.36z" fill="#463014"/><path d="M82.95 20.417c.001-.007.91-3.977 3.429-5.982 3.553-2.826 7.891-1.322 7.932-1.31l.631-1.945c-.21-.068-5.168-1.63-9.74 1.582-4.597 3.23-5.147 6.159-5.196 6.482l2.944 1.173zm6.047 28.29s1.487-2.13 1.219-4.472c-.132-1.157-.668-2.344-1.626-2.766-1.778-.781-2.566 1.235-2.566 1.235s2.503.617 2.973 6.003z" fill="#463014"/><path d="M72.661 51.953c-.062.116-.094.181-.094.181s4.639 3.483 9.394-.052c2.548-1.893 2.307-6.577 1.526-8.563a15.319 15.319 0 00-5.186 2.256c1.818-1.622 3.408-2.816 3.403-2.843l2.066-.585 4.014-1.376c.051.306 1.515 7.17-2.712 11.846-1.873 2.073-10.655 6.716-14.823-1.224l2.412.36z" fill="#463014"/><path d="M73.094 52.463c-2.612 3.977-9.202 1.704-9.089-2.5 0 0 4.404 2.431 8.295-2.045 2.272-2.613 9.554-9.817 19.426-7.423-6.817 1.5-15.844 7.728-18.632 11.968z" fill="#463014"/><path d="M92.65 63.686c-.63.363-2.848 2.658-2.848 6.092 0 1.721.17 10.37 1.024 15.654-1.282.833-2.175 1.01-3.451 1.859-.639-6.12-1.099-14.989-.883-18.57.243-4.08 2.428-6.82 4.454-7.988a82.17 82.17 0 011.967-1.085c3.472-1.876 7.061-3.816 7.061-7.129 0-2.592-1.008-3.402-2.075-4.261l-.114-.094c-.707-.572-1.51-1.22-1.983-2.285-1.296-2.911-1.508-10.328-.002-12.21.752-.939 2.765-4.094 2.187-6.214-.222-.809-.732-1.409-1.561-1.833-.879-.45-2.063-.678-3.524-.678-2.866 0-6.048.873-7.688 1.393-5.863 1.858-12.938 7.216-14.968 8.814-.058.045-.091.071-.098.075l-1.298.903.811-1.358c.052-.085 5.191-8.537 14.382-11.636 1.788-.603 5.3-1.615 8.754-1.615 2.055 0 3.797.36 5.18 1.066 1.684.861 2.823 2.235 3.297 3.972 1.161 4.257-2.62 8.997-2.749 9.148-.44.787-.627 6.502.39 8.79.14.315.524.625 1.011 1.018.152.123.321.25.503.387 1.436 1.085 3.607 2.723 3.607 6.499 0 5.166-5.236 7.967-9.442 10.22-.691.37-1.351.722-1.945 1.066z" fill="#463014"/><path d="M86.403 23.36c-.833-1.41-2.964-4.134-7.872-6.527-5.479-2.67-11.819-4.025-18.848-4.028v-.002h-.027c-7.03.004-13.372 1.36-18.849 4.03-4.909 2.393-7.038 5.116-7.871 6.527l-.358.473 4.204.936.133-.168.07-.154c.066-.278.63-1.778 5.316-4.064 5.01-2.444 10.854-3.683 17.367-3.685 6.515.002 12.357 1.241 17.366 3.685 4.688 2.286 5.253 3.786 5.317 4.063l.07.155.132.168 4.205-.936-.356-.472z" fill="#463014"/><path d="M91.891 23.97c2.251-1.868.575-3.601.753-5.723.095-1.129.184-2.194.556-2.782 2.072-3.27 6.958-4.263 7.009-4.273l2.294-.45-1.519-1.775c-.197-.23-6.431-6.18-16.081-3.064-6.748 2.176-11.744 9.557-11.93 9.855l3.383 1.592c.041-.063 3.992-7 9.782-8.868 4.68-1.51 8.993-.073 10.84.869-1.963.784-4.532 2.212-6.08 4.655-.73 1.154-.852 2.606-.97 4.013-.157 1.863-.305 3.62-1.676 4.76l3.64 1.19z" fill="#463014"/><path d="M87.56 22.909l.473-.395c1.26-1.045 1.402-2.734 1.554-4.53.122-1.444.248-2.939 1.022-4.16 1.422-2.245 3.674-3.65 5.528-4.487a15.068 15.068 0 00-5.77-1.171c-1.42 0-2.807.215-4.126.64-5.37 1.732-9.166 7.992-9.596 8.726l-.16.255-4.004-1.883.204-.325c.047-.076 5.07-7.728 12.115-10 1.884-.608 3.777-.915 5.627-.915 6.78 0 10.782 4.041 10.817 4.082l1.899 2.22-2.865.561c-.048.01-4.814 1.007-6.788 4.122-.327.518-.413 1.542-.505 2.629-.055.646.081 1.276.213 1.885.287 1.32.583 2.686-1.087 4.07l-.146.12-4.406-1.444z" fill="#463014"/><path d="M82.95 20.417c.001-.007.91-3.977 3.429-5.982 3.553-2.826 7.891-1.322 7.932-1.31l.631-1.945c-.21-.068-5.168-1.63-9.74 1.582-4.597 3.23-5.147 6.159-5.196 6.482l2.944 1.173z" fill="#463014"/><path d="M79.63 19.461l.04-.267c.05-.338.625-3.4 5.337-6.712 1.938-1.362 4.26-2.083 6.717-2.083 1.862 0 3.178.41 3.324.457l.323.105-.844 2.595-.326-.108c-.122-.041-1.217-.394-2.691-.394-1.89 0-3.544.555-4.917 1.649-2.41 1.916-3.3 5.75-3.31 5.788l-.088.39-3.565-1.42zm14.46-6.756l.42-1.293a11.556 11.556 0 00-2.786-.33c-2.348 0-4.476.66-6.325 1.958-3.867 2.719-4.79 5.175-5 5.993l2.32.924c.303-1.079 1.308-4.086 3.448-5.789 1.477-1.173 3.324-1.794 5.342-1.794 1.16 0 2.096.2 2.58.33zm-26.15 91.773c-1.756-1.877-2.795-3.897-3.046-4.518-.143-.353-.307-1.027.208-1.557.401-.41 1.097-.62 2.07-.62h1.497l4.47.001.91.002c1.278 0 1.908.365 2.21.672.442.446.51 1.066.206 1.843-.812 2.076-2.657 3.77-3.202 4.239-.714.617-1.74.982-2.747.982-1.032 0-1.947-.371-2.576-1.044zm1.52-51.781l3.634-.234s-.928 1.639-1.53 3.758c-.68 2.397.622 5.9.622 5.9s-4.85-5.49-2.726-9.424z" fill="#463014"/><path d="M59.67 39.716c-2.317 0-5.338-.063-7.605-1.693 0 0 2.968 5.204 7.602 5.204l.004-.658.004.658c4.634 0 7.602-5.203 7.602-5.203-2.267 1.628-5.291 1.692-7.606 1.692z" fill="#E78724"/><path d="M66.052 39.69c-2.325 1.407-4.401 1.894-6.381 1.938-1.981-.044-4.056-.531-6.381-1.938 0 0 3.385 4.13 6.364 4.163v.002l.016-.001.017.001v-.002c2.978-.032 6.365-4.163 6.365-4.163zm7.947 75.433l-.259-3.369c10.915-.84 14.355-11.301 14.372-12.402h3.38c.002 2.547-4.553 14.777-17.493 15.771z" fill="#463014"/><path d="M77.635 93.213c.203-1.168.223-2.277-.024-3.366.985-.74 2.748-1.014 4.072-1.443 1.083-.685 6.626.702 10.646-4.163 5.037-6.092 3.976-9.729 3.976-9.729 1.292 1.435 2.543.888 4.512 7.579 1.972 6.691-.926 11.356-6.325 16.04-2.55 2.212-6.156 3.123-9.257 3.472 1.039-1.043-1.775-1.147-3.713-1.873.155-1.566-.105-3.086-1.272-4.31-.703-.737-1.61-1.178-2.549-1.53-.052-.12-.098-.233-.146-.35.03-.106.06-.214.08-.327z" fill="#fff"/><path d="M81.547 99.69c.113-.329.196-.664.28-1.001.09-.368.537-1.411-.014-.22.142-.305.234-.62.302-.936 8.743-.011 16.35-6.014 14.878-18.634 1.145-1.52 2.749 3.064 2.749 3.064s4.377 12.709-6.927 17.635c-3.767 1.642-7.095 2.82-7.88 2.345-1.638.332-3.115-.809-3.667-1.559.103-.23.2-.46.279-.694z" fill="#C9C9C9"/><path d="M77.792 91.384a7.022 7.022 0 00-.745-3.125c-.037-.071-.078-.139-.116-.208 3.364-.029 7.239-.35 10.538-1.672 3.627-1.45 8.163-6.413 8.943-12.244 0 0 6.83 5.27 4.823 16.551-1.885 10.593-10.748 14.046-20.857 14.63-.006-.068 1.137-2.428.776-3.873 5.738.417 12.158-1.8 15.258-6.9 2.835-4.666 2.04-12.634.874-13.801-2.843 8.974-13.078 10.798-19.494 10.642z" fill="#463014"/><path d="M81.873 94.04c-1.208-1.305-3.428-2.861-8.548-2.861l-13.638-.009h-.033l-13.64.009c-5.119 0-7.34 1.556-8.548 2.862-1.76 1.9-2.036 4.543-.819 7.847 3.236 8.795 7.784 17.73 23.006 17.742v.002l.017-.002.016.002v-.002c15.221-.013 19.768-8.947 23.005-17.742 1.218-3.304.941-5.947-.818-7.847zm-2.37 7.232c-1.541 4.416-5.685 15.105-19.834 15.124-14.15-.019-18.292-10.708-19.834-15.124-.853-2.45-.788-4.264.2-5.39.674-.77 2.224-1.689 5.756-1.689l3.69-.001c2.722-.003 6.14-.006 10.189-.007 4.046.001 7.466.004 10.188.007l3.688.001c3.533 0 5.083.919 5.758 1.689.987 1.127 1.052 2.94.199 5.39z" fill="#463014"/><path d="M76.733 84.96c1.819 5.338 5.535 9.658 5.535 9.658s-5.112-.232-5.394-1.137c-.208-.666-4.614-10.982-6.306-23.066 1.59 2.614 6.009 14.087 6.165 14.544z" fill="#463014"/></g><defs><clipPath id="clip0_2648_2425"><path fill="#fff" transform="translate(15)" d="M0 0h89.28v120H0z"/></clipPath></defs></svg>