<svg width="120" height="120" fill="none" xmlns="http://www.w3.org/2000/svg"><g clip-path="url(#clip0_2648_2425)"><path fill-rule="evenodd" clip-rule="evenodd" d="M24.924 12c-6.847 0-11.913 6.055-11.686 12.622.217 6.309-.066 14.48-2.101 21.143C9.095 52.448 5.64 56.68 0 57.225v6.136c5.641.543 9.095 4.777 11.137 11.46 2.035 6.663 2.318 14.834 2.1 21.142-.226 6.566 4.84 12.622 11.688 12.622h70.16c6.847 0 11.912-6.055 11.686-12.621-.218-6.31.065-14.48 2.101-21.143 2.043-6.683 5.487-10.917 11.128-11.46v-6.136c-5.641-.544-9.085-4.777-11.128-11.46-2.036-6.663-2.319-14.834-2.101-21.143C106.997 18.056 101.932 12 95.085 12H24.923h.001zm56.432 59.454c0 9.043-6.675 14.526-17.753 14.526H44.746c-.54 0-1.057-.216-1.438-.602a2.066 2.066 0 01-.596-1.453V36.66c0-.545.214-1.068.596-1.453a2.023 2.023 0 011.438-.602h18.75c9.236 0 15.298 5.055 15.298 12.817 0 5.448-4.078 10.326-9.273 11.18v.284c7.073.784 11.835 5.732 11.835 12.568zM61.546 41.12h-10.75v15.344h9.055c7.001 0 10.861-2.848 10.861-7.94 0-4.77-3.319-7.404-9.164-7.404zm-10.75 21.433v16.91h11.147c7.289 0 11.15-2.954 11.15-8.508 0-5.555-3.969-8.403-11.618-8.403h-10.68v.001z" fill="#822AF6"/></g><defs><clipPath id="clip0_2648_2425"><path fill="#fff" transform="translate(0 12)" d="M0 0h120v96.585H0z"/></clipPath></defs></svg>