<svg width="120" height="120" fill="none" xmlns="http://www.w3.org/2000/svg"><g clip-path="url(#clip0_2648_2425)"><path d="M98.75 119h-77.5C9.5 119 0 109.501 0 97.75v-74.5C0 11.5 9.5 2 21.25 2h77.5C110.501 2 120 11.5 120 23.25v74.5c0 11.751-9.499 21.25-21.25 21.25z" fill="#FF26BE"/><path d="M96.85 113.998h-73.7c-9.998 0-18.148-8.15-18.148-18.148v-70.7c0-9.998 8.15-18.149 18.149-18.149h73.651c10.051 0 18.149 8.15 18.149 18.15V95.8c.048 10.047-8.103 18.197-18.101 18.197z" fill="#2E001F"/><path d="M47.448 56.749l14.002 26.9c.25.398.1.8-.303.8h-8.702c-.552 0-.801-.148-1.051-.647-3.202-6.6-6.451-13.2-9.802-20.3h-.1c-3 6.701-6.303 13.753-9.5 20.353-.25.398-.499.552-.902.552h-8.242c-.499 0-.552-.399-.297-.701L36.25 57.603l-13.248-26.4c-.302-.398 0-.7.297-.7h8.602c.5 0 .7.1.898.552 3.148 6.6 6.35 13.401 9.35 20.05h.1c2.9-6.6 6.102-13.45 9.203-20.002.25-.399.398-.648.902-.648h8.05c.398 0 .551.302.302.7L47.448 56.75zm16.455 8.15c0-11.65 7.752-20.75 20.05-20.75 1.05 0 1.598 0 2.6.1V31.003a.5.5 0 01.5-.5h7.9c.4 0 .5.15.5.399v45.902c0 1.35 0 3.048.25 4.901 0 .303-.101.399-.399.552a29.766 29.766 0 01-12.801 2.9c-10.853.043-18.605-6.653-18.6-20.257zm22.646-12.796c-.7-.303-1.7-.5-2.9-.5-6.302 0-10.698 4.848-10.698 12.903 0 9.201 4.502 12.902 10.152 12.902 1.2 0 2.5-.149 3.45-.552V52.103h-.004z" fill="#FFD9F2"/></g><defs><clipPath id="clip0_2648_2425"><path fill="#fff" transform="translate(0 2)" d="M0 0h120v117H0z"/></clipPath></defs></svg>