<svg width="120" height="120" fill="none" xmlns="http://www.w3.org/2000/svg"><g clip-path="url(#clip0_2648_2425)" fill="#8CC84B"><path d="M55.576 1.524c2.963-1.696 6.822-1.704 9.782 0 14.891 8.414 29.787 16.816 44.676 25.235 2.801 1.578 4.674 4.694 4.645 7.92v50.626c.021 3.36-2.037 6.551-4.992 8.093-14.842 8.368-29.677 16.746-44.517 25.114-3.024 1.729-6.96 1.596-9.89-.275-4.45-2.579-8.907-5.146-13.357-7.723-.91-.542-1.934-.974-2.576-1.855.567-.766 1.582-.861 2.407-1.195 1.857-.591 3.563-1.539 5.27-2.459.431-.295.958-.182 1.371.083 3.806 2.181 7.577 4.426 11.395 6.587.814.47 1.64-.154 2.335-.542 14.565-8.232 29.148-16.433 43.711-24.667.539-.26.838-.832.794-1.424.01-16.7.003-33.403.005-50.102a1.564 1.564 0 00-.933-1.562c-14.79-8.33-29.574-16.673-44.363-25.005a1.54 1.54 0 00-1.742-.002C44.81 16.705 30.027 25.056 15.24 33.385c-.604.275-1.01.881-.938 1.555.003 16.7 0 33.402 0 50.105a1.417 1.417 0 00.805 1.406c3.946 2.237 7.898 4.46 11.847 6.69 2.224 1.197 4.956 1.909 7.407.991 2.163-.776 3.679-2.983 3.638-5.28.02-16.602-.01-33.207.015-49.807-.054-.737.645-1.346 1.362-1.277 1.896-.012 3.794-.025 5.69.005.792-.017 1.337.776 1.239 1.519-.008 16.707.02 33.415-.013 50.123.005 4.453-1.824 9.298-5.943 11.477-5.074 2.628-11.345 2.071-16.358-.45-4.34-2.165-8.48-4.722-12.743-7.042-2.963-1.533-5.01-4.737-4.99-8.095V34.68c-.03-3.294 1.917-6.467 4.805-8.021C25.903 18.284 40.74 9.902 55.577 1.524z"/><path d="M68.523 36.592c6.472-.417 13.401-.247 19.225 2.941 4.51 2.444 7.01 7.572 7.09 12.582-.127.675-.833 1.048-1.478 1.002-1.878-.003-3.756.025-5.634-.013-.797.03-1.26-.704-1.36-1.408-.54-2.397-1.847-4.771-4.103-5.927-3.463-1.734-7.479-1.647-11.256-1.61-2.757.146-5.721.384-8.057 2.006-1.793 1.228-2.338 3.707-1.698 5.703.603 1.434 2.258 1.897 3.612 2.323 7.8 2.04 16.066 1.837 23.717 4.522 3.168 1.094 6.266 3.222 7.35 6.538 1.419 4.445.797 9.759-2.365 13.327-2.565 2.937-6.3 4.535-10.026 5.403-4.956 1.105-10.1 1.133-15.133.643-4.732-.54-9.657-1.783-13.311-5.008-3.124-2.713-4.65-6.94-4.499-11.019.036-.689.722-1.17 1.382-1.113 1.891-.015 3.782-.02 5.674.003.755-.054 1.315.599 1.354 1.31.349 2.284 1.207 4.681 3.198 6.035 3.844 2.48 8.666 2.31 13.067 2.38 3.646-.162 7.739-.211 10.714-2.621 1.57-1.374 2.035-3.674 1.61-5.652-.459-1.67-2.206-2.449-3.706-2.958-7.7-2.435-16.058-1.552-23.684-4.306-3.096-1.094-6.09-3.163-7.279-6.343-1.66-4.502-.899-10.07 2.595-13.517 3.407-3.43 8.325-4.75 13-5.224z"/></g><defs><clipPath id="clip0_2648_2425"><path fill="#fff" transform="translate(6)" d="M0 0h108.96v120H0z"/></clipPath></defs></svg>