<svg width="120" height="120" fill="none" xmlns="http://www.w3.org/2000/svg"><g clip-path="url(#clip0_2648_2425)"><path d="M39.863 120.001c10.96 0 19.855-8.96 19.855-20.001V80H39.863c-10.96 0-19.855 8.96-19.855 20 0 11.041 8.895 20.001 19.855 20.001z" fill="#24CE85"/><path d="M20.008 60c0-11.04 8.895-20 19.855-20h19.855v40H39.863c-10.96 0-19.855-8.96-19.855-20z" fill="#A160FB"/><path d="M20.012 20c0-11.04 8.895-20 19.855-20h19.855v40H39.867c-10.96 0-19.855-8.96-19.855-20z" fill="#EF4F2B"/><path d="M59.718 0h19.855c10.96 0 19.855 8.96 19.855 20s-8.895 20-19.855 20H59.718V0z" fill="#FD7366"/><path d="M99.428 60c0 11.04-8.895 20-19.855 20s-19.855-8.96-19.855-20 8.895-20 19.855-20 19.855 8.96 19.855 20z" fill="#2CBDFB"/></g><defs><clipPath id="clip0_2648_2425"><path fill="#fff" transform="translate(20)" d="M0 0h79.437v120H0z"/></clipPath></defs></svg>