<svg width="120" height="120" fill="none" xmlns="http://www.w3.org/2000/svg"><g clip-path="url(#clip0_2648_2425)"><g clip-path="url(#clip1_2648_2425)"><path d="M109.122 0H10.878C4.87 0 0 4.87 0 10.878v98.244C0 115.13 4.87 120 10.878 120h98.244c6.008 0 10.878-4.87 10.878-10.878V10.878C120 4.87 115.13 0 109.122 0z" fill="#DC395F"/><path d="M40.104 37.756c3.989 0 7.33-3.127 7.33-7.225 0-4.095-3.341-7.22-7.33-7.22-3.99 0-7.33 3.125-7.33 7.22 0 4.098 3.34 7.225 7.33 7.225zm-15.2 38.68c-.43 1.834-.647 3.813-.647 5.427 0 6.362 3.45 10.585 10.78 10.585 6.08 0 11.01-3.61 14.558-9.44l-2.167 8.696H59.5l6.9-27.674c1.725-7.007 5.066-10.644 10.133-10.644 3.99 0 6.468 2.48 6.468 6.575 0 1.187-.108 2.479-.539 3.881l-3.558 12.72a19.122 19.122 0 00-.753 5.39c0 6.04 3.556 10.457 10.995 10.457 6.36 0 11.426-4.095 14.23-13.905l-4.743-1.831c-2.372 6.572-4.42 7.76-6.038 7.76-1.617 0-2.48-1.077-2.48-3.232 0-.97.217-2.047.54-3.343l3.45-12.393c.862-2.91 1.186-5.49 1.186-7.862 0-9.27-5.606-14.109-12.398-14.109-6.36 0-12.828 5.737-16.062 11.775l2.371-10.837H50.77l-2.587 9.545h8.624l-5.31 21.263c-4.171 9.27-11.832 9.421-12.793 9.206-1.58-.356-2.589-.956-2.589-3.007 0-1.184.216-2.884.755-4.934l8.086-32.073H24.473l-2.587 9.545H30.4l-5.497 22.46" fill="#fff"/></g></g><defs><clipPath id="clip0_2648_2425"><path fill="#fff" d="M0 0h120v120H0z"/></clipPath><clipPath id="clip1_2648_2425"><path fill="#fff" d="M0 0h120v120H0z"/></clipPath></defs></svg>