<svg width="120" height="120" fill="none" xmlns="http://www.w3.org/2000/svg"><g clip-path="url(#clip0_2648_2425)"><g clip-path="url(#clip1_2648_2425)"><path d="M0 0h120v120H0V0z" fill="#F7DF1E"/><path d="M31.552 100.281l9.183-5.558c1.772 3.141 3.383 5.799 7.25 5.799 3.705 0 6.041-1.45 6.041-7.087V55.092h11.277v38.502c0 11.68-6.846 16.996-16.835 16.996-9.022 0-14.258-4.672-16.916-10.31v.001zm39.876-1.209l9.182-5.316c2.418 3.948 5.56 6.847 11.117 6.847 4.673 0 7.652-2.336 7.652-5.558 0-3.867-3.061-5.236-8.216-7.49l-2.819-1.21c-8.136-3.463-13.533-7.813-13.533-16.996 0-8.458 6.444-14.902 16.513-14.902 7.17 0 12.325 2.497 16.03 9.022l-8.78 5.639c-1.934-3.464-4.028-4.833-7.25-4.833-3.303 0-5.397 2.094-5.397 4.833 0 3.383 2.094 4.753 6.927 6.847l2.819 1.208c9.586 4.109 14.983 8.297 14.983 17.721 0 10.15-7.975 15.708-18.688 15.708-10.471 0-17.238-4.994-20.54-11.52" fill="#000"/></g></g><defs><clipPath id="clip0_2648_2425"><path fill="#fff" d="M0 0h120v120H0z"/></clipPath><clipPath id="clip1_2648_2425"><path fill="#fff" d="M0 0h120v120H0z"/></clipPath></defs></svg>