<svg width="120" height="120" fill="none" xmlns="http://www.w3.org/2000/svg"><g clip-path="url(#clip0_2648_2425)"><g clip-path="url(#clip1_2648_2425)"><path d="M59.487.034c-30.388 0-28.49 13.177-28.49 13.177l.034 13.653h28.997v4.099H19.513S.068 28.757.068 59.418c0 30.661 16.972 29.574 16.972 29.574h10.13V74.764s-.546-16.972 16.7-16.972h28.76s16.16.26 16.16-15.617V15.922S91.242.034 59.486.034zm-15.99 9.18a5.212 5.212 0 015.217 5.217 5.212 5.212 0 01-5.217 5.217 5.213 5.213 0 01-4.82-7.214 5.211 5.211 0 014.82-3.22z" fill="url(#paint0_linear_2648_2425)"/><path d="M60.349 119.11c30.387 0 28.49-13.178 28.49-13.178l-.034-13.651H59.807v-4.1h40.515s19.445 2.206 19.445-28.455c0-30.661-16.972-29.574-16.972-29.574H92.666V44.38s.546 16.972-16.7 16.972H47.204s-16.16-.261-16.16 15.617v26.253s-2.453 15.888 29.303 15.888zm15.99-9.18a5.204 5.204 0 01-3.69-1.526 5.214 5.214 0 01-1.527-3.691 5.21 5.21 0 015.216-5.217 5.211 5.211 0 015.217 5.217 5.211 5.211 0 01-5.217 5.217z" fill="url(#paint1_linear_2648_2425)"/></g></g><defs><linearGradient id="paint0_linear_2648_2425" x1="11.571" y1="10.744" x2="70.891" y2="69.471" gradientUnits="userSpaceOnUse"><stop stop-color="#387EB8"/><stop offset="1" stop-color="#366994"/></linearGradient><linearGradient id="paint1_linear_2648_2425" x1="47.981" y1="48.455" x2="111.683" y2="108.675" gradientUnits="userSpaceOnUse"><stop stop-color="#FFE052"/><stop offset="1" stop-color="#FFC331"/></linearGradient><clipPath id="clip0_2648_2425"><path fill="#fff" d="M0 0h120v120H0z"/></clipPath><clipPath id="clip1_2648_2425"><path fill="#fff" d="M0 0h120v119.52H0z"/></clipPath></defs></svg>