<svg width="186" height="149" fill="none" xmlns="http://www.w3.org/2000/svg"><g filter="url(#filter0_dd_5712_19320)"><rect x="24" y="12.152" width="138.859" height="102.034" rx="6.137" fill="#fff"/></g><path d="M46.248 32.125l-2.053-7.272h1.417l1.31 5.344h.068l1.4-5.344h1.288l1.403 5.348h.064l1.31-5.348h1.417l-2.052 7.272h-1.3l-1.456-5.103h-.057l-1.46 5.103h-1.3zm10.339.107c-.547 0-1.02-.114-1.417-.34-.395-.23-.7-.555-.913-.974-.213-.421-.32-.917-.32-1.488 0-.561.107-1.053.32-1.477.216-.426.517-.758.902-.994.386-.24.84-.36 1.36-.36.337 0 .654.055.952.164.3.107.566.272.796.497.232.225.414.512.547.86.132.345.198.757.198 1.235v.395h-4.47v-.867h3.238a1.382 1.382 0 00-.16-.657 1.163 1.163 0 00-.436-.458 1.228 1.228 0 00-.647-.167c-.262 0-.493.064-.692.192a1.322 1.322 0 00-.465.497 1.431 1.431 0 00-.167.671v.757c0 .317.058.59.174.817.116.224.278.397.486.518.209.118.452.177.732.177.187 0 .356-.026.508-.078.151-.054.282-.133.394-.238a.99.99 0 00.252-.387l1.2.135c-.076.318-.22.595-.433.831-.21.235-.48.417-.81.547a3.096 3.096 0 01-1.129.192zm5.928 0c-.547 0-1.02-.114-1.417-.34a2.31 2.31 0 01-.913-.974c-.213-.421-.32-.917-.32-1.488 0-.561.107-1.053.32-1.477.216-.426.516-.758.902-.994.386-.24.84-.36 1.36-.36.336 0 .654.055.952.164.3.107.566.272.795.497.232.225.415.512.547.86.133.345.2.757.2 1.235v.395h-4.472v-.867h3.239a1.381 1.381 0 00-.16-.657 1.161 1.161 0 00-.437-.458 1.227 1.227 0 00-.646-.167c-.263 0-.494.064-.693.192a1.321 1.321 0 00-.465.497 1.43 1.43 0 00-.167.671v.757c0 .317.058.59.175.817.116.224.278.397.486.518.208.118.452.177.731.177.188 0 .357-.026.508-.078.152-.054.283-.133.395-.238a.99.99 0 00.252-.387l1.2.135c-.076.318-.22.595-.433.831a2.1 2.1 0 01-.81.547c-.33.128-.706.192-1.13.192zm4.685-1.818l-.004-1.552h.206l1.96-2.191h1.502l-2.41 2.684h-.267l-.987 1.059zm-1.172 1.711v-7.272h1.285v7.272h-1.285zm3.423 0l-1.776-2.482.867-.905 2.447 3.387H69.45zm3.556-7.272v7.272H71.72v-7.272h1.286zm2.12 9.318a2.603 2.603 0 01-.838-.135l.299-1.002c.187.055.354.081.5.079a.614.614 0 00.388-.139c.113-.087.209-.234.287-.44l.11-.295-1.978-5.568h1.364l1.257 4.12h.057l1.26-4.12h1.368l-2.184 6.115a2.45 2.45 0 01-.405.742 1.645 1.645 0 01-.618.476c-.242.111-.53.167-.867.167zm11.453-7.319a.97.97 0 00-.42-.724c-.243-.173-.56-.26-.95-.26a1.81 1.81 0 00-.707.125 1.046 1.046 0 00-.451.337.82.82 0 00-.057.88.942.942 0 00.287.285c.121.075.255.14.402.191.146.053.294.096.444.132l.681.17c.275.064.539.15.792.26.256.108.484.246.686.412.203.165.364.365.482.6.119.234.178.509.178.823 0 .427-.109.802-.327 1.126-.217.322-.532.574-.944.757-.41.18-.906.27-1.488.27-.566 0-1.057-.088-1.474-.263a2.195 2.195 0 01-.973-.767c-.232-.337-.357-.746-.376-1.229h1.296c.019.253.097.464.234.632.138.168.316.294.537.376.222.083.47.125.745.125.287 0 .538-.043.753-.128a1.22 1.22 0 00.511-.362.875.875 0 00.189-.547.695.695 0 00-.167-.469 1.223 1.223 0 00-.458-.312 4.418 4.418 0 00-.682-.228l-.828-.213c-.599-.154-1.072-.387-1.42-.7-.346-.314-.519-.732-.519-1.253 0-.428.117-.804.349-1.126a2.3 2.3 0 01.955-.749c.402-.18.858-.27 1.367-.27.516 0 .968.09 1.356.27.391.178.698.425.92.742.223.315.338.677.345 1.087H86.58zm2.485 7.319v-7.5h1.264v.902h.075c.066-.133.16-.274.28-.423.12-.151.284-.28.49-.387.206-.109.469-.163.788-.163.422 0 .802.108 1.14.323.341.213.611.53.81.948.201.417.302.928.302 1.534 0 .6-.098 1.108-.295 1.527-.196.42-.464.739-.802.96-.339.22-.722.33-1.15.33-.313 0-.573-.053-.779-.157a1.583 1.583 0 01-.497-.376 2.435 2.435 0 01-.287-.423h-.054v2.905h-1.285zm1.26-4.773c0 .353.05.662.15.927.101.265.247.472.436.621.192.147.424.22.696.22.284 0 .522-.075.714-.227a1.4 1.4 0 00.433-.628c.1-.268.15-.572.15-.913 0-.338-.049-.64-.146-.902a1.355 1.355 0 00-.433-.618 1.136 1.136 0 00-.718-.224 1.13 1.13 0 00-.7.217 1.332 1.332 0 00-.436.607 2.63 2.63 0 00-.145.92zm7.405 2.834c-.547 0-1.02-.114-1.417-.34a2.31 2.31 0 01-.913-.974c-.213-.421-.32-.917-.32-1.488 0-.561.107-1.053.32-1.477.215-.426.516-.758.902-.994.386-.24.84-.36 1.36-.36.336 0 .653.055.952.164.3.107.566.272.795.497.232.225.415.512.547.86.133.345.199.757.199 1.235v.395h-4.47v-.867h3.238a1.384 1.384 0 00-.16-.657 1.163 1.163 0 00-.437-.458 1.228 1.228 0 00-.646-.167c-.263 0-.494.064-.693.192a1.321 1.321 0 00-.465.497 1.431 1.431 0 00-.167.671v.757c0 .317.058.59.174.817.116.224.279.397.487.518.208.118.452.177.731.177.187 0 .357-.026.508-.078.152-.054.283-.133.394-.238a.992.992 0 00.252-.387l1.201.135c-.076.318-.22.595-.434.831-.21.235-.48.417-.81.547a3.103 3.103 0 01-1.128.192zm4.798-3.303v3.196h-1.285v-5.454h1.228v.927h.064c.126-.306.326-.548.6-.728.277-.18.619-.27 1.027-.27.376 0 .704.08.983.241.282.161.5.394.654.7.156.305.233.676.23 1.111v3.473h-1.285v-3.274c0-.364-.095-.65-.284-.855-.187-.206-.446-.31-.778-.31-.225 0-.425.05-.6.15a1.03 1.03 0 00-.408.422 1.428 1.428 0 00-.146.671zm7.532-2.258v.994h-3.136v-.994h3.136zm-2.361-1.307h1.285v5.12c0 .174.026.306.078.398.055.09.126.152.213.185a.82.82 0 00.291.05c.081 0 .154-.006.221-.018a1.85 1.85 0 00.156-.032l.216 1.005a2.423 2.423 0 01-.756.128c-.322.01-.612-.04-.87-.146a1.35 1.35 0 01-.614-.504c-.149-.227-.223-.511-.22-.852v-5.334zm5.973 6.761v-7.272h1.318v3.078h3.37v-3.078h1.321v7.272h-1.321v-3.09h-3.37v3.09h-1.318zm9.764.107c-.532 0-.994-.117-1.385-.352a2.395 2.395 0 01-.909-.983c-.213-.422-.319-.914-.319-1.477 0-.564.106-1.058.319-1.481a2.39 2.39 0 01.909-.988c.391-.234.853-.351 1.385-.351.533 0 .995.117 1.385.351.391.235.693.564.906.988.215.423.323.917.323 1.48 0 .564-.108 1.056-.323 1.478a2.36 2.36 0 01-.906.983c-.39.235-.852.352-1.385.352zm.007-1.03c.289 0 .531-.08.725-.238a1.43 1.43 0 00.433-.646c.097-.27.146-.57.146-.902 0-.334-.049-.636-.146-.906a1.436 1.436 0 00-.433-.65 1.098 1.098 0 00-.725-.241c-.296 0-.542.08-.738.241-.194.162-.34.378-.437.65-.095.27-.142.572-.142.906 0 .331.047.632.142.902.097.27.243.485.437.646.196.159.442.238.738.238zm7.175-1.37V26.67h1.285v5.454h-1.246v-.969h-.057a1.644 1.644 0 01-.607.75c-.28.193-.624.29-1.034.29-.357 0-.673-.079-.948-.237a1.656 1.656 0 01-.639-.7c-.154-.308-.231-.68-.231-1.115V26.67h1.285v3.274c0 .346.095.62.285.824.189.204.438.305.745.305.19 0 .373-.046.551-.138.177-.093.323-.23.437-.412.116-.185.174-.416.174-.693zm2.607 2.293v-5.454h1.246v.909h.057c.1-.315.27-.558.512-.728.243-.173.522-.26.834-.26.071 0 .15.004.238.011.09.005.165.013.224.025v1.183a1.367 1.367 0 00-.259-.05 2.39 2.39 0 00-.338-.025c-.234 0-.445.051-.632.153-.185.1-.33.238-.437.415a1.18 1.18 0 00-.16.615v3.206h-1.285zm8.276-4.012l-1.172.128a.936.936 0 00-.174-.334.857.857 0 00-.327-.253 1.188 1.188 0 00-.504-.095c-.267 0-.492.058-.675.174-.18.116-.268.266-.266.45a.474.474 0 00.174.388c.121.1.32.18.597.245l.93.199c.516.11.9.287 1.151.529.253.241.381.557.383.948a1.48 1.48 0 01-.302.909 1.93 1.93 0 01-.82.61 3.1 3.1 0 01-1.207.221c-.668 0-1.205-.14-1.613-.42a1.685 1.685 0 01-.728-1.175l1.254-.12a.882.882 0 00.362.557c.185.126.425.188.721.188.305 0 .55-.062.735-.188.187-.125.281-.28.281-.465a.485.485 0 00-.182-.387c-.118-.102-.303-.18-.553-.234l-.931-.196c-.523-.109-.91-.292-1.161-.55-.251-.26-.375-.59-.373-.987a1.404 1.404 0 01.273-.874c.187-.248.447-.44.778-.575a3.017 3.017 0 011.154-.206c.639 0 1.143.136 1.51.408.369.273.597.64.685 1.105z" fill="#5C5776"/><path d="M63.381 45.793c-.47 0-.89-.08-1.255-.242a2.099 2.099 0 01-.863-.673 1.745 1.745 0 01-.337-.997h1.23c.01.18.07.339.179.474.109.133.254.236.435.31.18.075.383.112.608.112.24 0 .452-.042.637-.125.186-.085.33-.202.435-.353a.87.87 0 00.154-.52.904.904 0 00-.157-.536 1.05 1.05 0 00-.464-.363 1.82 1.82 0 00-.726-.13h-.592v-.935h.592c.233 0 .437-.04.611-.121a.988.988 0 00.416-.34.88.88 0 00.147-.514.892.892 0 00-.128-.493.861.861 0 00-.363-.33 1.193 1.193 0 00-.546-.118 1.44 1.44 0 00-.569.111c-.174.074-.315.18-.421.317a.803.803 0 00-.17.484h-1.167a1.7 1.7 0 01.323-.987c.21-.286.488-.508.837-.667a2.77 2.77 0 011.174-.242c.447 0 .834.084 1.164.252.33.165.587.389.768.67.18.281.271.591.271.931.002.378-.109.694-.333.949a1.566 1.566 0 01-.876.5v.052c.47.066.831.24 1.082.523.253.281.378.631.376 1.05 0 .375-.107.71-.32 1.007a2.123 2.123 0 01-.877.693 3.06 3.06 0 01-1.275.251zm5.921 0c-.435 0-.826-.081-1.17-.245a2.086 2.086 0 01-.82-.68 1.8 1.8 0 01-.32-.987h1.176c.022.274.14.499.356.673.216.172.476.259.778.259.238 0 .45-.055.635-.164.185-.109.331-.26.438-.454a1.33 1.33 0 00.157-.664 1.34 1.34 0 00-.16-.673 1.199 1.199 0 00-.448-.461 1.25 1.25 0 00-.654-.17c-.2-.003-.398.035-.592.11a1.21 1.21 0 00-.46.301l-1.096-.18.35-3.452h3.884v1.014h-2.88l-.194 1.775h.04c.124-.146.3-.267.526-.363a1.86 1.86 0 01.746-.147c.405 0 .767.096 1.085.288.318.19.569.45.752.784.183.334.274.715.274 1.145 0 .442-.102.837-.307 1.183a2.174 2.174 0 01-.847.814c-.36.196-.776.294-1.249.294zm6.979-3.033v2.942h-1.184v-6.696h1.157v2.527h.06c.117-.283.299-.506.545-.67.249-.165.565-.248.948-.248.35 0 .653.073.912.219.26.146.46.36.602.64.144.282.216.625.216 1.03v3.198h-1.184v-3.014c0-.338-.087-.6-.261-.788-.172-.19-.414-.285-.726-.285-.21 0-.397.046-.562.138a.96.96 0 00-.386.389c-.092.17-.137.376-.137.617zm4.462 2.942V40.68h1.148v.837h.052a1.253 1.253 0 011.239-.909 3.035 3.035 0 01.425.033v1.089a1.25 1.25 0 00-.239-.046 2.204 2.204 0 00-.31-.023c-.216 0-.41.047-.582.14-.17.092-.304.22-.402.383a1.078 1.078 0 00-.147.566v2.952h-1.184zm7.619-3.694l-1.079.117a.866.866 0 00-.16-.307.796.796 0 00-.3-.232 1.096 1.096 0 00-.465-.088c-.246 0-.453.053-.621.16-.166.107-.247.245-.245.415a.434.434 0 00.16.356c.111.092.294.167.55.226l.856.183c.475.102.828.265 1.059.487.233.222.35.513.353.873a1.366 1.366 0 01-.278.837c-.18.24-.433.427-.755.562a2.856 2.856 0 01-1.112.203c-.614 0-1.109-.129-1.484-.386a1.55 1.55 0 01-.67-1.082l1.154-.111a.813.813 0 00.333.513c.17.116.392.173.664.173.281 0 .507-.057.677-.173.172-.115.258-.258.258-.428a.446.446 0 00-.167-.356c-.109-.094-.279-.166-.51-.216l-.856-.18c-.482-.1-.838-.27-1.07-.507-.23-.24-.345-.542-.343-.909-.002-.31.082-.577.252-.804.172-.229.411-.405.716-.53.308-.126.662-.19 1.063-.19.588 0 1.051.126 1.39.377.34.25.55.59.63 1.017zm3.233 2.451v-.964l2.841-4.489h.804v1.373h-.49l-1.912 3.031v.052h3.965v.997h-5.208zm3.194 1.243v-1.537l.013-.431v-4.728h1.145v6.696h-1.158zm5.533.127c-.538 0-1-.136-1.386-.408-.383-.275-.679-.67-.886-1.187-.204-.519-.307-1.143-.307-1.873.002-.73.106-1.352.31-1.864.208-.514.503-.907.887-1.177.385-.27.846-.405 1.382-.405.537 0 .998.135 1.383.405.386.27.681.663.886 1.177.207.515.311 1.136.311 1.864 0 .732-.104 1.358-.311 1.876-.205.517-.5.911-.886 1.184-.383.272-.844.408-1.383.408zm0-1.023c.419 0 .749-.206.991-.618.244-.414.366-1.023.366-1.827 0-.532-.055-.979-.167-1.34-.111-.363-.268-.635-.47-.818a1.033 1.033 0 00-.72-.278c-.416 0-.745.207-.987.621-.242.412-.364 1.017-.366 1.815-.002.534.051.983.16 1.347.111.364.268.638.471.823.203.184.443.275.722.275zm5.963.896V40.68h1.131v.853h.059c.104-.287.278-.512.519-.673.242-.163.531-.245.867-.245.34 0 .626.083.86.248.235.164.401.387.497.67h.052a1.37 1.37 0 01.562-.666c.266-.168.581-.252.945-.252.462 0 .839.146 1.131.438.292.292.438.718.438 1.278v3.37h-1.187v-3.187c0-.311-.082-.54-.248-.683a.887.887 0 00-.608-.219c-.286 0-.509.09-.67.268-.159.177-.239.406-.239.69v3.132h-1.16v-3.237c0-.26-.079-.466-.236-.62a.822.822 0 00-.608-.233.856.856 0 00-.464.13.911.911 0 00-.334.364 1.143 1.143 0 00-.124.542v3.054h-1.183zm8.262 0V40.68h1.183v5.022h-1.183zm.595-5.734a.69.69 0 01-.484-.187.601.601 0 01-.203-.454c0-.179.068-.33.203-.455a.683.683 0 01.484-.19.68.68 0 01.484.19.594.594 0 01.202.455.6.6 0 01-.202.454.684.684 0 01-.484.187zm2.989 2.791v2.943h-1.184V40.68h1.131v.853h.059c.116-.28.3-.504.553-.67.255-.165.57-.248.945-.248.346 0 .648.074.905.222.259.148.46.363.602.644.143.281.214.622.212 1.023v3.198h-1.183v-3.014c0-.336-.088-.599-.262-.788-.172-.19-.411-.285-.716-.285-.207 0-.391.046-.552.138a.949.949 0 00-.376.389c-.09.17-.134.376-.134.617zm8.395-.751l-1.079.117a.862.862 0 00-.16-.307.792.792 0 00-.301-.232 1.094 1.094 0 00-.464-.088c-.246 0-.453.053-.621.16-.166.107-.248.245-.245.415a.432.432 0 00.16.356c.111.092.294.167.549.226l.857.183c.475.102.828.265 1.059.487.233.222.351.513.353.873a1.365 1.365 0 01-.278.837c-.181.24-.433.427-.755.562a2.859 2.859 0 01-1.112.203c-.614 0-1.109-.129-1.484-.386a1.55 1.55 0 01-.67-1.082l1.154-.111a.811.811 0 00.333.513c.17.116.392.173.664.173.281 0 .507-.057.677-.173.172-.115.258-.258.258-.428a.447.447 0 00-.167-.356c-.109-.094-.279-.166-.51-.216l-.856-.18c-.482-.1-.838-.27-1.069-.507-.231-.24-.346-.542-.344-.909-.002-.31.082-.577.252-.804.172-.229.411-.405.716-.53.307-.126.662-.19 1.063-.19.588 0 1.051.126 1.389.377.34.25.55.59.631 1.017z" fill="#754FFE"/><path stroke="#E8E7ED" stroke-width=".767" stroke-dasharray="1.53 1.53" d="M38.902 99.227h109.706M38.902 89.253h109.706M38.902 79.28h109.706M38.902 69.307h109.706M38.902 59.334h109.706"/><rect x="50.41" y="100.377" width="41.428" height="4.603" rx="2.302" transform="rotate(-90 50.41 100.377)" fill="#FFAA46"/><rect x="74.192" y="100.377" width="31.454" height="4.603" rx="2.302" transform="rotate(-90 74.192 100.377)" fill="#FFAA46"/><rect x="122.524" y="100.377" width="31.454" height="4.603" rx="2.302" transform="rotate(-90 122.524 100.377)" fill="#FFAA46"/><rect x="98.742" y="100.377" width="41.428" height="4.603" rx="2.302" transform="rotate(-90 98.742 100.377)" fill="#FFAA46"/><rect x="38.135" y="100.377" width="21.481" height="4.603" rx="2.302" transform="rotate(-90 38.135 100.377)" fill="#FFEEDA"/><rect x="62.685" y="100.377" width="28.386" height="4.603" rx="2.302" transform="rotate(-90 62.685 100.377)" fill="#FFEEDA"/><rect x="87.234" y="100.377" width="21.481" height="4.603" rx="2.302" transform="rotate(-90 87.234 100.377)" fill="#FFAA46"/><rect x="135.566" y="100.377" width="21.481" height="4.603" rx="2.302" transform="rotate(-90 135.566 100.377)" fill="#FFAA46"/><rect x="111.017" y="100.377" width="21.481" height="4.603" rx="2.302" transform="rotate(-90 111.017 100.377)" fill="#FFEEDA"/><defs><filter id="filter0_dd_5712_19320" x=".985" y=".645" width="184.889" height="148.065" filterUnits="userSpaceOnUse" color-interpolation-filters="sRGB"><feFlood flood-opacity="0" result="BackgroundImageFix"/><feColorMatrix in="SourceAlpha" values="0 0 0 0 0 0 0 0 0 0 0 0 0 0 0 0 0 0 127 0" result="hardAlpha"/><feOffset dy="11.508"/><feGaussianBlur stdDeviation="11.508"/><feColorMatrix values="0 0 0 0 0.0117647 0 0 0 0 0 0 0 0 0 0.278431 0 0 0 0.12 0"/><feBlend in2="BackgroundImageFix" result="effect1_dropShadow_5712_19320"/><feColorMatrix in="SourceAlpha" values="0 0 0 0 0 0 0 0 0 0 0 0 0 0 0 0 0 0 127 0" result="hardAlpha"/><feOffset dy="1.534"/><feGaussianBlur stdDeviation="1.918"/><feColorMatrix values="0 0 0 0 0.0823529 0 0 0 0 0.0823529 0 0 0 0 0.0823529 0 0 0 0.08 0"/><feBlend in2="effect1_dropShadow_5712_19320" result="effect2_dropShadow_5712_19320"/><feBlend in="SourceGraphic" in2="effect2_dropShadow_5712_19320" result="shape"/></filter></defs></svg>