<svg width="342" height="342" fill="none" xmlns="http://www.w3.org/2000/svg"><g clip-path="url(#clip0_6042_28521)" stroke="#CBD5E1" stroke-width="6" stroke-miterlimit="16" stroke-linecap="round" stroke-linejoin="round" stroke-dasharray="0.08 15.25"><path d="M3 3v335.6M18.25 3v335.6M33.5 3v335.6M48.75 3v335.6M64 3v335.6M79.25 3v335.6M94.5 3v335.6M109.75 3v335.6M125 3v335.6M140.25 3v335.6M155.5 3v335.6M170.75 3v335.6M186 3v335.6M262.25 3v335.6M201.25 3v335.6M277.5 3v335.6M216.5 3v335.6M292.75 3v335.6M231.75 3v335.6M308 3v335.6M247 3v335.6M323.25 3v335.6M338.5 3v335.6"/></g><defs><clipPath id="clip0_6042_28521"><path fill="#fff" d="M0 0h342v342H0z"/></clipPath></defs></svg>