<svg width="56" height="56" fill="none" xmlns="http://www.w3.org/2000/svg"><path d="M56 28C56 12.536 43.464 0 28 0S0 12.536 0 28s12.536 28 28 28 28-12.536 28-28z" fill="#412A4C"/><path d="M29.254 25.692a.905.905 0 011.499.952.907.907 0 01-.825.572.905.905 0 01-.674-1.524zm5.18 7.954c-.024-.696-.23-1.432-.757-1.918-.587-.543-1.437-.792-2.228-.792h-3.523c-.348 0-.656-.26-.656-.58a.58.58 0 01.435-.561s.06-.016.125-.037a4.776 4.776 0 002.052.438c1.086 0 2.174-.317 2.972-1.058.777-.722 1.139-1.73 1.139-2.764 0-1.033-.362-2.04-1.14-2.762a3.623 3.623 0 00-.75-.536c.748.172 1.52-.041 2.051-.953l-1.497-1.07-1.248 1.73a5.006 5.006 0 00-1.527-.23c-1.086 0-2.175.317-2.973 1.058-.776.722-1.137 1.73-1.137 2.763 0 1.032.361 2.042 1.138 2.764.068.062.137.121.209.178l-.146.077c-.366.21-.698.473-.985.782-.492.52-.984 1.3-.984 2.339 0 0-.069 2.215 2.49 2.215h1.852c.426 0 .861.27.861.693a.766.766 0 01-.123.418h3.543a3.224 3.224 0 00.807-2.194zm3.812-7.955a.902.902 0 011.374.154.899.899 0 01-.398 1.324.898.898 0 01-.976-.178.97.97 0 010-1.3zm6.277 7.955c-.024-.697-.23-1.433-.756-1.919-.588-.542-1.438-.791-2.228-.791l-4.09-.03c-.258 0-.454-.16-.454-.398 0-.197.098-.488.345-.537.489.152.998.227 1.51.225 1.087 0 2.175-.318 2.972-1.059.776-.721 1.139-1.73 1.139-2.763s-.362-2.041-1.139-2.762a3.63 3.63 0 00-.751-.536c.748.172 1.52-.041 2.051-.953l-1.496-1.07-1.248 1.73a5.012 5.012 0 00-1.528-.23c-1.086 0-2.175.317-2.973 1.058-.775.722-1.138 1.73-1.138 2.763 0 1.032.363 2.042 1.138 2.764.228.21.482.39.757.536-.2.151-.385.319-.556.5-.493.522-.985 1.302-.985 2.34 0 0-.068 2.215 2.49 2.215h1.853c.426 0 .86.27.86.693a.766.766 0 01-.123.418h3.543a3.218 3.218 0 00.807-2.194zm4.288-1.137v-3.305c-.764.096-1.029-.44-1.029-.971V20.16h-3.786v8.677c0 1.077.162 1.975.552 2.541.6.86 1.413 1.424 3.029 1.431.298-.014.796-.072 1.234-.299zm-27.864-4.02a1.249 1.249 0 11.324-.84 1.18 1.18 0 01-.324.84zm2.822-4.493c-.978-.992-2.313-1.417-3.644-1.417-1.332 0-2.668.425-3.645 1.417-.952.966-1.396 2.316-1.396 3.697 0 1.382.444 2.733 1.396 3.699.977.992 2.312 1.417 3.645 1.417 1.332 0 2.666-.425 3.643-1.417.952-.966 1.397-2.316 1.397-3.699 0-1.381-.445-2.731-1.396-3.697zm-10.097 5.221c-.63 0-.887-.192-1.12-.486-.15-.192-.226-.474-.226-.84v-1.712h2.114v-3.067h-2.114V20.16h-2.7v1.104c0 1.222-.937 2.213-2.09 2.213-.086 0-.172-.006-.257-.016v2.718h1.418v2.733c0 1.076.195 1.904.585 2.47.603.863 1.27 1.427 2.902 1.427.946 0 1.736-.216 2.256-.504V29.09a2.18 2.18 0 01-.768.127z" fill="#FFDE91"/></svg>