<svg width="56" height="56" fill="none" xmlns="http://www.w3.org/2000/svg"><path fill="#fff" d="M0 0h56v56H0z"/><path d="M56 28C56 12.536 43.464 0 28 0S0 12.536 0 28s12.536 28 28 28 28-12.536 28-28z" fill="#fff"/><path d="M26.146 14.353L13.67 19.517c-.695.287-.69 1.272.01 1.55l12.528 4.968a4.646 4.646 0 003.427 0l12.533-4.968a.836.836 0 00.011-1.55l-12.477-5.164a4.652 4.652 0 00-3.556 0z" fill="#FCB400"/><path d="M29.036 28.749v12.414c0 .59.594.995 1.143.777l13.966-5.42a.834.834 0 00.526-.777V23.329a.835.835 0 00-1.142-.777l-13.966 5.42a.834.834 0 00-.527.777z" fill="#18BFFF"/><path d="M25.777 29.39l-4.144 2-.426.204-8.747 4.191c-.554.268-1.26-.136-1.26-.752V23.38c0-.222.112-.415.269-.56a.858.858 0 01.213-.159.881.881 0 01.756-.058l13.266 5.256c.678.267.728 1.212.073 1.53z" fill="#F82B60"/><path d="M25.308 29.845l-4.144 2L11 23.277a.858.858 0 01.213-.159.892.892 0 01.761-.058l13.261 5.256c.678.267.728 1.212.073 1.53z" fill="#000" fill-opacity=".25"/></svg>