<svg width="56" height="56" fill="none" xmlns="http://www.w3.org/2000/svg"><rect width="56" height="56" rx="4" fill="#fff"/><path d="M56 28C56 12.536 43.464 0 28 0S0 12.536 0 28s12.536 28 28 28 28-12.536 28-28z" fill="#fff"/><path d="M16.003 30.862l9.83-9.83a6.923 6.923 0 002.064-4.936 6.98 6.98 0 00-2.003-4.896l-9.83 9.832A6.921 6.921 0 0014 25.967a6.94 6.94 0 002.003 4.895zm23.81-5.745L29.98 34.95a6.923 6.923 0 00-2.064 4.936 6.98 6.98 0 002.003 4.895l9.831-9.831a6.922 6.922 0 002.064-4.936 6.947 6.947 0 00-2.003-4.896zm-.062-4.065a6.922 6.922 0 002.064-4.936 6.981 6.981 0 00-2.003-4.896L16.064 34.95a6.982 6.982 0 00-.061 9.851L39.75 21.052z" fill="#3D92E7"/></svg>