<svg width="24" height="24" fill="none" xmlns="http://www.w3.org/2000/svg"><g clip-path="url(#clip0)"><path opacity=".75" d="M13.829 11.592l.69-2.2-3.702 1.537 3.012.663zm8.03-4.155c-2.82-2.846-9.654-2.313-12.342-1.65-3.143.803-3.98 3.195-3.893 7.07.035 2.226 1.003 4.2 2.88 4.871 3.823 1.327 7.105 1.144 10.553-2.156-1.763-1.903-3.23-2.566-5.638-2.391-2.34.113-3.667-.254-5.325-2.07 2.025-1.946 3.264-2.889 5.709-3.142 2.732-.279 5.167.873 6.223 1.947.987 1.012 1.484 3.326 1.248 6.128-.183 2.27-.907 3.605-2.575 4.085-2.147.663-5.263.986-8.144.873-3.395-.14-5.176-.83-5.673-1.353-1.048-1.17-1.816-3.649-1.99-6.495-.175-2.845.27-5.534 1.152-7 .873-1.467 4.102-2.506 8.86-2.802 3.971-.227 7.655.07 7.698.07l-.244-3.17s-8.493.987-9.794 1.1c-3.151.306-7.393.987-8.816 3.379-2.54 4.268-1.894 13.355 1.178 16.76 2.741 3.055 12.273 2.548 16.542 1.265 1.92-.576 4.093-2.156 4.469-6.477.244-2.845-.149-6.87-2.078-8.842zm-8.537 7.62l3.012.664-3.701 1.536.69-2.2z" fill="#000"/><path d="M13.654 11.339l.69-2.2-3.701 1.536 3.01.664zm8.03-4.155c-2.819-2.846-9.654-2.322-12.342-1.65-3.143.803-3.98 3.195-3.893 7.07.035 2.226 1.004 4.2 2.88 4.871 3.824 1.327 7.106 1.144 10.553-2.156-1.763-1.903-3.23-2.566-5.638-2.392-2.34.114-3.666-.253-5.325-2.068 2.025-1.947 3.265-2.89 5.709-3.143 2.732-.279 5.167.873 6.223 1.947.987 1.012 1.484 3.326 1.249 6.127-.184 2.27-.908 3.606-2.575 4.086-2.148.663-5.273.986-8.144.872-3.396-.14-5.177-.829-5.674-1.352-1.048-1.17-1.816-3.65-1.99-6.495-.175-2.845.27-5.534 1.152-7 .873-1.467 4.102-2.505 8.86-2.802 3.971-.227 7.655.07 7.699.07L20.183 0S11.69.986 10.39 1.1c-3.15.297-7.402.986-8.816 3.378-2.54 4.268-1.894 13.364 1.179 16.76 2.74 3.055 12.272 2.548 16.54 1.265 1.921-.576 4.095-2.156 4.47-6.477.244-2.845-.148-6.87-2.078-8.842zm-8.536 7.62l3.011.664-3.7 1.536.689-2.2z" fill="#016B6B"/></g><defs><clipPath id="clip0"><path fill="#fff" d="M0 0h24v23.76H0z"/></clipPath></defs></svg>