<svg width="24" height="24" fill="none" xmlns="http://www.w3.org/2000/svg"><g clip-path="url(#clip0)" fill="#161614"><path d="M11.954 0C5.353 0 0 5.352 0 11.954c0 5.281 3.425 9.762 8.175 11.342.597.111.816-.259.816-.575 0-.285-.01-1.226-.016-2.225-3.325.723-4.027-1.41-4.027-1.41-.544-1.382-1.327-1.75-1.327-1.75-1.085-.741.081-.726.081-.726 1.2.084 1.833 1.232 1.833 1.232 1.066 1.827 2.796 1.299 3.478.993.108-.772.417-1.3.76-1.598-2.656-.302-5.447-1.327-5.447-5.908 0-1.305.467-2.371 1.232-3.208-.124-.301-.533-1.517.116-3.164 0 0 1.003-.32 3.288 1.226a11.45 11.45 0 012.992-.402c1.015.004 2.039.137 2.994.402 2.282-1.547 3.284-1.226 3.284-1.226.65 1.647.241 2.863.117 3.164.767.837 1.23 1.903 1.23 3.208 0 4.591-2.796 5.602-5.458 5.898.43.371.811 1.099.811 2.214 0 1.6-.014 2.887-.014 3.28 0 .318.215.691.821.574 4.747-1.583 8.168-6.062 8.168-11.341C23.907 5.352 18.555 0 11.954 0z"/><path d="M4.477 17.028c-.026.06-.12.077-.205.037-.087-.04-.135-.12-.107-.18.025-.061.119-.078.206-.037.086.039.136.12.106.18zm.588.525c-.057.053-.169.028-.244-.056-.078-.083-.093-.194-.035-.248.059-.053.167-.028.245.055.078.085.093.195.034.249zm.403.671c-.073.05-.193.003-.267-.103-.073-.106-.073-.234.002-.285.074-.051.192-.005.267.1.073.108.073.236-.002.288zm.682.777c-.065.073-.205.053-.307-.045-.104-.097-.133-.233-.068-.306.067-.072.207-.052.31.046.104.096.135.234.066.305zm.882.263c-.029.094-.163.136-.299.096-.135-.04-.223-.15-.196-.245.028-.094.163-.138.3-.096.135.04.223.15.195.245zm1.004.111c.003.099-.112.18-.254.182-.143.004-.259-.076-.26-.173 0-.1.112-.18.255-.183.142-.003.259.076.259.174zm.985-.038c.017.097-.082.195-.223.222-.138.025-.267-.034-.285-.13-.017-.098.084-.197.222-.223.142-.024.268.034.286.131z"/></g><defs><clipPath id="clip0"><path fill="#fff" d="M0 0h24v23.347H0z"/></clipPath></defs></svg>