<svg width="45" height="40" fill="none" xmlns="http://www.w3.org/2000/svg"><g clip-path="url(#clip0)"><path d="M30.419 27.102H14.136L7.164 39.281c.839.426 1.791.7 2.407.7 6.405 0 19.477-.095 25.966-.095.667 0 1.292-.228 1.852-.584l-6.97-12.2z" fill="#4185F3"/><path d="M7.162 39.282l6.972-12.179H.006c-.007.846.294 1.62.765 2.504 1.314 2.458 3.536 6.386 4.842 8.438.322.506 1.6 1.263 1.55 1.237z" fill="#1767D1"/><path d="M30.418 27.102L37.391 39.3c.903-.574 1.64-1.484 2.118-2.322a666.07 666.07 0 014.164-7.165c.585-.99.813-1.88.798-2.712l-14.053.001z" fill="#E94235"/><path d="M14.138 27.104l8.133-14.14L15.002.848c-.786.517-1.458 1.219-1.764 1.753C10.066 8.164 3.675 19.568.462 25.205a3.485 3.485 0 00-.455 1.899h14.132z" fill="#30A753"/><path d="M30.417 27.104l-8.148-14.14L29.34.86c.786.518 1.649 1.205 1.954 1.74 3.172 5.564 9.564 16.968 12.779 22.605.332.58.432 1.235.4 1.899H30.416z" fill="#F9BC00"/><path d="M15 .848l7.27 12.117L29.337.86c-.73-.426-1.763-.679-2.764-.71C23.79.055 19.275.018 16.846.124c-.6.026-1.838.718-1.846.723z" fill="#0F8038"/></g><defs><clipPath id="clip0"><path fill="#fff" d="M0 0h44.504v40H0z"/></clipPath></defs></svg>