<svg width="118" height="32" fill="none" xmlns="http://www.w3.org/2000/svg"><g clip-path="url(#clip0_6040_28506)" fill="#94A3B8"><path d="M17.589 13.427c-.92 0-1.646.79-1.646 1.775 0 .984.742 1.775 1.646 1.775.92 0 1.646-.79 1.646-1.775 0-.985-.743-1.775-1.646-1.775zm-5.89 0c-.92 0-1.646.79-1.646 1.775 0 .984.742 1.775 1.646 1.775.92 0 1.646-.79 1.646-1.775.016-.985-.726-1.775-1.646-1.775z"/><path d="M25.432 0H3.81A3.313 3.313 0 00.5 3.308v21.624a3.313 3.313 0 003.31 3.308h18.3l-.856-2.953 2.065 1.904 1.953 1.791L28.757 32V3.308C28.74 1.485 27.256 0 25.432 0zm-6.229 20.898s-.58-.694-1.065-1.291c2.114-.597 2.921-1.904 2.921-1.904a9.237 9.237 0 01-1.856.952c-.806.338-1.581.548-2.34.694-1.549.29-2.969.21-4.179-.017-.92-.177-1.71-.42-2.372-.694a9.465 9.465 0 01-1.178-.548c-.048-.032-.097-.049-.145-.08-.033-.017-.049-.033-.065-.033-.29-.162-.452-.274-.452-.274s.775 1.274 2.824 1.888c-.484.613-1.08 1.323-1.08 1.323-3.567-.113-4.923-2.437-4.923-2.437 0-5.148 2.324-9.327 2.324-9.327 2.324-1.727 4.518-1.679 4.518-1.679l.162.194c-2.905.823-4.228 2.098-4.228 2.098s.355-.194.952-.452c1.727-.758 3.098-.952 3.663-1.016.097-.017.178-.033.274-.033a13.668 13.668 0 013.26-.032c1.533.177 3.18.63 4.857 1.533 0 0-1.274-1.21-4.018-2.033l.226-.259s2.21-.048 4.519 1.679c0 0 2.323 4.18 2.323 9.327 0-.016-1.355 2.308-4.922 2.42zM43.572 6.907h-5.358v6.019l3.566 3.211v-5.841h1.905c1.21 0 1.807.58 1.807 1.516v4.47c0 .936-.565 1.566-1.807 1.566h-5.487v3.405h5.357c2.873.016 5.568-1.42 5.568-4.712v-4.81c.016-3.356-2.679-4.824-5.551-4.824zm28.078 9.634v-4.938c0-1.775 3.195-2.179 4.164-.404l2.953-1.194c-1.162-2.55-3.276-3.292-5.035-3.292-2.872 0-5.713 1.662-5.713 4.89v4.938c0 3.26 2.84 4.89 5.648 4.89 1.808 0 3.97-.888 5.164-3.212l-3.163-1.452c-.774 1.984-4.018 1.5-4.018-.226zm-9.763-4.26c-1.113-.243-1.856-.646-1.904-1.34.065-1.662 2.63-1.727 4.131-.13l2.372-1.823c-1.484-1.807-3.163-2.291-4.89-2.291-2.63 0-5.18 1.485-5.18 4.292 0 2.728 2.099 4.196 4.406 4.551 1.178.162 2.485.63 2.453 1.436-.097 1.533-3.26 1.453-4.696-.29l-2.291 2.146c1.339 1.727 3.163 2.598 4.873 2.598 2.63 0 5.551-1.517 5.664-4.292.162-3.502-2.388-4.39-4.938-4.858zm-10.812 8.955h3.615V6.906h-3.615v14.33zm60.951-14.33h-5.358v6.02l3.566 3.211v-5.841h1.904c1.211 0 1.808.58 1.808 1.516v4.47c0 .936-.565 1.566-1.808 1.566h-5.486v3.405h5.374c2.871.016 5.566-1.42 5.566-4.712v-4.81c0-3.356-2.695-4.824-5.566-4.824zm-26.288-.193c-2.97 0-5.922 1.614-5.922 4.922v4.89c0 3.275 2.969 4.921 5.954 4.921 2.97 0 5.923-1.646 5.923-4.922v-4.89c0-3.291-2.986-4.92-5.955-4.92zm2.324 9.812c0 1.032-1.162 1.565-2.308 1.565-1.162 0-2.324-.5-2.324-1.566v-4.89c0-1.048 1.13-1.613 2.26-1.613 1.178 0 2.372.5 2.372 1.614v4.89zm16.604-4.89c-.079-3.357-2.371-4.712-5.324-4.712h-5.73v14.33h3.664v-4.551h.645l3.325 4.55h4.518l-3.905-4.921c1.727-.549 2.807-2.05 2.807-4.696zm-5.26 1.936h-2.13v-3.275h2.13c2.276 0 2.276 3.275 0 3.275z"/></g><defs><clipPath id="clip0_6040_28506"><path fill="#fff" d="M0 0h118v32H0z"/></clipPath></defs></svg>