<svg width="103" height="32" fill="none" xmlns="http://www.w3.org/2000/svg"><g clip-path="url(#clip0_6040_28497)"><path d="M54.021 8.04a2.078 2.078 0 01-2.082 2.082 2.077 2.077 0 01-2.081-2.082c0-1.153.897-2.081 2.081-2.081 1.186.032 2.082.96 2.082 2.081zm-8.582 4.197v.512s-.992-1.281-3.106-1.281c-3.49 0-6.212 2.659-6.212 6.342 0 3.652 2.69 6.342 6.212 6.342 2.146 0 3.106-1.313 3.106-1.313v.544c0 .257.193.448.449.448h2.593V11.787h-2.593a.46.46 0 00-.449.45zm0 7.72c-.48.704-1.44 1.313-2.593 1.313-2.05 0-3.619-1.282-3.619-3.46s1.57-3.46 3.619-3.46c1.12 0 2.145.641 2.593 1.314v4.292zm4.964-8.17h3.073v12.045h-3.073V11.788zm45.918-.32c-2.114 0-3.106 1.282-3.106 1.282V5.991H90.14v17.841h2.594a.458.458 0 00.448-.448v-.545s.993 1.314 3.106 1.314c3.49 0 6.211-2.69 6.211-6.342 0-3.652-2.72-6.344-6.179-6.344zm-.512 9.77c-1.186 0-2.114-.608-2.594-1.313v-4.292c.48-.64 1.505-1.314 2.594-1.314 2.049 0 3.618 1.282 3.618 3.46s-1.569 3.46-3.618 3.46zM88.54 16.69v7.175h-3.075v-6.823c0-1.985-.64-2.787-2.368-2.787-.928 0-1.89.481-2.499 1.186v8.393h-3.073V11.787h2.433c.256 0 .448.225.448.449v.512c.897-.929 2.082-1.281 3.266-1.281 1.345 0 2.466.384 3.363 1.153 1.088.897 1.505 2.05 1.505 4.068zm-18.477-5.222c-2.113 0-3.106 1.282-3.106 1.282V5.991h-3.073v17.841h2.593a.458.458 0 00.448-.448v-.545s.993 1.314 3.106 1.314c3.49 0 6.212-2.69 6.212-6.342.032-3.652-2.69-6.344-6.18-6.344zm-.512 9.77c-1.185 0-2.113-.608-2.594-1.313v-4.292c.48-.64 1.506-1.314 2.594-1.314 2.05 0 3.618 1.282 3.618 3.46s-1.568 3.46-3.618 3.46zm-8.325-9.77c.928 0 1.409.16 1.409.16v2.851s-2.562-.864-4.163.962v8.424h-3.074V11.788h2.594c.256 0 .447.224.447.449v.512c.577-.673 1.826-1.282 2.787-1.282zM29.3 22.743c-.16-.384-.32-.8-.48-1.153-.257-.577-.513-1.122-.737-1.634l-.032-.032a334.134 334.134 0 00-7.076-14.478l-.096-.192c-.263-.499-.52-1-.768-1.506-.321-.577-.64-1.185-1.153-1.762C17.934.705 16.46 0 14.892 0c-1.601 0-3.042.705-4.098 1.922-.48.576-.833 1.185-1.153 1.762a68.61 68.61 0 01-.768 1.505l-.096.193C6.31 10.186 3.909 15.055 1.7 19.86l-.032.064c-.224.513-.48 1.057-.737 1.633-.16.353-.32.737-.48 1.153-.416 1.185-.545 2.306-.384 3.46a6.807 6.807 0 004.163 5.317A6.57 6.57 0 006.823 32a8.456 8.456 0 004.035-1.153c1.313-.737 2.562-1.794 3.97-3.331 1.41 1.538 2.69 2.594 3.971 3.331a8.459 8.459 0 003.203 1.089c.256.032.576.064.832.064.897 0 1.794-.16 2.594-.513 2.242-.897 3.81-2.946 4.163-5.317.254-1.12.126-2.242-.29-3.427zm-14.44 1.666c-1.73-2.179-2.85-4.229-3.234-5.958-.16-.737-.192-1.377-.096-1.954.064-.513.256-.961.512-1.346.609-.864 1.633-1.409 2.818-1.409 1.186 0 2.242.513 2.819 1.41.256.384.448.833.512 1.345.096.577.064 1.25-.096 1.954-.386 1.697-1.506 3.748-3.235 5.957zm12.776 1.505a4.76 4.76 0 01-2.914 3.748 4.85 4.85 0 01-2.433.32c-.8-.096-1.602-.352-2.434-.832-1.153-.642-2.305-1.634-3.65-3.108 2.113-2.594 3.394-4.965 3.874-7.079.224-.993.257-1.89.16-2.723a5.194 5.194 0 00-.864-2.178c-.993-1.442-2.659-2.274-4.515-2.274-1.857 0-3.522.865-4.515 2.274a5.2 5.2 0 00-.865 2.178 6.656 6.656 0 00.16 2.724c.48 2.113 1.793 4.516 3.874 7.11-1.312 1.474-2.497 2.467-3.65 3.107-.833.481-1.633.737-2.433.833a5.123 5.123 0 01-2.434-.32 4.76 4.76 0 01-2.913-3.748 5.301 5.301 0 01.288-2.498c.095-.32.256-.64.416-1.025.224-.513.48-1.058.736-1.602l.033-.064A349.367 349.367 0 0110.6 6.375l.096-.192c.256-.48.513-.993.769-1.474.256-.512.544-.993.896-1.41.673-.768 1.569-1.184 2.562-1.184.993 0 1.89.416 2.562 1.184.352.418.64.899.896 1.41.257.481.513.994.769 1.474l.096.192a424.07 424.07 0 017.012 14.414v.032c.257.514.481 1.09.737 1.603.16.384.32.704.416 1.024.256.832.352 1.633.224 2.466z" fill="#94A3B8"/></g><defs><clipPath id="clip0_6040_28497"><path fill="#fff" d="M0 0h103v32H0z"/></clipPath></defs></svg>