<svg width="126" height="32" fill="none" xmlns="http://www.w3.org/2000/svg"><g clip-path="url(#clip0_6040_28509)"><path d="M43.15 20.622v-9.244a1.033 1.033 0 012.069 0v9.244c0 .57-.464 1.031-1.035 1.031-.535 0-1.034-.462-1.034-1.03zm11.843.391L50.5 13.867v6.755a1.034 1.034 0 01-2.07 0v-8.96a1.39 1.39 0 011.392-1.386h.071c.464 0 .928.248 1.177.64l4.46 7.04v-6.65a1.034 1.034 0 012.069 0v8.96a1.39 1.39 0 01-1.392 1.387c-.499 0-.963-.213-1.213-.64zm9.81-8.746v8.462c0 .533-.427.96-.962.96h-.143a.958.958 0 01-.963-.96v-8.462h-2.39a.958.958 0 01-.963-.96c0-.534.428-.96.963-.96h6.885c.535 0 .963.426.963.96 0 .533-.428.96-.963.96h-2.426zm5.03 8.462v-9.493c0-.498.429-.925.928-.925h6.243c.5 0 .928.427.928.925a.943.943 0 01-.928.924h-5.101v2.631h4.388c.5 0 .927.427.927.925a.943.943 0 01-.927.924h-4.388v3.093h5.101c.5 0 .928.427.928.925a.943.943 0 01-.928.924h-6.243c-.5.071-.927-.32-.927-.853zm16.839.32l-1.641-3.662h-2.533v3.27c0 .57-.464 1.032-1.035 1.032h-.035a1.034 1.034 0 01-1.035-1.031v-9.28c0-.57.464-1.031 1.035-1.031h3.781c2.711 0 3.96 1.706 3.96 3.52 0 1.528-.82 2.702-2.07 3.164l1.428 3.2c.285.676-.179 1.422-.928 1.422-.392 0-.785-.213-.927-.604zm-1.427-8.925h-2.711v3.378h2.746c1.178 0 1.855-.604 1.855-1.67-.035-.89-.713-1.708-1.89-1.708zm13.77 8.392a4.63 4.63 0 01-3.246 1.35c-1.213 0-2.355-.39-3.211-1.28C91.309 19.343 91.13 17.85 91.13 16c0-1.849.178-3.378 1.427-4.587.856-.853 1.998-1.28 3.21-1.28a4.6 4.6 0 013.247 1.316c.285.32.535.64.713 1.031.321.676-.178 1.422-.927 1.422-.428 0-.785-.249-.963-.64-.072-.213-.214-.39-.357-.569-.357-.462-.999-.71-1.712-.71-.643 0-1.285.284-1.749.746-.784.818-.784 2.204-.784 3.271 0 1.031 0 2.453.784 3.271.464.462 1.106.747 1.749.747.713 0 1.355-.25 1.712-.711.143-.178.285-.391.357-.605.142-.39.535-.64.963-.64.749 0 1.248.747.927 1.422a3.55 3.55 0 01-.713 1.032zm11.094.07c-.856.854-2.069 1.28-3.282 1.28-1.212 0-2.39-.426-3.282-1.28-1.248-1.244-1.427-2.737-1.427-4.586 0-1.849.214-3.378 1.427-4.587.856-.853 2.07-1.28 3.282-1.28 1.213 0 2.39.427 3.282 1.28 1.249 1.245 1.427 2.738 1.427 4.587.036 1.849-.178 3.378-1.427 4.587zm-1.463-7.821a2.604 2.604 0 00-1.783-.747c-.642 0-1.356.284-1.784.746-.785.818-.82 2.205-.82 3.271 0 1.032.035 2.418.82 3.236a2.611 2.611 0 001.784.747c.643 0 1.355-.285 1.783-.747.786-.818.821-2.204.821-3.236 0-1.066-.035-2.488-.821-3.27zm14.913 7.893v-7.076l-2.676 7.218c-.143.427-.571.711-1.034.711-.464 0-.857-.284-1.035-.711l-2.676-7.324v7.182a.995.995 0 01-.999.995.996.996 0 01-.999-.995v-8.782c0-.854.714-1.565 1.57-1.565h.143c.642 0 1.248.391 1.463 1.031l2.603 7.04 2.64-7.04a1.58 1.58 0 011.463-1.03 1.58 1.58 0 011.569 1.564v8.782a.995.995 0 01-.998.995c-.606 0-1.034-.426-1.034-.995zM28.702 0H4.622C2.375 0 .592 1.778.592 3.982v24A3.998 3.998 0 004.621 32h24.08a3.982 3.982 0 003.995-3.982v-24A3.99 3.99 0 0028.702 0zm-7.777 5.867a1.05 1.05 0 011.07-1.067c.607 0 1.07.462 1.07 1.067v14.257a1.05 1.05 0 01-1.07 1.067 1.05 1.05 0 01-1.07-1.067V5.867zm-5.35-.534a1.05 1.05 0 011.07-1.066c.606 0 1.07.462 1.07 1.066V20.8a1.05 1.05 0 01-1.07 1.067 1.05 1.05 0 01-1.07-1.067V5.333zm-5.352.534a1.05 1.05 0 011.07-1.067c.607 0 1.07.462 1.07 1.067v14.257a1.05 1.05 0 01-1.07 1.067 1.05 1.05 0 01-1.07-1.067V5.867zM4.873 8a1.05 1.05 0 011.07-1.067c.606 0 1.07.463 1.07 1.067v9.6a1.05 1.05 0 01-1.07 1.067 1.05 1.05 0 01-1.07-1.067V8zM28.06 24.284c-.178.143-4.138 3.45-11.416 3.45-7.277 0-11.237-3.307-11.415-3.45a1.033 1.033 0 01-.107-1.493 1.041 1.041 0 011.498-.107c.071 0 3.603 2.916 10.024 2.916 6.493 0 9.989-2.916 9.989-2.951.464-.391 1.142-.32 1.498.107a1.07 1.07 0 01-.071 1.528zm.357-6.684a1.05 1.05 0 01-1.07 1.067 1.05 1.05 0 01-1.07-1.067V8a1.05 1.05 0 011.07-1.067c.606 0 1.07.463 1.07 1.067v9.6z" fill="#94A3B8"/></g><defs><clipPath id="clip0_6040_28509"><path fill="#fff" d="M0 0h126v32H0z"/></clipPath></defs></svg>