<svg width="128" height="32" fill="none" xmlns="http://www.w3.org/2000/svg"><g clip-path="url(#clip0_6040_28511)"><path d="M29.633 11.28c1.373 0 2.69-1.143 2.918-2.552.271-1.372-.66-2.515-2.03-2.515-1.373 0-2.69 1.143-2.922 2.515-.268 1.41.624 2.552 2.034 2.552zm93.135 4.078h3.071c.421 0 .667-.17.761-.563.147-.608.299-1.216.454-1.822.091-.353-.115-.62-.507-.62h-3.029c.217-.869 1.068-3.688 1.068-5.526 0-3.67-3.117-6.791-7.539-6.791-4.994 0-8.243 3.351-8.243 8.067 0 1.375.514 2.979 1.15 3.973a14.4 14.4 0 00-.823-.023c-3.794 0-6.184 2.059-6.184 5.054 0 2.81 2.216 3.903 4.302 4.63 1.853.646 3.56.947 3.56 2.394 0 .977-.94 1.55-2.777 1.55-2.18 0-3.379-1.027-3.683-1.417.206-.162.513-.549.513-1.193 0-.9-.632-1.635-1.807-1.635-.994 0-1.835.81-2.046 1.877-1.597 1.306-3.34 2.153-5.811 2.153-2.434 0-3.697-1.266-3.697-3.96.57.174 2.056.383 3.038.383 4.12 0 6.93-1.873 6.93-5.622 0-2.017-1.77-4.134-5.272-4.134h-.008c-4.606 0-7.186 2.917-8.313 6.127-.315-.077-.632-.15-.948-.222a7.328 7.328 0 00.433-2.451c0-1.585-.982-3.454-3.609-3.454-1.83 0-3.564 1.198-4.767 2.994l.51-2.004c.079-.306-.049-.648-.527-.648h-2.696c-.384 0-.655.136-.764.574-.073.291-1 3.925-1.901 7.464-.568 2.206-3.506 4.953-7.2 4.953-2.433 0-3.695-1.35-3.695-4.044.636.254 2.056.467 3.037.467 4.289 0 6.93-1.873 6.93-5.622 0-2.017-1.77-4.134-5.273-4.134H67.4c-5.187 0-8.364 4.028-8.902 8.596-.224 1.898-1.826 4.506-3.564 4.506-.846 0-1.318-.532-1.318-1.435 0-.779.549-2.685 1.15-5.073.202-.8.507-2.018.846-3.369h2.82c.42 0 .666-.17.761-.563.135-.566.383-1.552.453-1.822.091-.353-.114-.62-.507-.62h-2.772s1.276-5.094 1.307-5.225c.123-.518-.31-.817-.764-.722 0 0-2.143.42-2.54.503-.4.08-.71.3-.855.876l-1.135 4.567h-2.226c-.42 0-.667.171-.76.563a184.8 184.8 0 01-.454 1.822c-.092.353.114.621.507.621h2.183c-.016.063-.789 3.003-1.414 5.637-.295 1.267-1.28 4.23-2.895 4.23-.964 0-1.371-.486-1.371-1.53 0-1.643 1.617-5.756 1.617-7.623 0-2.493-1.338-3.937-4.078-3.937-1.727 0-3.518 1.115-4.277 2.094 0 0 .23-.801.309-1.11.084-.325-.09-.645-.518-.645h-2.679c-.57 0-.728.305-.812.64-.033.135-.998 3.926-1.925 7.565-.634 2.492-2.174 4.574-3.821 4.574-.847 0-1.224-.531-1.224-1.434 0-.78.504-2.704 1.105-5.092.732-2.908 1.377-5.302 1.446-5.582.09-.358-.07-.67-.532-.67h-2.696c-.488 0-.662.256-.765.612 0 0-.759 2.871-1.562 6.068-.584 2.32-1.228 4.684-1.228 5.794 0 1.981.89 3.475 3.336 3.475 1.887 0 3.381-.957 4.522-2.177l-.285 1.12c-.099.378.02.712.465.712h2.758c.48 0 .665-.193.765-.612.097-.4 2.157-8.502 2.157-8.502.544-2.177 1.891-3.618 3.786-3.618.898 0 1.676.595 1.586 1.75-.1 1.273-1.634 5.842-1.634 7.847 0 1.518.563 3.481 3.42 3.481 1.947 0 3.381-.933 4.424-2.139.381 1.28 1.393 2.14 3.248 2.14 3.083 0 4.941-1.83 6.033-3.666.906 2.134 3.028 3.664 6.14 3.664 3.17 0 5.625-1.337 7.364-3.154l-.542 2.128c-.099.383.068.684.518.684h2.73c.374 0 .64-.19.737-.583.048-.192.442-1.717 1-3.883 1.065-4.144 2.777-8.444 5.35-8.444.907 0 1.28.507 1.28 1.306 0 .377-.11.702-.204.877-1.247-.248-2.25.368-2.25 1.7 0 .867.912 1.656 2.144 1.656.942 0 1.72-.231 2.341-.65.611.127 1.22.26 1.83.399a12.022 12.022 0 00-.144 1.816c0 3.327 2.375 6.148 6.633 6.148 3.337 0 5.627-1.22 7.603-2.785.95 1.554 3.349 2.81 6.496 2.81 4.314 0 6.76-2.242 6.76-5.207 0-2.684-2.202-3.671-4.474-4.494-1.847-.667-3.387-1.03-3.387-2.335 0-1.07.842-1.559 2.285-1.559.936 0 1.64.202 2.015.308.373.931 1.143 1.963 2.458 1.963 1.113 0 1.613-.88 1.613-1.69 0-2.308-3.844-2.55-3.844-7.5 0-3.077 1.742-5.616 5.348-5.616 2.505 0 4.141 1.59 4.141 4.154 0 2.115-1.281 5.879-1.281 5.879h-2.181c-.418 0-.665.171-.76.563a162.56 162.56 0 01-.454 1.822c-.092.353.114.62.507.62h2.128s-2.2 8.116-2.2 9.591c0 1.982 1.117 3.475 3.563 3.475 3.461 0 5.625-2.25 6.565-5.52.072-.252-.071-.458-.327-.458h-1.32c-.264 0-.417.15-.483.407-.299 1.161-1.038 2.383-2.494 2.383-.846 0-1.317-.532-1.317-1.434 0-.78.515-2.605 1.15-5.074.303-1.176.841-3.369.841-3.369zM95.48 15.22c1.223 0 1.805.815 1.805 1.785 0 1.641-1.273 2.642-3.264 2.642-.712 0-1.708-.17-2.296-.365.247-1.51 1.34-4.062 3.755-4.062zm-28.79 0c1.34 0 1.805.815 1.805 1.785 0 1.641-1.273 2.642-3.263 2.642a8.53 8.53 0 01-2.297-.365c.246-1.51 1.215-4.062 3.755-4.062zM13.728 0C4.994 0 .59 6.261.59 11.482c0 3.162 1.197 5.974 3.764 7.022.421.172.798.006.92-.46.085-.323.286-1.136.376-1.475.123-.461.075-.623-.265-1.025-.74-.873-1.213-2.003-1.213-3.604 0-4.645 3.476-8.804 9.05-8.804 4.936 0 7.648 3.016 7.648 7.044 0 5.3-2.345 9.773-5.827 9.773-1.923 0-3.363-1.59-2.901-3.54.552-2.33 1.622-4.842 1.622-6.523 0-1.504-.807-2.76-2.479-2.76-1.965 0-3.544 2.034-3.544 4.758 0 1.735.586 2.909.586 2.909L5.964 24.813c-.703 2.973-.106 6.617-.056 6.985.03.218.31.27.437.105.182-.236 2.523-3.127 3.319-6.015a589.28 589.28 0 001.293-5.052c.638 1.218 2.505 2.291 4.49 2.291 5.908 0 9.917-5.387 9.917-12.597C25.364 5.078 20.746 0 13.727 0z" fill="#94A3B8"/></g><defs><clipPath id="clip0_6040_28511"><path fill="#fff" d="M0 0h128v32H0z"/></clipPath></defs></svg>