<svg width="119" height="32" fill="none" xmlns="http://www.w3.org/2000/svg"><g clip-path="url(#clip0_6040_28513)"><path d="M16.3 29.937c-1.775.313-3.58.407-5.45.657l-5.699-16.75v17.469C3.376 31.5 1.757 31.75.075 32V0H4.81l6.478 18.157V0H16.3v29.937zm9.81-18.218c1.931 0 4.89-.094 6.665-.094v5c-2.211 0-4.796 0-6.664.094v7.437c2.927-.187 5.855-.437 8.813-.531v4.812l-13.796 1.094V0h13.796v5H26.11v6.719zM53.455 5h-5.17v23c-1.681 0-3.363 0-4.982.062V5h-5.17V0h15.322v5zm8.097 6.375h6.82v5h-6.82v11.344h-4.89V0h13.921v5h-9.031v6.375zM78.68 23.344c2.834.062 5.7.281 8.471.437v4.938c-4.453-.282-8.906-.563-13.453-.657V0h4.982v23.344zm12.675 5.718c1.589.094 3.27.188 4.89.375V0h-4.89v29.063zM118.076 0l-6.321 15.219L118.075 32c-1.868-.25-3.737-.594-5.606-.906l-3.581-9.25-3.643 8.5c-1.807-.313-3.551-.407-5.357-.657l6.415-14.656L100.511 0h5.356l3.27 8.406L112.625 0h5.45z" fill="#94A3B8"/></g><defs><clipPath id="clip0_6040_28513"><path fill="#fff" d="M0 0h119v32H0z"/></clipPath></defs></svg>