<svg width="78" height="32" fill="none" xmlns="http://www.w3.org/2000/svg"><g clip-path="url(#clip0_6040_28515)"><mask id="a" style="mask-type:alpha" maskUnits="userSpaceOnUse" x="0" y="0" width="78" height="32"><path d="M77.075 0h-77v32h77V0z" fill="#fff"/></mask><g mask="url(#a)"><path d="M5.487 12.485c0-.83.684-1.149 1.818-1.149 1.625 0 3.678.49 5.304 1.361V7.7c-1.775-.702-3.529-.978-5.304-.978-4.342 0-7.23 2.254-7.23 6.018 0 5.87 8.128 4.934 8.128 7.464 0 .978-.856 1.297-2.053 1.297-1.776 0-4.043-.723-5.84-1.701v5.061c1.99.85 4 1.212 5.84 1.212 4.448 0 7.507-2.19 7.507-5.997-.021-6.337-8.17-5.21-8.17-7.591zM19.945 2.469l-5.219 1.105-.02 17.034c0 3.147 2.373 5.465 5.539 5.465 1.754 0 3.037-.319 3.743-.702v-4.316c-.684.276-4.064 1.254-4.064-1.893v-7.55h4.064V7.084h-4.064l.021-4.614zM30.64 8.657l-.342-1.574h-4.62V25.69h5.347V13.08c1.262-1.637 3.4-1.34 4.064-1.106v-4.89c-.685-.256-3.187-.724-4.449 1.573zm5.754-1.574h5.368V25.69h-5.368V7.083zm0-1.616l5.368-1.148V.002l-5.368 1.127v4.338zm16.533 1.255c-2.096 0-3.444.978-4.192 1.659l-.278-1.319H43.75v24.795l5.35-1.127.021-6.018c.77.553 1.904 1.34 3.786 1.34 3.828 0 7.315-3.062 7.315-9.803-.022-6.167-3.55-9.527-7.294-9.527zm-1.283 14.651c-1.262 0-2.01-.446-2.524-.999l-.021-7.89c.556-.616 1.326-1.041 2.545-1.041 1.946 0 3.294 2.169 3.294 4.955 0 2.85-1.327 4.976-3.294 4.976zm25.431-4.912c0-5.444-2.652-9.74-7.721-9.74-5.09 0-8.17 4.297-8.17 9.698 0 6.4 3.635 9.633 8.854 9.633 2.546 0 4.47-.574 5.925-1.382v-4.253c-1.454.723-3.123 1.17-5.24 1.17-2.075 0-3.915-.724-4.15-3.233h10.46c0-.277.042-1.382.042-1.893zm-10.566-2.02c0-2.403 1.476-3.402 2.823-3.402 1.305 0 2.696 1 2.696 3.402h-5.519z" fill="#94A3B8"/></g></g><defs><clipPath id="clip0_6040_28515"><path fill="#fff" d="M0 0h78v32H0z"/></clipPath></defs></svg>