<svg width="190" height="32" fill="none" xmlns="http://www.w3.org/2000/svg"><g clip-path="url(#clip0_6040_28499)"><mask id="a" style="mask-type:alpha" maskUnits="userSpaceOnUse" x="0" y="0" width="190" height="32"><path d="M189.573 0H0v32h189.573V0z" fill="#fff"/></mask><g mask="url(#a)" fill="#94A3B8"><path d="M15.923 31.987v-6.22c6.595 0 11.682-6.503 9.14-13.384a9.27 9.27 0 00-5.559-5.56A9.827 9.827 0 006.22 15.965H0C0 5.596 10.082-2.604 21.105.791a15.406 15.406 0 0110.082 10.084c3.392 11.028-4.806 21.112-15.264 21.112z"/><path d="M16.017 25.766H9.8V19.64h6.218v6.126zM9.8 30.574H5.088v-4.808h4.71v4.808zm-4.711-4.808H1.135V21.81h3.953v3.957zM56.815 9.272c-1.79-1.226-4.145-1.892-6.784-1.892h-5.746v18.38h5.748c2.638 0 4.9-.66 6.784-1.98a7.21 7.21 0 002.356-2.92c.567-1.226.847-2.734.847-4.337 0-1.602-.282-3.11-.847-4.241-.568-1.406-1.32-2.348-2.358-3.009zm-9.138 1.226h1.79c1.979 0 3.674.379 4.993 1.226 1.413.848 2.081 2.46 2.081 4.808s-.757 4.052-2.081 4.995c-1.224.756-2.827 1.226-4.9 1.226h-1.883V10.498zm16.394-3.392a1.917 1.917 0 00-1.413.568 1.702 1.702 0 00-.66 1.413 1.979 1.979 0 103.957 0 1.92 1.92 0 00-.567-1.413c-.282-.379-.757-.568-1.325-.568h.008zm-1.71 5.655h3.297v12.913h-3.284V12.76h-.013zm15.088 1.135c-.946-.847-2.081-1.413-3.298-1.413a5.83 5.83 0 00-4.429 1.892 6.563 6.563 0 00-1.79 4.618c0 1.792.568 3.393 1.703 4.619 1.135 1.226 2.638 1.791 4.43 1.791a5.215 5.215 0 003.202-1.037v.282c0 1.037-.282 1.892-.847 2.46-.566.567-1.325.847-2.356.847-1.513 0-2.45-.567-3.58-2.168l-2.27 2.168.095.095c.471.66 1.224 1.324 2.166 1.979s2.166.946 3.58.946c1.979 0 3.487-.568 4.616-1.792 1.13-1.224 1.79-2.734 1.79-4.713V12.761h-3.2v1.135h.19-.002zm-.846 7.634c-.567.66-1.324.946-2.27.946s-1.703-.282-2.27-.946c-.568-.664-.848-1.513-.848-2.544 0-1.031.3-1.89.868-2.55.568-.661 1.325-.947 2.27-.947.947 0 1.704.282 2.271.946.568.664.848 1.514.848 2.545s-.282 1.892-.848 2.545l-.02.005zm6.898-8.77H86.8v12.912h-3.32v-12.91l.021-.003zm1.582-5.654a1.932 1.932 0 00-1.979 1.98 1.979 1.979 0 103.958 0 1.931 1.931 0 00-1.98-1.98h.001zm8.758 2.166h-3.2v3.49H88.75v2.92h1.891v5.373c0 1.703.379 2.922 1.037 3.582.659.66 1.892 1.037 3.487 1.037a9.14 9.14 0 001.603-.095h.189v-2.923l-1.135.095c-.757 0-1.325-.095-1.514-.379-.282-.282-.378-.847-.378-1.703v-4.892h3.015v-2.923H93.94l-.098-3.582zm18.278-1.892h3.298v18.38h-3.294V7.392l-.004-.012zm36.185 13.772a10.872 10.872 0 01-1.602 1.514 3.217 3.217 0 01-4.049-.575c-.66-.757-.946-1.603-.946-2.735 0-1.13.282-1.979.946-2.733a2.899 2.899 0 012.356-1.037c1.036 0 2.166.66 3.108 1.792l2.166-2.082c-1.413-1.791-3.203-2.639-5.371-2.639-1.79 0-3.298.66-4.616 1.98a6.85 6.85 0 00-1.892 4.806c0 1.892.66 3.582 1.892 4.808a6.125 6.125 0 004.616 1.979c2.356 0 4.24-1.037 5.559-2.921l-2.167-2.168v.01zm13.286-6.514a4.962 4.962 0 00-1.892-1.514 6.15 6.15 0 00-2.732-.567c-1.79 0-3.298.66-4.429 1.979a7.568 7.568 0 00-1.603 4.807c0 1.98.568 3.582 1.79 4.808s2.732 1.892 4.711 1.892c2.166 0 3.958-.848 5.371-2.64l.095-.094-2.166-2.081c-.19.281-.472.47-.757.756a2.87 2.87 0 01-.946.66c-.49.27-1.044.4-1.603.38a3.626 3.626 0 01-2.27-.758c-.568-.47-.848-1.135-.946-1.979h8.669v-1.226a7.02 7.02 0 00-.379-2.46 4.266 4.266 0 00-.945-1.978l.032.015zm-7.067 3.023c.144-.57.437-1.092.848-1.513a2.266 2.266 0 011.703-.66c.756 0 1.413.189 1.789.66.379.378.568.946.661 1.513h-5.001zm19.599-3.865c-.946-.848-2.356-1.226-4.051-1.226a8.252 8.252 0 00-3.012.662c-.847.471-1.702 1.135-2.166 2.081l2.081 1.98c.848-1.414 1.79-1.893 3.109-1.893a2.628 2.628 0 011.702.568 1.703 1.703 0 01.661 1.413v.66a7.216 7.216 0 00-2.356-.378c-1.602 0-2.921.379-3.958 1.135-1.037.757-1.513 1.892-1.513 3.205 0 1.226.378 2.169 1.224 2.921.845.753 1.892 1.037 3.108 1.037 1.217 0 2.356-.47 3.487-1.324v1.037h3.203v-8.295c0-1.513-.471-2.734-1.513-3.581l-.006-.002zm-5.742 6.976c.378-.282.847-.379 1.513-.379a8.021 8.021 0 012.451.471v1.226a4.165 4.165 0 01-2.827 1.037c-.568 0-1.037-.095-1.324-.378-.288-.284-.472-.568-.472-.946a1.554 1.554 0 01.661-1.037l-.002.006zm19.78-6.787c-.946-1.037-2.166-1.513-3.769-1.513-1.319 0-2.355.378-3.108 1.135v-.757h-3.205v12.913h3.298v-7.16c0-.946.189-1.791.66-2.355a2.382 2.382 0 011.892-.848 2.067 2.067 0 011.703.757 3.41 3.41 0 01.66 2.081v7.54h3.283v-7.551c-.095-1.791-.566-3.205-1.414-4.242zm-80.088-.189c-.946-.848-2.355-1.226-4.051-1.226a8.243 8.243 0 00-3.015.66c-.848.471-1.703 1.136-2.167 2.082l2.081 1.979c.848-1.414 1.79-1.893 3.109-1.893a2.631 2.631 0 011.703.568 1.71 1.71 0 01.66 1.413v.66a7.214 7.214 0 00-2.355-.378c-1.602 0-2.922.379-3.958 1.136-1.037.756-1.514 1.891-1.514 3.204 0 1.226.378 2.169 1.224 2.922.846.753 1.892 1.036 3.109 1.036 1.216 0 2.355-.47 3.486-1.324v1.037h3.204v-8.293c0-1.513-.568-2.734-1.514-3.581l-.002-.002zm-5.84 6.976c.378-.282.847-.379 1.513-.379a8.015 8.015 0 012.45.471v1.226a4.162 4.162 0 01-2.826 1.037c-.568 0-1.037-.095-1.325-.378-.287-.284-.471-.568-.471-.946.141-.39.367-.744.661-1.037l-.002.006zm24.975 5.273a9.423 9.423 0 01-8.711-5.817 9.428 9.428 0 016.867-12.853 9.428 9.428 0 0111.266 9.244 9.46 9.46 0 01-9.422 9.425zm0-15.645a6.122 6.122 0 00-5.666 3.774 6.128 6.128 0 004.456 8.36 6.125 6.125 0 007.327-6.004 6.111 6.111 0 00-6.124-6.126"/></g></g><defs><clipPath id="clip0_6040_28499"><path fill="#fff" d="M0 0h190v32H0z"/></clipPath></defs></svg>