<svg width="40" height="40" fill="none" xmlns="http://www.w3.org/2000/svg"><path d="M30.037 13.54V8.843a3.618 3.618 0 002.086-3.26v-.109a3.617 3.617 0 00-3.618-3.617h-.108a3.617 3.617 0 00-3.617 3.617v.108a3.617 3.617 0 002.086 3.26v4.698a10.245 10.245 0 00-4.871 2.145L9.112 5.65a4.04 4.04 0 00.145-1.015 4.076 4.076 0 10-4.081 4.068 4.032 4.032 0 002.007-.546l12.686 9.872a10.275 10.275 0 00.157 11.574l-3.858 3.86a3.317 3.317 0 00-.964-.158 3.347 3.347 0 103.35 3.35 3.305 3.305 0 00-.158-.964l3.817-3.819a10.293 10.293 0 107.824-18.332zm-1.582 15.45a5.28 5.28 0 110-10.558 5.281 5.281 0 01.005 10.555" fill="#FF7A59"/></svg>