<svg width="120" height="34" fill="none" xmlns="http://www.w3.org/2000/svg"><g clip-path="url(#clip0)"><path d="M6.876.002c-1.098 0-2.52 1.164-3.36 1.938C1.671 3.578 0 6.59 0 9.007c0 3.435 2.921 4.731 3.66 4.731.244 0 .451-.125.451-.456 0-.259-.164-.475-.327-.696-.677-1.034-.894-2.021-.894-3.353 0-2.775 1.28-5.32 2.342-6.484.196-.21.638-.665.77-.665s.164.107.164.437L6.043 20.69c0 2.84-.82 3.968-.82 4.637 0 .293.128.37.37.37 1.15 0 2.297-1.402 2.621-1.913 1.007-1.74 1.254-3.097 1.254-7.013V1.504c0-.413-.116-.592-.508-.846C8.386.293 7.728.002 6.876.002zm32.882.05c-.541 0-.772.283-.798 1.158l-.12 3.623-3.168-.11c-.192-.005-.28.056-.363.225-.27.505-.411.9-.411 1.558 0 .536.243.593.46.593l3.296.095-.01 6.921c0 1.468-.926 3.373-2.57 4.957 0 0 .141-.479.133-.98 0-1.42-.914-2.707-2.132-3.618L31.1 12.236c.623-.72 1.68-2.151 1.68-3.359 0-.936-.59-1.33-1.687-1.33-1.55 0-3.346 1.419-3.346 3.523 0 .768.341 1.458.86 1.986-.716 1.36-1.73 3.147-2.482 4.42-.569.976-1.53 2.47-2.099 2.47-.42 0-.613-.66-.613-3.196 0-2.107.15-4.397.224-6.595 0-.504-.082-.97-.736-1.425-.602-.385-1.345-.924-2.11-.924-1.703 0-2.862 1.566-3.657 3.097-.824 1.587-1.269 2.925-1.896 4.865l.069-6.678c.021-.476-.099-.66-.48-.823-.494-.21-1.222-.451-1.867-.451-.54 0-.605.232-.605.8l-.073 8.012-.008 3.09c0 2.787.349 3.252 2.002 3.252.916 0 1.209-.108 1.227-.869.025-.503.266-1.722.592-2.945.952-3.61 2.08-6.464 4.026-8.64.203-.211.36-.136.328.164 0 0-.307 4.884-.307 6.882 0 3.554.546 5.408 2.314 5.408 1.736 0 3.44-2.23 4.37-3.735l2.985-4.992c1.933 1.648 3.283 2.926 3.283 4.48 0 .966-.61 1.911-1.538 1.911-1.16 0-1.901-1.223-2.685-1.223-.65 0-1.485 1.255-1.485 1.968 0 .674 1.468 1.626 4.104 1.626 3.891 0 5.978-2.67 7.23-5.627.24 3.51 1.639 5.56 3.82 5.56 1.43 0 3.084-1.808 3.836-4.016 0 0 .074.573.645 1.748.786 1.533 1.982 2.237 3.466 2.237 1.847 0 3.426-1.12 4.39-2.998.146 1.424 1.341 2.991 3.263 2.991 1.207 0 2.306-.924 3.028-2.447 0 0 .935 2.515 3.64 2.515 1.52 0 3.318-1.408 3.748-2.43l.047 1.487-4.013 3.7c-1.165 1.132-2.404 2.757-2.404 4.556 0 2.289 2.16 3.605 4.062 3.605 1.976 0 3.288-1.252 4.006-2.302.904-1.357 1.286-3.916 1.286-6.418l-.09-3.76c2.706-2.974 4.822-7.083 5.765-9.991l2.053-.054c.397-.027.378.13.323.362-.361 1.524-.676 3.251-.676 4.971 0 2.841.654 4.078 1.595 5.088.818.847 1.631 1.132 2.487 1.132 1.674 0 2.725-1.382 3.059-2.254.786 1.533 1.944 2.247 3.428 2.247 1.847 0 3.426-1.119 4.39-2.997.147 1.423 1.342 2.99 3.264 2.99 1.435 0 2.268-.828 2.923-2.389.013.502.033 1.037.047 1.54.018.259.225.423.411.491.61.231 1.146.347 1.627.347 1.255 0 1.528-.258 1.528-1.079 0-1.353.04-3.49.424-5.207.408-1.71 1.024-3.644 1.874-4.99.077-.14.264-.103.272.066.122 2.88.315 7.756 1.072 9.018.373.602.95 1.04 1.815 1.04.405 0 .901-.172 1.028-.28.129-.1.194-.212.186-.419 0-3.682 1.149-7.247 2.299-9.643.031-.072.121-.077.118.017l-.064 2.653c0 4.357.314 7.11 2.49 8.434a2.92 2.92 0 004.024-1.26c.406-.777.787-2.273.787-3.12 0-.328.004-.862-.534-.862-.295 0-.472.217-.542.545-.172.712-.312 1.323-.578 2.026-.254.672-.634 1.064-1.084 1.064-.528 0-.796-.416-.949-.673-.674-1.028-.728-3.39-.728-5.362l.162-5.074c0-.42-.175-.923-.823-1.293-.435-.25-1.535-.722-2.209-.722-.625 0-.927.354-1.152.874-.423.933-1.837 4.593-2.216 7.568-.013.079-.111.095-.118-.005a74.514 74.514 0 01-.296-6.35c0-.517-.126-1.256-1.223-1.735-.533-.221-.974-.357-1.513-.357-.668 0-.811.327-1.051.76-.756 1.399-1.28 3.223-2.064 5.523l.012-5.264c0-.246-.151-.569-.584-.655-1.071-.247-1.568-.358-1.99-.358-.308 0-.477.245-.477.51l-.057 8.974c-.208 1.1-1.047 3.721-2.24 3.721-.977 0-1.434-.99-1.434-5.133l.178-6.732c0-.426-.28-.604-.686-.784a4.096 4.096 0 00-1.636-.323c-.742 0-.997.355-.847 1.208-.815-1.103-1.63-1.713-3.072-1.713-2.892 0-5.072 3.479-5.072 8.535-.029 1.418.314 2.827.314 2.827-.262 1.177-.877 2.136-1.727 2.136-1.072 0-1.756-1.516-1.756-4.144 0-2.635 1.004-5.607 1.004-6.412 0-.937-.614-1.53-1.7-1.53-.544 0-2.563.458-3.598.609 0 0 .117-.493.108-.88 0-.924-.433-1.503-1.508-1.503-1.315 0-2.28.939-2.28 2.54 0 .718.414 1.383.961 1.74-.71 2.966-1.867 5.171-3.57 7.635l.143-9.977c0-.324-.086-.526-.721-.772a4.01 4.01 0 00-1.573-.313c-1 0-.934.714-.88 1.249-.458-.811-1.46-1.774-3.006-1.774-4.21 0-5.504 6.421-4.87 10.982 0 .556-.542 2.53-1.769 2.53-.978 0-1.434-.992-1.434-5.134l.179-6.732c0-.426-.281-.604-.688-.784a4.088 4.088 0 00-1.634-.323c-.742 0-.997.355-.847 1.208-.816-1.104-1.633-1.714-3.074-1.714-2.892 0-5.101 3.182-5.101 8.238 0 1.93-1.662 4.875-2.827 4.875-.648 0-1.337-1.188-1.337-4.224.003-2.07.286-9.115.286-9.115l4.067-.066c.194-.002.307-.214.379-.345.186-.378.277-.63.277-1.084 0-.41-.082-.559-.607-.588l-4.054-.244.173-3.776c.012-.239-.132-.394-.392-.51-.785-.308-1.748-.604-2.357-.604zm12.31 9.896c1.085 0 2.185.99 2.185 4.498 0 4.418-1.61 6.474-2.847 6.474-1.16 0-2.042-1.638-2.042-4.855 0-3.252.86-6.117 2.704-6.117zm39.055 0c1.084 0 2.185.99 2.185 4.498 0 4.418-1.61 6.474-2.848 6.474-1.16 0-2.04-1.638-2.04-4.855 0-3.252.86-6.117 2.703-6.117zm-24.771.02c1.415 0 2.041 1.46 2.041 4.287 0 4.264-1.267 6.692-2.806 6.692-.983 0-2.113-1.614-2.054-4.787 0-2.03.662-6.192 2.819-6.192zm2.396 14.264v1.68c0 5.573-1.485 6.524-2.678 6.524-.452 0-1.56-.342-1.56-1.72 0-1.928 2.015-4.12 2.641-4.798l1.597-1.686z" fill="#3F5D87"/></g><defs><clipPath id="clip0"><path fill="#fff" d="M0 0h120v33.888H0z"/></clipPath></defs></svg>