<svg width="110" height="30" fill="none" xmlns="http://www.w3.org/2000/svg"><g clip-path="url(#clip0)"><path d="M15.125 27.82c-1.654.291-3.338.378-5.08.61L4.732 12.87v16.228c-1.655.174-3.164.407-4.732.639V.009h4.413l6.038 16.867V.01h4.674v27.81zm9.145-16.925c1.8 0 4.558-.087 6.213-.087v4.645c-2.061 0-4.47 0-6.213.087v6.91c2.73-.174 5.458-.407 8.216-.494v4.47l-12.86 1.017V.01h12.86v4.645H24.27v6.241zm25.49-6.241h-4.82V26.02c-1.567 0-3.135 0-4.644.058V4.654h-4.82V.009H49.76v4.645zm7.548 5.922h6.358v4.645h-6.358V25.76H52.75V.009h12.977v4.645h-8.42v5.922zm15.967 11.12c2.642.057 5.313.26 7.897.405v4.588c-4.152-.262-8.303-.523-12.542-.61V.009h4.645v21.686zm11.816 5.312c1.48.087 3.048.174 4.558.348V.01H85.09v26.999zM110 .008l-5.893 14.139L110 29.737c-1.742-.232-3.484-.552-5.226-.842l-3.338-8.593-3.397 7.896c-1.684-.29-3.31-.377-4.993-.61l5.98-13.615-5.4-13.964h4.993l3.049 7.81 3.251-7.81H110z" fill="#D81F26"/></g><defs><clipPath id="clip0"><path fill="#fff" d="M0 0h110v29.744H0z"/></clipPath></defs></svg>