<svg width="90" height="30" fill="none" xmlns="http://www.w3.org/2000/svg"><path d="M51.364 1.123s2.492 1.733 0 2.054c0 0-9.324 1.076-16.254 7.574 0 0-10.402 9.082-14.308 19.03 0 0-1.302 0-.868-1.941.434-1.943 3.038-10.494 14.63-20.988-.014 0 11.158-10.172 16.8-5.729zm-29.596 1.3c.112 2.375 2.17 11.472 2.17 11.472.756 1.844 1.414 0 1.414 0C27.844 6.433 22.748 2.1 22.748 2.1c-1.302-.768-.98.322-.98.322z" fill="#E94D1E"/><path d="M2.744 8.767c.896-.224 2.212-.35 3.542-.35 1.344 0 2.8.28 3.738 1.034.868.657 1.344 1.607 1.344 2.907 0 1.732-.798 3.115-1.862 3.968-1.176.936-2.842 1.383-4.578 1.383-.518 0-.98-.07-1.372-.112l-1.036 5.52H0l2.744-14.35zm1.19 6.748c.42.084.784.126 1.33.126 2.156 0 3.556-1.37 3.556-3.102 0-1.537-1.106-2.096-2.534-2.096-.63 0-1.106.042-1.386.126l-.966 4.946zm13.092 7.602c.028-.629.112-1.467.196-2.39h-.07c-1.036 1.943-2.436 2.628-3.78 2.628-1.89 0-3.122-1.468-3.122-3.592 0-3.59 2.52-7.433 7.448-7.433 1.148 0 2.394.223 3.192.475l-1.078 5.505c-.308 1.58-.476 3.55-.434 4.807h-2.352zm1.036-8.72a4.024 4.024 0 00-1.036-.111c-2.338 0-4.144 2.627-4.144 5.03 0 1.104.406 2.012 1.526 2.012 1.176 0 2.604-1.467 3.108-4.163l.546-2.767zm25.044 2.306c0 3.577-2.52 6.652-6.118 6.652-2.674 0-4.326-1.845-4.326-4.36 0-3.577 2.492-6.665 6.104-6.665 2.842 0 4.34 2.04 4.34 4.373zm-7.84 2.236c0 1.453.784 2.473 2.058 2.473 1.89 0 3.15-2.599 3.15-4.695 0-1.09-.476-2.431-2.016-2.431-2.016 0-3.192 2.683-3.192 4.653zm8.275 4.178l1.372-7.28c.266-1.258.406-2.361.546-3.27h2.24l-.21 1.9h.042c.98-1.425 2.324-2.137 3.794-2.137 1.498 0 2.688.908 2.688 2.906 0 .475-.084 1.216-.196 1.76l-1.176 6.135h-2.52l1.134-5.953c.07-.39.126-.838.126-1.257 0-.866-.322-1.51-1.33-1.51-1.148 0-2.632 1.384-3.08 3.857l-.91 4.877h-2.52v-.028zm19.57-.601c-1.036.545-2.45.825-3.738.825-2.926 0-4.34-1.775-4.34-4.36 0-3.186 2.338-6.651 5.992-6.651 2.086 0 3.402 1.216 3.402 2.962 0 2.71-2.842 3.577-6.93 3.493-.042.364.042 1.09.28 1.495.406.713 1.176 1.09 2.17 1.09a6.3 6.3 0 002.912-.698l.252 1.844zm-2.408-8.3c-1.582 0-2.632 1.411-2.926 2.683 2.604.042 4.27-.321 4.27-1.579 0-.685-.532-1.104-1.344-1.104zm12.223 8.3c-1.036.545-2.45.825-3.738.825-2.926 0-4.34-1.775-4.34-4.36 0-3.186 2.338-6.651 5.992-6.651 2.086 0 3.401 1.216 3.401 2.962 0 2.71-2.841 3.577-6.93 3.493-.041.364.043 1.09.28 1.495.407.713 1.177 1.09 2.17 1.09a6.3 6.3 0 002.913-.698l.252 1.844zm-2.408-8.3c-1.582 0-2.632 1.411-2.926 2.683 2.604.042 4.27-.321 4.27-1.579 0-.685-.546-1.104-1.344-1.104zm3.862 8.901l1.233-6.498c.28-1.495.406-3.101.546-4.052h2.198c-.07.713-.126 1.454-.238 2.236h.07c.714-1.425 1.862-2.473 3.318-2.473.168 0 .364.028.546.042l-.504 2.473a2.407 2.407 0 00-.476-.042c-1.806 0-2.954 1.816-3.36 4.066l-.798 4.248H74.38zm9.619-10.103a.537.537 0 01-.546.545.55.55 0 01-.56-.545c0-.293.252-.53.56-.53a.526.526 0 01.546.53zm-.966 0c0 .238.182.434.42.434s.406-.196.406-.434c0-.237-.168-.433-.42-.433-.224 0-.406.196-.406.433zm.336.28h-.126v-.531c.056-.014.112-.014.21-.014.098 0 .154.014.182.042.028.028.056.07.056.126 0 .056-.042.097-.112.125.056.014.084.056.098.126a.413.413 0 00.042.14h-.14c-.014-.014-.028-.07-.042-.126-.014-.056-.042-.084-.112-.084h-.056v.196zm0-.308h.056c.07 0 .126-.027.126-.083 0-.042-.042-.084-.112-.084h-.07v.167z" fill="#343434"/></svg>