<svg width="90" height="30" fill="none" xmlns="http://www.w3.org/2000/svg"><path d="M18.59 5.742c-.96-1.093-2.695-1.562-4.913-1.562h-6.44a.922.922 0 00-.911.778l-2.68 17.006a.553.553 0 00.546.639h3.975l.999-6.333-.031.198a.92.92 0 01.907-.778h1.89c3.71 0 6.617-1.507 7.466-5.868.025-.129.047-.254.065-.377.253-1.612-.001-2.709-.873-3.702" fill="#003087"/><path d="M67.257 13.835c-.243 1.595-1.462 1.595-2.64 1.595h-.67l.47-2.979a.37.37 0 01.366-.312h.307c.803 0 1.56 0 1.951.457.234.273.304.679.216 1.239zm-.513-4.164h-4.446a.62.62 0 00-.61.522L59.89 21.592a.371.371 0 00.366.428h2.281a.432.432 0 00.427-.365l.51-3.233a.618.618 0 01.61-.521h1.407c2.929 0 4.618-1.416 5.06-4.226.198-1.227.008-2.193-.567-2.868-.632-.743-1.753-1.136-3.24-1.136" fill="#009CDE"/><path d="M35.55 13.835c-.243 1.595-1.461 1.595-2.64 1.595h-.671l.47-2.979a.37.37 0 01.366-.312h.308c.802 0 1.56 0 1.951.457.234.273.304.679.216 1.239zm-.513-4.164h-4.445a.618.618 0 00-.61.522l-1.798 11.399a.372.372 0 00.366.428h2.123a.618.618 0 00.61-.522l.485-3.075a.617.617 0 01.61-.522h1.407c2.929 0 4.618-1.416 5.06-4.226.199-1.227.008-2.193-.567-2.868-.632-.743-1.753-1.136-3.24-1.136zm10.321 8.256c-.206 1.216-1.17 2.033-2.402 2.033-.618 0-1.112-.199-1.43-.575-.315-.372-.433-.904-.334-1.495.192-1.205 1.173-2.048 2.386-2.048.605 0 1.095.2 1.42.58.325.382.454.917.36 1.505zm2.967-4.144h-2.129a.37.37 0 00-.366.314l-.093.595-.15-.216c-.46-.669-1.488-.893-2.514-.893-2.352 0-4.36 1.783-4.752 4.282-.203 1.248.086 2.44.793 3.27.65.765 1.576 1.083 2.68 1.083 1.897 0 2.948-1.217 2.948-1.217l-.095.591a.371.371 0 00.366.428h1.917c.304 0 .563-.22.61-.521l1.151-7.287a.371.371 0 00-.366-.428" fill="#003087"/><path d="M77.065 17.927c-.206 1.216-1.17 2.033-2.402 2.033-.618 0-1.112-.199-1.43-.575-.315-.372-.433-.904-.333-1.495.191-1.205 1.172-2.048 2.385-2.048.605 0 1.095.2 1.42.58.326.382.454.917.36 1.505zm2.967-4.144h-2.129a.371.371 0 00-.366.314l-.093.595-.15-.216c-.46-.669-1.488-.893-2.514-.893-2.351 0-4.36 1.783-4.752 4.282-.203 1.248.087 2.44.794 3.27.65.765 1.576 1.083 2.68 1.083 1.897 0 2.948-1.217 2.948-1.217l-.095.591a.368.368 0 00.365.428h1.916a.62.62 0 00.612-.521l1.15-7.287a.371.371 0 00-.366-.428" fill="#009CDE"/><path d="M59.661 13.784h-2.14a.615.615 0 00-.51.27l-2.952 4.348-1.251-4.178a.618.618 0 00-.592-.44h-2.103a.37.37 0 00-.35.49l2.355 6.916-2.216 3.127a.371.371 0 00.303.584h2.138a.62.62 0 00.507-.265l7.115-10.27a.37.37 0 00-.304-.582" fill="#003087"/><path d="M82.54 9.985l-1.825 11.607a.37.37 0 00.367.428h1.834a.618.618 0 00.61-.521l1.8-11.4a.372.372 0 00-.211-.394.37.37 0 00-.155-.034h-2.053a.37.37 0 00-.367.313" fill="#009CDE"/><path d="M18.59 5.742c-.96-1.093-2.695-1.562-4.913-1.562h-6.44a.922.922 0 00-.911.778l-2.68 17.006a.553.553 0 00.546.639h3.975l.999-6.333-.031.198a.92.92 0 01.907-.778h1.89c3.71 0 6.617-1.507 7.466-5.868.025-.129.047-.254.065-.377.253-1.612-.001-2.709-.873-3.702" fill="#003087"/><path d="M10.237 9.466a.807.807 0 01.796-.68h5.048c.598 0 1.156.039 1.666.12.278.045.554.106.825.185.308.086.606.205.889.354.253-1.613-.001-2.71-.873-3.703-.96-1.093-2.694-1.562-4.913-1.562h-6.44a.922.922 0 00-.91.778L3.644 21.963a.552.552 0 00.545.64h3.976l.999-6.335 1.073-6.802z" fill="#003087"/><path d="M19.462 9.444c-.02.126-.042.252-.066.377-.849 4.36-3.755 5.869-7.466 5.869h-1.89a.918.918 0 00-.907.777l-.967 6.135-.275 1.74a.483.483 0 00.478.56h3.351a.807.807 0 00.796-.681l.033-.171.632-4.003.04-.221a.806.806 0 01.796-.68h.502c3.246 0 5.789-1.319 6.531-5.134.31-1.594.15-2.925-.67-3.86a3.2 3.2 0 00-.918-.708" fill="#009CDE"/><path d="M18.573 9.09a7.078 7.078 0 00-.826-.183 10.409 10.409 0 00-1.666-.122h-5.048a.805.805 0 00-.796.68L9.164 16.27l-.031.197a.918.918 0 01.907-.777h1.89c3.71 0 6.617-1.508 7.466-5.869.025-.129.046-.254.066-.377a4.583 4.583 0 00-.89-.354" fill="#012169"/></svg>