<svg width="120" height="31" fill="none" xmlns="http://www.w3.org/2000/svg"><g clip-path="url(#clip0)"><path d="M27.578 10.693c1.301 0 2.55-1.083 2.767-2.42.256-1.3-.625-2.383-1.926-2.383-1.3 0-2.549 1.083-2.77 2.384-.253 1.336.593 2.42 1.93 2.42zm88.292 3.866h2.911c.399 0 .632-.162.722-.534.139-.576.283-1.152.43-1.726.086-.335-.109-.59-.481-.59h-2.871c.206-.822 1.012-3.494 1.012-5.237 0-3.479-2.955-6.438-7.147-6.438-4.734 0-7.814 3.177-7.814 7.648 0 1.304.487 2.823 1.09 3.766a13.63 13.63 0 00-.78-.022c-3.597 0-5.863 1.952-5.863 4.791 0 2.665 2.101 3.7 4.079 4.39 1.757.612 3.375.897 3.375 2.27 0 .925-.891 1.468-2.633 1.468-2.067 0-3.203-.973-3.492-1.343.196-.154.487-.52.487-1.13 0-.854-.6-1.551-1.713-1.551-.943 0-1.74.769-1.94 1.78-1.513 1.238-3.166 2.04-5.509 2.04-2.307 0-3.505-1.2-3.505-3.753.541.165 1.95.362 2.88.362 3.907 0 6.57-1.774 6.57-5.33 0-1.91-1.678-3.918-4.998-3.918h-.007c-4.367 0-6.813 2.766-7.88 5.808-.3-.072-.6-.142-.9-.21.24-.675.41-1.457.41-2.324 0-1.502-.93-3.274-3.42-3.274-1.734 0-3.38 1.136-4.52 2.838.284-1.11.472-1.85.484-1.9.075-.29-.046-.614-.5-.614h-2.555c-.364 0-.621.13-.725.544-.069.277-.947 3.722-1.802 7.076-.538 2.092-3.324 4.696-6.824 4.696-2.308 0-3.505-1.28-3.505-3.834.604.24 1.95.442 2.88.442 4.066 0 6.57-1.775 6.57-5.33 0-1.91-1.678-3.918-4.999-3.918h-.007c-4.916 0-7.928 3.818-8.439 8.149-.212 1.8-1.731 4.271-3.378 4.271-.803 0-1.25-.504-1.25-1.36 0-.738.52-2.545 1.09-4.81l.803-3.193h2.673c.398 0 .631-.162.721-.534.128-.536.363-1.47.43-1.726.086-.335-.108-.59-.48-.59h-2.63s1.211-4.828 1.24-4.952c.116-.49-.295-.774-.724-.684 0 0-2.032.398-2.409.477-.379.076-.672.284-.81.83l-1.075 4.33H47.03c-.398 0-.632.162-.721.534-.14.576-.283 1.152-.43 1.726-.087.335.108.59.48.59h2.07c-.014.059-.747 2.847-1.34 5.343-.28 1.2-1.214 4.01-2.744 4.01-.914 0-1.3-.46-1.3-1.45 0-1.558 1.533-5.457 1.533-7.227 0-2.363-1.268-3.732-3.866-3.732-1.638 0-3.335 1.057-4.055 1.985 0 0 .218-.76.293-1.052.08-.308-.086-.611-.49-.611h-2.54c-.541 0-.69.288-.77.606l-1.825 7.172c-.601 2.362-2.061 4.336-3.623 4.336-.802 0-1.16-.504-1.16-1.36 0-.739.478-2.563 1.048-4.827.693-2.756 1.305-5.026 1.37-5.291.086-.34-.066-.636-.504-.636H25.9c-.462 0-.628.243-.725.58 0 0-.72 2.723-1.48 5.753-.554 2.2-1.165 4.44-1.165 5.492 0 1.879.844 3.295 3.162 3.295 1.79 0 3.206-.908 4.287-2.064-.158.626-.26 1.022-.27 1.062-.093.358.02.675.441.675h2.615c.455 0 .63-.184.725-.58.092-.38 2.045-8.06 2.045-8.06.516-2.064 1.792-3.43 3.589-3.43.851 0 1.588.564 1.503 1.66-.095 1.205-1.549 5.537-1.549 7.438 0 1.439.534 3.3 3.242 3.3 1.847 0 3.206-.885 4.194-2.027.362 1.212 1.32 2.027 3.08 2.027 2.922 0 4.684-1.733 5.719-3.474.859 2.023 2.87 3.473 5.82 3.473 3.007 0 5.333-1.267 6.982-2.99l-.514 2.017c-.094.363.064.649.49.649h2.589c.354 0 .606-.18.698-.553l.948-3.68c1.01-3.93 2.633-8.006 5.072-8.006.86 0 1.213.48 1.213 1.238 0 .357-.103.666-.193.831-1.182-.235-2.133.35-2.133 1.612 0 .822.865 1.57 2.033 1.57.893 0 1.63-.22 2.22-.615.578.12 1.156.245 1.733.377a11.4 11.4 0 00-.136 1.722c0 3.153 2.252 5.828 6.289 5.828 3.163 0 5.333-1.157 7.207-2.64.9 1.473 3.175 2.664 6.158 2.664 4.09 0 6.409-2.126 6.409-4.937 0-2.544-2.088-3.48-4.242-4.26-1.751-.632-3.211-.976-3.211-2.213 0-1.014.799-1.478 2.167-1.478.887 0 1.554.191 1.91.291.353.883 1.083 1.862 2.33 1.862 1.055 0 1.529-.835 1.529-1.603 0-2.188-3.644-2.417-3.644-7.109 0-2.917 1.651-5.324 5.07-5.324 2.375 0 3.926 1.506 3.926 3.938 0 2.004-1.215 5.573-1.215 5.573h-2.067c-.397 0-.631.162-.721.533-.14.577-.283 1.152-.43 1.727-.087.335.108.59.48.59h2.018s-2.086 7.692-2.086 9.09c0 1.88 1.059 3.295 3.378 3.295 3.281 0 5.332-2.132 6.223-5.233.069-.24-.067-.435-.31-.435h-1.251c-.25 0-.395.143-.458.387-.283 1.1-.984 2.258-2.364 2.258-.802 0-1.249-.503-1.249-1.359 0-.739.489-2.47 1.091-4.81.287-1.114.797-3.194.797-3.194zM90 14.428c1.16 0 1.712.772 1.712 1.692 0 1.555-1.207 2.504-3.094 2.504-.675 0-1.62-.16-2.177-.346.234-1.43 1.27-3.85 3.56-3.85zm-27.292 0c1.27 0 1.71.772 1.71 1.692 0 1.555-1.205 2.504-3.092 2.504-.676 0-1.62-.16-2.177-.346.233-1.43 1.15-3.85 3.56-3.85zM12.5 0C4.22 0 .047 5.936.047 10.885c0 2.997 1.135 5.663 3.568 6.657.4.163.757.005.872-.436.08-.306.271-1.077.356-1.399.117-.437.072-.59-.25-.971-.702-.828-1.15-1.9-1.15-3.417 0-4.404 3.294-8.346 8.579-8.346 4.68 0 7.25 2.86 7.25 6.678 0 5.024-2.223 9.265-5.524 9.265-1.823 0-3.188-1.508-2.75-3.357.523-2.207 1.538-4.59 1.538-6.183 0-1.426-.766-2.616-2.35-2.616-1.864 0-3.36 1.928-3.36 4.51 0 1.645.555 2.757.555 2.757L5.14 23.522c-.666 2.819-.1 6.273-.053 6.622.029.207.294.256.415.1.172-.224 2.39-2.964 3.145-5.702.214-.776 1.226-4.79 1.226-4.79.606 1.155 2.375 2.172 4.257 2.172 5.6 0 9.401-5.106 9.401-11.942C23.531 4.814 19.154 0 12.5 0z" fill="#CB2027"/></g><defs><clipPath id="clip0"><path fill="#fff" d="M0 0h120v30.336H0z"/></clipPath></defs></svg>