<svg width="24" height="24" fill="none" xmlns="http://www.w3.org/2000/svg"><g clip-path="url(#clip0)" fill-rule="evenodd" clip-rule="evenodd"><path d="M8.781 0a2.397 2.397 0 00-2.394 2.4 2.398 2.398 0 002.395 2.399h2.396V2.4A2.4 2.4 0 008.781 0c.001 0 .001 0 0 0zm0 6.4H2.395A2.398 2.398 0 000 8.8a2.398 2.398 0 002.394 2.4h6.387a2.398 2.398 0 002.396-2.4 2.398 2.398 0 00-2.396-2.4z" fill="#36C5F0"/><path d="M23.952 8.8a2.398 2.398 0 00-2.396-2.4 2.398 2.398 0 00-2.395 2.4v2.4h2.395a2.398 2.398 0 002.396-2.4zm-6.387 0V2.4A2.398 2.398 0 0015.17 0a2.398 2.398 0 00-2.396 2.4v6.4a2.398 2.398 0 002.395 2.4 2.398 2.398 0 002.396-2.4z" fill="#2EB67D"/><path d="M15.17 24a2.398 2.398 0 002.395-2.4 2.398 2.398 0 00-2.396-2.399h-2.396v2.4A2.4 2.4 0 0015.17 24zm0-6.4h6.386a2.398 2.398 0 002.396-2.4 2.398 2.398 0 00-2.395-2.4H15.17a2.398 2.398 0 00-2.396 2.399 2.397 2.397 0 002.395 2.4z" fill="#ECB22E"/><path d="M0 15.2a2.398 2.398 0 002.396 2.399 2.398 2.398 0 002.395-2.4v-2.4H2.396A2.398 2.398 0 000 15.2zm6.387 0v6.4A2.398 2.398 0 008.782 24a2.398 2.398 0 002.396-2.4v-6.399a2.396 2.396 0 10-4.79-.002s0 .001 0 0z" fill="#E01E5A"/></g><defs><clipPath id="clip0"><path fill="#fff" d="M0 0h23.952v24H0z"/></clipPath></defs></svg>