<svg width="120" height="24" fill="none" xmlns="http://www.w3.org/2000/svg"><g clip-path="url(#clip0)"><path d="M106.212 4.24v12L97.374 4.23l-1.448-.002v14.61h1.624V7.104l8.661 11.743 1.63.002V4.24h-1.629zm-18.737-.339c-4.108 0-6.979 3.142-6.979 7.64 0 4.505 2.871 7.646 6.98 7.646 4.103 0 6.965-3.141 6.965-7.646 0-4.498-2.862-7.64-6.966-7.64zm0 13.739c-3.13 0-5.323-2.508-5.323-6.099 0-3.587 2.194-6.095 5.323-6.095 3.125 0 5.305 2.508 5.305 6.095 0 3.59-2.18 6.099-5.305 6.099zm23.832-.22v-5.405h8.042v-1.43h-8.042V5.66h8.589V4.23h-10.228v14.62h10.328v-1.43h-8.689z" fill="#6B6B6B"/><path d="M75.916 18.863l-4.67-6.34-4.668 6.34h-1.923l5.616-7.66-5.129-6.962h1.923l4.182 5.678 4.176-5.678h1.921l-5.125 6.962 5.618 7.66h-1.92zm-25.711-7.107a4.199 4.199 0 00-.957-.61 3.313 3.313 0 001.757-2.928c0-.936-.345-3.977-4.754-3.977h-5.937v6.303h-1.979c-.364.482-.718.97-1.062 1.467h3.04v6.85l5.938.001c3.217 0 5.215-1.633 5.215-4.268 0-1.151-.435-2.13-1.261-2.838zm-8.25-5.99h4.297c1.163 0 3.11.29 3.11 2.324 0 1.538-1.135 2.455-3.11 2.455h-4.297V5.766zm4.296 11.571h-4.296v-5.323h4.296c1.63 0 3.578.45 3.578 2.548 0 2.413-2.24 2.775-3.578 2.775z" fill="#177D3E"/><path d="M59.19 3.903c-4.107 0-6.978 3.142-6.978 7.64 0 4.504 2.87 7.644 6.978 7.644 4.103 0 6.965-3.14 6.965-7.645 0-4.497-2.862-7.64-6.965-7.64zm0 13.737c-3.13 0-5.321-2.508-5.321-6.098 0-3.587 2.191-6.095 5.32-6.095 3.125 0 5.305 2.508 5.305 6.095 0 3.59-2.18 6.098-5.304 6.098zm-19.675 1.221l-5.62-7.66 5.128-6.96h-1.921L32.92 9.92l-4.178-5.68h-1.916l5.125 6.96-5.62 7.66h1.926l4.665-6.339 4.669 6.34h1.923z" fill="#177D3E"/><path d="M23.794 11.76c0 6.496-5.326 11.76-11.895 11.76-6.57 0-11.895-5.264-11.895-11.76C.004 5.266 5.33 0 11.899 0c6.57 0 11.895 5.265 11.895 11.76z" fill="#666"/><path d="M23.794 11.76c0 6.496-5.326 11.76-11.895 11.76-6.57 0-11.895-5.264-11.895-11.76C.004 5.266 5.33 0 11.899 0c6.57 0 11.895 5.265 11.895 11.76z" fill="url(#paint0_radial)"/><path d="M23.794 11.76c0 6.496-5.326 11.76-11.895 11.76-6.57 0-11.895-5.264-11.895-11.76C.004 5.266 5.33 0 11.899 0c6.57 0 11.895 5.265 11.895 11.76z" fill="url(#paint1_radial)"/><path d="M23.794 11.76c0 6.496-5.326 11.76-11.895 11.76-6.57 0-11.895-5.264-11.895-11.76C.004 5.266 5.33 0 11.899 0c6.57 0 11.895 5.265 11.895 11.76z" fill="url(#paint2_radial)"/><path d="M8.882 6.609c-1.314 1.592-6.816 8.063-6.328 12.438.34.43.714.833 1.11 1.213-.058-3.35 3.872-6.934 6.94-9.639L8.88 6.609z" fill="#00A54D"/><path d="M8.88 6.609c-1.312 1.592-6.814 8.063-6.326 12.438.34.43.714.833 1.11 1.212-.058-3.348 3.872-6.933 6.94-9.638L8.88 6.609z" fill="url(#paint3_linear)"/><path d="M5.651 1.758A11.95 11.95 0 003.742 3.19c1.887.359 3.78 2.02 4.817 3.396.904 1.413 1.395 2.708 2.033 4.044a68.88 68.88 0 011.347-1.12l-.003-5.805c-1.406-.873-3.73-2.023-6.263-1.948-.006.003-.017-.004-.022 0z" fill="#02A74D"/><path d="M5.651 1.758A11.95 11.95 0 003.742 3.19c1.887.359 3.78 2.02 4.817 3.396.904 1.413 1.395 2.708 2.033 4.044a68.88 68.88 0 011.347-1.12l-.003-5.805c-1.406-.873-3.73-2.023-6.263-1.948-.006.003-.017-.004-.022 0z" fill="url(#paint4_linear)"/><path d="M14.92 6.614c1.309 1.593 6.792 8.07 6.306 12.448-.339.43-.712.834-1.106 1.214.057-3.352-3.86-6.94-6.917-9.647l1.717-4.016z" fill="#00A54D"/><path d="M14.918 6.613c1.308 1.594 6.792 8.07 6.306 12.449-.34.43-.71.835-1.107 1.214.058-3.352-3.859-6.94-6.916-9.647l1.717-4.016z" fill="url(#paint5_linear)"/><path d="M18.14 1.758c.68.414 1.318.895 1.903 1.435-1.88.359-3.767 2.021-4.801 3.398-.9 1.414-1.39 2.71-2.027 4.049-.43-.367-.868-.74-1.342-1.121l.003-5.81c1.4-.875 3.717-2.026 6.242-1.95.005.003.017-.004.022 0z" fill="#02A74D"/><path d="M18.14 1.758c.68.414 1.318.895 1.903 1.435-1.88.359-3.767 2.021-4.801 3.398-.9 1.414-1.39 2.71-2.027 4.049-.43-.367-.868-.74-1.342-1.121l.003-5.81c1.4-.875 3.717-2.026 6.242-1.95.005.003.017-.004.022 0z" fill="url(#paint6_linear)"/></g><defs><linearGradient id="paint3_linear" x1="7.597" y1="15.058" x2="4.809" y2="11.744" gradientUnits="userSpaceOnUse"><stop stop-color="#97CA43"/><stop offset="1" stop-color="#97CA43" stop-opacity="0"/></linearGradient><linearGradient id="paint4_linear" x1="7.475" y1="7.19" x2="10.012" y2="1.485" gradientUnits="userSpaceOnUse"><stop stop-color="#97CA43"/><stop offset="1" stop-color="#97CA43" stop-opacity="0"/></linearGradient><linearGradient id="paint5_linear" x1="16.239" y1="15.022" x2="13.443" y2="11.725" gradientUnits="userSpaceOnUse"><stop stop-color="#97CA43"/><stop offset="1" stop-color="#97CA43" stop-opacity="0"/></linearGradient><linearGradient id="paint6_linear" x1="16.339" y1="6.9" x2="18.524" y2="3.322" gradientUnits="userSpaceOnUse"><stop stop-color="#97CA43"/><stop offset="1" stop-color="#97CA43" stop-opacity="0"/></linearGradient><radialGradient id="paint0_radial" cx="0" cy="0" r="1" gradientUnits="userSpaceOnUse" gradientTransform="matrix(0 17.1363 -15.2168 0 11.686 10.5)"><stop stop-color="#fff"/><stop offset="1" stop-color="#fff" stop-opacity="0"/></radialGradient><radialGradient id="paint1_radial" cx="0" cy="0" r="1" gradientUnits="userSpaceOnUse" gradientTransform="matrix(0 17.1363 -15.2168 0 11.686 10.5)"><stop stop-color="#fff"/><stop offset="1" stop-color="#fff" stop-opacity="0"/></radialGradient><radialGradient id="paint2_radial" cx="0" cy="0" r="1" gradientUnits="userSpaceOnUse" gradientTransform="matrix(0 17.1363 -15.2168 0 11.686 10.5)"><stop stop-color="#fff"/><stop offset="1" stop-color="#fff" stop-opacity="0"/></radialGradient><clipPath id="clip0"><path fill="#fff" d="M0 0h120v23.52H0z"/></clipPath></defs></svg>