<svg width="40" height="40" fill="none" xmlns="http://www.w3.org/2000/svg"><path d="M25 20.009c0 1.442-.26 2.873-.768 4.222-1.35.509-2.781.77-4.224.77h-.017a11.993 11.993 0 01-4.222-.77A11.939 11.939 0 0115 20.009v-.018c0-1.442.26-2.872.767-4.222A11.95 11.95 0 0119.991 15h.017c1.443 0 2.874.26 4.224.77.509 1.349.769 2.779.768 4.221v.018zm14.722-3.342H28.048l8.254-8.255a20.083 20.083 0 00-2.16-2.555 20.155 20.155 0 00-2.554-2.16l-8.255 8.256V.278A20.096 20.096 0 0020.01 0h-.02a20.1 20.1 0 00-3.323.278v11.675L8.412 3.698c-.91.647-1.764 1.37-2.553 2.16l-.004.003a20.126 20.126 0 00-2.158 2.55l8.256 8.256H.278S0 18.859 0 19.993v.014c0 1.134.096 2.245.278 3.326h11.675l-8.256 8.255a20.143 20.143 0 004.715 4.715l8.255-8.256v11.675a20.2 20.2 0 003.318.278h.029a20.177 20.177 0 003.319-.278V28.047l8.255 8.256c.91-.648 1.764-1.37 2.554-2.16l.002-.001a20.187 20.187 0 002.158-2.554l-8.255-8.255h11.675A20.05 20.05 0 0040 20.015v-.03a20.118 20.118 0 00-.278-3.318z" fill="#FF4A00"/></svg>