<svg width="464" height="327" fill="none" xmlns="http://www.w3.org/2000/svg"><path d="M464 285.121H0v.232h464v-.232zm-46.493 14.921h-30.736v.232h30.736v-.232zm-110.135 2.522h-8.064v.232h8.064v-.232zm78.472-11.127h-17.809v.231h17.809v-.231zm-297.081 1.557h-40.08v.232h40.08v-.232zm14.142 0h-5.874v.232h5.874v-.232zm106.034 3.913h-86.935v.232h86.935v-.232z" fill="#A8A3B9"/><path d="M199.863.369l.78 1.586a.62.62 0 00.483.343l1.753.26a.63.63 0 01.344 1.075l-1.262 1.243a.612.612 0 00-.186.556l.297 1.744a.629.629 0 01-.584.746.632.632 0 01-.344-.079l-1.568-.825a.652.652 0 00-.585 0l-1.577.825a.634.634 0 01-.894-.316.62.62 0 01-.034-.351l.306-1.744a.638.638 0 00-.027-.3.64.64 0 00-.159-.256l-1.271-1.243a.625.625 0 01-.159-.648.635.635 0 01.511-.428l1.754-.26a.639.639 0 00.483-.342l.779-1.586a.643.643 0 011.16 0zM84.318 130.986l.788 1.595a.632.632 0 00.473.343l1.755.259a.633.633 0 01.353 1.076l-1.272 1.233a.645.645 0 00-.177.566l.297 1.744a.632.632 0 01-.927.667l-1.569-.825a.666.666 0 00-.594 0l-1.568.825a.626.626 0 01-.344.079.624.624 0 01-.55-.395.632.632 0 01-.034-.351l.297-1.744a.638.638 0 00-.176-.566l-1.262-1.233a.631.631 0 01.352-1.076l1.754-.259a.632.632 0 00.473-.343l.79-1.595a.627.627 0 01.57-.362.631.631 0 01.57.362zm-14.57-87.634l.78 1.585a.64.64 0 00.473.353l1.754.25a.64.64 0 01.353 1.085l-1.272 1.233a.658.658 0 00-.186.557l.307 1.753a.63.63 0 01-.928.667l-1.569-.825a.613.613 0 00-.593 0l-1.569.825a.631.631 0 01-.928-.667l.297-1.753a.604.604 0 00-.185-.556l-1.263-1.234a.63.63 0 01.344-1.085l1.754-.25a.658.658 0 00.482-.353l.78-1.585a.639.639 0 011.17 0zm70.315 39.858l.464.927a.383.383 0 00.287.204l1.049.148a.383.383 0 01.303.262.383.383 0 01.006.207.385.385 0 01-.105.18l-.752.742a.372.372 0 00-.111.334l.176 1.039a.375.375 0 01-.144.376.373.373 0 01-.403.022l-.928-.491a.39.39 0 00-.353 0l-.928.491a.371.371 0 01-.547-.398l.176-1.039a.37.37 0 00-.111-.334l-.761-.742a.38.38 0 01.213-.649l1.049-.148a.391.391 0 00.288-.204l.464-.928a.387.387 0 01.526-.138c.058.033.107.08.142.138zM111.62 204.719l.464.928a.401.401 0 00.288.213l1.048.148a.38.38 0 01.214.649l-.761.733a.383.383 0 00-.111.343l.185 1.039a.383.383 0 01-.153.374.382.382 0 01-.404.025l-.928-.492a.384.384 0 00-.352 0l-.928.492a.385.385 0 01-.524-.194.389.389 0 01-.024-.205l.176-1.039a.383.383 0 00-.102-.343l-.761-.733a.382.382 0 01.016-.561.38.38 0 01.189-.088l1.048-.148a.38.38 0 00.288-.213l.473-.928a.387.387 0 01.52-.139.386.386 0 01.139.139zM403.123 1.815l.464.928a.368.368 0 00.288.204l1.048.157a.38.38 0 01.214.65l-.761.732a.389.389 0 00-.112.334l.186 1.048a.383.383 0 01-.351.444.382.382 0 01-.206-.045l-.928-.492a.387.387 0 00-.352 0l-.928.492a.383.383 0 01-.524-.195.377.377 0 01-.024-.204l.176-1.048a.376.376 0 00-.102-.334l-.779-.723a.385.385 0 01-.099-.388.382.382 0 01.303-.261l1.049-.158a.356.356 0 00.287-.204l.474-.927a.37.37 0 01.677-.01zm-8.064 175.019l.807 1.642a.637.637 0 00.492.352l1.856.269a.65.65 0 01.362 1.113l-1.392 1.28a.67.67 0 00-.186.584l.316 1.855a.655.655 0 01-.585.742.651.651 0 01-.343-.056l-1.624-.853a.643.643 0 00-.613 0l-1.605.834a.644.644 0 01-.673-.06.653.653 0 01-.255-.626l.306-1.855a.647.647 0 00-.185-.584l-1.318-1.28a.654.654 0 01-.156-.67.661.661 0 01.527-.443l1.81-.268a.63.63 0 00.491-.353l.817-1.641a.656.656 0 011.151.018zM295.651 23.136a1.23 1.23 0 01-.762 1.14 1.234 1.234 0 11.762-1.14zm35.422 239.052a1.232 1.232 0 01-1.475 1.209 1.236 1.236 0 01-.97-.969 1.239 1.239 0 01.525-1.266c.203-.136.442-.208.686-.208a1.219 1.219 0 01.875.359 1.22 1.22 0 01.359.875zM123.192 7.76a5.276 5.276 0 01-3.26 4.875 5.285 5.285 0 01-5.755-1.144 5.277 5.277 0 013.734-9.008 5.281 5.281 0 015.281 5.277zm49.964 34.868c3.186.56 6.416.836 9.651.826a11.282 11.282 0 01-15.685 1.413 11.272 11.272 0 01-3.386-4.64 55.812 55.812 0 009.42 2.401zm1.642-9.737a52.141 52.141 0 00-11.136-.779 11.282 11.282 0 0112.438-7.105 11.286 11.286 0 016.632 3.728 11.273 11.273 0 012.757 7.087 51.951 51.951 0 00-10.691-2.93z" fill="#EAE7F5"/><path d="M191.755 39.063c.359-2.121-7.188-5.164-16.855-6.796-9.668-1.633-17.795-1.236-18.154.885-.359 2.12 7.188 5.163 16.855 6.796 9.668 1.632 17.796 1.236 18.154-.885zm210.663 79.506a73.56 73.56 0 01-17.603 22.683 73.62 73.62 0 01-53.45 17.817 73.634 73.634 0 01-27.705-7.579 61.124 61.124 0 01-4.352-2.365 90.943 90.943 0 0034.245-22.546 90.873 90.873 0 0020.852-35.288 90.825 90.825 0 00-11.853-78.969 73.688 73.688 0 0133.717 11.388 73.627 73.627 0 0124.437 25.857 73.565 73.565 0 011.712 69.002z" fill="#EAE7F5"/><path d="M368.75 31.908a16.69 16.69 0 016.756 12.528 42.316 42.316 0 00-9.206-9.273 43.094 43.094 0 00-11.544-6.102 16.715 16.715 0 0113.994 2.847zm-18.588 111.504a16.708 16.708 0 01-14.105 2.022 42.12 42.12 0 0011.841-5.453 42.998 42.998 0 009.716-8.726 16.684 16.684 0 01-7.452 12.157zm25.363-70.014a16.624 16.624 0 010 14.235 41.804 41.804 0 00-3.712-12.492 43.03 43.03 0 00-7.257-10.84 16.708 16.708 0 0110.969 9.097zm11.962 50.494a16.71 16.71 0 01-12.816 6.232 41.859 41.859 0 009.605-8.81 43.083 43.083 0 006.588-11.267 16.673 16.673 0 01-3.377 13.845z" fill="#DBD8E9"/><path d="M232 327c99.373 0 179.93-4.7 179.93-10.498 0-5.797-80.557-10.497-179.93-10.497-99.372 0-179.93 4.7-179.93 10.497C52.07 322.3 132.628 327 232 327z" fill="#EAE7F5"/><path d="M236.036 53.682l-.649-.51a141.884 141.884 0 019.131-10.46l.585.575a143.678 143.678 0 00-9.067 10.395zm-3.466 3.046l-2.993 3.771.64.507 2.993-3.77-.64-.508zm64.389 39.974c20.166-32.392 22.913-64.312 8.232-74.642-14.681-10.331-43.83 3.004-67.559 32.893l-67.809 85.473 69.526 48.927 57.61-92.651z" fill="#754FFE"/><path opacity=".1" d="M289.025 91.12l-59.021 91.687-7.22-13.79 58.622-83.647c16.574-23.656 25.863-45.273 25.9-57.31a.988.988 0 01.815-.976.983.983 0 011.097.642c4.176 12.01-3.062 36.788-20.193 63.394z" fill="#fff"/><path d="M239.308 189.332c9.386-13.321 1.429-35.073-17.772-48.583-19.202-13.511-42.377-13.664-51.763-.343-9.386 13.321-1.429 35.072 17.772 48.582 19.202 13.511 42.377 13.665 51.763.344z" fill="#754FFE"/><path opacity=".5" d="M239.308 189.332c9.386-13.321 1.429-35.073-17.772-48.583-19.202-13.511-42.377-13.664-51.763-.343-9.386 13.321-1.429 35.072 17.772 48.582 19.202 13.511 42.377 13.665 51.763.344z" fill="#fff"/><path opacity=".1" d="M232.092 125.654c-15.256-10.739-32.563-13.808-43.616-8.791l-17.214 21.681c10.208-11.388 32.025-10.609 50.269 2.226 18.245 12.834 26.346 33.134 19.034 46.553l14.449-23.184c1.243-12.176-7.499-27.635-22.922-38.485z" fill="#18113C"/><path opacity=".2" d="M256.526 55.75c-4.231 6.696-7.424 19.224 5.151 28.062 12.574 8.837 23.302 1.632 28.174-4.637L256.526 55.75z" fill="#18113C"/><path d="M292.821 71.46c-1.438 11.962-15.275 20.689-29.798 10.47-14.523-10.22-10.969-26.18-.186-31.53 6.645-3.32 15.108-1.855 20.899 2.17 5.791 4.024 9.976 11.47 9.085 18.89z" fill="#fff"/><path d="M264.999 79.101c-5.652-3.969-8.547-9.162-8.139-14.596a13.639 13.639 0 017.517-11.128c5.048-2.523 12.194-1.734 17.381 1.91 5.188 3.645 8.352 10.117 7.656 15.719a13.616 13.616 0 01-7.915 10.803c-4.956 2.244-10.849 1.27-16.5-2.708z" fill="#754FFE"/><path opacity=".3" d="M264.999 79.101c-5.652-3.969-8.547-9.162-8.139-14.596a13.639 13.639 0 017.517-11.128c5.048-2.523 12.194-1.734 17.381 1.91 5.188 3.645 8.352 10.117 7.656 15.719a13.616 13.616 0 01-7.915 10.803c-4.956 2.244-10.849 1.27-16.5-2.708z" fill="#18113C"/><path d="M264.999 79.1c-5.651-3.968-8.649-9.013-8.426-14.188a11.953 11.953 0 016.979-10.35c4.853-2.243 11.859-1.26 17.047 2.394 5.187 3.653 8.473 9.913 7.99 15.236a11.94 11.94 0 01-7.424 10.053c-4.761 1.956-10.514.834-16.166-3.144z" fill="#754FFE"/><path opacity=".2" d="M264.999 79.1c-5.651-3.968-8.649-9.013-8.426-14.188a11.953 11.953 0 016.979-10.35c4.853-2.243 11.859-1.26 17.047 2.394 5.187 3.653 8.473 9.913 7.99 15.236a11.94 11.94 0 01-7.424 10.053c-4.761 1.956-10.514.834-16.166-3.144z" fill="#fff"/><path opacity=".3" d="M284.533 60.62L258.41 72.136a13.3 13.3 0 01-1.856-7.224c.05-1.194.284-2.374.696-3.496l16.862-7.419a19.613 19.613 0 0110.403 6.64l.018-.019zm3.75 7.427L264.313 78.6a23.141 23.141 0 01-3.917-3.635l26.077-11.5a17.624 17.624 0 011.81 4.582z" fill="#fff"/><path opacity=".1" d="M314.415 47.395c-.798-6.399-5.717-13.799-13.493-19.27-7.777-5.472-16.398-7.605-22.699-6.204 10.718-4.368 20.323-4.535 26.967.139 6.645 4.674 9.726 13.78 9.225 25.335z" fill="#18113C"/><path opacity=".5" d="M221.521 163.248c2.924-4.15.556-10.849-5.29-14.962-5.846-4.114-12.956-4.084-15.88.066-2.924 4.15-.555 10.849 5.291 14.962 5.845 4.113 12.955 4.084 15.879-.066zm-27.57-3.894c-2.923 4.146-10.031 4.183-15.878.065-5.846-4.117-8.222-10.813-5.299-14.958 2.923-4.145 10.041-4.182 15.888-.065 5.846 4.118 8.175 10.813 5.289 14.958zm40.563 28.572c-2.923 4.154-10.031 4.182-15.878.065-5.846-4.118-8.213-10.813-5.289-14.959 2.923-4.145 10.031-4.182 15.878-.064 5.846 4.117 8.212 10.812 5.289 14.958zm-27.57-3.904c-2.923 4.145-10.032 4.173-15.878.065-5.847-4.108-8.213-10.813-5.29-14.968 2.923-4.154 10.032-4.173 15.878-.065 5.847 4.109 8.176 10.813 5.29 14.968z" fill="#754FFE"/><path opacity=".5" d="M221.532 163.267c-.309.438-.67.837-1.076 1.187 1.624-4.136-.826-9.876-6.051-13.548-5.225-3.672-11.451-4.043-14.801-1.131a7.02 7.02 0 01.751-1.401c2.923-4.145 10.041-4.182 15.888-.065 5.846 4.118 8.203 10.804 5.289 14.958zm-27.58-3.913a6.841 6.841 0 01-1.068 1.187c1.624-4.145-.816-9.876-6.05-13.558-5.234-3.681-11.452-4.043-14.802-1.122.195-.495.447-.965.752-1.4 2.923-4.155 10.032-4.183 15.878-.065 5.846 4.117 8.176 10.803 5.29 14.958zm40.562 28.581a6.737 6.737 0 01-1.067 1.177c1.624-4.145-.826-9.876-6.051-13.548-5.224-3.673-11.451-4.053-14.801-1.122.193-.499.445-.972.751-1.41 2.924-4.155 10.032-4.182 15.878-.065 5.847 4.118 8.223 10.813 5.29 14.968zm-27.57-3.913a6.156 6.156 0 01-1.067 1.178c1.624-4.136-.826-9.877-6.051-13.549-5.225-3.672-11.452-4.043-14.802-1.122.191-.499.444-.973.752-1.41 2.923-4.154 10.032-4.173 15.878-.065 5.847 4.109 8.176 10.813 5.29 14.968z" fill="#754FFE"/><path d="M215.834 86.51s-12.528 16.248-23.442 30.233a14.369 14.369 0 01-13.187 5.295c-9.53-1.178-25.056 5.564-25.056 5.564s29.372-48.213 61.685-41.091z" fill="#754FFE"/><path opacity=".3" d="M215.834 86.51s-12.528 16.248-23.442 30.233a14.369 14.369 0 01-13.187 5.295c-9.53-1.178-25.056 5.564-25.056 5.564s29.372-48.213 61.685-41.091z" fill="#18113C"/><path d="M274.585 127.861s-11.034 17.258-20.583 32.235a14.333 14.333 0 00-.538 14.188c4.324 8.578 3.192 25.493 3.192 25.493s35.533-43.928 17.929-71.916z" fill="#754FFE"/><path opacity=".3" d="M274.585 127.861s-11.034 17.258-20.583 32.235a14.333 14.333 0 00-.538 14.188c4.324 8.578 3.192 25.493 3.192 25.493s35.533-43.928 17.929-71.916z" fill="#18113C"/><path d="M315.065 251.931c11.591-28.34-38.521-36.371-58.352-29.258-19.832 7.113-40.053 12.399-40.832-6.566-.78-18.964 14.495-30.723 7.21-35.1-4.037-2.43-5.187 1.855-7.183 8.105-6.106 19.15-40.692 23.712-24.777 51.431 15.915 27.718 7.424 21.7-19.349 32.819-26.773 11.119-12.992 43.14 12.909 43.14h155.978c71.493 0 3.805-136.747-25.604-64.571z" fill="#754FFE"/><path opacity=".6" d="M315.065 251.931c11.591-28.34-38.521-36.371-58.352-29.258-19.832 7.113-40.053 12.399-40.832-6.566-.78-18.964 14.495-30.723 7.21-35.1-4.037-2.43-5.187 1.855-7.183 8.105-6.106 19.15-40.692 23.712-24.777 51.431 15.915 27.718 7.424 21.7-19.349 32.819-26.773 11.119-12.992 43.14 12.909 43.14h155.978c71.493 0 3.805-136.747-25.604-64.571z" fill="#fff"/><path d="M183.326 153.15c-2.079-7.215-13.326 1.854-24.406 12.843-11.081 10.99-16.547 36.074-27.265 49.15s-41.407 24.89-29.408 44.568c17.697 28.999-22.978 56.819 25.195 56.819h98.804c18.068 0 37.658-22.08 9.521-37.094-28.137-15.014-70.286 19.994-81.664-13.4-5.642-16.572 14.848-8.968 5.355-36.102-9.494-27.134-8.863-34.525-4.028-46.618 11.767-29.471 31.098-19.205 27.896-30.166z" fill="#754FFE"/><path opacity=".6" d="M183.326 153.15c-2.079-7.215-13.326 1.854-24.406 12.843-11.081 10.99-16.547 36.074-27.265 49.15s-41.407 24.89-29.408 44.568c17.697 28.999-22.978 56.819 25.195 56.819h98.804c18.068 0 37.658-22.08 9.521-37.094-28.137-15.014-70.286 19.994-81.664-13.4-5.642-16.572 14.848-8.968 5.355-36.102-9.494-27.134-8.863-34.525-4.028-46.618 11.767-29.471 31.098-19.205 27.896-30.166z" fill="#fff"/><path d="M203.807 156.479c2.45-4.47 10.858-1.79 10.672 4.062-.185 5.851-21.956 13.52-17.91 33.727 4.046 20.207 42.91 21.654 52.033 41.898 9.122 20.244-26.216 23.082-15.674 35.74 10.542 12.658 43.077-16.414 66.259-8.94 23.181 7.475 46.344 53.536 3.823 53.536H171.986c-28.49 0-49.295-58.784-21.919-82.97 27.376-24.185 5.289-16.33 15.507-31.826 10.217-15.496 28.832-28.09 38.233-45.227z" fill="#754FFE"/><path opacity=".8" d="M203.807 156.479c2.45-4.47 10.858-1.79 10.672 4.062-.185 5.851-21.956 13.52-17.91 33.727 4.046 20.207 42.91 21.654 52.033 41.898 9.122 20.244-26.216 23.082-15.674 35.74 10.542 12.658 43.077-16.414 66.259-8.94 23.181 7.475 46.344 53.536 3.823 53.536H171.986c-28.49 0-49.295-58.784-21.919-82.97 27.376-24.185 5.289-16.33 15.507-31.826 10.217-15.496 28.832-28.09 38.233-45.227z" fill="#fff"/></svg>