<svg width="53" height="56" fill="none" xmlns="http://www.w3.org/2000/svg"><g clip-path="url(#clip0)" fill="#754FFE"><path d="M19.637 32.23c0 .618-.332 1.118-.74 1.118-.41 0-.742-.5-.742-1.118 0-.618.332-1.119.741-1.119.41 0 .741.501.741 1.119zm13.708 0c0 .618.332 1.118.741 1.118.41 0 .741-.5.741-1.118 0-.618-.332-1.119-.74-1.119-.41 0-.742.501-.742 1.119zm-5.248 7.27c-1.235.994-2.902.497-3.335 0 .124.622.593 1.492 1.73 1.492 1.135 0 1.543-.995 1.605-1.492z"/><path fill-rule="evenodd" clip-rule="evenodd" d="M23.919 44.029a.432.432 0 01.515-.332l4.363.967a.435.435 0 01-.186.85l-4.363-.967a.435.435 0 01-.33-.518z"/><path d="M26.43 54.351c-8.596.1-14.902-7.87-16.981-11.868-.309-.594-.556-.684-.741-.56-.296.2-.082.601 0 .808 1.037 2.436 2.45 4.495 3.025 5.22-2.025 3.38-2.696 6.752-2.778 8.016 3.359-3.33 6.751-3.17 8.027-2.672 10.003 5.22 15.56 1.553 18.71 0 2.519-1.243 6.442 1.18 8.089 2.548-.198-3.082-1.853-6.463-2.655-7.768 1.296-1.74 2.346-3.852 2.902-4.909.444-.845.308-1.18.185-1.242-.297-.15-.659.31-.803.559-.926 1.553-6.236 11.744-16.98 11.868z"/><path fill-rule="evenodd" clip-rule="evenodd" d="M47.521 10.51c3.1 3.954 1.662 11.52.24 15.143l.039.013h-.03l-3.45-.23v-.017c.671-7.814-.102-10.944-.856-11.474-9.026 6.529-17.09 4.454-19.581 3.812-.679-.174-.944-.243-.704-.002.733.733 2.4 1.612 3.588 2.24h.001c.27.142.514.271.718.383-9.799.113-13.738-4.608-14.897-5.996-.118-.141-.207-.248-.27-.312-.566-.565-3.745-2.498-4.744 1.187-.967 3.569-.355 7.755-.031 9.964.028.192.031.196.031.258l-3.183.188h-.008C.152 15.873 3.333 10.383 6.202 8.324c0-4.809 5.867-9.492 13.295-7.806 9.515 2.714 12.41 1.814 15.816.757 1.374-.428 2.833-.88 4.843-1.132C49.386-1.01 52.493 5.057 52.89 8.2c-1.548-.9-4.224 1.124-5.368 2.31zm-23.51-7.382c-2.393-.833-8.558-1.715-11.797 1.623-.717.739-1.56 2.124-1.56 2.124s-1.436 2.622-2.56 1.498C6.971 7.25 9.592 3.877 11.652 2.878c2.06-1 7.178-2.748 12.358.25z"/><path fill-rule="evenodd" clip-rule="evenodd" d="M19.726 28.109H5.942c-1.038 0-1.88.82-1.88 1.832v6.228c0 1.012.842 1.832 1.88 1.832h13.784c1.038 0 1.88-.82 1.88-1.832v-6.228c0-1.012-.842-1.832-1.88-1.832zM5.942 25.666c-2.423 0-4.386 1.914-4.386 4.275v6.228c0 2.361 1.963 4.275 4.386 4.275h13.784c2.422 0 4.386-1.914 4.386-4.275v-6.228c0-2.361-1.964-4.275-4.386-4.275H5.942z"/><path d="M0 29.444c0-.368.33-.667.737-.667h.86c.406 0 .736.299.736.667v1.778c0 .368-.33.666-.737.666h-.86c-.406 0-.736-.298-.736-.666v-1.778z"/><path fill-rule="evenodd" clip-rule="evenodd" d="M33.013 28.109H46.32c1.003 0 1.815.82 1.815 1.832v6.228a1.824 1.824 0 01-1.815 1.832H33.013a1.823 1.823 0 01-1.815-1.832v-6.228c0-1.012.812-1.832 1.815-1.832zm13.308-2.443c2.339 0 4.235 1.914 4.235 4.275v6.228c0 2.361-1.896 4.275-4.235 4.275H33.013c-2.339 0-4.235-1.914-4.235-4.275v-6.228c0-2.361 1.896-4.275 4.235-4.275H46.32z"/><path d="M52.889 29.444c0-.368-.44-.667-.983-.667H50.76c-.542 0-.982.299-.982.667v1.778c0 .368.44.666.982.666h1.147c.542 0 .982-.298.982-.666v-1.778zm-23.333 1.723c0-.46-.356-.833-.794-.833h-4.634c-.439 0-.794.373-.794.833v2.222c0 .46.355.834.794.834h4.634c.438 0 .794-.373.794-.834v-2.222z"/></g><defs><clipPath id="clip0"><path fill="#fff" d="M0 0h53v56H0z"/></clipPath></defs></svg>