<svg width="72" height="20" fill="none" xmlns="http://www.w3.org/2000/svg"><path d="M29.262 15.833c-1.167 0-2.188-.273-3.06-.82-.873-.546-1.551-1.305-2.035-2.276-.483-.984-.725-2.125-.725-3.425 0-1.311.247-2.465.743-3.46.507-1.008 1.22-1.792 2.14-2.35.932-.57 2.035-.856 3.309-.856 1.45 0 2.654.358 3.609 1.074.955.717 1.574 1.707 1.857 2.97h-2.53a2.517 2.517 0 00-1.026-1.385c-.495-.34-1.132-.51-1.91-.51-1.239 0-2.194.407-2.866 1.22-.672.802-1.009 1.907-1.009 3.316 0 1.408.33 2.501.991 3.278.672.765 1.58 1.148 2.725 1.148 1.12 0 1.963-.31 2.53-.93.577-.63.925-1.456 1.043-2.476h-3.131V8.602h5.413v7.013h-2.087l-.177-1.676a4.196 4.196 0 01-1.504 1.402c-.601.328-1.368.492-2.3.492zm11.596 0c-.885 0-1.669-.194-2.353-.582a4.159 4.159 0 01-1.61-1.64c-.39-.704-.584-1.518-.584-2.44 0-.936.189-1.768.566-2.496.39-.729.92-1.293 1.593-1.694.684-.413 1.486-.62 2.406-.62.86 0 1.621.195 2.282.583.66.389 1.173.923 1.539 1.603.377.668.566 1.415.566 2.24 0 .134-.006.274-.018.42 0 .145-.005.297-.017.455h-6.67c.047.704.283 1.257.708 1.658.436.4.96.6 1.574.6.46 0 .843-.102 1.15-.309.319-.219.554-.498.708-.838h2.3a4.35 4.35 0 01-.832 1.567 4.01 4.01 0 01-1.415 1.093c-.554.267-1.185.4-1.893.4zm.018-7.577c-.555 0-1.044.164-1.469.492-.424.315-.696.801-.814 1.457h4.37c-.035-.595-.248-1.069-.637-1.42-.389-.353-.873-.53-1.45-.53zm9.671 7.577c-.885 0-1.67-.194-2.353-.582a4.159 4.159 0 01-1.61-1.64c-.39-.704-.584-1.518-.584-2.44 0-.936.189-1.768.566-2.496.39-.729.92-1.293 1.592-1.694.684-.413 1.486-.62 2.406-.62.861 0 1.622.195 2.283.583.66.389 1.173.923 1.539 1.603.377.668.566 1.415.566 2.24 0 .134-.006.274-.018.42 0 .145-.006.297-.017.455h-6.67c.047.704.283 1.257.708 1.658.436.4.96.6 1.574.6.46 0 .843-.102 1.15-.309a2.01 2.01 0 00.708-.838h2.3a4.35 4.35 0 01-.832 1.567 4.01 4.01 0 01-1.415 1.093c-.555.267-1.186.4-1.893.4zm.017-7.577c-.554 0-1.043.164-1.468.492-.425.315-.696.801-.814 1.457h4.37c-.035-.595-.248-1.069-.637-1.42-.39-.353-.873-.53-1.45-.53zm5.408 7.359V2.5h2.264v7.741l3.114-3.66h2.69l-3.592 4.116 4.175 4.918h-2.83l-3.557-4.536v4.536h-2.264z" fill="#fff"/><path d="M68.337 15.833c-.778 0-1.462-.127-2.052-.382-.59-.267-1.061-.632-1.415-1.093a3.187 3.187 0 01-.637-1.603h2.282c.07.352.26.656.566.91.319.244.725.365 1.22.365.496 0 .856-.103 1.08-.31.236-.206.354-.443.354-.71 0-.389-.165-.65-.496-.783-.33-.146-.79-.286-1.38-.42-.377-.084-.76-.187-1.15-.309a5.812 5.812 0 01-1.079-.455 2.529 2.529 0 01-.778-.729c-.2-.303-.3-.674-.3-1.11 0-.802.306-1.476.92-2.023.624-.546 1.497-.82 2.618-.82 1.037 0 1.863.25 2.476.747.625.498.997 1.184 1.115 2.059h-2.14c-.13-.668-.62-1.002-1.47-1.002-.424 0-.754.085-.99.255-.224.17-.336.382-.336.637 0 .268.171.48.513.638.342.158.796.303 1.362.437.614.146 1.174.31 1.68.492.52.17.933.43 1.24.783.306.34.46.832.46 1.476a2.591 2.591 0 01-.425 1.511c-.295.45-.72.802-1.274 1.057-.554.255-1.209.382-1.964.382zM7.051 11.517c0 .22-.121.399-.27.399-.15 0-.272-.179-.272-.4 0-.22.121-.399.271-.399.15 0 .271.18.271.4zm5.018 0c0 .22.121.399.271.399.15 0 .271-.179.271-.4 0-.22-.121-.399-.271-.399-.15 0-.271.18-.271.4zm-1.921 2.594c-.452.355-1.063.178-1.22 0 .044.222.216.532.632.532.416 0 .565-.354.588-.532z" fill="#fff"/><path fill-rule="evenodd" clip-rule="evenodd" d="M17.399 9.11c.515-1.287 1.036-3.974-.087-5.377.415-.422 1.383-1.14 1.944-.821-.143-1.116-1.268-3.27-4.61-2.86-.729.088-1.257.25-1.755.401-1.233.376-2.281.695-5.727-.269C4.474-.415 2.35 1.25 2.35 2.956 1.311 3.688.16 5.64 1.694 9.12a1.566 1.566 0 00-1.02 1.111H.271c-.15 0-.271.12-.271.266v.71c0 .147.121.266.271.266h.362v1.375c0 .858.708 1.553 1.582 1.553h4.972c.874 0 1.582-.695 1.582-1.553v-.71h1.582v.71c0 .858.708 1.553 1.582 1.553h4.972c.874 0 1.582-.695 1.582-1.553v-1.375h.317c.15 0 .271-.119.271-.266v-.71a.269.269 0 00-.271-.266h-.358a1.567 1.567 0 00-1.047-1.12zM2.836 8.957l.012.076h4.339c.874 0 1.582.695 1.582 1.552v.31h1.582v-.31c0-.857.708-1.552 1.582-1.552h4.22c.243-2.775-.037-3.892-.31-4.08-3.268 2.318-6.188 1.58-7.09 1.353-.246-.062-.342-.086-.255 0 .265.26.869.572 1.3.794l.26.137c-3.549.04-4.975-1.637-5.395-2.13a1.991 1.991 0 00-.098-.11c-.204-.201-1.356-.887-1.717.421-.35 1.267-.129 2.754-.012 3.539zm1.691-7.27C5.7.502 7.933.815 8.8 1.111 6.923.046 5.069.667 4.324 1.022c-.746.355-1.695 1.552-1.288 1.952.407.399.926-.533.926-.533s.306-.491.565-.754zM2.215 9.92h4.972c.374 0 .678.298.678.665v2.262a.672.672 0 01-.678.665H2.215a.672.672 0 01-.678-.665v-2.262c0-.367.303-.665.678-.665zm14.69 0h-4.972a.672.672 0 00-.678.665v2.262c0 .368.304.665.678.665h4.972a.672.672 0 00.678-.665v-2.262a.672.672 0 00-.678-.665zm-8.286 5.808a.158.158 0 01.188-.119l1.597.345c.085.019.14.102.12.185a.158.158 0 01-.188.119l-1.597-.345a.155.155 0 01-.12-.185z" fill="#fff"/><path d="M9.537 19.412c-3.146.035-5.454-2.81-6.215-4.236-.113-.212-.203-.244-.27-.2-.11.071-.031.215 0 .288.379.87.896 1.605 1.107 1.863-.742 1.207-.987 2.41-1.018 2.861 1.23-1.189 2.471-1.13 2.939-.953 3.66 1.862 5.695.554 6.848 0 .922-.444 2.358.42 2.96.909-.072-1.1-.678-2.307-.972-2.772.475-.621.86-1.375 1.063-1.752.162-.302.113-.422.068-.444-.109-.053-.242.111-.294.2-.34.554-2.283 4.191-6.216 4.236z" fill="#fff"/></svg>