<svg width="636" height="400" fill="none" xmlns="http://www.w3.org/2000/svg"><path fill="#E2E8F0" d="M0 0h636v400H0z"/><g filter="url(#filter0_d_6113_30091)"><rect x="87" y="59" width="462" height="280" rx="12" fill="#fff"/></g><rect x="329" y="232" width="40" height="16" rx="4" fill="#754FFE"/><rect x="285" y="232" width="40" height="16" rx="4" fill="#E2E8F0"/><path d="M295 145h46" stroke="#E2E8F0" stroke-width="3" stroke-linecap="round"/><path d="M191.453 159.909h2.735v9.128c0 .844-.189 1.577-.569 2.199a3.762 3.762 0 01-1.566 1.438c-.669.337-1.446.505-2.333.505-.788 0-1.504-.139-2.147-.416a3.428 3.428 0 01-1.522-1.278c-.375-.575-.56-1.298-.556-2.167h2.755c.009.345.079.642.211.889.136.243.322.43.556.562.239.128.52.192.844.192.341 0 .628-.073.863-.217.238-.15.42-.367.543-.652.124-.286.186-.637.186-1.055v-9.128zm11.269 8.911v-5.638h2.723V173h-2.615v-1.783h-.102a2.903 2.903 0 01-1.106 1.387c-.511.349-1.135.524-1.873.524-.656 0-1.233-.149-1.732-.448a3.082 3.082 0 01-1.17-1.272c-.277-.549-.417-1.208-.421-1.975v-6.251h2.723v5.765c.004.58.159 1.038.466 1.375.307.336.718.505 1.234.505.328 0 .635-.075.92-.224a1.75 1.75 0 00.691-.678c.179-.298.266-.666.262-1.105zm13.07-2.838l-2.493.153a1.286 1.286 0 00-.275-.575 1.458 1.458 0 00-.556-.416 1.897 1.897 0 00-.812-.16c-.422 0-.778.09-1.067.269-.29.175-.435.409-.435.703 0 .234.094.432.281.594.188.162.51.292.965.39l1.777.358c.955.196 1.667.512 2.135.946.469.435.704 1.006.704 1.713 0 .644-.19 1.208-.569 1.694-.375.486-.891.865-1.547 1.138-.652.269-1.404.403-2.257.403-1.299 0-2.335-.271-3.106-.812-.767-.545-1.217-1.287-1.349-2.224l2.678-.141c.081.396.277.699.588.908.312.204.71.306 1.196.306.477 0 .861-.091 1.15-.274.294-.188.444-.429.448-.723a.752.752 0 00-.313-.607c-.205-.162-.52-.286-.946-.371l-1.701-.339c-.959-.191-1.672-.524-2.141-.997-.465-.473-.697-1.076-.697-1.809 0-.63.171-1.174.512-1.63.345-.456.828-.807 1.451-1.054.626-.247 1.359-.371 2.198-.371 1.24 0 2.216.262 2.928.786.716.524 1.133 1.238 1.253 2.142zm7.161-2.8v2.045h-5.913v-2.045h5.913zm-4.571-2.352h2.723v9.153c0 .251.039.447.115.588a.639.639 0 00.32.288c.14.055.302.083.486.083.127 0 .255-.011.383-.032l.294-.058.428 2.027a8.266 8.266 0 01-.575.147 4.678 4.678 0 01-.901.108c-.656.026-1.232-.062-1.726-.262-.49-.2-.871-.511-1.144-.933-.273-.422-.407-.955-.403-1.598v-9.511zm15.733 2.352v2.045h-5.913v-2.045h5.913zm-4.571-2.352h2.723v9.153c0 .251.039.447.115.588a.643.643 0 00.32.288c.141.055.303.083.486.083.128 0 .255-.011.383-.032l.294-.058.429 2.027a8.475 8.475 0 01-.576.147 4.678 4.678 0 01-.901.108c-.656.026-1.232-.062-1.726-.262-.49-.2-.871-.511-1.144-.933-.273-.422-.407-.955-.403-1.598v-9.511zm6.344 12.17v-9.818h2.64v1.713h.103c.179-.609.479-1.07.901-1.381a2.372 2.372 0 011.457-.473 4.117 4.117 0 01.857.096v2.416a3.64 3.64 0 00-.531-.102 4.735 4.735 0 00-.62-.045c-.4 0-.758.088-1.074.262a1.93 1.93 0 00-.741.716 2.069 2.069 0 00-.269 1.061V173h-2.723zm9.346 3.682c-.346 0-.669-.028-.972-.083a3.528 3.528 0 01-.741-.198l.613-2.033c.32.098.607.151.863.16.26.008.484-.051.671-.179.192-.128.348-.345.467-.652l.16-.416-3.522-10.099h2.863l2.033 7.21h.102l2.052-7.21h2.883l-3.816 10.879a4.577 4.577 0 01-.748 1.381 3.063 3.063 0 01-1.183.914c-.477.217-1.052.326-1.725.326zM258.265 173v-9.818h2.723V173h-2.723zm1.368-11.084c-.405 0-.752-.134-1.042-.403a1.304 1.304 0 01-.428-.977c0-.375.143-.697.428-.966a1.47 1.47 0 011.042-.409c.405 0 .75.137 1.036.409.29.269.434.591.434.966 0 .379-.144.705-.434.977a1.457 1.457 0 01-1.036.403zm8.759 1.266v2.045h-5.913v-2.045h5.913zm-4.57-2.352h2.723v9.153c0 .251.038.447.115.588a.637.637 0 00.319.288c.141.055.303.083.486.083.128 0 .256-.011.384-.032l.294-.058.428 2.027a8.266 8.266 0 01-.575.147 4.7 4.7 0 01-.902.108c-.656.026-1.231-.062-1.725-.262a2.405 2.405 0 01-1.145-.933c-.272-.422-.407-.955-.402-1.598v-9.511zm14.946 12.362c-.993 0-1.852-.211-2.576-.633a4.333 4.333 0 01-1.668-1.777c-.393-.763-.589-1.647-.589-2.653 0-1.014.196-1.9.589-2.659a4.279 4.279 0 011.668-1.777c.724-.426 1.583-.639 2.576-.639.993 0 1.849.213 2.569.639a4.263 4.263 0 011.675 1.777c.392.759.588 1.645.588 2.659 0 1.006-.196 1.89-.588 2.653a4.317 4.317 0 01-1.675 1.777c-.72.422-1.576.633-2.569.633zm.013-2.11c.451 0 .828-.127 1.131-.383.303-.26.531-.614.684-1.061.158-.448.236-.957.236-1.528 0-.571-.078-1.08-.236-1.528-.153-.447-.381-.801-.684-1.061-.303-.26-.68-.39-1.131-.39-.456 0-.84.13-1.151.39-.307.26-.539.614-.697 1.061-.153.448-.23.957-.23 1.528 0 .571.077 1.08.23 1.528.158.447.39.801.697 1.061.311.256.695.383 1.151.383zm12.886-2.262v-5.638h2.723V173h-2.614v-1.783h-.103a2.901 2.901 0 01-1.105 1.387c-.512.349-1.136.524-1.873.524-.657 0-1.234-.149-1.733-.448a3.073 3.073 0 01-1.169-1.272c-.277-.549-.418-1.208-.422-1.975v-6.251h2.723v5.765c.004.58.16 1.038.466 1.375.307.336.718.505 1.234.505.328 0 .635-.075.921-.224.285-.153.515-.379.69-.678.179-.298.266-.666.262-1.105zm10.123-5.638v2.045h-5.912v-2.045h5.912zm-4.57-2.352h2.723v9.153c0 .251.038.447.115.588a.639.639 0 00.32.288c.14.055.302.083.486.083.127 0 .255-.011.383-.032l.294-.058.428 2.027a8.266 8.266 0 01-.575.147 4.678 4.678 0 01-.901.108c-.656.026-1.232-.062-1.726-.262-.49-.2-.871-.511-1.144-.933-.273-.422-.407-.955-.403-1.598v-9.511zm9.598-.921l-.25 9.166h-2.339l-.256-9.166h2.845zm-1.419 13.257c-.422 0-.784-.149-1.087-.447a1.457 1.457 0 01-.447-1.087 1.428 1.428 0 01.447-1.074 1.495 1.495 0 011.087-.447c.405 0 .76.149 1.067.447a1.466 1.466 0 01.243 1.848c-.141.23-.326.415-.556.556-.23.136-.482.204-.754.204zm7.451-13.257h3.1l2.985 5.638h.128l2.985-5.638h3.101l-4.775 8.463V173h-2.749v-4.628l-4.775-8.463zm16.139 13.283c-.993 0-1.852-.211-2.576-.633a4.329 4.329 0 01-1.669-1.777c-.392-.763-.588-1.647-.588-2.653 0-1.014.196-1.9.588-2.659a4.275 4.275 0 011.669-1.777c.724-.426 1.583-.639 2.576-.639.992 0 1.849.213 2.569.639a4.263 4.263 0 011.675 1.777c.392.759.588 1.645.588 2.659 0 1.006-.196 1.89-.588 2.653a4.317 4.317 0 01-1.675 1.777c-.72.422-1.577.633-2.569.633zm.012-2.11c.452 0 .829-.127 1.132-.383.302-.26.53-.614.684-1.061.157-.448.236-.957.236-1.528 0-.571-.079-1.08-.236-1.528-.154-.447-.382-.801-.684-1.061-.303-.26-.68-.39-1.132-.39-.456 0-.839.13-1.15.39-.307.26-.539.614-.697 1.061-.153.448-.23.957-.23 1.528 0 .571.077 1.08.23 1.528.158.447.39.801.697 1.061.311.256.694.383 1.15.383zm12.887-2.262v-5.638h2.723V173h-2.615v-1.783h-.102a2.903 2.903 0 01-1.106 1.387c-.511.349-1.135.524-1.873.524-.656 0-1.233-.149-1.732-.448a3.082 3.082 0 01-1.17-1.272c-.277-.549-.417-1.208-.421-1.975v-6.251h2.723v5.765c.004.58.159 1.038.466 1.375.307.336.718.505 1.234.505.328 0 .635-.075.92-.224a1.75 1.75 0 00.691-.678c.179-.298.266-.666.262-1.105zm7.446-8.911v1.381c0 .392-.076.792-.23 1.201a5.074 5.074 0 01-.601 1.151 4.753 4.753 0 01-.824.914l-1.202-.709c.213-.337.401-.71.563-1.119.166-.409.249-.884.249-1.425v-1.394h2.045zm4.537 0V173h-2.723v-13.091h2.723zm4.904 0V173h-2.723v-13.091h2.723zm11.628 3.273v2.045h-6.06v-2.045h6.06zM365.73 173v-10.528c0-.711.139-1.302.416-1.77a2.663 2.663 0 011.15-1.055c.486-.234 1.038-.352 1.656-.352.417 0 .799.032 1.144.096.349.064.609.122.78.173l-.486 2.045a3.508 3.508 0 00-.396-.096 2.553 2.553 0 00-.473-.044c-.401 0-.68.093-.838.281-.158.183-.236.441-.236.773V173h-2.717zm8.784.185c-.626 0-1.184-.108-1.674-.326a2.693 2.693 0 01-1.164-.978c-.281-.434-.422-.975-.422-1.623 0-.546.1-1.004.301-1.374.2-.371.473-.67.818-.895a3.96 3.96 0 011.176-.512 8.986 8.986 0 011.394-.243 34.187 34.187 0 001.38-.166c.35-.055.603-.136.761-.243.158-.106.236-.264.236-.473v-.038c0-.405-.127-.718-.383-.94-.252-.221-.609-.332-1.074-.332-.49 0-.88.109-1.17.326-.29.213-.481.481-.575.805l-2.518-.204a3.413 3.413 0 01.754-1.547 3.61 3.61 0 011.451-1.01c.596-.239 1.287-.358 2.071-.358.545 0 1.067.064 1.566.192a4.11 4.11 0 011.336.594c.392.269.701.614.927 1.036.225.417.338.918.338 1.502V173h-2.582v-1.362h-.077a2.754 2.754 0 01-.632.812 2.94 2.94 0 01-.953.544 3.962 3.962 0 01-1.285.191zm.78-1.879c.401 0 .754-.079 1.061-.236.307-.162.548-.38.723-.652.174-.273.262-.582.262-.927v-1.042a1.502 1.502 0 01-.352.153 6.558 6.558 0 01-.492.122 26.37 26.37 0 01-.55.096l-.498.07c-.32.047-.599.121-.838.224-.238.102-.424.24-.556.415a1.015 1.015 0 00-.198.639c0 .371.134.654.403.85.272.192.618.288 1.035.288zm9.585-11.397V173h-2.723v-13.091h2.723zm4.904 0V173h-2.723v-13.091h2.723zM396.131 173v-9.818h2.723V173h-2.723zm1.367-11.084c-.404 0-.752-.134-1.041-.403a1.302 1.302 0 01-.429-.977c0-.375.143-.697.429-.966a1.468 1.468 0 011.041-.409c.405 0 .75.137 1.036.409.29.269.435.591.435.966 0 .379-.145.705-.435.977a1.457 1.457 0 01-1.036.403zm6.26 5.408V173h-2.723v-9.818h2.595v1.732h.115a2.737 2.737 0 011.093-1.355c.512-.337 1.132-.505 1.86-.505.682 0 1.277.149 1.784.447.507.299.901.725 1.182 1.279.281.55.422 1.206.422 1.969V173h-2.723v-5.766c.004-.6-.149-1.069-.46-1.406-.311-.341-.74-.511-1.285-.511-.366 0-.69.079-.972.236a1.651 1.651 0 00-.652.691c-.153.298-.232.658-.236 1.08zm15.363-7.415V173h-2.723v-13.091h2.723zm6.618 13.283c-.993 0-1.852-.211-2.576-.633a4.329 4.329 0 01-1.669-1.777c-.392-.763-.588-1.647-.588-2.653 0-1.014.196-1.9.588-2.659a4.275 4.275 0 011.669-1.777c.724-.426 1.583-.639 2.576-.639.992 0 1.849.213 2.569.639a4.263 4.263 0 011.675 1.777c.392.759.588 1.645.588 2.659 0 1.006-.196 1.89-.588 2.653a4.317 4.317 0 01-1.675 1.777c-.72.422-1.577.633-2.569.633zm.012-2.11c.452 0 .829-.127 1.132-.383.302-.26.53-.614.684-1.061.157-.448.236-.957.236-1.528 0-.571-.079-1.08-.236-1.528-.154-.447-.382-.801-.684-1.061-.303-.26-.68-.39-1.132-.39-.456 0-.839.13-1.15.39-.307.26-.539.614-.697 1.061-.153.448-.23.957-.23 1.528 0 .571.077 1.08.23 1.528.158.447.39.801.697 1.061.311.256.694.383 1.15.383zm15.428-7.9L437.746 173h-3.068l-3.433-9.818h2.877l2.039 7.025h.102l2.033-7.025h2.883zm5.551 10.01c-1.01 0-1.879-.205-2.608-.614a4.204 4.204 0 01-1.675-1.751c-.392-.759-.588-1.656-.588-2.691 0-1.01.196-1.897.588-2.659a4.345 4.345 0 011.656-1.784c.716-.426 1.555-.639 2.518-.639.648 0 1.251.104 1.809.313a4.014 4.014 0 011.47.927c.422.413.75.933.985 1.56.234.622.351 1.351.351 2.186v.748h-8.29V167.1h5.727c0-.392-.085-.739-.255-1.042a1.833 1.833 0 00-.71-.709 2.021 2.021 0 00-1.042-.262 2.1 2.1 0 00-1.099.287 2.015 2.015 0 00-.742.761c-.179.315-.27.667-.275 1.055v1.604c0 .486.09.906.269 1.259.183.354.441.627.773.818.333.192.727.288 1.183.288.302 0 .579-.043.831-.128.251-.085.466-.213.645-.383.179-.171.316-.38.409-.627l2.519.167a3.444 3.444 0 01-.786 1.585c-.392.447-.899.797-1.522 1.048-.618.247-1.331.371-2.141.371z" fill="#475569"/><path d="M256 192h124.306" stroke="#CBD5E1" stroke-width="4" stroke-linecap="round"/><path d="M267 202h101.959M283 212h70" stroke="#E2E8F0" stroke-width="4" stroke-linecap="round"/><defs><filter id="filter0_d_6113_30091" x="84" y="57" width="468" height="286" filterUnits="userSpaceOnUse" color-interpolation-filters="sRGB"><feFlood flood-opacity="0" result="BackgroundImageFix"/><feColorMatrix in="SourceAlpha" values="0 0 0 0 0 0 0 0 0 0 0 0 0 0 0 0 0 0 127 0" result="hardAlpha"/><feOffset dy="1"/><feGaussianBlur stdDeviation="1.5"/><feColorMatrix values="0 0 0 0 0.0117647 0 0 0 0 0 0 0 0 0 0.278431 0 0 0 0.13 0"/><feBlend in2="BackgroundImageFix" result="effect1_dropShadow_6113_30091"/><feBlend in="SourceGraphic" in2="effect1_dropShadow_6113_30091" result="shape"/></filter></defs></svg>