<svg width="636" height="400" fill="none" xmlns="http://www.w3.org/2000/svg"><path fill="#E2E8F0" d="M0 0h636v400H0z"/><g filter="url(#filter0_d_6115_29557)"><rect x="87" y="59" width="462" height="282" rx="12" fill="#fff"/></g><path d="M153.688 105.492h-2.8a2.727 2.727 0 00-.313-.965 2.45 2.45 0 00-.607-.729 2.691 2.691 0 00-.856-.46 3.294 3.294 0 00-1.042-.16c-.678 0-1.268.169-1.771.505-.503.333-.893.818-1.17 1.458-.277.635-.415 1.406-.415 2.314 0 .933.138 1.717.415 2.352.282.635.674 1.114 1.176 1.438.503.324 1.085.486 1.745.486a3.46 3.46 0 001.03-.147c.319-.098.603-.241.85-.428a2.47 2.47 0 00.613-.697c.167-.273.282-.584.345-.933l2.8.012a5.049 5.049 0 01-.543 1.739 5.23 5.23 0 01-1.157 1.489 5.453 5.453 0 01-1.726 1.036c-.665.251-1.417.377-2.256.377-1.168 0-2.212-.264-3.132-.793-.917-.528-1.641-1.293-2.174-2.294-.528-1.002-.792-2.214-.792-3.637 0-1.428.268-2.643.805-3.644.537-1.001 1.266-1.764 2.186-2.288.921-.529 1.956-.793 3.107-.793.758 0 1.461.107 2.109.32a5.349 5.349 0 011.732.933c.503.405.912.901 1.228 1.489.319.588.524 1.262.613 2.02zm6.37 8.7c-.993 0-1.852-.211-2.576-.633a4.333 4.333 0 01-1.668-1.777c-.392-.763-.589-1.647-.589-2.653 0-1.014.197-1.9.589-2.659a4.279 4.279 0 011.668-1.777c.724-.426 1.583-.639 2.576-.639.993 0 1.849.213 2.569.639a4.263 4.263 0 011.675 1.777c.392.759.588 1.645.588 2.659 0 1.006-.196 1.89-.588 2.653a4.317 4.317 0 01-1.675 1.777c-.72.422-1.576.633-2.569.633zm.013-2.11c.451 0 .829-.127 1.131-.383.303-.26.531-.614.684-1.061.158-.448.237-.957.237-1.528 0-.571-.079-1.08-.237-1.528-.153-.447-.381-.801-.684-1.061-.302-.26-.68-.39-1.131-.39-.456 0-.84.13-1.151.39-.307.26-.539.614-.697 1.061-.153.448-.23.957-.23 1.528 0 .571.077 1.08.23 1.528.158.447.39.801.697 1.061.311.256.695.383 1.151.383zm12.886-2.262v-5.638h2.723V114h-2.614v-1.783h-.103a2.901 2.901 0 01-1.105 1.387c-.512.349-1.136.524-1.873.524-.657 0-1.234-.149-1.733-.448a3.073 3.073 0 01-1.169-1.272c-.277-.549-.418-1.208-.422-1.975v-6.251h2.723v5.765c.004.58.16 1.038.466 1.375.307.336.719.505 1.234.505.328 0 .635-.075.921-.224.285-.153.515-.379.69-.678.179-.298.266-.666.262-1.105zm4.901 4.18v-9.818h2.64v1.713h.102c.179-.609.48-1.07.902-1.381a2.368 2.368 0 011.457-.473 4.147 4.147 0 01.857.096v2.416a3.64 3.64 0 00-.531-.102 4.747 4.747 0 00-.62-.045c-.401 0-.759.088-1.074.262a1.93 1.93 0 00-.741.716 2.069 2.069 0 00-.269 1.061V114h-2.723zm15.534-7.018l-2.492.153a1.297 1.297 0 00-.275-.575 1.458 1.458 0 00-.556-.416 1.9 1.9 0 00-.812-.16c-.422 0-.778.09-1.068.269-.289.175-.434.409-.434.703 0 .234.093.432.281.594.187.162.509.292.965.39l1.777.358c.955.196 1.666.512 2.135.946.469.435.703 1.006.703 1.713 0 .644-.19 1.208-.569 1.694-.375.486-.89.865-1.547 1.138-.652.269-1.404.403-2.256.403-1.3 0-2.335-.271-3.107-.812-.767-.545-1.216-1.287-1.348-2.224l2.678-.141c.081.396.277.699.588.908.311.204.71.306 1.195.306.478 0 .861-.091 1.151-.274.294-.188.443-.429.447-.723a.75.75 0 00-.313-.607c-.204-.162-.52-.286-.946-.371l-1.7-.339c-.959-.191-1.673-.524-2.141-.997-.465-.473-.697-1.076-.697-1.809 0-.63.17-1.174.511-1.63.345-.456.829-.807 1.451-1.054.627-.247 1.36-.371 2.199-.371 1.24 0 2.216.262 2.928.786.715.524 1.133 1.238 1.252 2.142zm6.413 7.21c-1.01 0-1.879-.205-2.608-.614a4.202 4.202 0 01-1.674-1.751c-.392-.759-.589-1.656-.589-2.691 0-1.01.197-1.897.589-2.659a4.343 4.343 0 011.655-1.784c.716-.426 1.555-.639 2.519-.639.647 0 1.25.104 1.809.313a4.03 4.03 0 011.47.927c.422.413.75.933.984 1.56.234.622.352 1.351.352 2.186v.748h-8.291V108.1h5.727c0-.392-.085-.739-.255-1.042a1.833 1.833 0 00-.71-.709 2.019 2.019 0 00-1.042-.262 2.1 2.1 0 00-1.099.287 2.022 2.022 0 00-.742.761c-.179.315-.27.667-.274 1.055v1.604c0 .486.089.906.268 1.259.183.354.441.627.773.818.333.192.727.288 1.183.288.303 0 .58-.043.831-.128s.467-.213.646-.383c.179-.171.315-.38.409-.627l2.518.167a3.444 3.444 0 01-.786 1.585c-.392.447-.899.797-1.521 1.048-.618.247-1.332.371-2.142.371zm14.453-7.21l-2.493.153a1.286 1.286 0 00-.275-.575 1.458 1.458 0 00-.556-.416 1.9 1.9 0 00-.812-.16c-.422 0-.778.09-1.067.269-.29.175-.435.409-.435.703 0 .234.094.432.281.594.188.162.509.292.965.39l1.777.358c.955.196 1.666.512 2.135.946.469.435.703 1.006.703 1.713a2.67 2.67 0 01-.569 1.694c-.375.486-.89.865-1.546 1.138-.652.269-1.405.403-2.257.403-1.3 0-2.335-.271-3.106-.812-.767-.545-1.217-1.287-1.349-2.224l2.678-.141c.081.396.277.699.588.908.311.204.71.306 1.196.306.477 0 .86-.091 1.15-.274.294-.188.443-.429.448-.723a.753.753 0 00-.314-.607c-.204-.162-.519-.286-.946-.371l-1.7-.339c-.959-.191-1.673-.524-2.141-.997-.465-.473-.697-1.076-.697-1.809 0-.63.17-1.174.511-1.63.346-.456.829-.807 1.451-1.054.627-.247 1.36-.371 2.199-.371 1.24 0 2.216.262 2.928.786.716.524 1.133 1.238 1.253 2.142zm17.706-1.49h-2.8a2.747 2.747 0 00-.313-.965 2.454 2.454 0 00-.608-.729 2.68 2.68 0 00-.856-.46 3.294 3.294 0 00-1.042-.16c-.678 0-1.268.169-1.771.505-.502.333-.892.818-1.169 1.458-.277.635-.416 1.406-.416 2.314 0 .933.139 1.717.416 2.352.281.635.673 1.114 1.176 1.438.503.324 1.084.486 1.745.486.371 0 .714-.049 1.029-.147.32-.098.603-.241.85-.428.247-.192.452-.424.614-.697.166-.273.281-.584.345-.933l2.8.012a5.212 5.212 0 01-1.701 3.228 5.442 5.442 0 01-1.726 1.036c-.664.251-1.416.377-2.256.377-1.168 0-2.212-.264-3.132-.793-.916-.528-1.641-1.293-2.173-2.294-.529-1.002-.793-2.214-.793-3.637 0-1.428.269-2.643.805-3.644.537-1.001 1.266-1.764 2.187-2.288.92-.529 1.956-.793 3.106-.793.759 0 1.462.107 2.109.32.652.213 1.23.524 1.733.933.503.405.912.901 1.227 1.489.32.588.524 1.262.614 2.02zm4.733 8.693c-.627 0-1.185-.108-1.675-.326a2.685 2.685 0 01-1.163-.978c-.281-.434-.422-.975-.422-1.623 0-.546.1-1.004.3-1.374.201-.371.473-.67.819-.895a3.96 3.96 0 011.176-.512 8.973 8.973 0 011.393-.243 34.498 34.498 0 001.381-.166c.349-.055.603-.136.761-.243a.534.534 0 00.236-.473v-.038c0-.405-.128-.718-.384-.94-.251-.221-.609-.332-1.073-.332-.49 0-.88.109-1.17.326-.29.213-.482.481-.575.805l-2.519-.204a3.423 3.423 0 01.754-1.547 3.618 3.618 0 011.451-1.01c.597-.239 1.287-.358 2.071-.358.546 0 1.068.064 1.566.192a4.1 4.1 0 011.336.594c.392.269.701.614.927 1.036.226.417.339.918.339 1.502V114h-2.582v-1.362h-.077a2.774 2.774 0 01-.633.812c-.264.23-.582.412-.952.544a3.962 3.962 0 01-1.285.191zm.78-1.879a2.3 2.3 0 001.061-.236c.307-.162.547-.38.722-.652a1.68 1.68 0 00.262-.927v-1.042a1.474 1.474 0 01-.351.153 6.471 6.471 0 01-.493.122c-.183.034-.366.066-.549.096l-.499.07a3.339 3.339 0 00-.837.224 1.33 1.33 0 00-.556.415 1.015 1.015 0 00-.198.639c0 .371.134.654.402.85.273.192.618.288 1.036.288zm6.862 1.694v-9.818h2.64v1.713h.102c.179-.609.479-1.07.901-1.381a2.372 2.372 0 011.457-.473 4.15 4.15 0 01.857.096v2.416a3.64 3.64 0 00-.531-.102 4.723 4.723 0 00-.62-.045c-.4 0-.758.088-1.073.262a1.926 1.926 0 00-.742.716 2.068 2.068 0 00-.268 1.061V114h-2.723zm10.526.16a3.715 3.715 0 01-2.027-.575c-.6-.388-1.078-.957-1.431-1.707-.35-.754-.525-1.679-.525-2.774 0-1.125.182-2.061.544-2.806.362-.75.844-1.311 1.444-1.682a3.701 3.701 0 011.988-.562c.55 0 1.008.094 1.375.281.37.183.669.414.894.691.231.272.405.541.525.805h.083v-4.922h2.716V114h-2.684v-1.572h-.115a3.5 3.5 0 01-.544.811 2.69 2.69 0 01-.901.659c-.366.174-.814.262-1.342.262zm.863-2.167c.439 0 .809-.119 1.112-.358.307-.243.541-.582.703-1.016.166-.435.249-.944.249-1.528 0-.584-.081-1.091-.243-1.521-.162-.431-.396-.763-.703-.998-.307-.234-.679-.351-1.118-.351-.448 0-.825.121-1.132.364-.307.243-.539.58-.696 1.01-.158.431-.237.929-.237 1.496 0 .571.079 1.076.237 1.515.161.434.394.775.696 1.023.307.242.684.364 1.132.364zm15.131-5.011l-2.493.153a1.276 1.276 0 00-.275-.575 1.45 1.45 0 00-.556-.416 1.895 1.895 0 00-.811-.16c-.422 0-.778.09-1.068.269-.29.175-.435.409-.435.703 0 .234.094.432.282.594.187.162.509.292.965.39l1.777.358c.954.196 1.666.512 2.135.946.469.435.703 1.006.703 1.713 0 .644-.19 1.208-.569 1.694-.375.486-.891.865-1.547 1.138-.652.269-1.404.403-2.256.403-1.3 0-2.335-.271-3.107-.812-.767-.545-1.216-1.287-1.348-2.224l2.678-.141c.081.396.277.699.588.908.311.204.709.306 1.195.306.477 0 .861-.091 1.151-.274.294-.188.443-.429.447-.723a.752.752 0 00-.313-.607c-.205-.162-.52-.286-.946-.371l-1.7-.339c-.959-.191-1.673-.524-2.142-.997-.464-.473-.696-1.076-.696-1.809 0-.63.17-1.174.511-1.63.345-.456.829-.807 1.451-1.054.626-.247 1.359-.371 2.199-.371 1.24 0 2.216.262 2.927.786.716.524 1.134 1.238 1.253 2.142z" fill="#475569"/><path d="M141 130h141" stroke="#CBD5E1" stroke-width="4" stroke-linecap="round"/><path d="M141 140h91" stroke="#E2E8F0" stroke-width="4" stroke-linecap="round"/><rect x="141.25" y="166.25" width="79.5" height="90.929" rx="5.75" fill="#fff" stroke="#E2E8F0" stroke-width=".5"/><g clip-path="url(#clip0_6115_29557)"><path d="M155.499 240.416l.644 1.304 1.44.211-1.042 1.014.246 1.434-1.288-.677-1.287.677.246-1.434-1.042-1.014 1.44-.211.643-1.304z" stroke="#F59E0B" stroke-width=".417" stroke-linecap="round" stroke-linejoin="round"/></g><g clip-path="url(#clip1_6115_29557)"><path d="M160.499 240.416l.644 1.304 1.44.211-1.042 1.014.246 1.434-1.288-.677-1.287.677.246-1.434-1.042-1.014 1.44-.211.643-1.304z" stroke="#F59E0B" stroke-width=".417" stroke-linecap="round" stroke-linejoin="round"/></g><g clip-path="url(#clip2_6115_29557)"><path d="M165.499 240.416l.644 1.304 1.44.211-1.042 1.014.246 1.434-1.288-.677-1.287.677.246-1.434-1.042-1.014 1.44-.211.643-1.304z" stroke="#F59E0B" stroke-width=".417" stroke-linecap="round" stroke-linejoin="round"/></g><g clip-path="url(#clip3_6115_29557)"><path d="M170.499 240.416l.644 1.304 1.44.211-1.042 1.014.246 1.434-1.288-.677-1.287.677.246-1.434-1.042-1.014 1.44-.211.643-1.304z" stroke="#F59E0B" stroke-width=".417" stroke-linecap="round" stroke-linejoin="round"/></g><g clip-path="url(#clip4_6115_29557)"><path d="M175.499 240.416l.644 1.304 1.44.211-1.042 1.014.246 1.434-1.288-.677-1.287.677.246-1.434-1.042-1.014 1.44-.211.643-1.304z" stroke="#F59E0B" stroke-width=".417" stroke-linecap="round" stroke-linejoin="round"/></g><path d="M141 172a6 6 0 016-6h68a6 6 0 016 6v34h-80v-34z" fill="#E2E8F0"/><path d="M172.711 180.567L141 206h80v-7.28l-13.545-9.978a1 1 0 00-1.159-.02l-13.884 9.523a1.002 1.002 0 01-1.281-.126l-17.079-17.471a1 1 0 00-1.341-.081z" fill="url(#paint0_linear_6115_29557)"/><path stroke="#CBD5E1" stroke-width="2.5" stroke-linecap="round" d="M154.25 217.75h37.5"/><path stroke="#E2E8F0" stroke-width="2" stroke-linecap="round" d="M154 225h54m-54 6h48"/><circle cx="195" cy="180" r="5" fill="#CBD5E1"/><circle cx="207" cy="244" r="4" fill="#E2E8F0"/><circle cx="207" cy="243" r="1" fill="#94A3B8"/><path d="M209 245.5c0-.197-.052-.392-.152-.574a1.568 1.568 0 00-.434-.487 2.16 2.16 0 00-.649-.325A2.595 2.595 0 00207 244c-.263 0-.523.039-.765.114a2.16 2.16 0 00-.649.325c-.186.14-.333.305-.434.487-.1.182-.152.377-.152.574h4z" fill="#94A3B8"/><rect x="333.25" y="166.25" width="79.5" height="90.929" rx="5.75" fill="#fff" stroke="#E2E8F0" stroke-width=".5"/><g clip-path="url(#clip5_6115_29557)"><path d="M347.499 240.416l.644 1.304 1.44.211-1.042 1.014.246 1.434-1.288-.677-1.287.677.246-1.434-1.042-1.014 1.44-.211.643-1.304z" stroke="#F59E0B" stroke-width=".417" stroke-linecap="round" stroke-linejoin="round"/></g><g clip-path="url(#clip6_6115_29557)"><path d="M352.499 240.416l.644 1.304 1.44.211-1.042 1.014.246 1.434-1.288-.677-1.287.677.246-1.434-1.042-1.014 1.44-.211.643-1.304z" stroke="#F59E0B" stroke-width=".417" stroke-linecap="round" stroke-linejoin="round"/></g><g clip-path="url(#clip7_6115_29557)"><path d="M357.499 240.416l.644 1.304 1.44.211-1.042 1.014.246 1.434-1.288-.677-1.287.677.246-1.434-1.042-1.014 1.44-.211.643-1.304z" stroke="#F59E0B" stroke-width=".417" stroke-linecap="round" stroke-linejoin="round"/></g><g clip-path="url(#clip8_6115_29557)"><path d="M362.499 240.416l.644 1.304 1.44.211-1.042 1.014.246 1.434-1.288-.677-1.287.677.246-1.434-1.042-1.014 1.44-.211.643-1.304z" stroke="#F59E0B" stroke-width=".417" stroke-linecap="round" stroke-linejoin="round"/></g><g clip-path="url(#clip9_6115_29557)"><path d="M367.499 240.416l.644 1.304 1.44.211-1.042 1.014.246 1.434-1.288-.677-1.287.677.246-1.434-1.042-1.014 1.44-.211.643-1.304z" stroke="#F59E0B" stroke-width=".417" stroke-linecap="round" stroke-linejoin="round"/></g><path d="M333 172a6 6 0 016-6h68a6 6 0 016 6v34h-80v-34z" fill="#E2E8F0"/><path d="M364.711 180.567L333 206h80v-7.28l-13.545-9.978a1 1 0 00-1.159-.02l-13.884 9.523a1.002 1.002 0 01-1.281-.126l-17.079-17.471a1 1 0 00-1.341-.081z" fill="url(#paint1_linear_6115_29557)"/><path stroke="#CBD5E1" stroke-width="2.5" stroke-linecap="round" d="M346.25 217.75h37.5"/><path stroke="#E2E8F0" stroke-width="2" stroke-linecap="round" d="M346 225h54m-54 6h48"/><circle cx="387" cy="180" r="5" fill="#CBD5E1"/><circle cx="399" cy="244" r="4" fill="#E2E8F0"/><circle cx="399" cy="243" r="1" fill="#94A3B8"/><path d="M401 245.5c0-.197-.052-.392-.152-.574a1.568 1.568 0 00-.434-.487 2.16 2.16 0 00-.649-.325A2.595 2.595 0 00399 244c-.263 0-.523.039-.765.114a2.16 2.16 0 00-.649.325c-.186.14-.333.305-.434.487-.1.182-.152.377-.152.574h4z" fill="#94A3B8"/><g filter="url(#filter1_d_6115_29557)"><rect x="237.25" y="166.25" width="79.5" height="90.929" rx="5.75" fill="#fff" stroke="#E2E8F0" stroke-width=".5"/><g clip-path="url(#clip10_6115_29557)"><path d="M251.499 240.416l.644 1.304 1.44.211-1.042 1.014.246 1.434-1.288-.677-1.287.677.246-1.434-1.042-1.014 1.44-.211.643-1.304z" stroke="#F59E0B" stroke-width=".417" stroke-linecap="round" stroke-linejoin="round"/></g><g clip-path="url(#clip11_6115_29557)"><path d="M256.499 240.416l.644 1.304 1.44.211-1.042 1.014.246 1.434-1.288-.677-1.287.677.246-1.434-1.042-1.014 1.44-.211.643-1.304z" stroke="#F59E0B" stroke-width=".417" stroke-linecap="round" stroke-linejoin="round"/></g><g clip-path="url(#clip12_6115_29557)"><path d="M261.499 240.416l.644 1.304 1.44.211-1.042 1.014.246 1.434-1.288-.677-1.287.677.246-1.434-1.042-1.014 1.44-.211.643-1.304z" stroke="#F59E0B" stroke-width=".417" stroke-linecap="round" stroke-linejoin="round"/></g><g clip-path="url(#clip13_6115_29557)"><path d="M266.499 240.416l.644 1.304 1.44.211-1.042 1.014.246 1.434-1.288-.677-1.287.677.246-1.434-1.042-1.014 1.44-.211.643-1.304z" stroke="#F59E0B" stroke-width=".417" stroke-linecap="round" stroke-linejoin="round"/></g><g clip-path="url(#clip14_6115_29557)"><path d="M271.499 240.416l.644 1.304 1.44.211-1.042 1.014.246 1.434-1.288-.677-1.287.677.246-1.434-1.042-1.014 1.44-.211.643-1.304z" stroke="#F59E0B" stroke-width=".417" stroke-linecap="round" stroke-linejoin="round"/></g><path d="M237 172a6 6 0 016-6h68a6 6 0 016 6v34h-80v-34z" fill="#E2E8F0"/><path d="M268.711 180.567L237 206h80v-7.28l-13.545-9.978a1 1 0 00-1.159-.02l-13.884 9.523a1.002 1.002 0 01-1.281-.126l-17.079-17.471a1 1 0 00-1.341-.081z" fill="url(#paint2_linear_6115_29557)"/><path stroke="#754FFE" stroke-width="2.5" stroke-linecap="round" d="M250.25 217.75h37.5"/><path stroke="#E2E8F0" stroke-width="2" stroke-linecap="round" d="M250 225h54m-54 6h48"/><circle cx="291" cy="180" r="5" fill="#CBD5E1"/><circle cx="303" cy="244" r="4" fill="#E2E8F0"/><circle cx="303" cy="243" r="1" fill="#94A3B8"/><path d="M305 245.5c0-.197-.052-.392-.152-.574a1.568 1.568 0 00-.434-.487 2.16 2.16 0 00-.649-.325A2.595 2.595 0 00303 244c-.263 0-.523.039-.765.114a2.16 2.16 0 00-.649.325c-.186.14-.333.305-.434.487-.1.182-.152.377-.152.574h4z" fill="#94A3B8"/></g><rect x="429.25" y="166.25" width="79.5" height="90.929" rx="5.75" fill="#fff" stroke="#E2E8F0" stroke-width=".5"/><g clip-path="url(#clip15_6115_29557)"><path d="M443.499 240.416l.644 1.304 1.44.211-1.042 1.014.246 1.434-1.288-.677-1.287.677.246-1.434-1.042-1.014 1.44-.211.643-1.304z" stroke="#F59E0B" stroke-width=".417" stroke-linecap="round" stroke-linejoin="round"/></g><g clip-path="url(#clip16_6115_29557)"><path d="M448.499 240.416l.644 1.304 1.44.211-1.042 1.014.246 1.434-1.288-.677-1.287.677.246-1.434-1.042-1.014 1.44-.211.643-1.304z" stroke="#F59E0B" stroke-width=".417" stroke-linecap="round" stroke-linejoin="round"/></g><g clip-path="url(#clip17_6115_29557)"><path d="M453.499 240.416l.644 1.304 1.44.211-1.042 1.014.246 1.434-1.288-.677-1.287.677.246-1.434-1.042-1.014 1.44-.211.643-1.304z" stroke="#F59E0B" stroke-width=".417" stroke-linecap="round" stroke-linejoin="round"/></g><g clip-path="url(#clip18_6115_29557)"><path d="M458.499 240.416l.644 1.304 1.44.211-1.042 1.014.246 1.434-1.288-.677-1.287.677.246-1.434-1.042-1.014 1.44-.211.643-1.304z" stroke="#F59E0B" stroke-width=".417" stroke-linecap="round" stroke-linejoin="round"/></g><g clip-path="url(#clip19_6115_29557)"><path d="M463.499 240.416l.644 1.304 1.44.211-1.042 1.014.246 1.434-1.288-.677-1.287.677.246-1.434-1.042-1.014 1.44-.211.643-1.304z" stroke="#F59E0B" stroke-width=".417" stroke-linecap="round" stroke-linejoin="round"/></g><path d="M429 172a6 6 0 016-6h68a6 6 0 016 6v34h-80v-34z" fill="#E2E8F0"/><path d="M460.711 180.567L429 206h80v-7.28l-13.545-9.978a1 1 0 00-1.159-.02l-13.884 9.523a1.002 1.002 0 01-1.281-.126l-17.079-17.471a1 1 0 00-1.341-.081z" fill="url(#paint3_linear_6115_29557)"/><path stroke="#CBD5E1" stroke-width="2.5" stroke-linecap="round" d="M442.25 217.75h37.5"/><path stroke="#E2E8F0" stroke-width="2" stroke-linecap="round" d="M442 225h54m-54 6h48"/><circle cx="483" cy="180" r="5" fill="#CBD5E1"/><circle cx="495" cy="244" r="4" fill="#E2E8F0"/><circle cx="495" cy="243" r="1" fill="#94A3B8"/><path d="M497 245.5c0-.197-.052-.392-.152-.574a1.568 1.568 0 00-.434-.487 2.16 2.16 0 00-.649-.325A2.595 2.595 0 00495 244c-.263 0-.523.039-.765.114a2.16 2.16 0 00-.649.325c-.186.14-.333.305-.434.487-.1.182-.152.377-.152.574h4z" fill="#94A3B8"/><defs><clipPath id="clip0_6115_29557"><path fill="#fff" transform="translate(153 240)" d="M0 0h5v5H0z"/></clipPath><clipPath id="clip1_6115_29557"><path fill="#fff" transform="translate(158 240)" d="M0 0h5v5H0z"/></clipPath><clipPath id="clip2_6115_29557"><path fill="#fff" transform="translate(163 240)" d="M0 0h5v5H0z"/></clipPath><clipPath id="clip3_6115_29557"><path fill="#fff" transform="translate(168 240)" d="M0 0h5v5H0z"/></clipPath><clipPath id="clip4_6115_29557"><path fill="#fff" transform="translate(173 240)" d="M0 0h5v5H0z"/></clipPath><clipPath id="clip5_6115_29557"><path fill="#fff" transform="translate(345 240)" d="M0 0h5v5H0z"/></clipPath><clipPath id="clip6_6115_29557"><path fill="#fff" transform="translate(350 240)" d="M0 0h5v5H0z"/></clipPath><clipPath id="clip7_6115_29557"><path fill="#fff" transform="translate(355 240)" d="M0 0h5v5H0z"/></clipPath><clipPath id="clip8_6115_29557"><path fill="#fff" transform="translate(360 240)" d="M0 0h5v5H0z"/></clipPath><clipPath id="clip9_6115_29557"><path fill="#fff" transform="translate(365 240)" d="M0 0h5v5H0z"/></clipPath><clipPath id="clip10_6115_29557"><path fill="#fff" transform="translate(249 240)" d="M0 0h5v5H0z"/></clipPath><clipPath id="clip11_6115_29557"><path fill="#fff" transform="translate(254 240)" d="M0 0h5v5H0z"/></clipPath><clipPath id="clip12_6115_29557"><path fill="#fff" transform="translate(259 240)" d="M0 0h5v5H0z"/></clipPath><clipPath id="clip13_6115_29557"><path fill="#fff" transform="translate(264 240)" d="M0 0h5v5H0z"/></clipPath><clipPath id="clip14_6115_29557"><path fill="#fff" transform="translate(269 240)" d="M0 0h5v5H0z"/></clipPath><clipPath id="clip15_6115_29557"><path fill="#fff" transform="translate(441 240)" d="M0 0h5v5H0z"/></clipPath><clipPath id="clip16_6115_29557"><path fill="#fff" transform="translate(446 240)" d="M0 0h5v5H0z"/></clipPath><clipPath id="clip17_6115_29557"><path fill="#fff" transform="translate(451 240)" d="M0 0h5v5H0z"/></clipPath><clipPath id="clip18_6115_29557"><path fill="#fff" transform="translate(456 240)" d="M0 0h5v5H0z"/></clipPath><clipPath id="clip19_6115_29557"><path fill="#fff" transform="translate(461 240)" d="M0 0h5v5H0z"/></clipPath><linearGradient id="paint0_linear_6115_29557" x1="181" y1="166.103" x2="181" y2="206" gradientUnits="userSpaceOnUse"><stop stop-color="#B4BED8"/><stop offset="1" stop-color="#C1C6D2" stop-opacity="0"/></linearGradient><linearGradient id="paint1_linear_6115_29557" x1="373" y1="166.103" x2="373" y2="206" gradientUnits="userSpaceOnUse"><stop stop-color="#B4BED8"/><stop offset="1" stop-color="#C1C6D2" stop-opacity="0"/></linearGradient><linearGradient id="paint2_linear_6115_29557" x1="277" y1="166.103" x2="277" y2="206" gradientUnits="userSpaceOnUse"><stop stop-color="#B4BED8"/><stop offset="1" stop-color="#C1C6D2" stop-opacity="0"/></linearGradient><linearGradient id="paint3_linear_6115_29557" x1="469" y1="166.103" x2="469" y2="206" gradientUnits="userSpaceOnUse"><stop stop-color="#B4BED8"/><stop offset="1" stop-color="#C1C6D2" stop-opacity="0"/></linearGradient><filter id="filter0_d_6115_29557" x="84" y="57" width="468" height="288" filterUnits="userSpaceOnUse" color-interpolation-filters="sRGB"><feFlood flood-opacity="0" result="BackgroundImageFix"/><feColorMatrix in="SourceAlpha" values="0 0 0 0 0 0 0 0 0 0 0 0 0 0 0 0 0 0 127 0" result="hardAlpha"/><feOffset dy="1"/><feGaussianBlur stdDeviation="1.5"/><feColorMatrix values="0 0 0 0 0.0117647 0 0 0 0 0 0 0 0 0 0.278431 0 0 0 0.13 0"/><feBlend in2="BackgroundImageFix" result="effect1_dropShadow_6115_29557"/><feBlend in="SourceGraphic" in2="effect1_dropShadow_6115_29557" result="shape"/></filter><filter id="filter1_d_6115_29557" x="231" y="163" width="92" height="103.429" filterUnits="userSpaceOnUse" color-interpolation-filters="sRGB"><feFlood flood-opacity="0" result="BackgroundImageFix"/><feColorMatrix in="SourceAlpha" values="0 0 0 0 0 0 0 0 0 0 0 0 0 0 0 0 0 0 127 0" result="hardAlpha"/><feOffset dy="3"/><feGaussianBlur stdDeviation="3"/><feColorMatrix values="0 0 0 0 0.0117647 0 0 0 0 0 0 0 0 0 0.278431 0 0 0 0.1 0"/><feBlend in2="BackgroundImageFix" result="effect1_dropShadow_6115_29557"/><feBlend in="SourceGraphic" in2="effect1_dropShadow_6115_29557" result="shape"/></filter></defs></svg>