<svg width="636" height="400" fill="none" xmlns="http://www.w3.org/2000/svg"><path fill="#E2E8F0" d="M0 0h636v400H0z"/><g filter="url(#filter0_d_6115_29407)"><rect x="178" y="64" width="293.397" height="280.245" rx="6.252" fill="#fff"/><path d="M205.054 98.093c-.48 0-.906-.082-1.279-.246a2.134 2.134 0 01-.879-.686 1.771 1.771 0 01-.343-1.016h1.252a.828.828 0 00.183.483 1.1 1.1 0 00.443.316c.184.076.391.114.62.114.244 0 .46-.043.649-.127.189-.087.336-.206.443-.36a.878.878 0 00.156-.53.92.92 0 00-.159-.545 1.073 1.073 0 00-.473-.37 1.854 1.854 0 00-.74-.133h-.602v-.953h.602c.238 0 .446-.04.623-.123.18-.082.321-.198.423-.346a.895.895 0 00.15-.523.909.909 0 00-.13-.503.88.88 0 00-.37-.337 1.213 1.213 0 00-.556-.12c-.208 0-.402.038-.579.114a1.054 1.054 0 00-.43.323.82.82 0 00-.173.493h-1.189c.009-.382.119-.717.33-1.006.213-.29.497-.517.852-.68a2.819 2.819 0 011.196-.246c.455 0 .85.086 1.186.257.337.168.598.396.782.682.184.287.277.603.277.95.002.384-.111.706-.34.965-.227.26-.524.43-.893.51v.053c.48.067.847.244 1.103.533.257.286.385.643.383 1.069 0 .382-.109.724-.327 1.026-.215.3-.513.535-.892.706a3.12 3.12 0 01-1.299.256zm6.182.037c-.549 0-1.019-.139-1.412-.416-.391-.28-.692-.683-.903-1.21-.208-.528-.313-1.164-.313-1.908.002-.743.108-1.376.317-1.898.211-.524.511-.923.902-1.199.393-.275.863-.413 1.409-.413s1.016.138 1.409.413c.393.276.693.675.902 1.2.211.523.317 1.156.317 1.897 0 .746-.106 1.384-.317 1.912-.209.526-.509.928-.902 1.206-.391.277-.861.416-1.409.416zm0-1.042c.426 0 .763-.21 1.009-.63.249-.422.373-1.042.373-1.862 0-.541-.057-.996-.17-1.365-.113-.369-.273-.646-.479-.833a1.051 1.051 0 00-.733-.283c-.424 0-.759.211-1.006.633-.246.42-.371 1.036-.373 1.848-.002.544.052 1.002.163 1.373.114.37.273.65.48.839.206.186.452.28.736.28zm7.972 1.002a1.93 1.93 0 01-1.079-.31c-.318-.206-.569-.506-.753-.899-.184-.393-.276-.87-.276-1.432 0-.568.093-1.048.28-1.439.188-.393.442-.69.762-.889a1.96 1.96 0 011.069-.303c.3 0 .546.051.74.153.193.1.346.221.459.363.113.14.201.272.263.397h.05V91.18h1.209V98h-1.186v-.806h-.073a2.041 2.041 0 01-.27.396 1.478 1.478 0 01-.466.353c-.193.098-.436.147-.729.147zm.336-.99c.256 0 .473-.068.653-.206.18-.14.316-.334.41-.583.093-.248.139-.538.139-.869 0-.33-.046-.618-.139-.862a1.227 1.227 0 00-.407-.57 1.048 1.048 0 00-.656-.203c-.268 0-.493.07-.672.21a1.27 1.27 0 00-.407.58 2.433 2.433 0 00-.136.845c0 .32.045.605.136.856.093.249.23.445.41.59.182.142.405.213.669.213zm5.145 1.003c-.324 0-.616-.057-.876-.173a1.428 1.428 0 01-.613-.52c-.149-.228-.223-.51-.223-.845 0-.289.053-.528.16-.716.106-.19.252-.34.436-.453.184-.114.392-.199.623-.257a5.1 5.1 0 01.723-.13c.299-.03.542-.058.729-.083.186-.026.322-.067.406-.12.087-.055.13-.14.13-.256v-.02c0-.251-.074-.445-.223-.583-.149-.138-.363-.207-.643-.207-.295 0-.529.065-.702.194a.96.96 0 00-.347.456l-1.126-.16c.089-.31.236-.57.44-.78.204-.21.454-.368.749-.472.296-.107.622-.16.98-.16.246 0 .491.029.736.087.244.057.467.153.669.286.202.131.364.31.486.536.125.227.187.51.187.85V98h-1.159v-.703h-.04a1.491 1.491 0 01-.31.4 1.484 1.484 0 01-.496.296c-.198.074-.43.11-.696.11zm.313-.886c.242 0 .452-.047.629-.143a1.06 1.06 0 00.41-.386.98.98 0 00.146-.523v-.603a.56.56 0 01-.193.087 2.89 2.89 0 01-.299.07c-.111.02-.221.038-.33.053l-.283.04c-.18.024-.341.064-.483.12a.81.81 0 00-.337.233.57.57 0 00-.123.38c0 .222.081.39.243.502.162.114.369.17.62.17zm4.166 2.701a2.436 2.436 0 01-.786-.126l.28-.94c.175.052.332.076.469.074a.575.575 0 00.363-.13c.107-.082.197-.22.27-.413l.103-.276-1.855-5.222h1.279l1.179 3.863h.054l1.182-3.863h1.282l-2.048 5.734a2.315 2.315 0 01-.38.697 1.542 1.542 0 01-.579.446 1.935 1.935 0 01-.813.156zm8.697-5.681l-1.099.12a.876.876 0 00-.163-.313.81.81 0 00-.306-.237 1.12 1.12 0 00-.473-.09c-.251 0-.462.055-.633.163-.169.11-.252.25-.25.423a.443.443 0 00.163.363c.114.094.3.17.56.23l.872.187c.484.104.844.27 1.079.496.238.226.358.523.36.889a1.386 1.386 0 01-.283.853 1.816 1.816 0 01-.769.572 2.911 2.911 0 01-1.133.207c-.626 0-1.13-.131-1.512-.393a1.58 1.58 0 01-.682-1.102l1.175-.114a.83.83 0 00.34.523c.173.118.399.177.676.177.287 0 .516-.06.69-.177.175-.117.263-.263.263-.436a.455.455 0 00-.17-.363c-.111-.096-.284-.169-.52-.22l-.872-.183c-.491-.102-.854-.274-1.089-.516-.236-.245-.352-.553-.35-.926a1.313 1.313 0 01.256-.82c.176-.233.419-.412.73-.539a2.829 2.829 0 011.082-.193c.6 0 1.071.128 1.416.383.346.255.56.6.642 1.036z" fill="#64748B"/><path d="M208.761 110.359V124h-2.472v-11.237h-.079l-3.191 2.039v-2.265l3.39-2.178h2.352zM211.849 124v-1.785l4.736-4.643c.453-.457.83-.863 1.132-1.218.302-.356.528-.7.679-1.033a2.55 2.55 0 00.227-1.066c0-.43-.098-.799-.293-1.105a1.954 1.954 0 00-.806-.72 2.612 2.612 0 00-1.166-.253c-.448 0-.841.094-1.179.28a1.933 1.933 0 00-.786.779c-.182.338-.273.74-.273 1.206h-2.351c0-.866.198-1.619.593-2.258a3.994 3.994 0 011.632-1.485c.697-.351 1.496-.527 2.398-.527.914 0 1.718.171 2.411.513.692.342 1.23.811 1.612 1.406.386.595.579 1.274.579 2.038 0 .511-.098 1.012-.293 1.505-.195.493-.539 1.039-1.032 1.639-.489.599-1.175 1.325-2.058 2.178l-2.352 2.391v.093h5.942V124h-9.352zm14.132-1.865l-.087.733a10.863 10.863 0 01-.333 1.705 20.513 20.513 0 01-.493 1.605 58.05 58.05 0 01-.419 1.152h-1.625l.253-1.105c.111-.467.217-.991.319-1.572.102-.582.171-1.173.207-1.772l.046-.746h2.132zm6.763 2.051a5.747 5.747 0 01-1.911-.339 4.51 4.51 0 01-1.679-1.099c-.497-.511-.892-1.188-1.185-2.032-.293-.848-.438-1.898-.433-3.15 0-1.168.124-2.209.373-3.124.248-.915.606-1.687 1.072-2.318a4.73 4.73 0 011.685-1.452c.662-.333 1.401-.5 2.218-.5.857 0 1.617.169 2.278.507a4.291 4.291 0 011.612 1.385c.409.582.662 1.239.759 1.972h-2.431c-.124-.524-.379-.942-.766-1.253-.382-.315-.866-.472-1.452-.472-.946 0-1.674.41-2.185 1.232-.506.821-.761 1.949-.766 3.383h.094c.217-.39.499-.726.846-1.005.346-.28.737-.496 1.172-.646.44-.156.904-.234 1.392-.234.799 0 1.516.191 2.151.573.64.382 1.146.908 1.519 1.579.373.666.557 1.43.553 2.291.004.897-.2 1.703-.613 2.418a4.446 4.446 0 01-1.725 1.678c-.737.409-1.596.611-2.578.606zm-.013-1.998a2.42 2.42 0 001.299-.353c.382-.235.684-.553.906-.952.222-.4.33-.848.326-1.346a2.65 2.65 0 00-.32-1.325 2.433 2.433 0 00-.886-.939 2.424 2.424 0 00-1.292-.347 2.48 2.48 0 00-1.818.78 2.668 2.668 0 00-.746 1.851c.004.475.115.913.333 1.312.218.4.517.72.899.96.382.239.815.359 1.299.359zm11.541-12.016a5.6 5.6 0 011.905.347 4.427 4.427 0 011.678 1.092c.498.502.893 1.175 1.186 2.018.293.844.439 1.888.439 3.131.005 1.172-.119 2.22-.373 3.144-.248.919-.606 1.696-1.072 2.331a4.73 4.73 0 01-1.685 1.452c-.657.333-1.397.499-2.218.499-.862 0-1.625-.168-2.291-.506a4.303 4.303 0 01-1.606-1.385 4.407 4.407 0 01-.752-2.012h2.431c.124.542.377.973.759 1.293.387.315.873.472 1.459.472.946 0 1.674-.41 2.185-1.232.51-.821.766-1.962.766-3.423h-.094a3.49 3.49 0 01-.846 1.012c-.346.28-.739.495-1.178.646a4.201 4.201 0 01-1.386.227c-.799 0-1.519-.191-2.158-.573a4.183 4.183 0 01-1.512-1.572c-.368-.666-.555-1.428-.559-2.285 0-.888.204-1.685.612-2.391.413-.71.988-1.27 1.725-1.678.738-.413 1.599-.615 2.585-.607zm.006 1.999c-.479 0-.912.117-1.298.353a2.508 2.508 0 00-.906.945 2.7 2.7 0 00-.327 1.326c.005.484.114.924.327 1.319a2.5 2.5 0 00.886.939c.377.231.808.346 1.292.346a2.467 2.467 0 001.818-.779c.236-.249.418-.531.546-.846.134-.315.198-.648.194-.999 0-.466-.111-.897-.334-1.292a2.57 2.57 0 00-.899-.953 2.374 2.374 0 00-1.299-.359zm11.894 12.015c-.99 0-1.869-.166-2.637-.499-.764-.333-1.364-.788-1.799-1.365a3.21 3.21 0 01-.639-1.979 3.264 3.264 0 01.373-1.578c.253-.48.595-.88 1.026-1.199a3.311 3.311 0 011.452-.62v-.093a2.883 2.883 0 01-1.705-1.072 3.098 3.098 0 01-.64-1.952 3.109 3.109 0 01.586-1.878c.395-.551.937-.984 1.625-1.299.689-.32 1.475-.48 2.358-.48.875 0 1.654.16 2.338.48.688.315 1.23.748 1.625 1.299.4.55.6 1.177.6 1.878 0 .737-.22 1.388-.66 1.952a2.875 2.875 0 01-1.685 1.072v.093a3.218 3.218 0 011.439.62c.431.319.773.719 1.026 1.199.257.479.386 1.005.386 1.578 0 .737-.217 1.397-.653 1.979-.435.577-1.034 1.032-1.798 1.365-.759.333-1.632.499-2.618.499zm0-1.904c.511 0 .955-.087 1.332-.26.378-.178.671-.427.88-.746a2.02 2.02 0 00.319-1.106 2.064 2.064 0 00-.339-1.152 2.233 2.233 0 00-.9-.793 2.82 2.82 0 00-1.292-.286c-.488 0-.923.095-1.305.286a2.277 2.277 0 00-.906.793 2.02 2.02 0 00-.32 1.152 1.94 1.94 0 00.307 1.106c.208.315.501.561.879.739.382.178.83.267 1.345.267zm0-6.215c.418 0 .786-.084 1.106-.253.324-.169.579-.404.766-.706.186-.302.282-.651.286-1.046a1.942 1.942 0 00-.279-1.025 1.807 1.807 0 00-.76-.687 2.445 2.445 0 00-1.119-.246c-.43 0-.81.082-1.139.246-.324.16-.577.389-.759.687a1.897 1.897 0 00-.26 1.025c-.004.395.085.744.267 1.046.186.298.442.533.766.706.328.169.703.253 1.125.253z" fill="#1E293B"/><path d="M219.312 137.179V144h-1.032v-5.788h-.04l-1.632 1.066v-.986l1.702-1.113h1.002zm1.845 6.821v-.746l2.308-2.391c.246-.26.45-.488.609-.683.163-.198.284-.385.364-.563.079-.177.119-.366.119-.566 0-.226-.053-.422-.159-.586a1.043 1.043 0 00-.437-.383 1.388 1.388 0 00-.623-.137c-.244 0-.457.05-.639.15-.182.1-.322.241-.42.423a1.34 1.34 0 00-.146.64h-.983c0-.415.096-.779.287-1.089.191-.311.453-.552.786-.723.333-.173.711-.26 1.135-.26.429 0 .806.086 1.133.257.328.168.585.399.769.692.184.291.277.62.277.986a2 2 0 01-.144.743c-.093.242-.256.512-.489.809-.233.295-.558.654-.973 1.076l-1.355 1.419v.049h3.07V144h-4.489zm6.421.063a.646.646 0 01-.47-.193.645.645 0 01-.196-.473.63.63 0 01.196-.466.642.642 0 01.47-.197c.182 0 .339.066.47.197a.63.63 0 01.196.466.64.64 0 01-.093.337.695.695 0 01-.24.239c-.1.06-.211.09-.333.09zm4.12.03a2.757 2.757 0 01-.899-.166 2.11 2.11 0 01-.799-.533c-.24-.249-.432-.583-.576-1.003-.142-.419-.213-.943-.213-1.571 0-.595.059-1.124.176-1.586a3.57 3.57 0 01.516-1.169c.225-.319.496-.562.813-.729.318-.167.674-.25 1.069-.25.406 0 .767.08 1.082.24.316.16.571.381.766.663.198.282.323.603.377.962h-1.016a1.311 1.311 0 00-.41-.696c-.204-.18-.47-.27-.799-.27-.499 0-.889.218-1.169.653-.277.435-.417 1.04-.42 1.815h.05a1.868 1.868 0 011.013-.809c.215-.076.442-.113.679-.113.395 0 .753.096 1.073.289.322.191.578.456.769.793.191.338.286.724.286 1.159 0 .435-.098.829-.296 1.182a2.178 2.178 0 01-.826.84c-.355.204-.77.304-1.246.299zm-.003-.866a1.3 1.3 0 00.703-.193c.206-.129.37-.302.489-.519.12-.218.18-.461.18-.73 0-.262-.059-.5-.176-.716a1.346 1.346 0 00-.48-.513 1.282 1.282 0 00-.693-.189 1.322 1.322 0 00-.989.426 1.522 1.522 0 00-.299.459 1.466 1.466 0 00.07 1.253c.119.217.283.393.489.526a1.3 1.3 0 00.706.196zm7.145-.506v-.36c0-.257.053-.492.159-.706.109-.215.267-.387.473-.516.209-.131.461-.196.756-.196.302 0 .555.064.76.193.204.129.358.301.463.516.106.215.159.452.159.709v.36c0 .258-.053.494-.159.71a1.289 1.289 0 01-.47.516 1.39 1.39 0 01-.753.193c-.299 0-.553-.065-.759-.193a1.289 1.289 0 01-.47-.516 1.588 1.588 0 01-.159-.71zm.776-.36v.36c0 .191.045.364.136.52.091.155.25.233.476.233.225 0 .381-.078.47-.233a1.03 1.03 0 00.133-.52v-.36c0-.19-.043-.364-.13-.519-.084-.155-.242-.233-.473-.233-.222 0-.379.078-.473.233a.991.991 0 00-.139.519zm-4.207-3.543v-.36c0-.257.054-.494.16-.709.109-.215.267-.387.473-.516.209-.129.461-.193.756-.193.302 0 .555.064.759.193.205.129.359.301.463.516.105.215.157.452.157.709v.36c0 .258-.053.494-.16.709a1.26 1.26 0 01-.466.517 1.393 1.393 0 01-.753.193c-.302 0-.556-.065-.763-.193a1.296 1.296 0 01-.466-.517 1.58 1.58 0 01-.16-.709zm.78-.36v.36c0 .191.044.364.133.52.091.155.25.233.476.233.222 0 .378-.078.466-.233.091-.156.137-.329.137-.52v-.36c0-.191-.043-.364-.13-.519-.087-.156-.244-.233-.473-.233-.222 0-.38.077-.473.233a1.006 1.006 0 00-.136.519zm-.463 5.542l4.689-6.821h.796L236.522 144h-.796z" fill="#38A169"/><g clip-path="url(#clip0_6115_29407)" stroke="#38A169" stroke-width=".782" stroke-linecap="round" stroke-linejoin="round"><path d="M210.987 137.908l-3.712 3.712-1.954-1.954-2.93 2.931"/><path d="M208.645 137.908h2.344v2.344"/></g><path d="M295.321 98l2.9-5.742v-.046h-3.367V91.18h4.646v1.055L296.603 98h-1.282zm9.492.09c-.402 0-.761-.103-1.079-.31-.317-.206-.568-.506-.753-.899-.184-.393-.276-.87-.276-1.432 0-.568.093-1.048.28-1.439.188-.393.443-.69.762-.889a1.96 1.96 0 011.069-.303c.3 0 .547.051.74.153.193.1.346.221.459.363.114.14.201.272.263.397h.05V91.18h1.209V98h-1.185v-.806h-.074a2.078 2.078 0 01-.269.396 1.482 1.482 0 01-.467.353c-.193.098-.436.147-.729.147zm.336-.99c.256 0 .473-.068.653-.206.18-.14.317-.334.41-.583a2.47 2.47 0 00.14-.869c0-.33-.047-.618-.14-.862a1.227 1.227 0 00-.407-.57 1.048 1.048 0 00-.656-.203c-.268 0-.492.07-.672.21a1.27 1.27 0 00-.407.58 2.433 2.433 0 00-.136.845c0 .32.045.605.136.856.094.249.23.445.41.59.182.142.405.213.669.213zm5.145 1.003c-.324 0-.616-.057-.876-.173a1.434 1.434 0 01-.613-.52c-.148-.228-.223-.51-.223-.845 0-.289.053-.528.16-.716.107-.19.252-.34.436-.453a2.21 2.21 0 01.623-.257 5.1 5.1 0 01.723-.13c.299-.03.543-.058.729-.083.187-.026.322-.067.406-.12.087-.055.13-.14.13-.256v-.02c0-.251-.074-.445-.223-.583-.149-.138-.363-.207-.643-.207-.295 0-.529.065-.702.194a.96.96 0 00-.347.456l-1.125-.16c.088-.31.235-.57.439-.78a1.92 1.92 0 01.75-.472c.295-.107.621-.16.979-.16.246 0 .492.029.736.087.244.057.467.153.669.286.202.131.364.31.486.536.125.227.187.51.187.85V98h-1.159v-.703h-.04a1.471 1.471 0 01-.806.696c-.198.074-.43.11-.696.11zm.313-.886c.242 0 .452-.047.629-.143.178-.097.315-.226.41-.386a.981.981 0 00.147-.523v-.603a.576.576 0 01-.194.087 2.69 2.69 0 01-.299.07c-.111.02-.221.038-.33.053l-.283.04c-.18.024-.341.064-.483.12a.8.8 0 00-.336.233.57.57 0 00-.124.38c0 .222.081.39.244.502.162.114.368.17.619.17zm4.166 2.701a2.436 2.436 0 01-.786-.126l.28-.94c.175.052.332.076.47.074a.579.579 0 00.363-.13c.106-.082.196-.22.269-.413l.104-.276-1.855-5.222h1.278l1.179 3.863h.054l1.182-3.863h1.282l-2.048 5.734a2.28 2.28 0 01-.38.697c-.157.195-.35.344-.579.446a1.931 1.931 0 01-.813.156zm8.697-5.681l-1.099.12a.876.876 0 00-.163-.313.803.803 0 00-.306-.237 1.12 1.12 0 00-.473-.09c-.251 0-.462.055-.633.163-.169.11-.252.25-.25.423a.444.444 0 00.164.363c.113.094.299.17.559.23l.873.187c.484.104.843.27 1.079.496.237.226.357.523.359.889a1.386 1.386 0 01-.283.853 1.81 1.81 0 01-.769.572 2.91 2.91 0 01-1.132.207c-.626 0-1.13-.131-1.512-.393a1.579 1.579 0 01-.683-1.102l1.176-.114a.825.825 0 00.339.523c.173.118.399.177.676.177.287 0 .517-.06.69-.177.175-.117.263-.263.263-.436a.455.455 0 00-.17-.363c-.111-.096-.284-.169-.52-.22l-.872-.183c-.491-.102-.854-.274-1.089-.516-.236-.245-.352-.553-.35-.926a1.308 1.308 0 01.257-.82c.175-.233.418-.412.729-.539a2.829 2.829 0 011.082-.193c.6 0 1.072.128 1.416.383.346.255.56.6.642 1.036z" fill="#64748B"/><path d="M295.677 124v-1.785l4.736-4.643c.453-.457.83-.863 1.132-1.218.302-.356.529-.7.68-1.033a2.55 2.55 0 00.226-1.066c0-.43-.098-.799-.293-1.105a1.948 1.948 0 00-.806-.72 2.609 2.609 0 00-1.166-.253c-.448 0-.841.094-1.179.28a1.933 1.933 0 00-.786.779c-.182.338-.273.74-.273 1.206h-2.351c0-.866.198-1.619.593-2.258a3.994 3.994 0 011.632-1.485c.697-.351 1.496-.527 2.398-.527.914 0 1.718.171 2.411.513.693.342 1.23.811 1.612 1.406.386.595.579 1.274.579 2.038 0 .511-.097 1.012-.293 1.505-.195.493-.539 1.039-1.032 1.639-.489.599-1.175 1.325-2.058 2.178l-2.352 2.391v.093h5.942V124h-9.352zm12.786.147a1.43 1.43 0 01-1.039-.427 1.383 1.383 0 01-.426-1.039 1.371 1.371 0 01.426-1.026 1.43 1.43 0 011.039-.426c.391 0 .731.142 1.02.426.293.285.441.627.446 1.026a1.437 1.437 0 01-.213.74 1.534 1.534 0 01-.533.532 1.388 1.388 0 01-.72.194zm8.018.039a5.753 5.753 0 01-1.912-.339 4.506 4.506 0 01-1.678-1.099c-.498-.511-.893-1.188-1.186-2.032-.293-.848-.437-1.898-.433-3.15 0-1.168.124-2.209.373-3.124s.606-1.687 1.073-2.318a4.722 4.722 0 011.685-1.452c.661-.333 1.401-.5 2.218-.5.857 0 1.616.169 2.278.507a4.291 4.291 0 011.612 1.385c.408.582.661 1.239.759 1.972h-2.431c-.125-.524-.38-.942-.766-1.253-.382-.315-.866-.472-1.452-.472-.946 0-1.674.41-2.185 1.232-.506.821-.762 1.949-.766 3.383h.093c.218-.39.5-.726.846-1.005.346-.28.737-.496 1.172-.646.44-.156.904-.234 1.393-.234.799 0 1.516.191 2.151.573a4.155 4.155 0 011.519 1.579c.373.666.557 1.43.552 2.291.005.897-.199 1.703-.612 2.418a4.442 4.442 0 01-1.726 1.678c-.737.409-1.596.611-2.577.606zm-.014-1.998a2.42 2.42 0 001.299-.353c.382-.235.684-.553.906-.952.222-.4.331-.848.327-1.346a2.66 2.66 0 00-.32-1.325 2.44 2.44 0 00-.886-.939 2.424 2.424 0 00-1.292-.347 2.48 2.48 0 00-1.819.78 2.685 2.685 0 00-.746 1.851c.005.475.116.913.333 1.312.218.4.518.72.9.96.382.239.814.359 1.298.359zm11.548 1.998c-.888 0-1.683-.166-2.385-.499-.701-.338-1.258-.799-1.671-1.385a3.67 3.67 0 01-.653-2.012h2.398c.044.559.286 1.017.726 1.372.439.351.968.526 1.585.526.484 0 .915-.111 1.292-.333.378-.222.675-.53.893-.926.217-.395.324-.845.319-1.352a2.723 2.723 0 00-.326-1.372 2.445 2.445 0 00-.913-.939 2.543 2.543 0 00-1.332-.346 3.168 3.168 0 00-1.205.226c-.395.156-.708.36-.939.613l-2.232-.366.713-7.034h7.913v2.065h-5.868l-.393 3.616h.08c.253-.297.61-.543 1.072-.739.462-.2.968-.3 1.519-.3.826 0 1.563.196 2.211.587a4.146 4.146 0 011.532 1.598c.373.68.56 1.457.56 2.331 0 .902-.209 1.705-.627 2.412a4.432 4.432 0 01-1.725 1.658c-.732.4-1.58.599-2.544.599zM334.9 124v-13.641h2.471v6.268h.167l5.321-6.268h3.018l-5.275 6.121 5.321 7.52h-2.97l-4.07-5.848-1.512 1.785V124H334.9z" fill="#1E293B"/><path d="M309.046 142.668v-.833l2.947-4.656h.657v1.226h-.417l-2.108 3.337v.053h4.04v.873h-5.119zM312.28 144v-1.585l.006-.38v-4.856h.976V144h-.982zm3.458.063a.644.644 0 01-.469-.193.646.646 0 01-.197-.473.63.63 0 01.197-.466.64.64 0 01.469-.197c.182 0 .339.066.47.197a.63.63 0 01.196.466.64.64 0 01-.093.337.695.695 0 01-.24.239.63.63 0 01-.333.09zm4.121.03a2.752 2.752 0 01-.899-.166 2.114 2.114 0 01-.8-.533c-.239-.249-.431-.583-.576-1.003-.142-.419-.213-.943-.213-1.571 0-.595.059-1.124.177-1.586.119-.462.292-.851.516-1.169.224-.319.495-.562.812-.729.318-.167.674-.25 1.069-.25.407 0 .768.08 1.083.24.315.16.57.381.766.663.197.282.323.603.376.962h-1.016a1.31 1.31 0 00-.409-.696c-.205-.18-.471-.27-.8-.27-.499 0-.889.218-1.169.653-.277.435-.417 1.04-.419 1.815h.05a1.868 1.868 0 011.012-.809 2.03 2.03 0 01.68-.113c.395 0 .752.096 1.072.289.322.191.578.456.769.793.191.338.287.724.287 1.159 0 .435-.099.829-.297 1.182-.195.353-.47.633-.826.84-.355.204-.77.304-1.245.299zm-.003-.866c.262 0 .496-.064.702-.193.207-.129.37-.302.49-.519.12-.218.18-.461.18-.73 0-.262-.059-.5-.177-.716a1.336 1.336 0 00-.479-.513 1.282 1.282 0 00-.693-.189 1.324 1.324 0 00-.989.426 1.507 1.507 0 00-.3.459 1.466 1.466 0 00.07 1.253c.12.217.283.393.489.526.209.131.445.196.707.196zm7.144-.506v-.36c0-.257.053-.492.16-.706.109-.215.266-.387.473-.516a1.39 1.39 0 01.756-.196c.302 0 .555.064.759.193.204.129.359.301.463.516.106.215.16.452.16.709v.36c0 .258-.054.494-.16.71a1.282 1.282 0 01-.47.516 1.39 1.39 0 01-.752.193c-.3 0-.553-.065-.76-.193a1.279 1.279 0 01-.469-.516 1.575 1.575 0 01-.16-.71zm.776-.36v.36c0 .191.045.364.136.52.091.155.25.233.477.233.224 0 .38-.078.469-.233a1.03 1.03 0 00.133-.52v-.36c0-.19-.043-.364-.129-.519-.085-.155-.242-.233-.473-.233-.222 0-.38.078-.473.233a.992.992 0 00-.14.519zm-4.206-3.543v-.36c0-.257.053-.494.16-.709.108-.215.266-.387.472-.516.209-.129.461-.193.756-.193.302 0 .555.064.76.193.204.129.358.301.463.516.104.215.156.452.156.709v.36c0 .258-.053.494-.16.709a1.253 1.253 0 01-.466.517 1.39 1.39 0 01-.753.193c-.302 0-.556-.065-.762-.193a1.289 1.289 0 01-.466-.517 1.568 1.568 0 01-.16-.709zm.779-.36v.36c0 .191.044.364.133.52.091.155.25.233.476.233.222 0 .378-.078.467-.233.091-.156.136-.329.136-.52v-.36c0-.191-.043-.364-.13-.519-.086-.156-.244-.233-.473-.233-.222 0-.379.077-.472.233a1.006 1.006 0 00-.137.519zm-.463 5.542l4.689-6.821h.796L324.682 144h-.796z" fill="#E53E3E"/><g clip-path="url(#clip1_6115_29407)" stroke="#E53E3E" stroke-width=".782" stroke-linecap="round" stroke-linejoin="round"><path d="M303.452 142.597l-3.712-3.713-1.954 1.954-2.931-2.93"/><path d="M301.109 142.597h2.345v-2.345"/></g><path d="M390.312 91.18V98h-1.236v-5.618h-.04l-1.595 1.019v-1.132l1.695-1.09h1.176zm5.97 6.91a1.93 1.93 0 01-1.079-.31c-.318-.206-.569-.506-.753-.899-.184-.393-.277-.87-.277-1.432 0-.568.094-1.048.28-1.439.189-.393.443-.69.763-.889a1.96 1.96 0 011.069-.303c.3 0 .546.051.739.153.193.1.347.221.46.363.113.14.201.272.263.397h.05V91.18h1.209V98h-1.186v-.806h-.073a2.041 2.041 0 01-.27.396 1.49 1.49 0 01-.466.353c-.193.098-.436.147-.729.147zm.336-.99c.255 0 .473-.068.653-.206.18-.14.316-.334.409-.583.094-.248.14-.538.14-.869 0-.33-.046-.618-.14-.862a1.226 1.226 0 00-.406-.57 1.05 1.05 0 00-.656-.203c-.269 0-.493.07-.673.21-.18.14-.315.333-.406.58a2.432 2.432 0 00-.137.845c0 .32.046.605.137.856.093.249.23.445.41.59.182.142.405.213.669.213zm5.144 1.003a2.12 2.12 0 01-.875-.173 1.428 1.428 0 01-.613-.52c-.149-.228-.223-.51-.223-.845 0-.289.053-.528.16-.716.106-.19.252-.34.436-.453.184-.114.392-.199.623-.257a5.07 5.07 0 01.722-.13c.3-.03.543-.058.73-.083.186-.026.322-.067.406-.12.087-.055.13-.14.13-.256v-.02c0-.251-.075-.445-.223-.583-.149-.138-.363-.207-.643-.207-.295 0-.53.065-.703.194a.957.957 0 00-.346.456l-1.126-.16c.089-.31.236-.57.44-.78.204-.21.454-.368.749-.472.295-.107.622-.16.979-.16.247 0 .492.029.736.087.244.057.468.153.67.286.202.131.364.31.486.536.124.227.186.51.186.85V98h-1.159v-.703h-.04a1.467 1.467 0 01-.309.4 1.494 1.494 0 01-.496.296c-.198.074-.43.11-.697.11zm.314-.886c.242 0 .451-.047.629-.143a1.06 1.06 0 00.41-.386.99.99 0 00.146-.523v-.603a.57.57 0 01-.193.087c-.089.026-.189.05-.3.07-.111.02-.221.038-.329.053l-.284.04a2.06 2.06 0 00-.482.12.798.798 0 00-.337.233.57.57 0 00-.123.38c0 .222.081.39.243.502.162.114.369.17.62.17zm4.166 2.701a2.421 2.421 0 01-.786-.126l.28-.94a1.6 1.6 0 00.469.074.575.575 0 00.363-.13c.107-.082.197-.22.27-.413l.103-.276-1.855-5.222h1.279l1.179 3.863h.053l1.183-3.863h1.282l-2.048 5.734a2.315 2.315 0 01-.38.697 1.546 1.546 0 01-.58.446 1.927 1.927 0 01-.812.156z" fill="#64748B"/><path d="M393.692 110.359V124h-2.471v-11.237h-.08l-3.19 2.039v-2.265l3.39-2.178h2.351zm3.85 13.788c-.404 0-.751-.143-1.039-.427a1.38 1.38 0 01-.427-1.039 1.369 1.369 0 01.427-1.026 1.428 1.428 0 011.039-.426c.39 0 .73.142 1.019.426a1.402 1.402 0 01.233 1.766 1.526 1.526 0 01-.533.532 1.385 1.385 0 01-.719.194zm7.99.039c-.959 0-1.811-.164-2.557-.492-.742-.329-1.328-.786-1.759-1.372-.431-.587-.659-1.264-.686-2.032h2.505c.022.369.144.69.366.966.222.271.517.482.886.633.368.151.781.226 1.239.226.488 0 .921-.084 1.298-.253.378-.173.673-.413.886-.719.214-.307.318-.66.313-1.059a1.84 1.84 0 00-.319-1.093c-.218-.315-.533-.562-.946-.739-.409-.178-.902-.267-1.479-.267h-1.205v-1.905h1.205c.475 0 .891-.082 1.246-.246.359-.164.641-.395.846-.693a1.78 1.78 0 00.299-1.045 1.817 1.817 0 00-.259-1.006 1.758 1.758 0 00-.74-.673c-.315-.16-.686-.24-1.112-.24-.417 0-.804.076-1.159.227a2.104 2.104 0 00-.859.646 1.64 1.64 0 00-.347.986h-2.377c.017-.764.237-1.435.659-2.012.426-.582.995-1.035 1.705-1.359.711-.328 1.508-.493 2.391-.493.911 0 1.701.171 2.371.513.675.338 1.197.793 1.566 1.366a3.44 3.44 0 01.553 1.898c.004.768-.222 1.412-.68 1.932-.453.519-1.048.859-1.785 1.019v.106c.959.133 1.694.489 2.205 1.066.515.573.77 1.286.766 2.138 0 .764-.218 1.448-.653 2.052-.431.599-1.026 1.07-1.785 1.412-.755.342-1.621.512-2.598.512zm6.701-2.717v-1.965l5.788-9.145h1.638v2.797h-.999l-3.896 6.175v.106h8.079v2.032h-10.61zM418.74 124v-3.131l.027-.879v-9.631h2.331V124h-2.358zm5.989 0v-13.641h2.471v6.268h.167l5.322-6.268h3.017l-5.275 6.121 5.322 7.52h-2.971l-4.07-5.848-1.512 1.785V124h-2.471z" fill="#1E293B"/><path d="M401.513 142.668v-.833l2.947-4.656h.656v1.226h-.416l-2.108 3.337v.053h4.04v.873h-5.119zm3.234 1.332v-1.585l.006-.38v-4.856h.976V144h-.982zm3.458.063a.644.644 0 01-.469-.193.646.646 0 01-.197-.473.63.63 0 01.197-.466.64.64 0 01.469-.197c.182 0 .339.066.47.197a.63.63 0 01.196.466.64.64 0 01-.093.337.695.695 0 01-.24.239c-.1.06-.211.09-.333.09zm4.121.03a2.758 2.758 0 01-.9-.166 2.11 2.11 0 01-.799-.533c-.24-.249-.432-.583-.576-1.003-.142-.419-.213-.943-.213-1.571 0-.595.059-1.124.176-1.586a3.55 3.55 0 01.517-1.169c.224-.319.495-.562.812-.729.318-.167.674-.25 1.069-.25.407 0 .767.08 1.083.24.315.16.57.381.766.663.197.282.323.603.376.962h-1.016a1.316 1.316 0 00-.409-.696c-.205-.18-.471-.27-.8-.27-.499 0-.889.218-1.169.653-.277.435-.417 1.04-.419 1.815h.05a1.85 1.85 0 01.433-.493 2.024 2.024 0 011.258-.429c.396 0 .753.096 1.073.289.322.191.578.456.769.793.191.338.287.724.287 1.159 0 .435-.099.829-.297 1.182a2.178 2.178 0 01-.826.84c-.355.204-.77.304-1.245.299zm-.004-.866c.262 0 .497-.064.703-.193.207-.129.37-.302.49-.519.119-.218.179-.461.179-.73 0-.262-.058-.5-.176-.716a1.338 1.338 0 00-.48-.513 1.281 1.281 0 00-.692-.189 1.324 1.324 0 00-.989.426 1.507 1.507 0 00-.3.459 1.466 1.466 0 00.07 1.253c.12.217.283.393.489.526a1.3 1.3 0 00.706.196zm7.145-.506v-.36c0-.257.053-.492.16-.706a1.27 1.27 0 01.473-.516c.208-.131.46-.196.755-.196.302 0 .556.064.76.193.204.129.358.301.463.516.106.215.16.452.16.709v.36c0 .258-.054.494-.16.71a1.282 1.282 0 01-.47.516 1.39 1.39 0 01-.753.193c-.299 0-.552-.065-.759-.193a1.279 1.279 0 01-.469-.516 1.575 1.575 0 01-.16-.71zm.776-.36v.36c0 .191.045.364.136.52.091.155.25.233.476.233.225 0 .381-.078.47-.233a1.03 1.03 0 00.133-.52v-.36c0-.19-.043-.364-.13-.519-.084-.155-.242-.233-.473-.233-.222 0-.379.078-.472.233a.983.983 0 00-.14.519zm-4.207-3.543v-.36c0-.257.054-.494.16-.709.109-.215.267-.387.473-.516.209-.129.461-.193.756-.193.302 0 .555.064.76.193.204.129.358.301.462.516.105.215.157.452.157.709v.36c0 .258-.053.494-.16.709a1.26 1.26 0 01-.466.517 1.39 1.39 0 01-.753.193c-.302 0-.556-.065-.762-.193a1.291 1.291 0 01-.467-.517 1.58 1.58 0 01-.16-.709zm.78-.36v.36c0 .191.044.364.133.52.091.155.25.233.476.233.222 0 .378-.078.466-.233.092-.156.137-.329.137-.52v-.36c0-.191-.043-.364-.13-.519-.086-.156-.244-.233-.473-.233-.222 0-.379.077-.473.233a1.006 1.006 0 00-.136.519zm-.463 5.542l4.689-6.821h.796L417.149 144h-.796z" fill="#38A169"/><g clip-path="url(#clip2_6115_29407)" stroke="#38A169" stroke-width=".782" stroke-linecap="round" stroke-linejoin="round"><path d="M395.919 137.908l-3.712 3.712-1.954-1.954-2.931 2.931"/><path d="M393.574 137.908h2.345v2.344"/></g><path d="M205.031 318.636c-.527-.003-.976-.141-1.349-.417-.373-.275-.658-.676-.856-1.202-.198-.526-.296-1.16-.296-1.902 0-.739.098-1.371.296-1.895.2-.524.486-.923.859-1.198.375-.276.824-.413 1.346-.413.521 0 .969.138 1.342.416.373.275.658.675.856 1.199.199.522.299 1.152.299 1.891 0 .744-.098 1.379-.296 1.905-.198.524-.483.925-.856 1.203-.373.275-.821.413-1.345.413zm0-.89c.461 0 .822-.225 1.082-.676.262-.45.393-1.102.393-1.955 0-.566-.06-1.044-.18-1.435-.118-.393-.287-.69-.509-.893a1.116 1.116 0 00-.786-.306c-.46 0-.821.227-1.083.679-.262.453-.394 1.105-.396 1.955 0 .569.059 1.049.176 1.442.12.391.29.688.51.89.22.199.484.299.793.299zm6.266-6.044v6.82h-1.032v-5.788h-.04l-1.632 1.066v-.986l1.702-1.112h1.002zm4.421 0h1.249l2.171 5.302h.08l2.171-5.302h1.249v6.82h-.979v-4.935h-.063l-2.012 4.925h-.812l-2.012-4.929h-.063v4.939h-.979v-6.82zm9.825 6.934c-.324 0-.617-.06-.879-.18a1.48 1.48 0 01-.623-.53c-.151-.231-.226-.514-.226-.849 0-.289.055-.526.166-.713.111-.186.261-.334.45-.443.188-.108.399-.191.632-.246.234-.056.471-.098.713-.127l.746-.086c.191-.025.33-.064.416-.117.087-.053.13-.14.13-.26v-.023c0-.291-.082-.516-.246-.676-.162-.16-.404-.24-.726-.24-.335 0-.6.075-.793.223-.191.147-.323.31-.396.49l-.936-.213c.111-.311.273-.562.486-.753a1.97 1.97 0 01.743-.419 2.896 2.896 0 011.532-.06c.231.046.446.133.646.259.202.127.367.308.496.543.129.233.193.536.193.909v3.397h-.972v-.699h-.04a1.414 1.414 0 01-.29.38 1.543 1.543 0 01-.496.309 1.927 1.927 0 01-.726.124zm.216-.8c.276 0 .511-.054.707-.163.197-.109.347-.251.449-.426.104-.178.157-.368.157-.57v-.659a.532.532 0 01-.207.1 3.13 3.13 0 01-.343.076l-.376.057-.307.04a2.486 2.486 0 00-.529.123.912.912 0 00-.38.25.627.627 0 00-.14.426c0 .247.091.433.273.56.182.124.415.186.696.186zm3.635.686v-5.115h.962v.813h.053c.094-.276.258-.492.493-.65.238-.16.507-.24.806-.24a4.87 4.87 0 01.423.024v.952a1.944 1.944 0 00-.213-.037 2.101 2.101 0 00-.306-.023 1.3 1.3 0 00-.63.15 1.116 1.116 0 00-.593 1.002v3.124h-.995zm5.571.104c-.496 0-.922-.113-1.279-.337a2.218 2.218 0 01-.82-.936c-.191-.397-.286-.852-.286-1.365 0-.52.098-.978.293-1.375.195-.4.471-.712.826-.936.355-.225.774-.337 1.256-.337.388 0 .734.072 1.039.217.304.142.549.342.736.599.188.258.3.559.336.903h-.969a1.169 1.169 0 00-.366-.62c-.189-.173-.442-.259-.76-.259-.277 0-.52.073-.729.219a1.41 1.41 0 00-.483.62 2.374 2.374 0 00-.173.946c0 .373.056.695.17.965.113.271.273.481.479.63.209.149.454.223.736.223.189 0 .36-.034.513-.103.155-.071.285-.172.39-.303.106-.131.181-.289.223-.473h.969a1.887 1.887 0 01-.323.886c-.18.259-.421.464-.723.612a2.34 2.34 0 01-1.055.224zm4.162-3.141v3.037h-.996v-6.82h.982v2.538h.064a1.47 1.47 0 01.549-.657c.247-.162.568-.243.966-.243.351 0 .657.072.919.217.264.144.469.359.613.646.146.284.22.639.22 1.066v3.253h-.996v-3.134c0-.375-.097-.666-.29-.872-.193-.209-.462-.313-.806-.313-.235 0-.446.05-.633.15-.184.1-.329.246-.436.439a1.43 1.43 0 00-.156.693zm7.114 3.037v-.746l2.308-2.391c.246-.26.45-.487.609-.683.163-.197.284-.385.363-.562.08-.178.12-.367.12-.567 0-.226-.053-.421-.16-.586a1.041 1.041 0 00-.436-.383 1.387 1.387 0 00-.623-.136c-.244 0-.457.05-.639.15-.182.1-.322.241-.42.423a1.34 1.34 0 00-.146.639h-.983c0-.415.096-.778.287-1.089.191-.311.453-.552.786-.723a2.424 2.424 0 011.135-.259c.429 0 .806.085 1.133.256.328.169.585.4.769.693.184.291.276.619.276.985 0 .254-.047.501-.143.743-.093.242-.256.512-.489.809-.233.296-.558.654-.973 1.076l-1.355 1.419v.05h3.07v.882h-4.489zm8.126.114c-.526-.003-.976-.141-1.349-.417-.373-.275-.658-.676-.856-1.202-.197-.526-.296-1.16-.296-1.902 0-.739.099-1.371.296-1.895.2-.524.487-.923.86-1.198.375-.276.823-.413 1.345-.413s.969.138 1.342.416c.373.275.659.675.856 1.199.2.522.3 1.152.3 1.891 0 .744-.099 1.379-.297 1.905-.197.524-.482.925-.855 1.203-.373.275-.822.413-1.346.413zm0-.89c.462 0 .823-.225 1.082-.676.262-.45.393-1.102.393-1.955 0-.566-.06-1.044-.179-1.435-.118-.393-.288-.69-.51-.893a1.116 1.116 0 00-.786-.306c-.459 0-.82.227-1.082.679-.262.453-.394 1.105-.397 1.955 0 .569.059 1.049.177 1.442.12.391.29.688.509.89.22.199.484.299.793.299zm3.679.776v-.746l2.308-2.391c.247-.26.45-.487.61-.683a2.57 2.57 0 00.363-.562c.08-.178.12-.367.12-.567a1.06 1.06 0 00-.16-.586 1.05 1.05 0 00-.437-.383 1.383 1.383 0 00-.622-.136c-.245 0-.458.05-.64.15-.182.1-.322.241-.419.423a1.328 1.328 0 00-.147.639h-.982c0-.415.095-.778.286-1.089.191-.311.453-.552.786-.723a2.429 2.429 0 011.136-.259c.428 0 .806.085 1.132.256.329.169.585.4.769.693.185.291.277.619.277.985 0 .254-.048.501-.144.743-.093.242-.256.512-.489.809-.233.296-.557.654-.973 1.076l-1.355 1.419v.05h3.071v.882h-4.49zm8.339-6.82v6.82h-1.032v-5.788h-.04l-1.632 1.066v-.986l1.702-1.112h1.002zm118.396 6.914a3.02 3.02 0 01-1.226-.237 2.085 2.085 0 01-.849-.656 1.733 1.733 0 01-.333-.979h1.046a.9.9 0 00.203.526c.124.147.286.26.486.34.2.08.422.12.666.12.269 0 .506-.047.713-.14.208-.093.372-.223.489-.39a.992.992 0 00.177-.583c0-.228-.059-.429-.177-.602a1.144 1.144 0 00-.509-.413c-.222-.1-.491-.15-.806-.15h-.576v-.839h.576c.253 0 .475-.046.666-.137.193-.091.344-.218.453-.38.109-.164.163-.356.163-.576a1.03 1.03 0 00-.143-.549.968.968 0 00-.4-.37 1.296 1.296 0 00-.606-.133c-.222 0-.43.041-.623.123-.191.08-.346.195-.466.346a.893.893 0 00-.193.537h-.996c.011-.369.12-.693.326-.973.209-.28.484-.498.826-.656a2.684 2.684 0 011.139-.236c.438 0 .815.085 1.133.256.319.169.566.394.739.676.175.282.262.591.26.926.002.382-.105.706-.32.972a1.551 1.551 0 01-.853.537v.053c.453.069.804.248 1.053.539.251.291.375.652.373 1.083.002.375-.102.711-.313 1.009a2.128 2.128 0 01-.856.702 2.904 2.904 0 01-1.242.254zm6.257-6.914v6.82h-1.032v-5.788h-.04l-1.632 1.066v-.986l1.702-1.112h1.002zm4.421 0h1.248l2.172 5.302h.08l2.171-5.302h1.249v6.82h-.979v-4.935h-.063l-2.012 4.925h-.813l-2.011-4.929h-.063v4.939h-.979v-6.82zm9.825 6.934c-.324 0-.617-.06-.879-.18a1.48 1.48 0 01-.623-.53c-.151-.231-.227-.514-.227-.849 0-.289.056-.526.167-.713.111-.186.261-.334.45-.443.188-.108.399-.191.632-.246.233-.056.471-.098.713-.127l.746-.086c.191-.025.33-.064.416-.117.087-.053.13-.14.13-.26v-.023c0-.291-.082-.516-.246-.676-.162-.16-.404-.24-.726-.24-.336 0-.6.075-.793.223-.191.147-.323.31-.396.49l-.936-.213c.111-.311.273-.562.486-.753a1.97 1.97 0 01.743-.419c.28-.089.574-.134.882-.134.205 0 .421.025.65.074.231.046.446.133.646.259.202.127.367.308.496.543.129.233.193.536.193.909v3.397h-.972v-.699h-.04a1.435 1.435 0 01-.29.38 1.543 1.543 0 01-.496.309 1.927 1.927 0 01-.726.124zm.216-.8c.276 0 .511-.054.706-.163.198-.109.348-.251.45-.426.104-.178.156-.368.156-.57v-.659a.519.519 0 01-.206.1 3.13 3.13 0 01-.343.076l-.376.057-.307.04a2.486 2.486 0 00-.529.123.912.912 0 00-.38.25.627.627 0 00-.14.426c0 .247.091.433.273.56.182.124.414.186.696.186zm3.635.686v-5.115h.962v.813h.053c.094-.276.258-.492.493-.65.238-.16.506-.24.806-.24a4.87 4.87 0 01.423.024v.952a1.944 1.944 0 00-.213-.037 2.101 2.101 0 00-.306-.023c-.236 0-.446.05-.63.15a1.116 1.116 0 00-.593 1.002v3.124h-.995zm5.57.104c-.495 0-.921-.113-1.278-.337a2.218 2.218 0 01-.82-.936c-.191-.397-.286-.852-.286-1.365 0-.52.098-.978.293-1.375.195-.4.471-.712.826-.936.355-.225.774-.337 1.255-.337.389 0 .735.072 1.039.217a1.817 1.817 0 011.073 1.502h-.969a1.17 1.17 0 00-.367-.62c-.188-.173-.441-.259-.759-.259-.277 0-.521.073-.729.219a1.41 1.41 0 00-.483.62 2.357 2.357 0 00-.173.946c0 .373.056.695.169.965.114.271.274.481.48.63.209.149.454.223.736.223.189 0 .36-.034.513-.103.155-.071.285-.172.39-.303.106-.131.181-.289.223-.473h.969a1.887 1.887 0 01-.323.886c-.18.259-.421.464-.723.612-.3.149-.652.224-1.056.224zm4.162-3.141v3.037h-.995v-6.82h.982v2.538h.063c.12-.276.303-.494.55-.657.246-.162.568-.243.966-.243.351 0 .657.072.919.217.264.144.468.359.613.646.146.284.219.639.219 1.066v3.253h-.995v-3.134c0-.375-.097-.666-.29-.872-.193-.209-.462-.313-.806-.313-.235 0-.446.05-.633.15-.184.1-.329.246-.436.439a1.43 1.43 0 00-.157.693zm7.115 3.037v-.746l2.308-2.391c.246-.26.449-.487.609-.683a2.57 2.57 0 00.363-.562c.08-.178.12-.367.12-.567 0-.226-.053-.421-.16-.586a1.047 1.047 0 00-.436-.383 1.387 1.387 0 00-.623-.136c-.244 0-.457.05-.639.15-.182.1-.322.241-.42.423a1.34 1.34 0 00-.146.639h-.983c0-.415.096-.778.287-1.089.191-.311.453-.552.786-.723a2.424 2.424 0 011.135-.259c.429 0 .806.085 1.133.256.328.169.585.4.769.693.184.291.276.619.276.985 0 .254-.047.501-.143.743-.093.242-.256.512-.489.809-.234.296-.558.654-.973 1.076l-1.355 1.419v.05h3.07v.882h-4.489zm8.126.114c-.526-.003-.976-.141-1.349-.417-.373-.275-.658-.676-.856-1.202-.197-.526-.296-1.16-.296-1.902 0-.739.099-1.371.296-1.895.2-.524.486-.923.859-1.198.376-.276.824-.413 1.346-.413.522 0 .969.138 1.342.416.373.275.658.675.856 1.199.2.522.3 1.152.3 1.891 0 .744-.099 1.379-.297 1.905-.197.524-.483.925-.856 1.203-.373.275-.821.413-1.345.413zm0-.89c.462 0 .823-.225 1.082-.676.262-.45.393-1.102.393-1.955 0-.566-.06-1.044-.18-1.435-.117-.393-.287-.69-.509-.893a1.116 1.116 0 00-.786-.306c-.46 0-.82.227-1.082.679-.262.453-.395 1.105-.397 1.955 0 .569.059 1.049.177 1.442.12.391.29.688.509.89.22.199.484.299.793.299zm3.679.776v-.746l2.308-2.391c.247-.26.45-.487.61-.683a2.57 2.57 0 00.363-.562c.079-.178.119-.367.119-.567a1.06 1.06 0 00-.159-.586 1.05 1.05 0 00-.437-.383 1.386 1.386 0 00-.622-.136c-.245 0-.458.05-.64.15-.182.1-.322.241-.42.423a1.34 1.34 0 00-.146.639h-.983c0-.415.096-.778.287-1.089.191-.311.453-.552.786-.723a2.424 2.424 0 011.135-.259c.429 0 .806.085 1.133.256.328.169.585.4.769.693.184.291.277.619.277.985 0 .254-.048.501-.144.743-.093.242-.256.512-.489.809-.233.296-.558.654-.973 1.076l-1.355 1.419v.05h3.07v.882h-4.489zm8.339-6.82v6.82h-1.032v-5.788h-.04l-1.632 1.066v-.986l1.702-1.112h1.002z" fill="#64748B"/><path stroke="#E2E8F0" stroke-width=".782" stroke-linecap="square" stroke-dasharray="1.56 1.56" d="M206.301 300.316h240.708M206.301 281.56h240.708m-240.708-18.757h240.708m-240.708-18.756h240.708m-240.708-18.756h240.708m-240.708-18.757h240.708m-240.708-18.756h240.708m-240.708-18.757h240.708"/><path d="M209.035 206.143a2.344 2.344 0 014.689 0v94.564h-4.689v-94.564zm20.319-.391a1.953 1.953 0 113.907 0v94.955h-3.907v-94.955zm8.595-5.861a2.344 2.344 0 014.689 0v100.816h-4.689V199.891zm10.942 31.261a2.344 2.344 0 114.689 0v69.555h-4.689v-69.555zm10.162-13.286a2.344 2.344 0 114.689 0v82.841h-4.689v-82.841zm10.158 0a2.345 2.345 0 114.689 0v82.841h-4.689v-82.841zm10.16 16.412a2.345 2.345 0 014.689 0v66.429h-4.689v-66.429zm9.377-18.756a2.345 2.345 0 014.689 0v85.185h-4.689v-85.185zm9.381-21.102a2.344 2.344 0 014.689 0v106.287h-4.689V194.42zm10.939 38.295a2.345 2.345 0 014.689 0v67.992h-4.689v-67.992zm9.379-59.396a2.345 2.345 0 014.689 0v127.388h-4.689V173.319zm9.377 54.707a2.345 2.345 0 014.689 0v72.681h-4.689v-72.681zm10.16-12.504a2.345 2.345 0 014.689 0v85.185h-4.689v-85.185zm10.162 36.731a2.345 2.345 0 014.69 0v48.454h-4.69v-48.454zm8.596-30.479a2.345 2.345 0 014.689 0v78.933h-4.689v-78.933zm10.158-15.631a2.344 2.344 0 014.69 0v94.564h-4.69v-94.564zm10.161-25.79a2.343 2.343 0 114.689 0v120.354h-4.689V180.353zm10.162-6.252a2.344 2.344 0 114.689 0v126.606h-4.689V174.101zm10.158 46.891a2.345 2.345 0 114.689 0v79.715h-4.689v-79.715zm10.16-7.034a2.345 2.345 0 014.689 0v86.749h-4.689v-86.749zm9.377-46.109a2.345 2.345 0 014.689 0v132.858h-4.689V167.849zm10.16 12.504a2.344 2.344 0 014.689 0v120.354h-4.689V180.353zm10.16-7.034a2.345 2.345 0 014.689 0v127.388h-4.689V173.319z" fill="#F2EFFF"/><path d="M219.977 206.143a2.343 2.343 0 114.689 0v94.564h-4.689v-94.564z" fill="#754FFE"/><g filter="url(#filter1_dd_6115_29407)"><mask id="a" fill="#fff"><path fill-rule="evenodd" clip-rule="evenodd" d="M211.282 181.916a3.127 3.127 0 00-3.126 3.126v12.547c0 1.727 1.4 3.126 3.126 3.126h9.211l1.896 2.302 1.896-2.302h9.208a3.125 3.125 0 003.126-3.126v-12.547a3.126 3.126 0 00-3.126-3.126h-22.211z"/></mask><path fill-rule="evenodd" clip-rule="evenodd" d="M211.282 181.916a3.127 3.127 0 00-3.126 3.126v12.547c0 1.727 1.4 3.126 3.126 3.126h9.211l1.896 2.302 1.896-2.302h9.208a3.125 3.125 0 003.126-3.126v-12.547a3.126 3.126 0 00-3.126-3.126h-22.211z" fill="#fff"/><path d="M220.493 200.715l.603-.497-.234-.284h-.369v.781zm1.896 2.302l-.603.497.603.732.603-.732-.603-.497zm1.896-2.302v-.781h-.368l-.235.284.603.497zm-15.347-15.673a2.343 2.343 0 012.344-2.344v-1.563a3.907 3.907 0 00-3.907 3.907h1.563zm0 12.547v-12.547h-1.563v12.547h1.563zm2.344 2.345a2.344 2.344 0 01-2.344-2.345h-1.563a3.908 3.908 0 003.907 3.908v-1.563zm9.211 0h-9.211v1.563h9.211v-1.563zm-.603 1.278l1.896 2.302 1.206-.994-1.896-2.302-1.206.994zm3.102 2.302l1.897-2.302-1.207-.994-1.896 2.302 1.206.994zm10.501-3.58h-9.208v1.563h9.208v-1.563zm2.345-2.345a2.345 2.345 0 01-2.345 2.345v1.563a3.908 3.908 0 003.908-3.908h-1.563zm0-12.547v12.547h1.563v-12.547h-1.563zm-2.345-2.344a2.344 2.344 0 012.345 2.344h1.563a3.908 3.908 0 00-3.908-3.907v1.563zm-22.211 0h22.211v-1.563h-22.211v1.563z" fill="#CBD5E1" mask="url(#a)"/></g><path d="M215.646 187.921v5.684h-.86v-4.823h-.033l-1.36.888v-.822l1.418-.927h.835zm1.538 5.684v-.621l1.923-1.993c.206-.217.375-.406.508-.569.135-.165.236-.321.303-.469.066-.148.1-.305.1-.472a.866.866 0 00-.497-.807 1.157 1.157 0 00-.519-.114c-.204 0-.381.041-.533.125a.854.854 0 00-.35.352 1.115 1.115 0 00-.122.533h-.819c0-.346.08-.649.239-.908.159-.259.378-.459.655-.602.278-.144.593-.216.946-.216.358 0 .672.071.944.213.274.141.488.333.641.578.154.242.23.516.23.821 0 .211-.039.417-.119.619a2.716 2.716 0 01-.408.674c-.194.247-.464.545-.81.897l-1.13 1.182v.042h2.559v.735h-3.741zm6.772.095c-.439-.002-.813-.118-1.124-.347-.311-.23-.549-.564-.714-1.002-.164-.439-.247-.967-.247-1.585 0-.616.083-1.142.247-1.579.167-.437.406-.77.716-.999.313-.23.687-.344 1.122-.344.434 0 .807.115 1.118.347.311.229.549.562.713.999.167.435.25.96.25 1.576 0 .62-.082 1.149-.247 1.588-.165.436-.402.77-.713 1.001-.311.23-.685.345-1.121.345zm0-.741c.385 0 .685-.188.902-.564.218-.375.327-.918.327-1.629 0-.472-.05-.87-.15-1.196-.098-.328-.239-.575-.424-.744a.932.932 0 00-.655-.255c-.383 0-.684.189-.902.566-.219.377-.329.92-.331 1.629 0 .474.049.874.148 1.202.099.325.241.572.424.741.183.166.404.25.661.25zm5.044.741c-.438-.002-.813-.118-1.124-.347-.31-.23-.548-.564-.713-1.002-.164-.439-.247-.967-.247-1.585 0-.616.083-1.142.247-1.579.167-.437.405-.77.716-.999.313-.23.687-.344 1.121-.344.435 0 .808.115 1.119.347.311.229.548.562.713.999.167.435.25.96.25 1.576 0 .62-.082 1.149-.247 1.588-.165.436-.402.77-.713 1.001-.311.23-.685.345-1.122.345zm0-.741c.385 0 .686-.188.902-.564.219-.375.328-.918.328-1.629 0-.472-.05-.87-.15-1.196-.098-.328-.24-.575-.425-.744a.929.929 0 00-.655-.255c-.383 0-.683.189-.902.566-.218.377-.328.92-.33 1.629 0 .474.049.874.147 1.202.1.325.242.572.425.741.183.166.403.25.66.25z" fill="#754FFE"/></g><defs><clipPath id="clip0_6115_29407"><path fill="#fff" transform="translate(202 135.563)" d="M0 0h9.378v9.378H0z"/></clipPath><clipPath id="clip1_6115_29407"><path fill="#fff" transform="translate(294.465 135.563)" d="M0 0h9.378v9.378H0z"/></clipPath><clipPath id="clip2_6115_29407"><path fill="#fff" transform="translate(386.932 135.563)" d="M0 0h9.378v9.378H0z"/></clipPath><filter id="filter0_d_6115_29407" x="175.655" y="62.437" width="298.086" height="284.934" filterUnits="userSpaceOnUse" color-interpolation-filters="sRGB"><feFlood flood-opacity="0" result="BackgroundImageFix"/><feColorMatrix in="SourceAlpha" values="0 0 0 0 0 0 0 0 0 0 0 0 0 0 0 0 0 0 127 0" result="hardAlpha"/><feOffset dy=".782"/><feGaussianBlur stdDeviation="1.172"/><feColorMatrix values="0 0 0 0 0.0117647 0 0 0 0 0 0 0 0 0 0.278431 0 0 0 0.13 0"/><feBlend in2="BackgroundImageFix" result="effect1_dropShadow_6115_29407"/><feBlend in="SourceGraphic" in2="effect1_dropShadow_6115_29407" result="shape"/></filter><filter id="filter1_dd_6115_29407" x="184.711" y="170.193" width="75.354" height="67.992" filterUnits="userSpaceOnUse" color-interpolation-filters="sRGB"><feFlood flood-opacity="0" result="BackgroundImageFix"/><feColorMatrix in="SourceAlpha" values="0 0 0 0 0 0 0 0 0 0 0 0 0 0 0 0 0 0 127 0" result="hardAlpha"/><feOffset dy="11.723"/><feGaussianBlur stdDeviation="11.723"/><feColorMatrix values="0 0 0 0 0.0117647 0 0 0 0 0 0 0 0 0 0.278431 0 0 0 0.12 0"/><feBlend in2="BackgroundImageFix" result="effect1_dropShadow_6115_29407"/><feColorMatrix in="SourceAlpha" values="0 0 0 0 0 0 0 0 0 0 0 0 0 0 0 0 0 0 127 0" result="hardAlpha"/><feOffset dy="1.563"/><feGaussianBlur stdDeviation="1.954"/><feColorMatrix values="0 0 0 0 0.0823529 0 0 0 0 0.0823529 0 0 0 0 0.0823529 0 0 0 0.08 0"/><feBlend in2="effect1_dropShadow_6115_29407" result="effect2_dropShadow_6115_29407"/><feBlend in="SourceGraphic" in2="effect2_dropShadow_6115_29407" result="shape"/></filter></defs></svg>