<svg width="636" height="400" fill="none" xmlns="http://www.w3.org/2000/svg"><path fill="#E2E8F0" d="M0 0h636v400H0z"/><g filter="url(#filter0_d_6113_30031)"><rect x="87" y="60" width="462" height="280" rx="12" fill="#fff"/></g><rect x="134" y="191" width="74" height="26" rx="4" fill="#E2E8F0"/><rect x="134" y="237" width="74" height="26" rx="4" fill="#E2E8F0"/><rect x="235" y="191" width="74" height="26" rx="4" fill="#E2E8F0"/><rect x="235" y="237" width="74" height="26" rx="4" fill="#E2E8F0"/><rect x="336" y="191" width="74" height="26" rx="4" fill="#E2E8F0"/><rect x="336" y="237" width="74" height="26" rx="4" fill="#754FFE"/><rect x="437" y="191" width="74" height="26" rx="4" fill="#E2E8F0"/><rect x="437" y="237" width="74" height="26" rx="4" fill="#E2E8F0"/><path d="M295 100h46" stroke="#E2E8F0" stroke-width="3" stroke-linecap="round"/><path d="M246.538 121.455c0 1.427-.271 2.642-.812 3.643-.537 1.001-1.27 1.766-2.199 2.295-.925.524-1.964.786-3.119.786-1.164 0-2.208-.264-3.132-.793-.925-.528-1.656-1.293-2.193-2.294-.537-1.002-.805-2.214-.805-3.637 0-1.428.268-2.643.805-3.644.537-1.001 1.268-1.764 2.193-2.288.924-.529 1.968-.793 3.132-.793 1.155 0 2.194.264 3.119.793.929.524 1.662 1.287 2.199 2.288.541 1.001.812 2.216.812 3.644zm-2.806 0c0-.925-.139-1.705-.416-2.34-.273-.635-.658-1.116-1.157-1.445-.498-.328-1.082-.492-1.751-.492-.669 0-1.253.164-1.752.492-.498.329-.886.81-1.163 1.445-.273.635-.409 1.415-.409 2.34 0 .924.136 1.704.409 2.339.277.635.665 1.117 1.163 1.445.499.328 1.083.492 1.752.492s1.253-.164 1.751-.492c.499-.328.884-.81 1.157-1.445.277-.635.416-1.415.416-2.339zm11.101 2.365v-5.638h2.723V128h-2.614v-1.783h-.103a2.901 2.901 0 01-1.105 1.387c-.512.349-1.136.524-1.873.524-.657 0-1.234-.149-1.733-.448a3.073 3.073 0 01-1.169-1.272c-.277-.549-.418-1.208-.422-1.975v-6.251h2.723v5.765c.004.58.16 1.038.466 1.375.307.336.719.505 1.234.505.328 0 .635-.075.921-.224.285-.153.515-.379.69-.678.179-.298.266-.666.262-1.105zm4.901 4.18v-9.818h2.64v1.713h.102c.179-.609.48-1.07.902-1.381a2.368 2.368 0 011.457-.473 4.147 4.147 0 01.856.096v2.416a3.596 3.596 0 00-.53-.102 4.747 4.747 0 00-.62-.045c-.401 0-.759.088-1.074.262a1.93 1.93 0 00-.741.716 2.069 2.069 0 00-.269 1.061V128h-2.723zm23.133-8.508h-2.8a2.727 2.727 0 00-.313-.965 2.466 2.466 0 00-.607-.729 2.686 2.686 0 00-.857-.46 3.29 3.29 0 00-1.042-.16c-.677 0-1.267.169-1.77.505-.503.333-.893.818-1.17 1.458-.277.635-.416 1.406-.416 2.314 0 .933.139 1.717.416 2.352.281.635.673 1.114 1.176 1.438.503.324 1.085.486 1.745.486.371 0 .714-.049 1.029-.147.32-.098.603-.241.85-.428.248-.192.452-.424.614-.697.166-.273.281-.584.345-.933l2.8.012a5.092 5.092 0 01-.543 1.739 5.247 5.247 0 01-1.157 1.489 5.453 5.453 0 01-1.726 1.036c-.665.251-1.417.377-2.257.377-1.167 0-2.211-.264-3.132-.793-.916-.528-1.64-1.293-2.173-2.294-.528-1.002-.793-2.214-.793-3.637 0-1.428.269-2.643.806-3.644.537-1.001 1.265-1.764 2.186-2.288.92-.529 1.956-.793 3.106-.793.759 0 1.462.107 2.11.32a5.349 5.349 0 011.732.933c.503.405.912.901 1.227 1.489.32.588.524 1.262.614 2.02zm4.657-4.583V128h-2.723v-13.091h2.723zM289.705 128v-9.818h2.723V128h-2.723zm1.368-11.084c-.405 0-.752-.134-1.042-.403a1.3 1.3 0 01-.428-.977c0-.375.142-.697.428-.966a1.47 1.47 0 011.042-.409c.405 0 .75.137 1.035.409.29.269.435.591.435.966 0 .379-.145.705-.435.977-.285.269-.63.403-1.035.403zm8.011 11.276c-1.01 0-1.88-.205-2.608-.614a4.198 4.198 0 01-1.675-1.751c-.392-.759-.588-1.656-.588-2.691 0-1.01.196-1.897.588-2.659a4.35 4.35 0 011.655-1.784c.716-.426 1.556-.639 2.519-.639.648 0 1.251.104 1.809.313a4.03 4.03 0 011.47.927c.422.413.75.933.984 1.56.235.622.352 1.351.352 2.186v.748h-8.291V122.1h5.728c0-.392-.086-.739-.256-1.042a1.83 1.83 0 00-.709-.709 2.024 2.024 0 00-1.042-.262c-.414 0-.78.096-1.1.287a2.02 2.02 0 00-.741.761 2.145 2.145 0 00-.275 1.055v1.604c0 .486.089.906.268 1.259.184.354.441.627.774.818.332.192.726.288 1.182.288.303 0 .58-.043.831-.128.252-.085.467-.213.646-.383.179-.171.315-.38.409-.627l2.518.167a3.435 3.435 0 01-.786 1.585c-.392.447-.899.797-1.521 1.048-.618.247-1.332.371-2.141.371zm9.006-5.868V128h-2.723v-9.818h2.595v1.732h.115a2.737 2.737 0 011.093-1.355c.512-.337 1.132-.505 1.86-.505.682 0 1.277.149 1.784.447.507.299.901.725 1.182 1.279.281.55.422 1.206.422 1.969V128h-2.723v-5.766c.004-.6-.149-1.069-.46-1.406-.311-.341-.74-.511-1.285-.511-.366 0-.69.079-.972.236a1.651 1.651 0 00-.652.691c-.153.298-.232.658-.236 1.08zm13.696-4.142v2.045h-5.912v-2.045h5.912zm-4.57-2.352h2.723v9.153c0 .251.039.447.115.588a.639.639 0 00.32.288c.14.055.302.083.486.083.127 0 .255-.011.383-.032l.294-.058.428 2.027a8.266 8.266 0 01-.575.147 4.678 4.678 0 01-.901.108c-.656.026-1.232-.062-1.726-.262-.49-.2-.871-.511-1.144-.933-.273-.422-.407-.955-.403-1.598v-9.511zm14.39 5.152l-2.493.153a1.284 1.284 0 00-.274-.575 1.454 1.454 0 00-.557-.416 1.892 1.892 0 00-.811-.16c-.422 0-.778.09-1.068.269-.29.175-.435.409-.435.703 0 .234.094.432.282.594.187.162.509.292.965.39l1.777.358c.954.196 1.666.512 2.135.946.469.435.703 1.006.703 1.713 0 .644-.19 1.208-.569 1.694-.375.486-.891.865-1.547 1.138-.652.269-1.404.403-2.256.403-1.3 0-2.335-.271-3.107-.812-.767-.545-1.216-1.287-1.348-2.224l2.678-.141c.081.396.277.699.588.908.311.204.709.306 1.195.306.477 0 .861-.091 1.151-.274.294-.188.443-.429.447-.723a.75.75 0 00-.313-.607c-.205-.162-.52-.286-.946-.371l-1.7-.339c-.959-.191-1.673-.524-2.142-.997-.464-.473-.696-1.076-.696-1.809 0-.63.17-1.174.511-1.63.345-.456.829-.807 1.451-1.054.626-.247 1.359-.371 2.199-.371 1.24 0 2.216.262 2.927.786.716.524 1.134 1.238 1.253 2.142zm6.156 7.018v-13.091h5.165c.992 0 1.838.19 2.537.569a3.849 3.849 0 011.598 1.566c.371.665.556 1.432.556 2.301 0 .869-.187 1.637-.562 2.301a3.88 3.88 0 01-1.63 1.554c-.708.37-1.564.556-2.57.556h-3.292v-2.218h2.845c.532 0 .971-.092 1.317-.275.349-.188.609-.446.779-.774.175-.332.262-.713.262-1.144 0-.434-.087-.814-.262-1.138a1.747 1.747 0 00-.779-.76c-.35-.184-.793-.275-1.33-.275h-1.866V128h-2.768zm14.139.185c-.626 0-1.185-.108-1.675-.326a2.685 2.685 0 01-1.163-.978c-.281-.434-.422-.975-.422-1.623 0-.546.1-1.004.3-1.374.201-.371.474-.67.819-.895a3.96 3.96 0 011.176-.512 8.973 8.973 0 011.393-.243 34.271 34.271 0 001.381-.166c.349-.055.603-.136.761-.243a.534.534 0 00.236-.473v-.038c0-.405-.128-.718-.383-.94-.252-.221-.61-.332-1.074-.332-.49 0-.88.109-1.17.326-.29.213-.482.481-.575.805l-2.519-.204c.128-.597.38-1.112.755-1.547a3.614 3.614 0 011.45-1.01c.597-.239 1.287-.358 2.072-.358.545 0 1.067.064 1.566.192a4.12 4.12 0 011.336.594c.392.269.701.614.926 1.036.226.417.339.918.339 1.502V128h-2.582v-1.362h-.077a2.774 2.774 0 01-.633.812c-.264.23-.581.412-.952.544a3.962 3.962 0 01-1.285.191zm.78-1.879a2.3 2.3 0 001.061-.236c.307-.162.548-.38.722-.652a1.68 1.68 0 00.262-.927v-1.042a1.474 1.474 0 01-.351.153 6.558 6.558 0 01-.492.122c-.184.034-.367.066-.55.096l-.499.07a3.35 3.35 0 00-.837.224 1.33 1.33 0 00-.556.415 1.015 1.015 0 00-.198.639c0 .371.134.654.402.85.273.192.618.288 1.036.288zm6.862 1.694v-9.818h2.64v1.713h.102c.179-.609.479-1.07.901-1.381a2.373 2.373 0 011.458-.473 4.147 4.147 0 01.856.096v2.416a3.65 3.65 0 00-.53-.102 4.747 4.747 0 00-.62-.045c-.401 0-.759.088-1.074.262a1.933 1.933 0 00-.742.716 2.068 2.068 0 00-.268 1.061V128h-2.723zm13.079-9.818v2.045h-5.912v-2.045h5.912zm-4.57-2.352h2.723v9.153c0 .251.038.447.115.588a.639.639 0 00.32.288c.14.055.302.083.486.083.127 0 .255-.011.383-.032l.294-.058.428 2.027a8.266 8.266 0 01-.575.147 4.678 4.678 0 01-.901.108c-.656.026-1.232-.062-1.726-.262-.49-.2-.871-.511-1.144-.933-.273-.422-.407-.955-.403-1.598v-9.511zm9.067 6.494V128h-2.723v-9.818h2.595v1.732h.115a2.743 2.743 0 011.093-1.355c.512-.337 1.132-.505 1.861-.505.681 0 1.276.149 1.783.447.507.299.901.725 1.182 1.279.282.55.422 1.206.422 1.969V128h-2.723v-5.766c.005-.6-.149-1.069-.46-1.406-.311-.341-.739-.511-1.285-.511-.366 0-.69.079-.971.236a1.645 1.645 0 00-.652.691c-.154.298-.233.658-.237 1.08zm12.949 5.868c-1.01 0-1.879-.205-2.608-.614a4.204 4.204 0 01-1.675-1.751c-.392-.759-.588-1.656-.588-2.691 0-1.01.196-1.897.588-2.659a4.345 4.345 0 011.656-1.784c.716-.426 1.555-.639 2.518-.639.648 0 1.251.104 1.809.313a4.014 4.014 0 011.47.927c.422.413.75.933.985 1.56.234.622.351 1.351.351 2.186v.748h-8.29V122.1h5.727c0-.392-.085-.739-.256-1.042a1.83 1.83 0 00-.709-.709 2.021 2.021 0 00-1.042-.262 2.1 2.1 0 00-1.099.287 2.015 2.015 0 00-.742.761 2.145 2.145 0 00-.275 1.055v1.604c0 .486.09.906.269 1.259.183.354.441.627.773.818.333.192.727.288 1.183.288.302 0 .579-.043.831-.128.251-.085.466-.213.645-.383.179-.171.316-.38.409-.627l2.519.167a3.444 3.444 0 01-.786 1.585c-.392.447-.9.797-1.522 1.048-.618.247-1.331.371-2.141.371zm6.283-.192v-9.818h2.64v1.713h.102c.179-.609.48-1.07.902-1.381a2.37 2.37 0 011.457-.473 4.117 4.117 0 01.857.096v2.416a3.64 3.64 0 00-.531-.102 4.735 4.735 0 00-.62-.045c-.4 0-.758.088-1.074.262a1.93 1.93 0 00-.741.716 2.069 2.069 0 00-.269 1.061V128h-2.723z" fill="#475569"/><path d="M256 142h124.306" stroke="#CBD5E1" stroke-width="4" stroke-linecap="round"/><path d="M267 150h101.959" stroke="#E2E8F0" stroke-width="4" stroke-linecap="round"/><defs><filter id="filter0_d_6113_30031" x="84" y="58" width="468" height="286" filterUnits="userSpaceOnUse" color-interpolation-filters="sRGB"><feFlood flood-opacity="0" result="BackgroundImageFix"/><feColorMatrix in="SourceAlpha" values="0 0 0 0 0 0 0 0 0 0 0 0 0 0 0 0 0 0 127 0" result="hardAlpha"/><feOffset dy="1"/><feGaussianBlur stdDeviation="1.5"/><feColorMatrix values="0 0 0 0 0.0117647 0 0 0 0 0 0 0 0 0 0.278431 0 0 0 0.13 0"/><feBlend in2="BackgroundImageFix" result="effect1_dropShadow_6113_30031"/><feBlend in="SourceGraphic" in2="effect1_dropShadow_6113_30031" result="shape"/></filter></defs></svg>