<svg width="636" height="400" fill="none" xmlns="http://www.w3.org/2000/svg"><path fill="#E2E8F0" d="M0 0h636v400H0z"/><g filter="url(#filter0_d_6625_29049)"><rect x="126" y="83" width="384" height="235" rx="8" fill="#fff"/><rect x="127.358" y="84.358" width="381.283" height="232.283" rx="6.642" stroke="#fff" stroke-width="2.717"/></g><mask id="a" fill="#fff"><path d="M126 91a8 8 0 018-8h368a8 8 0 018 8v24H126V91z"/></mask><path d="M126 91a8 8 0 018-8h368a8 8 0 018 8v24H126V91z" fill="#F1F5F9"/><path d="M126 83h384-384zm384 33H126v-2h384v2zm-384-1V83v32zm384-32v32-32z" fill="#E2E8F0" mask="url(#a)"/><mask id="b" fill="#fff"><path d="M126 115h384v32H126v-32z"/></mask><path d="M126 115h384v32H126v-32z" fill="#fff"/><path d="M126 115h384-384zm384 33H126v-2h384v2zm-384-1v-32 32zm384-32v32-32z" fill="#E2E8F0" mask="url(#b)"/><path d="M492.125 134.75a1.123 1.123 0 01-1.125 1.125 1.123 1.123 0 01-1.125-1.125 1.123 1.123 0 011.125-1.125 1.123 1.123 0 011.125 1.125zm0-3.75a1.123 1.123 0 01-1.125 1.125 1.123 1.123 0 01-1.125-1.125 1.123 1.123 0 011.125-1.125 1.123 1.123 0 011.125 1.125zm0-3.75a1.123 1.123 0 01-1.125 1.125 1.123 1.123 0 01-1.125-1.125 1.123 1.123 0 011.125-1.125 1.123 1.123 0 011.125 1.125z" fill="#CBD5E1"/><mask id="c" fill="#fff"><path d="M126 147h384v32H126v-32z"/></mask><path d="M126 147h384v32H126v-32z" fill="#fff"/><path d="M126 147h384-384zm384 33H126v-2h384v2zm-384-1v-32 32zm384-32v32-32z" fill="#E2E8F0" mask="url(#c)"/><path d="M492.125 166.75a1.123 1.123 0 01-1.125 1.125 1.123 1.123 0 01-1.125-1.125 1.123 1.123 0 011.125-1.125 1.123 1.123 0 011.125 1.125zm0-3.75a1.123 1.123 0 01-1.125 1.125 1.123 1.123 0 01-1.125-1.125 1.123 1.123 0 011.125-1.125 1.123 1.123 0 011.125 1.125zm0-3.75a1.123 1.123 0 01-1.125 1.125 1.123 1.123 0 01-1.125-1.125 1.123 1.123 0 011.125-1.125 1.123 1.123 0 011.125 1.125z" fill="#CBD5E1"/><mask id="d" fill="#fff"><path d="M126 179h384v32H126v-32z"/></mask><path d="M126 179h384v32H126v-32z" fill="#fff"/><path d="M126 179h384-384zm384 33H126v-2h384v2zm-384-1v-32 32zm384-32v32-32z" fill="#E2E8F0" mask="url(#d)"/><path d="M492.125 198.75a1.123 1.123 0 01-1.125 1.125 1.123 1.123 0 01-1.125-1.125 1.123 1.123 0 011.125-1.125 1.123 1.123 0 011.125 1.125zm0-3.75a1.123 1.123 0 01-1.125 1.125 1.123 1.123 0 01-1.125-1.125 1.123 1.123 0 011.125-1.125 1.123 1.123 0 011.125 1.125zm0-3.75a1.123 1.123 0 01-1.125 1.125 1.123 1.123 0 01-1.125-1.125 1.123 1.123 0 011.125-1.125 1.123 1.123 0 011.125 1.125z" fill="#CBD5E1"/><mask id="e" fill="#fff"><path d="M126 211h384v32H126v-32z"/></mask><path d="M126 211h384v32H126v-32z" fill="#fff"/><path d="M126 211h384-384zm384 33H126v-2h384v2zm-384-1v-32 32zm384-32v32-32z" fill="#E2E8F0" mask="url(#e)"/><path d="M492.125 230.75a1.123 1.123 0 01-1.125 1.125 1.123 1.123 0 01-1.125-1.125 1.123 1.123 0 011.125-1.125 1.123 1.123 0 011.125 1.125zm0-3.75a1.123 1.123 0 01-1.125 1.125 1.123 1.123 0 01-1.125-1.125 1.123 1.123 0 011.125-1.125 1.123 1.123 0 011.125 1.125zm0-3.75a1.123 1.123 0 01-1.125 1.125 1.123 1.123 0 01-1.125-1.125 1.123 1.123 0 011.125-1.125 1.123 1.123 0 011.125 1.125z" fill="#CBD5E1"/><mask id="f" fill="#fff"><path d="M126 243h384v32H126v-32z"/></mask><path d="M126 243h384v32H126v-32z" fill="#fff"/><path d="M126 243h384-384zm384 33H126v-2h384v2zm-384-1v-32 32zm384-32v32-32z" fill="#E2E8F0" mask="url(#f)"/><path d="M492.125 262.75a1.123 1.123 0 01-1.125 1.125 1.123 1.123 0 01-1.125-1.125 1.123 1.123 0 011.125-1.125 1.123 1.123 0 011.125 1.125zm0-3.75a1.123 1.123 0 01-1.125 1.125 1.123 1.123 0 01-1.125-1.125 1.123 1.123 0 011.125-1.125 1.123 1.123 0 011.125 1.125zm0-3.75a1.123 1.123 0 01-1.125 1.125 1.123 1.123 0 01-1.125-1.125 1.123 1.123 0 011.125-1.125 1.123 1.123 0 011.125 1.125z" fill="#CBD5E1"/><mask id="g" fill="#fff"><path d="M126 275h384v32H126v-32z"/></mask><path d="M126 275h384v32H126v-32z" fill="#fff"/><path d="M126 275h384-384zm384 33H126v-2h384v2zm-384-1v-32 32zm384-32v32-32z" fill="#E2E8F0" mask="url(#g)"/><path d="M492.125 294.75a1.123 1.123 0 01-1.125 1.125 1.123 1.123 0 01-1.125-1.125 1.123 1.123 0 011.125-1.125 1.123 1.123 0 011.125 1.125zm0-3.75a1.123 1.123 0 01-1.125 1.125 1.123 1.123 0 01-1.125-1.125 1.123 1.123 0 011.125-1.125 1.123 1.123 0 011.125 1.125zm0-3.75a1.123 1.123 0 01-1.125 1.125 1.123 1.123 0 01-1.125-1.125 1.123 1.123 0 011.125-1.125 1.123 1.123 0 011.125 1.125z" fill="#CBD5E1"/><path stroke="#94A3B8" stroke-width="4" stroke-linecap="round" d="M141 99h32m78 0h32m42 0h32m48 0h32"/><path stroke="#E2E8F0" stroke-width="4" stroke-linecap="round" d="M141 131h68.444M141 163h68.444M141 195h68.444M141 227h68.444M141 259h68.444M141 291h68.444M248 131h36m-36 32h36m-36 32h36m-36 32h36m-36 32h36m-36 32h36m39-160h25m-25 32h25m-25 32h25m-25 32h25m-25 32h25m-25 32h25"/><path stroke="#754FFE" stroke-width="4" stroke-linecap="round" d="M405 131h25m-25 32h25m-25 32h25m-25 32h25m-25 32h25m-25 32h25"/><defs><filter id="filter0_d_6625_29049" x="123" y="81" width="390" height="241" filterUnits="userSpaceOnUse" color-interpolation-filters="sRGB"><feFlood flood-opacity="0" result="BackgroundImageFix"/><feColorMatrix in="SourceAlpha" values="0 0 0 0 0 0 0 0 0 0 0 0 0 0 0 0 0 0 127 0" result="hardAlpha"/><feOffset dy="1"/><feGaussianBlur stdDeviation="1.5"/><feColorMatrix values="0 0 0 0 0.0117647 0 0 0 0 0 0 0 0 0 0.278431 0 0 0 0.13 0"/><feBlend in2="BackgroundImageFix" result="effect1_dropShadow_6625_29049"/><feBlend in="SourceGraphic" in2="effect1_dropShadow_6625_29049" result="shape"/></filter></defs></svg>