<svg width="636" height="400" fill="none" xmlns="http://www.w3.org/2000/svg"><path fill="#E2E8F0" d="M0 0h636v400H0z"/><g filter="url(#filter0_d_6625_29033)"><rect x="126" y="83" width="384" height="235" rx="8" fill="#fff"/><rect x="127.358" y="84.358" width="381.283" height="232.283" rx="6.642" stroke="#fff" stroke-width="2.717"/></g><path d="M398 176c.133 0 .26.053.354.146a.504.504 0 01.146.354v3h3c.133 0 .26.053.354.146a.504.504 0 010 .708.504.504 0 01-.354.146h-3v3c0 .133-.053.26-.146.354a.504.504 0 01-.708 0 .504.504 0 01-.146-.354v-3h-3a.504.504 0 01-.354-.146.504.504 0 010-.708.504.504 0 01.354-.146h3v-3c0-.133.053-.26.146-.354A.504.504 0 01398 176z" fill="#754FFE"/><mask id="a" fill="#fff"><path d="M398 216c.133 0 .26.053.354.146a.504.504 0 01.146.354v3h3c.133 0 .26.053.354.146a.504.504 0 010 .708.504.504 0 01-.354.146h-3v3c0 .133-.053.26-.146.354a.504.504 0 01-.708 0 .504.504 0 01-.146-.354v-3h-3a.504.504 0 01-.354-.146.504.504 0 010-.708.504.504 0 01.354-.146h3v-3c0-.133.053-.26.146-.354A.504.504 0 01398 216z"/></mask><path d="M398 216c.133 0 .26.053.354.146a.504.504 0 01.146.354v3h3c.133 0 .26.053.354.146a.504.504 0 010 .708.504.504 0 01-.354.146h-3v3c0 .133-.053.26-.146.354a.504.504 0 01-.708 0 .504.504 0 01-.146-.354v-3h-3a.504.504 0 01-.354-.146.504.504 0 010-.708.504.504 0 01.354-.146h3v-3c0-.133.053-.26.146-.354A.504.504 0 01398 216z" fill="#CBD5E1"/><path d="M398 216v1-1zm.5 3.5h-1v1h1v-1zm0 1v-1h-1v1h1zm-1 0h1v-1h-1v1zm-3.5-.5h1-1zm3.5-.5v1h1v-1h-1zm.5-2.5a.504.504 0 01-.354-.146l1.415-1.415A1.503 1.503 0 00398 215v2zm-.354-.146a.504.504 0 01-.146-.354h2c0-.398-.158-.779-.439-1.061l-1.415 1.415zm-.146-.354v3h2v-3h-2zm1 4h3v-2h-3v2zm3 0a.504.504 0 01-.354-.146l1.415-1.415a1.503 1.503 0 00-1.061-.439v2zm-.354-.146A.504.504 0 01401 220h2c0-.398-.158-.779-.439-1.061l-1.415 1.415zM401 220c0-.133.053-.26.146-.354l1.415 1.415c.281-.282.439-.663.439-1.061h-2zm.146-.354a.504.504 0 01.354-.146v2c.398 0 .779-.158 1.061-.439l-1.415-1.415zm.354-.146h-3v2h3v-2zm-4 1v3h2v-3h-2zm0 3c0-.133.053-.26.146-.354l1.415 1.415c.281-.282.439-.663.439-1.061h-2zm.146-.354A.504.504 0 01398 223v2c.398 0 .779-.158 1.061-.439l-1.415-1.415zM398 223c.133 0 .26.053.354.146l-1.415 1.415c.282.281.663.439 1.061.439v-2zm.354.146a.504.504 0 01.146.354h-2c0 .398.158.779.439 1.061l1.415-1.415zm.146.354v-3h-2v3h2zm-1-4h-3v2h3v-2zm-3 0c.133 0 .26.053.354.146l-1.415 1.415c.282.281.663.439 1.061.439v-2zm.354.146A.504.504 0 01395 220h-2c0 .398.158.779.439 1.061l1.415-1.415zM395 220c0 .133-.053.26-.146.354l-1.415-1.415A1.503 1.503 0 00393 220h2zm-.146.354a.504.504 0 01-.354.146v-2c-.398 0-.779.158-1.061.439l1.415 1.415zm-.354.146h3v-2h-3v2zm4-1v-3h-2v3h2zm0-3c0 .133-.053.26-.146.354l-1.415-1.415a1.503 1.503 0 00-.439 1.061h2zm-.146.354A.504.504 0 01398 217v-2c-.398 0-.779.158-1.061.439l1.415 1.415z" fill="#CBD5E1" mask="url(#a)"/><mask id="b" fill="#fff"><path d="M398 239c.133 0 .26.053.354.146a.504.504 0 01.146.354v3h3c.133 0 .26.053.354.146a.504.504 0 010 .708.504.504 0 01-.354.146h-3v3c0 .133-.053.26-.146.354a.504.504 0 01-.708 0 .504.504 0 01-.146-.354v-3h-3a.504.504 0 01-.354-.146.504.504 0 010-.708.504.504 0 01.354-.146h3v-3c0-.133.053-.26.146-.354A.504.504 0 01398 239z"/></mask><path d="M398 239c.133 0 .26.053.354.146a.504.504 0 01.146.354v3h3c.133 0 .26.053.354.146a.504.504 0 010 .708.504.504 0 01-.354.146h-3v3c0 .133-.053.26-.146.354a.504.504 0 01-.708 0 .504.504 0 01-.146-.354v-3h-3a.504.504 0 01-.354-.146.504.504 0 010-.708.504.504 0 01.354-.146h3v-3c0-.133.053-.26.146-.354A.504.504 0 01398 239z" fill="#CBD5E1"/><path d="M398 239v1-1zm.5 3.5h-1v1h1v-1zm0 1v-1h-1v1h1zm-1 0h1v-1h-1v1zm-3.5-.5h1-1zm3.5-.5v1h1v-1h-1zm.5-2.5a.504.504 0 01-.354-.146l1.415-1.415A1.503 1.503 0 00398 238v2zm-.354-.146a.504.504 0 01-.146-.354h2c0-.398-.158-.779-.439-1.061l-1.415 1.415zm-.146-.354v3h2v-3h-2zm1 4h3v-2h-3v2zm3 0a.504.504 0 01-.354-.146l1.415-1.415a1.503 1.503 0 00-1.061-.439v2zm-.354-.146A.504.504 0 01401 243h2c0-.398-.158-.779-.439-1.061l-1.415 1.415zM401 243c0-.133.053-.26.146-.354l1.415 1.415c.281-.282.439-.663.439-1.061h-2zm.146-.354a.504.504 0 01.354-.146v2c.398 0 .779-.158 1.061-.439l-1.415-1.415zm.354-.146h-3v2h3v-2zm-4 1v3h2v-3h-2zm0 3c0-.133.053-.26.146-.354l1.415 1.415c.281-.282.439-.663.439-1.061h-2zm.146-.354A.504.504 0 01398 246v2c.398 0 .779-.158 1.061-.439l-1.415-1.415zM398 246c.133 0 .26.053.354.146l-1.415 1.415c.282.281.663.439 1.061.439v-2zm.354.146a.504.504 0 01.146.354h-2c0 .398.158.779.439 1.061l1.415-1.415zm.146.354v-3h-2v3h2zm-1-4h-3v2h3v-2zm-3 0c.133 0 .26.053.354.146l-1.415 1.415c.282.281.663.439 1.061.439v-2zm.354.146A.504.504 0 01395 243h-2c0 .398.158.779.439 1.061l1.415-1.415zM395 243c0 .133-.053.26-.146.354l-1.415-1.415A1.503 1.503 0 00393 243h2zm-.146.354a.504.504 0 01-.354.146v-2c-.398 0-.779.158-1.061.439l1.415 1.415zm-.354.146h3v-2h-3v2zm4-1v-3h-2v3h2zm0-3c0 .133-.053.26-.146.354l-1.415-1.415a1.503 1.503 0 00-.439 1.061h2zm-.146.354A.504.504 0 01398 240v-2c-.398 0-.779.158-1.061.439l1.415 1.415z" fill="#CBD5E1" mask="url(#b)"/><mask id="c" fill="#fff"><path d="M398 262c.133 0 .26.053.354.146a.504.504 0 01.146.354v3h3c.133 0 .26.053.354.146a.504.504 0 010 .708.504.504 0 01-.354.146h-3v3c0 .133-.053.26-.146.354a.504.504 0 01-.708 0 .504.504 0 01-.146-.354v-3h-3a.504.504 0 01-.354-.146.504.504 0 010-.708.504.504 0 01.354-.146h3v-3c0-.133.053-.26.146-.354A.504.504 0 01398 262z"/></mask><path d="M398 262c.133 0 .26.053.354.146a.504.504 0 01.146.354v3h3c.133 0 .26.053.354.146a.504.504 0 010 .708.504.504 0 01-.354.146h-3v3c0 .133-.053.26-.146.354a.504.504 0 01-.708 0 .504.504 0 01-.146-.354v-3h-3a.504.504 0 01-.354-.146.504.504 0 010-.708.504.504 0 01.354-.146h3v-3c0-.133.053-.26.146-.354A.504.504 0 01398 262z" fill="#CBD5E1"/><path d="M398 262v1-1zm.5 3.5h-1v1h1v-1zm0 1v-1h-1v1h1zm-1 0h1v-1h-1v1zm-3.5-.5h1-1zm3.5-.5v1h1v-1h-1zm.5-2.5a.504.504 0 01-.354-.146l1.415-1.415A1.503 1.503 0 00398 261v2zm-.354-.146a.504.504 0 01-.146-.354h2c0-.398-.158-.779-.439-1.061l-1.415 1.415zm-.146-.354v3h2v-3h-2zm1 4h3v-2h-3v2zm3 0a.504.504 0 01-.354-.146l1.415-1.415a1.503 1.503 0 00-1.061-.439v2zm-.354-.146A.504.504 0 01401 266h2c0-.398-.158-.779-.439-1.061l-1.415 1.415zM401 266c0-.133.053-.26.146-.354l1.415 1.415c.281-.282.439-.663.439-1.061h-2zm.146-.354a.504.504 0 01.354-.146v2c.398 0 .779-.158 1.061-.439l-1.415-1.415zm.354-.146h-3v2h3v-2zm-4 1v3h2v-3h-2zm0 3c0-.133.053-.26.146-.354l1.415 1.415c.281-.282.439-.663.439-1.061h-2zm.146-.354A.504.504 0 01398 269v2c.398 0 .779-.158 1.061-.439l-1.415-1.415zM398 269c.133 0 .26.053.354.146l-1.415 1.415c.282.281.663.439 1.061.439v-2zm.354.146a.504.504 0 01.146.354h-2c0 .398.158.779.439 1.061l1.415-1.415zm.146.354v-3h-2v3h2zm-1-4h-3v2h3v-2zm-3 0c.133 0 .26.053.354.146l-1.415 1.415c.282.281.663.439 1.061.439v-2zm.354.146A.504.504 0 01395 266h-2c0 .398.158.779.439 1.061l1.415-1.415zM395 266c0 .133-.053.26-.146.354l-1.415-1.415A1.503 1.503 0 00393 266h2zm-.146.354a.504.504 0 01-.354.146v-2c-.398 0-.779.158-1.061.439l1.415 1.415zm-.354.146h3v-2h-3v2zm4-1v-3h-2v3h2zm0-3c0 .133-.053.26-.146.354l-1.415-1.415a1.503 1.503 0 00-.439 1.061h2zm-.146.354A.504.504 0 01398 263v-2c-.398 0-.779.158-1.061.439l1.415 1.415z" fill="#CBD5E1" mask="url(#c)"/><path d="M215 180h101" stroke="#754FFE" stroke-width="4" stroke-linecap="round"/><path d="M215 220h101m-101 23h101m-101 23h101" stroke="#CBD5E1" stroke-width="4" stroke-linecap="round"/><path stroke="#E2E8F0" stroke-width="4" stroke-linecap="round" d="M215 192h173m-173 9h143"/><path d="M242.525 122v-13.091h8.667v2.282h-5.9v3.119h5.325v2.282h-5.325V122h-2.767zm10.319 0v-9.818h2.64v1.713h.103c.179-.609.479-1.07.901-1.381a2.372 2.372 0 011.457-.473 4.117 4.117 0 01.857.096v2.416a3.64 3.64 0 00-.531-.102 4.735 4.735 0 00-.62-.045c-.4 0-.758.088-1.074.262a1.93 1.93 0 00-.741.716 2.069 2.069 0 00-.269 1.061V122h-2.723zm11.383.192c-1.01 0-1.879-.205-2.608-.614a4.204 4.204 0 01-1.675-1.751c-.392-.759-.588-1.656-.588-2.691 0-1.01.196-1.897.588-2.659a4.345 4.345 0 011.656-1.784c.716-.426 1.555-.639 2.518-.639.648 0 1.251.104 1.809.313a4.026 4.026 0 011.471.927c.421.413.75.933.984 1.56.234.622.351 1.351.351 2.186v.748h-8.29V116.1h5.727c0-.392-.085-.739-.255-1.042a1.833 1.833 0 00-.71-.709 2.021 2.021 0 00-1.042-.262 2.1 2.1 0 00-1.099.287 2.015 2.015 0 00-.742.761c-.179.315-.27.667-.275 1.055v1.604c0 .486.09.906.269 1.259.183.354.441.627.773.818.333.192.727.288 1.183.288.302 0 .579-.043.831-.128.251-.085.466-.213.645-.383.179-.171.316-.38.409-.627l2.519.167a3.444 3.444 0 01-.786 1.585c-.392.447-.899.797-1.522 1.048-.617.247-1.331.371-2.141.371zm12.771 3.49v-5.254h-.083a3.527 3.527 0 01-.543.811 2.7 2.7 0 01-.901.659c-.367.174-.814.262-1.343.262a3.711 3.711 0 01-2.026-.575c-.601-.388-1.078-.957-1.432-1.707-.349-.754-.524-1.679-.524-2.774 0-1.125.181-2.061.543-2.806.363-.75.844-1.311 1.445-1.682a3.701 3.701 0 011.988-.562c.55 0 1.008.094 1.374.281.371.183.669.414.895.691.23.272.405.541.524.805h.115v-1.649h2.685v13.5h-2.717zm-2.007-5.689c.439 0 .81-.119 1.113-.358.306-.243.541-.582.703-1.016.166-.435.249-.944.249-1.528 0-.584-.081-1.091-.243-1.521-.162-.431-.396-.763-.703-.998-.307-.234-.68-.351-1.119-.351-.447 0-.824.121-1.131.364-.307.243-.539.58-.697 1.01-.157.431-.236.929-.236 1.496 0 .571.079 1.076.236 1.515.162.434.394.775.697 1.023.307.242.684.364 1.131.364zm13.206-2.173v-5.638h2.723V122h-2.614v-1.783h-.102a2.91 2.91 0 01-1.106 1.387c-.512.349-1.136.524-1.873.524-.656 0-1.234-.149-1.732-.448a3.069 3.069 0 01-1.17-1.272c-.277-.549-.418-1.208-.422-1.975v-6.251h2.723v5.765c.004.58.16 1.038.467 1.375.307.336.718.505 1.233.505.329 0 .635-.075.921-.224.285-.153.515-.379.69-.678.179-.298.267-.666.262-1.105zm9.376 4.372c-1.01 0-1.879-.205-2.608-.614a4.198 4.198 0 01-1.675-1.751c-.392-.759-.588-1.656-.588-2.691 0-1.01.196-1.897.588-2.659a4.345 4.345 0 011.656-1.784c.716-.426 1.555-.639 2.518-.639.648 0 1.251.104 1.809.313a4.014 4.014 0 011.47.927c.422.413.75.933.985 1.56.234.622.351 1.351.351 2.186v.748h-8.29V116.1h5.727c0-.392-.085-.739-.256-1.042a1.83 1.83 0 00-.709-.709 2.024 2.024 0 00-1.042-.262c-.413 0-.78.096-1.1.287a2.02 2.02 0 00-.741.761 2.145 2.145 0 00-.275 1.055v1.604c0 .486.09.906.269 1.259.183.354.441.627.773.818.332.192.727.288 1.183.288.302 0 .579-.043.831-.128.251-.085.466-.213.645-.383.179-.171.315-.38.409-.627l2.519.167a3.436 3.436 0 01-.787 1.585c-.392.447-.899.797-1.521 1.048-.618.247-1.332.371-2.141.371zm9.006-5.868V122h-2.723v-9.818h2.595v1.732h.115a2.743 2.743 0 011.093-1.355c.512-.337 1.132-.505 1.861-.505.681 0 1.276.149 1.783.447.507.299.901.725 1.182 1.279.282.55.422 1.206.422 1.969V122h-2.723v-5.766c.005-.6-.149-1.069-.46-1.406-.311-.341-.739-.511-1.285-.511-.366 0-.69.079-.971.236a1.645 1.645 0 00-.652.691c-.154.298-.233.658-.237 1.08zm13.697-4.142v2.045h-5.913v-2.045h5.913zm-4.571-2.352h2.723v9.153c0 .251.039.447.116.588a.637.637 0 00.319.288c.141.055.303.083.486.083.128 0 .256-.011.383-.032l.294-.058.429 2.027a8.321 8.321 0 01-.576.147 4.678 4.678 0 01-.901.108c-.656.026-1.231-.062-1.726-.262-.49-.2-.871-.511-1.144-.933-.273-.422-.407-.955-.403-1.598v-9.511zm9.278-.921V122h-2.723v-13.091h2.723zm3.863 16.773a5.44 5.44 0 01-.972-.083 3.528 3.528 0 01-.741-.198l.613-2.033c.32.098.608.151.863.16.26.008.484-.051.672-.179.191-.128.347-.345.466-.652l.16-.416-3.522-10.099h2.864l2.032 7.21h.103l2.051-7.21h2.883l-3.816 10.879a4.556 4.556 0 01-.748 1.381 3.067 3.067 0 01-1.182.914c-.478.217-1.053.326-1.726.326zm15.831-3.497c-.626 0-1.184-.108-1.674-.326a2.693 2.693 0 01-1.164-.978c-.281-.434-.422-.975-.422-1.623 0-.546.101-1.004.301-1.374.2-.371.473-.67.818-.895a3.96 3.96 0 011.176-.512 8.986 8.986 0 011.394-.243 34.187 34.187 0 001.38-.166c.35-.055.603-.136.761-.243.158-.106.236-.264.236-.473v-.038c0-.405-.127-.718-.383-.94-.251-.221-.609-.332-1.074-.332-.49 0-.88.109-1.17.326a1.503 1.503 0 00-.575.805l-2.518-.204a3.413 3.413 0 01.754-1.547 3.618 3.618 0 011.451-1.01c.596-.239 1.287-.358 2.071-.358.545 0 1.067.064 1.566.192a4.11 4.11 0 011.336.594c.392.269.701.614.927 1.036.226.417.338.918.338 1.502V122h-2.582v-1.362h-.077a2.754 2.754 0 01-.632.812 2.94 2.94 0 01-.953.544 3.962 3.962 0 01-1.285.191zm.78-1.879c.401 0 .754-.079 1.061-.236.307-.162.548-.38.723-.652.174-.273.262-.582.262-.927v-1.042a1.502 1.502 0 01-.352.153 6.558 6.558 0 01-.492.122 26.37 26.37 0 01-.55.096l-.498.07c-.32.047-.599.121-.838.224-.238.102-.424.24-.556.415a1.015 1.015 0 00-.198.639c0 .371.134.654.403.85.272.192.618.288 1.035.288zm15.031-5.324l-2.493.153a1.276 1.276 0 00-.275-.575 1.45 1.45 0 00-.556-.416 1.897 1.897 0 00-.812-.16c-.421 0-.777.09-1.067.269-.29.175-.435.409-.435.703 0 .234.094.432.282.594.187.162.509.292.965.39l1.777.358c.954.196 1.666.512 2.135.946.468.435.703 1.006.703 1.713 0 .644-.19 1.208-.569 1.694-.375.486-.891.865-1.547 1.138-.652.269-1.404.403-2.256.403-1.3 0-2.336-.271-3.107-.812-.767-.545-1.216-1.287-1.349-2.224l2.679-.141c.081.396.277.699.588.908.311.204.709.306 1.195.306.477 0 .861-.091 1.151-.274.294-.188.443-.429.447-.723a.752.752 0 00-.313-.607c-.205-.162-.52-.286-.946-.371l-1.7-.339c-.959-.191-1.673-.524-2.142-.997-.464-.473-.697-1.076-.697-1.809 0-.63.171-1.174.512-1.63.345-.456.829-.807 1.451-1.054.626-.247 1.359-.371 2.199-.371 1.24 0 2.216.262 2.927.786.716.524 1.134 1.238 1.253 2.142zm4.406 4.193l.006-3.267h.397l3.144-3.726h3.126l-4.225 4.934h-.646l-1.802 2.059zM362.426 122v-13.091h2.724V122h-2.724zm6.137 0l-2.889-4.276 1.815-1.924 4.263 6.2h-3.189zm8.41.192c-1.01 0-1.879-.205-2.608-.614a4.202 4.202 0 01-1.674-1.751c-.393-.759-.589-1.656-.589-2.691 0-1.01.196-1.897.589-2.659a4.343 4.343 0 011.655-1.784c.716-.426 1.555-.639 2.519-.639.647 0 1.25.104 1.808.313a4.026 4.026 0 011.471.927c.422.413.75.933.984 1.56.234.622.352 1.351.352 2.186v.748h-8.291V116.1h5.727c0-.392-.085-.739-.255-1.042a1.833 1.833 0 00-.71-.709 2.019 2.019 0 00-1.042-.262 2.1 2.1 0 00-1.099.287 2.015 2.015 0 00-.742.761c-.179.315-.27.667-.274 1.055v1.604c0 .486.089.906.268 1.259.183.354.441.627.773.818.333.192.727.288 1.183.288.302 0 .579-.043.831-.128a1.72 1.72 0 00.645-.383 1.68 1.68 0 00.41-.627l2.518.167a3.444 3.444 0 01-.786 1.585c-.392.447-.899.797-1.521 1.048-.618.247-1.332.371-2.142.371zm9.901-.032a3.711 3.711 0 01-2.026-.575c-.601-.388-1.078-.957-1.432-1.707-.349-.754-.524-1.679-.524-2.774 0-1.125.181-2.061.544-2.806.362-.75.843-1.311 1.444-1.682a3.701 3.701 0 011.988-.562c.55 0 1.008.094 1.374.281.371.183.669.414.895.691.23.272.405.541.524.805h.083v-4.922h2.717V122h-2.685v-1.572h-.115a3.495 3.495 0 01-.543.811 2.69 2.69 0 01-.901.659c-.367.174-.814.262-1.343.262zm.863-2.167c.439 0 .81-.119 1.113-.358.306-.243.541-.582.703-1.016.166-.435.249-.944.249-1.528 0-.584-.081-1.091-.243-1.521-.162-.431-.396-.763-.703-.998-.307-.234-.68-.351-1.119-.351-.447 0-.824.121-1.131.364-.307.243-.539.58-.697 1.01-.157.431-.236.929-.236 1.496 0 .571.079 1.076.236 1.515.162.434.394.775.697 1.023.307.242.684.364 1.131.364zm-106.511 27.689v-5.254h-.083a3.527 3.527 0 01-.543.811 2.704 2.704 0 01-.902.659c-.366.174-.814.262-1.342.262a3.709 3.709 0 01-2.026-.575c-.601-.388-1.078-.957-1.432-1.707-.35-.754-.524-1.679-.524-2.774 0-1.125.181-2.061.543-2.806.362-.75.844-1.311 1.445-1.682a3.699 3.699 0 011.988-.562c.549 0 1.007.094 1.374.281.371.183.669.414.895.691.23.272.405.541.524.805h.115v-1.649h2.685v13.5h-2.717zm-2.007-5.689c.439 0 .809-.119 1.112-.358.307-.243.541-.582.703-1.016.166-.435.249-.944.249-1.528 0-.584-.08-1.091-.242-1.521-.162-.431-.397-.763-.704-.998-.306-.234-.679-.351-1.118-.351-.448 0-.825.121-1.132.364-.306.243-.539.58-.696 1.01-.158.431-.237.929-.237 1.496 0 .571.079 1.076.237 1.515.162.434.394.775.696 1.023.307.242.684.364 1.132.364zm13.206-2.173v-5.638h2.723V144h-2.615v-1.783h-.102a2.898 2.898 0 01-1.106 1.387c-.511.349-1.135.524-1.872.524-.657 0-1.234-.149-1.733-.448a3.073 3.073 0 01-1.169-1.272c-.277-.549-.418-1.208-.422-1.975v-6.251h2.723v5.765c.004.58.159 1.038.466 1.375.307.336.718.505 1.234.505.328 0 .635-.075.92-.224a1.75 1.75 0 00.691-.678c.179-.298.266-.666.262-1.105zm9.375 4.372c-1.01 0-1.879-.205-2.608-.614a4.202 4.202 0 01-1.674-1.751c-.392-.759-.588-1.656-.588-2.691 0-1.01.196-1.897.588-2.659a4.35 4.35 0 011.655-1.784c.716-.426 1.556-.639 2.519-.639.647 0 1.25.104 1.809.313a4.03 4.03 0 011.47.927c.422.413.75.933.984 1.56.235.622.352 1.351.352 2.186v.748h-8.291V138.1h5.728c0-.392-.086-.739-.256-1.042a1.833 1.833 0 00-.71-.709 2.019 2.019 0 00-1.042-.262c-.413 0-.779.096-1.099.287a2.012 2.012 0 00-.741.761 2.145 2.145 0 00-.275 1.055v1.604c0 .486.089.906.268 1.259.183.354.441.627.774.818.332.192.726.288 1.182.288.303 0 .58-.043.831-.128s.467-.213.646-.383c.179-.171.315-.38.409-.627l2.518.167a3.444 3.444 0 01-.786 1.585c-.392.447-.899.797-1.521 1.048-.618.247-1.332.371-2.142.371zm14.453-7.21l-2.493.153a1.286 1.286 0 00-.275-.575 1.458 1.458 0 00-.556-.416 1.9 1.9 0 00-.812-.16c-.422 0-.778.09-1.067.269-.29.175-.435.409-.435.703 0 .234.094.432.281.594.188.162.509.292.965.39l1.777.358c.955.196 1.667.512 2.135.946.469.435.703 1.006.703 1.713 0 .644-.189 1.208-.568 1.694-.375.486-.891.865-1.547 1.138-.652.269-1.404.403-2.257.403-1.299 0-2.335-.271-3.106-.812-.767-.545-1.217-1.287-1.349-2.224l2.678-.141c.081.396.277.699.588.908.311.204.71.306 1.196.306.477 0 .861-.091 1.15-.274.294-.188.443-.429.448-.723a.755.755 0 00-.313-.607c-.205-.162-.52-.286-.947-.371l-1.7-.339c-.959-.191-1.672-.524-2.141-.997-.465-.473-.697-1.076-.697-1.809 0-.63.171-1.174.511-1.63.346-.456.829-.807 1.451-1.054.627-.247 1.36-.371 2.199-.371 1.24 0 2.216.262 2.928.786.716.524 1.133 1.238 1.253 2.142zm7.16-2.8v2.045h-5.912v-2.045h5.912zm-4.57-2.352h2.723v9.153c0 .251.038.447.115.588a.639.639 0 00.32.288c.14.055.302.083.486.083.127 0 .255-.011.383-.032l.294-.058.428 2.027a8.266 8.266 0 01-.575.147 4.678 4.678 0 01-.901.108c-.656.026-1.232-.062-1.726-.262-.49-.2-.871-.511-1.144-.933-.273-.422-.407-.955-.403-1.598v-9.511zm6.344 12.17v-9.818h2.723V144h-2.723zm1.368-11.084c-.405 0-.752-.134-1.042-.403a1.304 1.304 0 01-.428-.977c0-.375.143-.697.428-.966a1.47 1.47 0 011.042-.409c.405 0 .75.137 1.036.409.289.269.434.591.434.966 0 .379-.145.705-.434.977a1.457 1.457 0 01-1.036.403zm7.973 11.276c-.993 0-1.852-.211-2.576-.633a4.329 4.329 0 01-1.669-1.777c-.392-.763-.588-1.647-.588-2.653 0-1.014.196-1.9.588-2.659a4.275 4.275 0 011.669-1.777c.724-.426 1.583-.639 2.576-.639.993 0 1.849.213 2.569.639a4.263 4.263 0 011.675 1.777c.392.759.588 1.645.588 2.659 0 1.006-.196 1.89-.588 2.653a4.317 4.317 0 01-1.675 1.777c-.72.422-1.576.633-2.569.633zm.012-2.11c.452 0 .829-.127 1.132-.383.302-.26.53-.614.684-1.061.157-.448.236-.957.236-1.528 0-.571-.079-1.08-.236-1.528-.154-.447-.382-.801-.684-1.061-.303-.26-.68-.39-1.132-.39-.456 0-.839.13-1.15.39-.307.26-.539.614-.697 1.061-.153.448-.23.957-.23 1.528 0 .571.077 1.08.23 1.528.158.447.39.801.697 1.061.311.256.694.383 1.15.383zm9.314-3.758V144h-2.723v-9.818h2.595v1.732h.115a2.732 2.732 0 011.093-1.355c.511-.337 1.131-.505 1.86-.505.682 0 1.276.149 1.783.447.507.299.902.725 1.183 1.279.281.55.422 1.206.422 1.969V144h-2.723v-5.766c.004-.6-.149-1.069-.461-1.406-.311-.341-.739-.511-1.284-.511a1.96 1.96 0 00-.972.236 1.651 1.651 0 00-.652.691c-.153.298-.232.658-.236 1.08zm16.643-1.342l-2.493.153a1.286 1.286 0 00-.275-.575 1.45 1.45 0 00-.556-.416 1.897 1.897 0 00-.812-.16c-.422 0-.777.09-1.067.269-.29.175-.435.409-.435.703 0 .234.094.432.281.594.188.162.51.292.966.39l1.777.358c.954.196 1.666.512 2.134.946.469.435.704 1.006.704 1.713 0 .644-.19 1.208-.569 1.694-.375.486-.891.865-1.547 1.138-.652.269-1.404.403-2.257.403-1.299 0-2.335-.271-3.106-.812-.767-.545-1.217-1.287-1.349-2.224l2.678-.141c.081.396.277.699.589.908.311.204.709.306 1.195.306.477 0 .861-.091 1.15-.274.294-.188.444-.429.448-.723a.752.752 0 00-.313-.607c-.205-.162-.52-.286-.946-.371l-1.701-.339c-.958-.191-1.672-.524-2.141-.997-.464-.473-.697-1.076-.697-1.809 0-.63.171-1.174.512-1.63.345-.456.828-.807 1.451-1.054.626-.247 1.359-.371 2.198-.371 1.241 0 2.216.262 2.928.786.716.524 1.134 1.238 1.253 2.142z" fill="#475569"/><defs><filter id="filter0_d_6625_29033" x="123" y="81" width="390" height="241" filterUnits="userSpaceOnUse" color-interpolation-filters="sRGB"><feFlood flood-opacity="0" result="BackgroundImageFix"/><feColorMatrix in="SourceAlpha" values="0 0 0 0 0 0 0 0 0 0 0 0 0 0 0 0 0 0 127 0" result="hardAlpha"/><feOffset dy="1"/><feGaussianBlur stdDeviation="1.5"/><feColorMatrix values="0 0 0 0 0.0117647 0 0 0 0 0 0 0 0 0 0.278431 0 0 0 0.13 0"/><feBlend in2="BackgroundImageFix" result="effect1_dropShadow_6625_29033"/><feBlend in="SourceGraphic" in2="effect1_dropShadow_6625_29033" result="shape"/></filter></defs></svg>