<svg width="636" height="400" fill="none" xmlns="http://www.w3.org/2000/svg"><path fill="#E2E8F0" d="M0 0h636v400H0z"/><g filter="url(#filter0_d_6113_30112)"><rect x="87" y="59" width="462" height="280" rx="12" fill="#fff"/></g><rect x="195" y="200" width="20" height="20" rx="3" fill="#754FFE"/><rect x="339" y="200" width="20" height="20" rx="3" fill="#754FFE"/><path d="M198.394 119h-2.966l4.519-13.091h3.567L208.027 119h-2.966l-3.279-10.099h-.102L198.394 119zm-.185-5.146h7.005v2.161h-7.005v-2.161zm23.678-1.872l-2.493.153a1.297 1.297 0 00-.275-.575 1.458 1.458 0 00-.556-.416 1.9 1.9 0 00-.812-.16c-.422 0-.778.09-1.068.269-.289.175-.434.409-.434.703 0 .234.094.432.281.594.188.162.509.292.965.39l1.777.358c.955.196 1.666.512 2.135.946.469.435.703 1.006.703 1.713a2.67 2.67 0 01-.569 1.694c-.375.486-.89.865-1.547 1.138-.651.269-1.404.403-2.256.403-1.3 0-2.335-.271-3.106-.812-.767-.545-1.217-1.287-1.349-2.224l2.678-.141c.081.396.277.699.588.908.311.204.71.306 1.195.306.478 0 .861-.091 1.151-.274.294-.188.443-.429.448-.723a.753.753 0 00-.314-.607c-.204-.162-.52-.286-.946-.371l-1.7-.339c-.959-.191-1.673-.524-2.141-.997-.465-.473-.697-1.076-.697-1.809 0-.63.17-1.174.511-1.63.345-.456.829-.807 1.451-1.054.627-.247 1.36-.371 2.199-.371 1.24 0 2.216.262 2.928.786.716.524 1.133 1.238 1.253 2.142zm1.938 7.018v-9.818h2.723V119h-2.723zm1.368-11.084c-.405 0-.752-.134-1.042-.403a1.3 1.3 0 01-.428-.977c0-.375.142-.697.428-.966a1.47 1.47 0 011.042-.409c.405 0 .75.137 1.035.409.29.269.435.591.435.966 0 .379-.145.705-.435.977-.285.269-.63.403-1.035.403zM228.729 119v-9.818h2.595v1.732h.115a2.726 2.726 0 011.023-1.361c.477-.333 1.048-.499 1.713-.499.674 0 1.247.168 1.72.505.473.332.788.784.946 1.355h.102c.2-.562.563-1.012 1.087-1.349.528-.341 1.152-.511 1.873-.511.916 0 1.659.292 2.23.876.576.579.863 1.402.863 2.467V119h-2.716v-6.066c0-.546-.145-.955-.435-1.227-.29-.273-.652-.409-1.087-.409-.494 0-.88.157-1.157.473-.277.311-.415.722-.415 1.233V119h-2.64v-6.124c0-.481-.139-.865-.415-1.15-.273-.286-.633-.428-1.081-.428-.302 0-.575.076-.818.23-.239.149-.428.36-.569.633-.14.268-.211.583-.211.946V119h-2.723zm16.418 3.682v-13.5h2.685v1.649h.121c.12-.264.292-.533.518-.805.23-.277.528-.508.895-.691.371-.187.831-.281 1.381-.281.716 0 1.376.187 1.981.562.605.371 1.089.932 1.451 1.682.362.745.543 1.681.543 2.806 0 1.095-.176 2.02-.53 2.774-.349.75-.827 1.319-1.432 1.707a3.68 3.68 0 01-2.02.575c-.528 0-.978-.088-1.348-.262a2.788 2.788 0 01-.902-.659 3.369 3.369 0 01-.537-.811h-.083v5.254h-2.723zm2.666-8.591c0 .584.081 1.093.243 1.528.162.434.396.773.703 1.016.307.239.679.358 1.118.358.443 0 .818-.122 1.125-.364.307-.248.539-.589.697-1.023.162-.439.243-.944.243-1.515 0-.567-.079-1.065-.237-1.496-.157-.43-.389-.767-.696-1.01-.307-.243-.684-.364-1.132-.364-.443 0-.818.117-1.125.351-.302.235-.534.567-.696.998-.162.43-.243.937-.243 1.521zm11.448-8.182V119h-2.723v-13.091h2.723zm6.656 13.283c-1.01 0-1.88-.205-2.608-.614a4.198 4.198 0 01-1.675-1.751c-.392-.759-.588-1.656-.588-2.691 0-1.01.196-1.897.588-2.659a4.35 4.35 0 011.655-1.784c.716-.426 1.556-.639 2.519-.639.648 0 1.251.104 1.809.313a4.03 4.03 0 011.47.927c.422.413.75.933.984 1.56.235.622.352 1.351.352 2.186v.748h-8.291V113.1h5.728c0-.392-.085-.739-.256-1.042a1.83 1.83 0 00-.709-.709 2.024 2.024 0 00-1.042-.262c-.414 0-.78.096-1.1.287a2.02 2.02 0 00-.741.761 2.145 2.145 0 00-.275 1.055v1.604c0 .486.089.906.268 1.259.184.354.441.627.774.818.332.192.726.288 1.182.288.303 0 .58-.043.831-.128.252-.085.467-.213.646-.383.179-.171.315-.38.409-.627l2.518.167a3.435 3.435 0 01-.786 1.585c-.392.447-.899.797-1.521 1.048-.618.247-1.332.371-2.141.371zm13.249-.007c-.627 0-1.185-.108-1.675-.326a2.685 2.685 0 01-1.163-.978c-.282-.434-.422-.975-.422-1.623 0-.546.1-1.004.3-1.374.2-.371.473-.67.818-.895a3.972 3.972 0 011.176-.512 9.006 9.006 0 011.394-.243 34.498 34.498 0 001.381-.166c.349-.055.603-.136.76-.243a.533.533 0 00.237-.473v-.038c0-.405-.128-.718-.384-.94-.251-.221-.609-.332-1.074-.332-.49 0-.88.109-1.169.326a1.5 1.5 0 00-.576.805l-2.518-.204a3.423 3.423 0 01.754-1.547 3.618 3.618 0 011.451-1.01c.597-.239 1.287-.358 2.071-.358.546 0 1.068.064 1.566.192a4.11 4.11 0 011.336.594c.392.269.701.614.927 1.036.226.417.339.918.339 1.502V119h-2.583v-1.362h-.076a2.774 2.774 0 01-.633.812c-.264.23-.582.412-.953.544-.37.127-.799.191-1.284.191zm.779-1.879a2.3 2.3 0 001.062-.236c.306-.162.547-.38.722-.652a1.68 1.68 0 00.262-.927v-1.042a1.465 1.465 0 01-.352.153 6.558 6.558 0 01-.492.122c-.183.034-.366.066-.55.096l-.498.07c-.32.047-.599.121-.837.224a1.34 1.34 0 00-.557.415 1.015 1.015 0 00-.198.639c0 .371.135.654.403.85.273.192.618.288 1.035.288zm9.585-3.982V119h-2.723v-9.818h2.596v1.732h.115a2.732 2.732 0 011.093-1.355c.511-.337 1.131-.505 1.86-.505.682 0 1.276.149 1.783.447.507.299.901.725 1.183 1.279.281.55.421 1.206.421 1.969V119h-2.723v-5.766c.005-.6-.149-1.069-.46-1.406-.311-.341-.739-.511-1.285-.511-.366 0-.69.079-.971.236a1.651 1.651 0 00-.652.691c-.154.298-.232.658-.237 1.08zm12.093 5.836a3.712 3.712 0 01-2.027-.575c-.601-.388-1.078-.957-1.432-1.707-.349-.754-.524-1.679-.524-2.774 0-1.125.181-2.061.544-2.806.362-.75.843-1.311 1.444-1.682a3.701 3.701 0 011.988-.562c.55 0 1.008.094 1.374.281.371.183.669.414.895.691.23.272.405.541.524.805h.084v-4.922h2.716V119h-2.684v-1.572h-.116a3.495 3.495 0 01-.543.811 2.69 2.69 0 01-.901.659c-.367.174-.814.262-1.342.262zm.862-2.167c.439 0 .81-.119 1.113-.358.306-.243.541-.582.703-1.016.166-.435.249-.944.249-1.528 0-.584-.081-1.091-.243-1.521-.162-.431-.396-.763-.703-.998-.307-.234-.68-.351-1.119-.351-.447 0-.824.121-1.131.364-.307.243-.539.58-.697 1.01-.157.431-.236.929-.236 1.496 0 .571.079 1.076.236 1.515.162.434.394.775.697 1.023.307.242.684.364 1.131.364zm11.129 5.689v-13.5h2.685v1.649h.121c.119-.264.292-.533.518-.805.23-.277.528-.508.895-.691.37-.187.831-.281 1.38-.281.716 0 1.377.187 1.982.562.605.371 1.089.932 1.451 1.682.362.745.543 1.681.543 2.806 0 1.095-.177 2.02-.53 2.774-.35.75-.827 1.319-1.432 1.707a3.68 3.68 0 01-2.02.575c-.528 0-.978-.088-1.349-.262a2.783 2.783 0 01-.901-.659 3.369 3.369 0 01-.537-.811h-.083v5.254h-2.723zm2.665-8.591c0 .584.081 1.093.243 1.528.162.434.397.773.703 1.016.307.239.68.358 1.119.358.443 0 .818-.122 1.125-.364.307-.248.539-.589.697-1.023.162-.439.243-.944.243-1.515 0-.567-.079-1.065-.237-1.496-.157-.43-.39-.767-.697-1.01-.306-.243-.683-.364-1.131-.364-.443 0-.818.117-1.125.351-.302.235-.535.567-.697.998-.162.43-.243.937-.243 1.521zm13.162 5.101c-.993 0-1.852-.211-2.576-.633a4.335 4.335 0 01-1.669-1.777c-.392-.763-.588-1.647-.588-2.653 0-1.014.196-1.9.588-2.659a4.28 4.28 0 011.669-1.777c.724-.426 1.583-.639 2.576-.639.993 0 1.849.213 2.569.639a4.263 4.263 0 011.675 1.777c.392.759.588 1.645.588 2.659 0 1.006-.196 1.89-.588 2.653a4.317 4.317 0 01-1.675 1.777c-.72.422-1.576.633-2.569.633zm.012-2.11c.452 0 .829-.127 1.132-.383.302-.26.53-.614.684-1.061.157-.448.236-.957.236-1.528 0-.571-.079-1.08-.236-1.528-.154-.447-.382-.801-.684-1.061-.303-.26-.68-.39-1.132-.39-.455 0-.839.13-1.15.39-.307.26-.539.614-.697 1.061-.153.448-.23.957-.23 1.528 0 .571.077 1.08.23 1.528.158.447.39.801.697 1.061.311.256.695.383 1.15.383zm8.281 1.918l-2.672-9.818h2.755l1.522 6.596h.089l1.585-6.596h2.704l1.611 6.558h.083l1.496-6.558h2.749L346.99 119h-2.883l-1.687-6.175h-.122L340.611 119h-2.877zm17.602.192c-1.009 0-1.879-.205-2.607-.614a4.198 4.198 0 01-1.675-1.751c-.392-.759-.588-1.656-.588-2.691 0-1.01.196-1.897.588-2.659a4.35 4.35 0 011.655-1.784c.716-.426 1.556-.639 2.519-.639.648 0 1.251.104 1.809.313a4.03 4.03 0 011.47.927c.422.413.75.933.984 1.56.235.622.352 1.351.352 2.186v.748h-8.291V113.1h5.728c0-.392-.086-.739-.256-1.042a1.826 1.826 0 00-.71-.709 2.018 2.018 0 00-1.041-.262c-.414 0-.78.096-1.1.287a2.02 2.02 0 00-.741.761 2.145 2.145 0 00-.275 1.055v1.604c0 .486.089.906.268 1.259.183.354.441.627.774.818.332.192.726.288 1.182.288.303 0 .58-.043.831-.128.252-.085.467-.213.646-.383.179-.171.315-.38.409-.627l2.518.167a3.444 3.444 0 01-.786 1.585c-.392.447-.899.797-1.521 1.048-.618.247-1.332.371-2.142.371zm6.284-.192v-9.818h2.64v1.713h.102c.179-.609.479-1.07.901-1.381a2.373 2.373 0 011.458-.473 4.147 4.147 0 01.856.096v2.416a3.623 3.623 0 00-.53-.102 4.747 4.747 0 00-.62-.045c-.401 0-.759.088-1.074.262a1.94 1.94 0 00-.742.716 2.068 2.068 0 00-.268 1.061V119h-2.723zm13.137-9.818v2.045h-6.06v-2.045h6.06zM370.085 119v-10.528c0-.711.138-1.302.415-1.77a2.665 2.665 0 011.151-1.055c.485-.234 1.037-.352 1.655-.352.418 0 .799.032 1.144.096.35.064.61.122.78.173l-.486 2.045a3.404 3.404 0 00-.396-.096 2.537 2.537 0 00-.473-.044c-.401 0-.68.093-.837.281-.158.183-.237.441-.237.773V119h-2.716zm12.632-4.18v-5.638h2.723V119h-2.615v-1.783h-.102a2.898 2.898 0 01-1.106 1.387c-.511.349-1.135.524-1.873.524-.656 0-1.233-.149-1.732-.448a3.073 3.073 0 01-1.169-1.272c-.277-.549-.418-1.208-.422-1.975v-6.251h2.723v5.765c.004.58.159 1.038.466 1.375.307.336.718.505 1.234.505.328 0 .635-.075.92-.224a1.75 1.75 0 00.691-.678c.179-.298.266-.666.262-1.105zm7.624-8.911V119h-2.723v-13.091h2.723zm-189.78 35.283c-1.01 0-1.879-.205-2.608-.614a4.204 4.204 0 01-1.675-1.751c-.392-.759-.588-1.656-.588-2.691 0-1.01.196-1.897.588-2.659a4.345 4.345 0 011.656-1.784c.716-.426 1.555-.639 2.518-.639.648 0 1.251.104 1.809.313a4.026 4.026 0 011.471.927c.421.413.75.933.984 1.56.234.622.351 1.351.351 2.186v.748h-8.29V135.1h5.727c0-.392-.085-.739-.255-1.042a1.833 1.833 0 00-.71-.709 2.021 2.021 0 00-1.042-.262 2.1 2.1 0 00-1.099.287 2.015 2.015 0 00-.742.761c-.179.315-.27.667-.275 1.055v1.604c0 .486.09.906.269 1.259.183.354.441.627.773.818.333.192.727.288 1.183.288.302 0 .579-.043.831-.128.251-.085.466-.213.645-.383.179-.171.316-.38.409-.627l2.519.167a3.444 3.444 0 01-.786 1.585c-.392.447-.899.797-1.522 1.048-.617.247-1.331.371-2.141.371zm8.383-10.01l1.803 3.432 1.847-3.432h2.793l-2.844 4.909 2.921 4.909h-2.78l-1.937-3.394-1.905 3.394h-2.813l2.915-4.909-2.812-4.909h2.812zm8.061 13.5v-13.5h2.684v1.649h.122c.119-.264.292-.533.517-.805.231-.277.529-.508.895-.691.371-.187.831-.281 1.381-.281.716 0 1.376.187 1.982.562.605.371 1.088.932 1.451 1.682.362.745.543 1.681.543 2.806 0 1.095-.177 2.02-.531 2.774-.349.75-.826 1.319-1.431 1.707a3.682 3.682 0 01-2.02.575c-.529 0-.978-.088-1.349-.262a2.773 2.773 0 01-.901-.659 3.31 3.31 0 01-.537-.811h-.083v5.254h-2.723zm2.665-8.591c0 .584.081 1.093.243 1.528.162.434.396.773.703 1.016.307.239.68.358 1.119.358.443 0 .818-.122 1.125-.364.307-.248.539-.589.696-1.023.162-.439.243-.944.243-1.515 0-.567-.078-1.065-.236-1.496-.158-.43-.39-.767-.697-1.01-.307-.243-.684-.364-1.131-.364-.443 0-.818.117-1.125.351-.303.235-.535.567-.697.998-.162.43-.243.937-.243 1.521zm13.2 5.101c-1.01 0-1.88-.205-2.608-.614a4.198 4.198 0 01-1.675-1.751c-.392-.759-.588-1.656-.588-2.691 0-1.01.196-1.897.588-2.659a4.345 4.345 0 011.656-1.784c.715-.426 1.555-.639 2.518-.639.648 0 1.251.104 1.809.313a4.022 4.022 0 011.47.927c.422.413.75.933.985 1.56.234.622.351 1.351.351 2.186v.748h-8.29V135.1h5.727c0-.392-.085-.739-.256-1.042a1.83 1.83 0 00-.709-.709 2.024 2.024 0 00-1.042-.262c-.414 0-.78.096-1.1.287a2.02 2.02 0 00-.741.761 2.145 2.145 0 00-.275 1.055v1.604c0 .486.089.906.268 1.259.184.354.442.627.774.818.332.192.726.288 1.182.288.303 0 .58-.043.831-.128.252-.085.467-.213.646-.383.179-.171.315-.38.409-.627l2.519.167a3.436 3.436 0 01-.787 1.585c-.392.447-.899.797-1.521 1.048-.618.247-1.332.371-2.141.371zm6.283-.192v-9.818h2.64v1.713h.102c.179-.609.48-1.07.902-1.381a2.368 2.368 0 011.457-.473 4.147 4.147 0 01.856.096v2.416a3.596 3.596 0 00-.53-.102 4.747 4.747 0 00-.62-.045c-.401 0-.759.088-1.074.262a1.93 1.93 0 00-.741.716 2.069 2.069 0 00-.269 1.061V141h-2.723zm7.365 0v-9.818h2.723V141h-2.723zm1.368-11.084c-.405 0-.752-.134-1.042-.403a1.304 1.304 0 01-.428-.977c0-.375.143-.697.428-.966a1.47 1.47 0 011.042-.409c.405 0 .75.137 1.036.409.289.269.434.591.434.966 0 .379-.145.705-.434.977a1.457 1.457 0 01-1.036.403zm8.011 11.276c-1.01 0-1.879-.205-2.608-.614a4.204 4.204 0 01-1.675-1.751c-.392-.759-.588-1.656-.588-2.691 0-1.01.196-1.897.588-2.659a4.345 4.345 0 011.656-1.784c.716-.426 1.555-.639 2.518-.639.648 0 1.251.104 1.809.313a4.014 4.014 0 011.47.927c.422.413.75.933.985 1.56.234.622.351 1.351.351 2.186v.748h-8.29V135.1h5.727c0-.392-.085-.739-.255-1.042a1.833 1.833 0 00-.71-.709 2.021 2.021 0 00-1.042-.262 2.1 2.1 0 00-1.099.287 2.015 2.015 0 00-.742.761c-.179.315-.27.667-.275 1.055v1.604c0 .486.09.906.269 1.259.183.354.441.627.773.818.333.192.727.288 1.183.288.302 0 .579-.043.831-.128.251-.085.466-.213.645-.383.179-.171.316-.38.409-.627l2.519.167a3.444 3.444 0 01-.786 1.585c-.392.447-.899.797-1.522 1.048-.618.247-1.331.371-2.141.371zm9.006-5.868V141h-2.723v-9.818h2.596v1.732h.115a2.732 2.732 0 011.093-1.355c.511-.337 1.131-.505 1.86-.505.682 0 1.276.149 1.783.447.507.299.901.725 1.183 1.279.281.55.422 1.206.422 1.969V141h-2.723v-5.766c.004-.6-.15-1.069-.461-1.406-.311-.341-.739-.511-1.285-.511-.366 0-.69.079-.971.236a1.651 1.651 0 00-.652.691c-.153.298-.232.658-.237 1.08zm12.911 5.868c-1.006 0-1.871-.213-2.595-.639a4.314 4.314 0 01-1.662-1.79c-.384-.763-.576-1.641-.576-2.634 0-1.005.194-1.888.582-2.646a4.318 4.318 0 011.668-1.783c.721-.431 1.577-.646 2.57-.646.856 0 1.606.156 2.25.467a3.76 3.76 0 011.528 1.31c.375.562.581 1.223.62 1.981h-2.57c-.072-.49-.264-.884-.575-1.182-.307-.303-.71-.454-1.208-.454-.422 0-.791.115-1.106.345-.311.226-.554.556-.729.991-.175.435-.262.961-.262 1.579 0 .626.085 1.159.256 1.598.175.439.42.773.735 1.003a1.82 1.82 0 001.106.346c.311 0 .59-.064.837-.192.251-.128.458-.313.62-.556.166-.247.275-.544.326-.889h2.57c-.043.75-.247 1.411-.614 1.982a3.699 3.699 0 01-1.502 1.329c-.639.32-1.396.48-2.269.48zm10.603 0c-1.01 0-1.88-.205-2.608-.614a4.198 4.198 0 01-1.675-1.751c-.392-.759-.588-1.656-.588-2.691 0-1.01.196-1.897.588-2.659a4.35 4.35 0 011.655-1.784c.716-.426 1.556-.639 2.519-.639.648 0 1.251.104 1.809.313a4.03 4.03 0 011.47.927c.422.413.75.933.984 1.56.235.622.352 1.351.352 2.186v.748h-8.291V135.1h5.728c0-.392-.085-.739-.256-1.042a1.83 1.83 0 00-.709-.709 2.024 2.024 0 00-1.042-.262c-.414 0-.78.096-1.1.287a2.02 2.02 0 00-.741.761 2.145 2.145 0 00-.275 1.055v1.604c0 .486.089.906.268 1.259.184.354.441.627.774.818.332.192.726.288 1.182.288.303 0 .58-.043.831-.128.252-.085.467-.213.646-.383.179-.171.315-.38.409-.627l2.518.167a3.435 3.435 0 01-.786 1.585c-.392.447-.899.797-1.521 1.048-.618.247-1.332.371-2.141.371zm14.885 0c-.993 0-1.852-.211-2.576-.633a4.333 4.333 0 01-1.668-1.777c-.392-.763-.588-1.647-.588-2.653 0-1.014.196-1.9.588-2.659a4.279 4.279 0 011.668-1.777c.724-.426 1.583-.639 2.576-.639.993 0 1.849.213 2.57.639a4.267 4.267 0 011.674 1.777c.392.759.588 1.645.588 2.659 0 1.006-.196 1.89-.588 2.653a4.321 4.321 0 01-1.674 1.777c-.721.422-1.577.633-2.57.633zm.013-2.11c.452 0 .829-.127 1.131-.383.303-.26.531-.614.684-1.061.158-.448.237-.957.237-1.528 0-.571-.079-1.08-.237-1.528-.153-.447-.381-.801-.684-1.061-.302-.26-.679-.39-1.131-.39-.456 0-.84.13-1.151.39-.307.26-.539.614-.696 1.061a4.686 4.686 0 00-.231 1.528c0 .571.077 1.08.231 1.528.157.447.389.801.696 1.061.311.256.695.383 1.151.383zm12.886-2.262v-5.638h2.723V141h-2.614v-1.783h-.102a2.91 2.91 0 01-1.106 1.387c-.512.349-1.136.524-1.873.524-.656 0-1.234-.149-1.732-.448a3.069 3.069 0 01-1.17-1.272c-.277-.549-.418-1.208-.422-1.975v-6.251h2.723v5.765c.004.58.16 1.038.467 1.375.306.336.718.505 1.233.505.328 0 .635-.075.921-.224.285-.153.515-.379.69-.678.179-.298.266-.666.262-1.105zm10.124-5.638v2.045h-5.913v-2.045h5.913zm-4.571-2.352h2.723v9.153c0 .251.039.447.115.588a.643.643 0 00.32.288c.141.055.302.083.486.083.128 0 .255-.011.383-.032l.294-.058.429 2.027a8.475 8.475 0 01-.576.147 4.678 4.678 0 01-.901.108c-.656.026-1.232-.062-1.726-.262-.49-.2-.871-.511-1.144-.933-.273-.422-.407-.955-.403-1.598v-9.511zm14.946 12.362c-.992 0-1.851-.211-2.576-.633a4.333 4.333 0 01-1.668-1.777c-.392-.763-.588-1.647-.588-2.653 0-1.014.196-1.9.588-2.659a4.279 4.279 0 011.668-1.777c.725-.426 1.584-.639 2.576-.639.993 0 1.85.213 2.57.639a4.27 4.27 0 011.675 1.777c.392.759.588 1.645.588 2.659 0 1.006-.196 1.89-.588 2.653a4.323 4.323 0 01-1.675 1.777c-.72.422-1.577.633-2.57.633zm.013-2.11c.452 0 .829-.127 1.132-.383.302-.26.53-.614.684-1.061.157-.448.236-.957.236-1.528 0-.571-.079-1.08-.236-1.528-.154-.447-.382-.801-.684-1.061-.303-.26-.68-.39-1.132-.39-.456 0-.839.13-1.15.39-.307.26-.539.614-.697 1.061-.153.448-.23.957-.23 1.528 0 .571.077 1.08.23 1.528.158.447.39.801.697 1.061.311.256.694.383 1.15.383zm11.87-7.9v2.045h-6.059v-2.045h6.059zM343.911 141v-10.528c0-.711.138-1.302.415-1.77a2.665 2.665 0 011.151-1.055c.486-.234 1.037-.352 1.655-.352.418 0 .799.032 1.144.096.35.064.61.122.78.173l-.486 2.045a3.404 3.404 0 00-.396-.096 2.537 2.537 0 00-.473-.044c-.4 0-.68.093-.837.281-.158.183-.237.441-.237.773V141h-2.716zm15.724-9.818v2.045h-5.913v-2.045h5.913zm-4.57-2.352h2.723v9.153c0 .251.038.447.115.588a.64.64 0 00.319.288c.141.055.303.083.486.083.128 0 .256-.011.384-.032l.294-.058.428 2.027a8.266 8.266 0 01-.575.147 4.688 4.688 0 01-.901.108c-.657.026-1.232-.062-1.726-.262-.49-.2-.872-.511-1.144-.933-.273-.422-.407-.955-.403-1.598v-9.511zm9.278 6.494V141h-2.723v-13.091h2.646v5.005h.115a2.784 2.784 0 011.074-1.361c.494-.333 1.114-.499 1.86-.499.682 0 1.276.149 1.784.447.511.294.907.718 1.188 1.272.286.55.427 1.209.422 1.976V141h-2.723v-5.766c.005-.605-.149-1.076-.46-1.412-.307-.337-.737-.505-1.291-.505-.371 0-.699.079-.984.236a1.674 1.674 0 00-.665.691c-.158.298-.239.658-.243 1.08zm12.984 5.868c-1.01 0-1.88-.205-2.608-.614a4.198 4.198 0 01-1.675-1.751c-.392-.759-.588-1.656-.588-2.691 0-1.01.196-1.897.588-2.659a4.345 4.345 0 011.656-1.784c.715-.426 1.555-.639 2.518-.639.648 0 1.251.104 1.809.313a4.022 4.022 0 011.47.927c.422.413.75.933.985 1.56.234.622.351 1.351.351 2.186v.748h-8.29V135.1h5.727c0-.392-.085-.739-.256-1.042a1.83 1.83 0 00-.709-.709 2.024 2.024 0 00-1.042-.262c-.414 0-.78.096-1.1.287a2.02 2.02 0 00-.741.761 2.145 2.145 0 00-.275 1.055v1.604c0 .486.09.906.268 1.259.184.354.442.627.774.818.332.192.726.288 1.182.288.303 0 .58-.043.831-.128.252-.085.467-.213.646-.383.179-.171.315-.38.409-.627l2.519.167a3.436 3.436 0 01-.787 1.585c-.392.447-.899.797-1.521 1.048-.618.247-1.332.371-2.141.371zm10.5-.192v-13.091h2.723v4.922h.083c.12-.264.292-.533.518-.805.23-.277.529-.508.895-.691.371-.187.831-.281 1.381-.281.716 0 1.376.187 1.981.562.605.371 1.089.932 1.451 1.682.362.745.544 1.681.544 2.806 0 1.095-.177 2.02-.531 2.774-.349.75-.827 1.319-1.432 1.707a3.68 3.68 0 01-2.02.575c-.528 0-.978-.088-1.348-.262a2.788 2.788 0 01-.902-.659 3.369 3.369 0 01-.537-.811h-.121V141h-2.685zm2.666-4.909c0 .584.081 1.093.243 1.528.162.434.396.773.703 1.016.307.239.679.358 1.118.358.444 0 .819-.122 1.125-.364.307-.248.539-.589.697-1.023.162-.439.243-.944.243-1.515 0-.567-.079-1.065-.237-1.496-.157-.43-.389-.767-.696-1.01-.307-.243-.684-.364-1.132-.364-.443 0-.818.117-1.125.351-.302.235-.534.567-.696.998-.162.43-.243.937-.243 1.521zm13.163 5.101c-.993 0-1.852-.211-2.576-.633a4.329 4.329 0 01-1.669-1.777c-.392-.763-.588-1.647-.588-2.653 0-1.014.196-1.9.588-2.659a4.275 4.275 0 011.669-1.777c.724-.426 1.583-.639 2.576-.639.992 0 1.849.213 2.569.639a4.263 4.263 0 011.675 1.777c.392.759.588 1.645.588 2.659 0 1.006-.196 1.89-.588 2.653a4.317 4.317 0 01-1.675 1.777c-.72.422-1.577.633-2.569.633zm.012-2.11c.452 0 .829-.127 1.132-.383.302-.26.53-.614.684-1.061.157-.448.236-.957.236-1.528 0-.571-.079-1.08-.236-1.528-.154-.447-.382-.801-.684-1.061-.303-.26-.68-.39-1.132-.39-.456 0-.839.13-1.15.39-.307.26-.539.614-.697 1.061-.153.448-.23.957-.23 1.528 0 .571.077 1.08.23 1.528.158.447.39.801.697 1.061.311.256.694.383 1.15.383zm8.515-7.9l1.802 3.432 1.847-3.432h2.794l-2.845 4.909 2.921 4.909h-2.78l-1.937-3.394L412.08 141h-2.812l2.915-4.909-2.813-4.909h2.813zm9.652 9.984c-.422 0-.785-.149-1.087-.447a1.496 1.496 0 01-.448-1.087c0-.418.15-.775.448-1.074a1.494 1.494 0 011.087-.447c.409 0 .767.149 1.073.447.307.299.461.656.461 1.074 0 .281-.073.539-.218.774-.14.23-.326.415-.556.556-.23.136-.483.204-.76.204z" fill="#475569"/><path d="M195 160h175" stroke="#CBD5E1" stroke-width="4" stroke-linecap="round"/><path d="M195 170h144m-144 79l78 1m66-1l78 1m-222 9h57m87 0h57m-201 9h39m105 0h39" stroke="#E2E8F0" stroke-width="4" stroke-linecap="round"/><path d="M195 239h70m74 0h70" stroke="#CBD5E1" stroke-width="4" stroke-linecap="round"/><path d="M351.971 206.97a.752.752 0 011.042.008.753.753 0 01.028 1.042l-3.99 4.99a.752.752 0 01-1.08.02l-2.646-2.646a.748.748 0 01.23-1.244.757.757 0 01.586.01c.092.041.175.1.244.174l2.094 2.093 3.473-4.425a.209.209 0 01.02-.022h-.001zm-144 0a.752.752 0 011.042.008.753.753 0 01.028 1.042l-3.99 4.99a.752.752 0 01-1.08.02l-2.646-2.646a.748.748 0 01.23-1.244.757.757 0 01.586.01c.092.041.175.1.244.174l2.094 2.093 3.473-4.425a.209.209 0 01.02-.022h-.001z" fill="#F2EFFF"/><defs><filter id="filter0_d_6113_30112" x="84" y="57" width="468" height="286" filterUnits="userSpaceOnUse" color-interpolation-filters="sRGB"><feFlood flood-opacity="0" result="BackgroundImageFix"/><feColorMatrix in="SourceAlpha" values="0 0 0 0 0 0 0 0 0 0 0 0 0 0 0 0 0 0 127 0" result="hardAlpha"/><feOffset dy="1"/><feGaussianBlur stdDeviation="1.5"/><feColorMatrix values="0 0 0 0 0.0117647 0 0 0 0 0 0 0 0 0 0.278431 0 0 0 0.13 0"/><feBlend in2="BackgroundImageFix" result="effect1_dropShadow_6113_30112"/><feBlend in="SourceGraphic" in2="effect1_dropShadow_6113_30112" result="shape"/></filter></defs></svg>