<svg width="636" height="400" fill="none" xmlns="http://www.w3.org/2000/svg"><g clip-path="url(#clip0_6113_29924)"><path fill="#E2E8F0" d="M0 0h636v400H0z"/><g filter="url(#filter0_d_6113_29924)"><path d="M85 0h462v334a6 6 0 01-6 6H91a6 6 0 01-6-6V0z" fill="#fff"/></g><circle cx="121" cy="200" r="12" fill="#754FFE"/><path d="M244 202h31m57 0h31m66 0h31" stroke="#94A3B8" stroke-width="5" stroke-linecap="round"/><rect x="473" y="252" width="40" height="16" rx="4" fill="#334155"/><rect x="429" y="252" width="40" height="16" rx="4" fill="#E2E8F0"/><path transform="matrix(1 0 0 -1 85 59)" fill="url(#paint0_linear_6113_29924)" fill-opacity=".3" d="M0 0h462v59H0z"/><path stroke="#E2E8F0" d="M85 169.5h462"/><path d="M112 230h104" stroke="#CBD5E1" stroke-width="4" stroke-linecap="round"/><path d="M112 324h104" stroke="#E2E8F0" stroke-width="4" stroke-linecap="round"/><path d="M244 219h47" stroke="#CBD5E1" stroke-width="4" stroke-linecap="round"/><path d="M244 324h31m14 0h31m14 0h31m128 0h31" stroke="#E2E8F0" stroke-width="4" stroke-linecap="round"/><path d="M332 219h47m50 0h94m-94 12h18m-18 9h18" stroke="#CBD5E1" stroke-width="4" stroke-linecap="round"/><path d="M453 231h60m-60 9h18m7 0h18m7 0h18" stroke="#E2E8F0" stroke-width="4" stroke-linecap="round"/><path d="M244 231h33m55 0h33m-121 12h45m43 0h45" stroke="#CBD5E1" stroke-width="4" stroke-linecap="round"/><path d="M244 255h36m52 0h36m-124 12h31m57 0h31m-251-25h85m-85 12h67" stroke="#E2E8F0" stroke-width="4" stroke-linecap="round"/><rect x="109" y="266" width="12" height="12" rx="4" fill="#E2E8F0"/><rect x="125" y="266" width="12" height="12" rx="4" fill="#E2E8F0"/><rect x="141" y="266" width="12" height="12" rx="4" fill="#E2E8F0"/></g><defs><linearGradient id="paint0_linear_6113_29924" x1="231" y1="0" x2="231" y2="34.316" gradientUnits="userSpaceOnUse"><stop stop-color="#fff"/><stop offset="1" stop-color="#D1DAE3"/></linearGradient><clipPath id="clip0_6113_29924"><path fill="#fff" d="M0 0h636v400H0z"/></clipPath><filter id="filter0_d_6113_29924" x="82" y="-2" width="468" height="346" filterUnits="userSpaceOnUse" color-interpolation-filters="sRGB"><feFlood flood-opacity="0" result="BackgroundImageFix"/><feColorMatrix in="SourceAlpha" values="0 0 0 0 0 0 0 0 0 0 0 0 0 0 0 0 0 0 127 0" result="hardAlpha"/><feOffset dy="1"/><feGaussianBlur stdDeviation="1.5"/><feColorMatrix values="0 0 0 0 0.0117647 0 0 0 0 0 0 0 0 0 0.278431 0 0 0 0.13 0"/><feBlend in2="BackgroundImageFix" result="effect1_dropShadow_6113_29924"/><feBlend in="SourceGraphic" in2="effect1_dropShadow_6113_29924" result="shape"/></filter></defs></svg>