<svg width="636" height="400" fill="none" xmlns="http://www.w3.org/2000/svg"><g clip-path="url(#clip0_6113_29906)"><path fill="#E2E8F0" d="M0 0h636v400H0z"/><g filter="url(#filter0_d_6113_29906)"><path d="M85 66a6 6 0 016-6h450a6 6 0 016 6v334H85V66z" fill="#fff"/></g><circle cx="121" cy="97" r="12" fill="#E2E8F0"/><path d="M156.5 99h31m14.5 0h31m14 0h31" stroke="#CBD5E1" stroke-width="5" stroke-linecap="round"/><rect x="483" y="91" width="40" height="16" rx="4" fill="#754FFE"/><rect x="439" y="91" width="40" height="16" rx="4" fill="#E2E8F0"/><path fill="url(#paint0_linear_6113_29906)" fill-opacity=".3" d="M85 320h462v80H85z"/><path stroke="#E2E8F0" d="M85 137.5h462"/></g><defs><linearGradient id="paint0_linear_6113_29906" x1="316" y1="320" x2="316" y2="366.531" gradientUnits="userSpaceOnUse"><stop stop-color="#fff"/><stop offset="1" stop-color="#D1DAE3"/></linearGradient><clipPath id="clip0_6113_29906"><path fill="#fff" d="M0 0h636v400H0z"/></clipPath><filter id="filter0_d_6113_29906" x="79" y="57" width="474" height="352" filterUnits="userSpaceOnUse" color-interpolation-filters="sRGB"><feFlood flood-opacity="0" result="BackgroundImageFix"/><feColorMatrix in="SourceAlpha" values="0 0 0 0 0 0 0 0 0 0 0 0 0 0 0 0 0 0 127 0" result="hardAlpha"/><feOffset dy="3"/><feGaussianBlur stdDeviation="3"/><feColorMatrix values="0 0 0 0 0.0117647 0 0 0 0 0 0 0 0 0 0.278431 0 0 0 0.1 0"/><feBlend in2="BackgroundImageFix" result="effect1_dropShadow_6113_29906"/><feBlend in="SourceGraphic" in2="effect1_dropShadow_6113_29906" result="shape"/></filter></defs></svg>