<svg width="636" height="400" fill="none" xmlns="http://www.w3.org/2000/svg"><g clip-path="url(#clip0_6113_29901)"><path fill="#E2E8F0" d="M0 0h636v400H0z"/><g filter="url(#filter0_d_6113_29901)"><path d="M85 69a6 6 0 016-6h450a6 6 0 016 6v331H85V69z" fill="#fff"/></g><circle cx="121" cy="99" r="12" fill="#E2E8F0"/><path d="M156.5 101h31m14.5 0h31m14 0h31" stroke="#CBD5E1" stroke-width="5" stroke-linecap="round"/><rect x="483" y="93" width="40" height="16" rx="4" fill="#754FFE"/><rect x="324" y="146" width="199" height="143" rx="12" fill="#F1F5F9" fill-opacity=".8"/><rect x="439" y="93" width="40" height="16" rx="4" fill="#E2E8F0"/><path d="M110 215.851h124.306" stroke="#CBD5E1" stroke-width="6.983" stroke-linecap="round"/><path d="M110 232h101.959" stroke="#E2E8F0" stroke-width="6.983" stroke-linecap="round"/><path d="M110 248h79.612" stroke="#F1F5F9" stroke-width="6.983" stroke-linecap="round"/><rect x="110" y="267" width="56" height="16" rx="4" fill="#754FFE"/><path d="M111.138 157.909h3.413l3.605 8.796h.154l3.605-8.796h3.413V171h-2.685v-8.521h-.108l-3.388 8.457h-1.828l-3.388-8.489h-.109V171h-2.684v-13.091zm20.855 13.283c-.992 0-1.851-.211-2.576-.633a4.333 4.333 0 01-1.668-1.777c-.392-.763-.588-1.647-.588-2.653 0-1.014.196-1.9.588-2.659a4.279 4.279 0 011.668-1.777c.725-.426 1.584-.639 2.576-.639.993 0 1.85.213 2.57.639a4.27 4.27 0 011.675 1.777c.392.759.588 1.645.588 2.659 0 1.006-.196 1.89-.588 2.653a4.323 4.323 0 01-1.675 1.777c-.72.422-1.577.633-2.57.633zm.013-2.11c.452 0 .829-.127 1.132-.383.302-.26.53-.614.684-1.061.157-.448.236-.957.236-1.528 0-.571-.079-1.08-.236-1.528-.154-.447-.382-.801-.684-1.061-.303-.26-.68-.39-1.132-.39-.456 0-.839.13-1.15.39-.307.26-.539.614-.697 1.061-.153.448-.23.957-.23 1.528 0 .571.077 1.08.23 1.528.158.447.39.801.697 1.061.311.256.694.383 1.15.383zm10.208 2.078a3.711 3.711 0 01-2.026-.575c-.601-.388-1.078-.957-1.432-1.707-.349-.754-.524-1.679-.524-2.774 0-1.125.181-2.061.543-2.806.363-.75.844-1.311 1.445-1.682a3.701 3.701 0 011.988-.562c.55 0 1.008.094 1.374.281.371.183.669.414.895.691.23.272.405.541.524.805h.083v-4.922h2.717V171h-2.685v-1.572h-.115a3.527 3.527 0 01-.543.811 2.7 2.7 0 01-.901.659c-.367.174-.814.262-1.343.262zm.863-2.167c.439 0 .81-.119 1.112-.358.307-.243.542-.582.704-1.016.166-.435.249-.944.249-1.528 0-.584-.081-1.091-.243-1.521-.162-.431-.396-.763-.703-.998-.307-.234-.68-.351-1.119-.351-.447 0-.824.121-1.131.364-.307.243-.539.58-.697 1.01-.158.431-.236.929-.236 1.496 0 .571.078 1.076.236 1.515.162.434.394.775.697 1.023.307.242.684.364 1.131.364zm11.437 2.199c-1.01 0-1.879-.205-2.608-.614a4.202 4.202 0 01-1.674-1.751c-.393-.759-.589-1.656-.589-2.691 0-1.01.196-1.897.589-2.659a4.343 4.343 0 011.655-1.784c.716-.426 1.555-.639 2.519-.639.647 0 1.25.104 1.808.313a4.026 4.026 0 011.471.927c.422.413.75.933.984 1.56.234.622.352 1.351.352 2.186v.748h-8.291V165.1h5.727c0-.392-.085-.739-.255-1.042a1.833 1.833 0 00-.71-.709 2.019 2.019 0 00-1.042-.262 2.1 2.1 0 00-1.099.287 2.022 2.022 0 00-.742.761c-.179.315-.27.667-.274 1.055v1.604c0 .486.089.906.268 1.259.183.354.441.627.773.818.333.192.727.288 1.183.288.303 0 .579-.043.831-.128.251-.085.467-.213.646-.383a1.69 1.69 0 00.409-.627l2.518.167a3.444 3.444 0 01-.786 1.585c-.392.447-.899.797-1.521 1.048-.618.247-1.332.371-2.142.371zm6.284-.192v-9.818h2.64v1.713h.102c.179-.609.479-1.07.901-1.381a2.372 2.372 0 011.457-.473 4.117 4.117 0 01.857.096v2.416a3.64 3.64 0 00-.531-.102 4.723 4.723 0 00-.62-.045c-.4 0-.758.088-1.073.262a1.926 1.926 0 00-.742.716 2.068 2.068 0 00-.268 1.061V171h-2.723zm10.088-5.676V171h-2.723v-9.818h2.595v1.732h.115a2.737 2.737 0 011.093-1.355c.511-.337 1.131-.505 1.86-.505.682 0 1.276.149 1.784.447.507.299.901.725 1.182 1.279.281.55.422 1.206.422 1.969V171h-2.723v-5.766c.004-.6-.149-1.069-.46-1.406-.311-.341-.74-.511-1.285-.511-.367 0-.69.079-.972.236a1.651 1.651 0 00-.652.691c-.153.298-.232.658-.236 1.08zM183.577 171v-13.091h2.768v10.809h5.612V171h-8.38zm14.636.192c-1.01 0-1.879-.205-2.608-.614a4.202 4.202 0 01-1.674-1.751c-.392-.759-.588-1.656-.588-2.691 0-1.01.196-1.897.588-2.659a4.35 4.35 0 011.655-1.784c.716-.426 1.556-.639 2.519-.639.647 0 1.25.104 1.809.313a4.03 4.03 0 011.47.927c.422.413.75.933.984 1.56.235.622.352 1.351.352 2.186v.748h-8.291V165.1h5.728c0-.392-.086-.739-.256-1.042a1.833 1.833 0 00-.71-.709 2.018 2.018 0 00-1.041-.262c-.414 0-.78.096-1.1.287a2.02 2.02 0 00-.741.761 2.145 2.145 0 00-.275 1.055v1.604c0 .486.089.906.268 1.259.183.354.441.627.774.818.332.192.726.288 1.182.288.303 0 .58-.043.831-.128.252-.085.467-.213.646-.383.179-.171.315-.38.409-.627l2.518.167a3.444 3.444 0 01-.786 1.585c-.392.447-.899.797-1.521 1.048-.618.247-1.332.371-2.142.371zm9.084-.007c-.627 0-1.185-.108-1.675-.326a2.693 2.693 0 01-1.164-.978c-.281-.434-.421-.975-.421-1.623 0-.546.1-1.004.3-1.374.2-.371.473-.67.818-.895a3.96 3.96 0 011.176-.512 9.006 9.006 0 011.394-.243 34.187 34.187 0 001.38-.166c.35-.055.603-.136.761-.243a.533.533 0 00.237-.473v-.038c0-.405-.128-.718-.384-.94-.251-.221-.609-.332-1.074-.332-.49 0-.88.109-1.17.326a1.503 1.503 0 00-.575.805l-2.518-.204a3.423 3.423 0 01.754-1.547 3.618 3.618 0 011.451-1.01c.597-.239 1.287-.358 2.071-.358.545 0 1.067.064 1.566.192a4.11 4.11 0 011.336.594c.392.269.701.614.927 1.036.226.417.339.918.339 1.502V171h-2.583v-1.362h-.076a2.774 2.774 0 01-.633.812c-.264.23-.582.412-.953.544-.37.127-.799.191-1.284.191zm.779-1.879c.401 0 .755-.079 1.061-.236.307-.162.548-.38.723-.652.174-.273.262-.582.262-.927v-1.042a1.484 1.484 0 01-.352.153 6.558 6.558 0 01-.492.122c-.183.034-.366.066-.55.096l-.498.07c-.32.047-.599.121-.838.224-.238.102-.424.24-.556.415a1.015 1.015 0 00-.198.639c0 .371.134.654.403.85.273.192.618.288 1.035.288zm6.862 1.694v-9.818h2.64v1.713h.102c.179-.609.48-1.07.902-1.381a2.37 2.37 0 011.457-.473 4.147 4.147 0 01.857.096v2.416a3.64 3.64 0 00-.531-.102 4.735 4.735 0 00-.62-.045c-.401 0-.758.088-1.074.262a1.93 1.93 0 00-.741.716 2.069 2.069 0 00-.269 1.061V171h-2.723zm10.088-5.676V171h-2.723v-9.818h2.596v1.732h.115a2.732 2.732 0 011.093-1.355c.511-.337 1.131-.505 1.86-.505.682 0 1.276.149 1.783.447.507.299.901.725 1.183 1.279.281.55.422 1.206.422 1.969V171h-2.723v-5.766c.004-.6-.15-1.069-.461-1.406-.311-.341-.739-.511-1.284-.511a1.96 1.96 0 00-.972.236 1.651 1.651 0 00-.652.691c-.153.298-.232.658-.237 1.08zm8.475 5.676v-9.818h2.723V171h-2.723zm1.368-11.084c-.405 0-.753-.134-1.042-.403a1.302 1.302 0 01-.429-.977c0-.375.143-.697.429-.966a1.468 1.468 0 011.042-.409c.404 0 .75.137 1.035.409.29.269.435.591.435.966 0 .379-.145.705-.435.977a1.454 1.454 0 01-1.035.403zm6.259 5.408V171h-2.723v-9.818H241v1.732h.115a2.743 2.743 0 011.093-1.355c.512-.337 1.132-.505 1.86-.505.682 0 1.277.149 1.784.447.507.299.901.725 1.182 1.279.282.55.422 1.206.422 1.969V171h-2.723v-5.766c.004-.6-.149-1.069-.46-1.406-.311-.341-.739-.511-1.285-.511-.366 0-.69.079-.971.236a1.645 1.645 0 00-.652.691c-.154.298-.233.658-.237 1.08zm12.898 9.562c-.883 0-1.639-.121-2.27-.364-.626-.239-1.125-.565-1.495-.978a3.008 3.008 0 01-.723-1.393l2.519-.339c.077.196.198.379.364.55.166.17.386.306.659.409.277.106.613.159 1.009.159.593 0 1.081-.144 1.464-.434.388-.286.582-.765.582-1.438v-1.797h-.115a2.575 2.575 0 01-.537.774 2.694 2.694 0 01-.921.594c-.374.154-.822.23-1.342.23-.737 0-1.408-.17-2.013-.511-.601-.345-1.081-.871-1.439-1.579-.353-.711-.53-1.611-.53-2.697 0-1.112.181-2.041.543-2.787.362-.746.844-1.304 1.445-1.675a3.731 3.731 0 011.988-.556c.549 0 1.01.094 1.38.281.371.183.669.414.895.691.23.272.407.541.531.805h.102v-1.649h2.704v9.914c0 .835-.205 1.534-.614 2.096-.409.563-.975.985-1.7 1.266-.72.286-1.549.428-2.486.428zm.057-6.072c.439 0 .81-.109 1.112-.326.307-.222.542-.537.703-.946.167-.413.25-.908.25-1.483 0-.575-.081-1.074-.243-1.496-.162-.426-.396-.756-.703-.991-.307-.234-.68-.351-1.119-.351-.447 0-.824.121-1.131.364-.307.239-.539.571-.697.997-.158.427-.237.919-.237 1.477 0 .567.079 1.057.237 1.47.162.409.394.727.697.953.307.221.684.332 1.131.332zm-142.945 11.095h3.413l3.605 8.796h.154l3.605-8.796h3.413V193h-2.685v-8.521h-.108l-3.388 8.457h-1.828l-3.388-8.489h-.109V193h-2.684v-13.091zm19.219 13.276c-.626 0-1.185-.108-1.675-.326a2.69 2.69 0 01-1.163-.978c-.281-.434-.422-.975-.422-1.623 0-.546.1-1.004.301-1.374.2-.371.473-.67.818-.895a3.96 3.96 0 011.176-.512 8.993 8.993 0 011.393-.243 34.271 34.271 0 001.381-.166c.349-.055.603-.136.761-.243a.534.534 0 00.236-.473v-.038c0-.405-.128-.718-.383-.94-.252-.221-.61-.332-1.074-.332-.49 0-.88.109-1.17.326-.29.213-.481.481-.575.805l-2.519-.204c.128-.597.38-1.112.755-1.547a3.61 3.61 0 011.451-1.01c.596-.239 1.286-.358 2.071-.358.545 0 1.067.064 1.566.192a4.12 4.12 0 011.336.594c.392.269.701.614.926 1.036.226.417.339.918.339 1.502V193h-2.582v-1.362h-.077a2.774 2.774 0 01-.633.812c-.264.23-.581.412-.952.544a3.962 3.962 0 01-1.285.191zm.78-1.879a2.3 2.3 0 001.061-.236c.307-.162.548-.38.722-.652a1.68 1.68 0 00.262-.927v-1.042a1.474 1.474 0 01-.351.153 6.558 6.558 0 01-.492.122c-.184.034-.367.066-.55.096l-.499.07a3.35 3.35 0 00-.837.224 1.33 1.33 0 00-.556.415 1.015 1.015 0 00-.198.639c0 .371.134.654.402.85.273.192.618.288 1.036.288zm9.585-3.982V193h-2.723v-9.818h2.595v1.732h.115a2.737 2.737 0 011.093-1.355c.511-.337 1.131-.505 1.86-.505.682 0 1.276.149 1.783.447a3.04 3.04 0 011.183 1.279c.281.55.422 1.206.422 1.969V193h-2.723v-5.766c.004-.6-.149-1.069-.46-1.406-.311-.341-.74-.511-1.285-.511-.367 0-.69.079-.972.236a1.651 1.651 0 00-.652.691c-.153.298-.232.658-.236 1.08zm11.274 5.861c-.627 0-1.185-.108-1.675-.326a2.685 2.685 0 01-1.163-.978c-.282-.434-.422-.975-.422-1.623 0-.546.1-1.004.3-1.374.201-.371.473-.67.818-.895a3.978 3.978 0 011.177-.512 8.973 8.973 0 011.393-.243 34.498 34.498 0 001.381-.166c.349-.055.603-.136.76-.243a.533.533 0 00.237-.473v-.038c0-.405-.128-.718-.384-.94-.251-.221-.609-.332-1.074-.332-.49 0-.88.109-1.169.326a1.5 1.5 0 00-.576.805l-2.518-.204a3.423 3.423 0 01.754-1.547 3.618 3.618 0 011.451-1.01c.597-.239 1.287-.358 2.071-.358.546 0 1.068.064 1.566.192a4.11 4.11 0 011.336.594c.392.269.701.614.927 1.036.226.417.339.918.339 1.502V193h-2.583v-1.362h-.076a2.774 2.774 0 01-.633.812c-.264.23-.582.412-.952.544a3.962 3.962 0 01-1.285.191zm.78-1.879a2.3 2.3 0 001.061-.236c.306-.162.547-.38.722-.652a1.68 1.68 0 00.262-.927v-1.042a1.465 1.465 0 01-.352.153 6.323 6.323 0 01-.492.122c-.183.034-.366.066-.549.096l-.499.07c-.32.047-.599.121-.837.224a1.33 1.33 0 00-.556.415 1.01 1.01 0 00-.199.639c0 .371.135.654.403.85.273.192.618.288 1.036.288zm11.285 5.58c-.882 0-1.639-.121-2.269-.364-.627-.239-1.125-.565-1.496-.978a2.996 2.996 0 01-.722-1.393l2.518-.339c.077.196.198.379.364.55.167.17.386.306.659.409.277.106.613.159 1.01.159.592 0 1.08-.144 1.463-.434.388-.286.582-.765.582-1.438v-1.797h-.115a2.575 2.575 0 01-.537.774 2.699 2.699 0 01-.92.594c-.375.154-.823.23-1.343.23-.737 0-1.408-.17-2.013-.511-.601-.345-1.08-.871-1.438-1.579-.354-.711-.531-1.611-.531-2.697 0-1.112.181-2.041.543-2.787.363-.746.844-1.304 1.445-1.675a3.731 3.731 0 011.988-.556c.55 0 1.01.094 1.381.281.37.183.669.414.895.691.23.272.406.541.53.805h.102v-1.649h2.704v9.914c0 .835-.204 1.534-.613 2.096-.41.563-.976.985-1.701 1.266-.72.286-1.549.428-2.486.428zm.057-6.072c.439 0 .81-.109 1.112-.326.307-.222.542-.537.704-.946.166-.413.249-.908.249-1.483 0-.575-.081-1.074-.243-1.496-.162-.426-.396-.756-.703-.991-.307-.234-.68-.351-1.119-.351-.447 0-.824.121-1.131.364-.307.239-.539.571-.697.997-.158.427-.236.919-.236 1.477 0 .567.078 1.057.236 1.47.162.409.394.727.697.953.307.221.684.332 1.131.332zm11.384 2.378c-1.009 0-1.879-.205-2.607-.614a4.198 4.198 0 01-1.675-1.751c-.392-.759-.588-1.656-.588-2.691 0-1.01.196-1.897.588-2.659a4.35 4.35 0 011.655-1.784c.716-.426 1.556-.639 2.519-.639.648 0 1.251.104 1.809.313a4.03 4.03 0 011.47.927c.422.413.75.933.984 1.56.235.622.352 1.351.352 2.186v.748h-8.291V187.1h5.728c0-.392-.086-.739-.256-1.042a1.826 1.826 0 00-.71-.709 2.018 2.018 0 00-1.041-.262c-.414 0-.78.096-1.1.287a2.02 2.02 0 00-.741.761 2.145 2.145 0 00-.275 1.055v1.604c0 .486.089.906.268 1.259.184.354.441.627.774.818.332.192.726.288 1.182.288.303 0 .58-.043.831-.128.252-.085.467-.213.646-.383.179-.171.315-.38.409-.627l2.518.167a3.435 3.435 0 01-.786 1.585c-.392.447-.899.797-1.521 1.048-.618.247-1.332.371-2.142.371zm6.284-.192v-9.818h2.595v1.732h.115a2.726 2.726 0 011.023-1.361c.477-.333 1.048-.499 1.713-.499.673 0 1.246.168 1.719.505.473.332.789.784.946 1.355H190c.2-.562.562-1.012 1.086-1.349.529-.341 1.153-.511 1.873-.511.916 0 1.66.292 2.231.876.575.579.863 1.402.863 2.467V193h-2.717v-6.066c0-.546-.145-.955-.434-1.227-.29-.273-.652-.409-1.087-.409-.494 0-.88.157-1.157.473-.277.311-.415.722-.415 1.233V193h-2.64v-6.124c0-.481-.139-.865-.416-1.15-.273-.286-.633-.428-1.08-.428-.303 0-.575.076-.818.23-.239.149-.429.36-.569.633a2.003 2.003 0 00-.211.946V193h-2.723zm20.892.192c-1.01 0-1.879-.205-2.608-.614a4.202 4.202 0 01-1.674-1.751c-.392-.759-.588-1.656-.588-2.691 0-1.01.196-1.897.588-2.659a4.343 4.343 0 011.655-1.784c.716-.426 1.556-.639 2.519-.639.647 0 1.25.104 1.809.313a4.03 4.03 0 011.47.927c.422.413.75.933.984 1.56.234.622.352 1.351.352 2.186v.748h-8.291V187.1h5.727c0-.392-.085-.739-.255-1.042a1.833 1.833 0 00-.71-.709 2.019 2.019 0 00-1.042-.262c-.413 0-.779.096-1.099.287a2.022 2.022 0 00-.742.761c-.179.315-.27.667-.274 1.055v1.604c0 .486.089.906.268 1.259.183.354.441.627.773.818.333.192.727.288 1.183.288.303 0 .58-.043.831-.128s.467-.213.646-.383c.179-.171.315-.38.409-.627l2.518.167a3.444 3.444 0 01-.786 1.585c-.392.447-.899.797-1.521 1.048-.618.247-1.332.371-2.142.371zm9.007-5.868V193h-2.723v-9.818h2.595v1.732h.115a2.737 2.737 0 011.093-1.355c.511-.337 1.131-.505 1.86-.505.682 0 1.276.149 1.783.447.507.299.902.725 1.183 1.279.281.55.422 1.206.422 1.969V193h-2.723v-5.766c.004-.6-.149-1.069-.46-1.406-.312-.341-.74-.511-1.285-.511a1.96 1.96 0 00-.972.236 1.651 1.651 0 00-.652.691c-.153.298-.232.658-.236 1.08zm13.696-4.142v2.045h-5.912v-2.045h5.912zm-4.57-2.352h2.723v9.153c0 .251.038.447.115.588a.639.639 0 00.32.288c.14.055.302.083.485.083.128 0 .256-.011.384-.032l.294-.058.428 2.027a8.266 8.266 0 01-.575.147 4.688 4.688 0 01-.901.108c-.657.026-1.232-.062-1.726-.262-.49-.2-.872-.511-1.144-.933-.273-.422-.407-.955-.403-1.598v-9.511z" fill="#475569"/><path fill="url(#paint0_linear_6113_29901)" fill-opacity=".3" d="M85 320h462v80H85z"/></g><defs><linearGradient id="paint0_linear_6113_29901" x1="316" y1="320" x2="316" y2="366.531" gradientUnits="userSpaceOnUse"><stop stop-color="#fff"/><stop offset="1" stop-color="#D1DAE3"/></linearGradient><clipPath id="clip0_6113_29901"><path fill="#fff" d="M0 0h636v400H0z"/></clipPath><filter id="filter0_d_6113_29901" x="79" y="60" width="474" height="349" filterUnits="userSpaceOnUse" color-interpolation-filters="sRGB"><feFlood flood-opacity="0" result="BackgroundImageFix"/><feColorMatrix in="SourceAlpha" values="0 0 0 0 0 0 0 0 0 0 0 0 0 0 0 0 0 0 127 0" result="hardAlpha"/><feOffset dy="3"/><feGaussianBlur stdDeviation="3"/><feColorMatrix values="0 0 0 0 0.0117647 0 0 0 0 0 0 0 0 0 0.278431 0 0 0 0.1 0"/><feBlend in2="BackgroundImageFix" result="effect1_dropShadow_6113_29901"/><feBlend in="SourceGraphic" in2="effect1_dropShadow_6113_29901" result="shape"/></filter></defs></svg>