<svg width="636" height="400" fill="none" xmlns="http://www.w3.org/2000/svg"><path fill="#E2E8F0" d="M0 0h636v400H0z"/><g filter="url(#filter0_d_6115_29376)"><rect x="87" y="59" width="462" height="282" rx="8" fill="#fff"/></g><rect x="126" y="135" width="178" height="80" rx="4" fill="#E2E8F0"/><rect width="178" height="80" rx="4" transform="matrix(-1 0 0 1 510 232)" fill="#E2E8F0"/><rect x="316" y="135" width="74" height="80" rx="4" fill="#E2E8F0"/><rect width="74" height="80" rx="4" transform="matrix(-1 0 0 1 320 232)" fill="#E2E8F0"/><rect x="402" y="135" width="108" height="80" rx="4" fill="#E2E8F0"/><rect width="108" height="80" rx="4" transform="matrix(-1 0 0 1 234 232)" fill="#E2E8F0"/><path d="M276.906 93.91V107h-2.768V93.91h2.768zm2.226 13.09v-9.818h2.595v1.732h.115a2.716 2.716 0 011.023-1.361c.477-.333 1.048-.499 1.713-.499.673 0 1.246.168 1.719.505.473.332.788.784.946 1.355h.102a2.617 2.617 0 011.087-1.349c.528-.34 1.153-.511 1.873-.511.916 0 1.66.292 2.231.876.575.58.863 1.402.863 2.467V107h-2.717v-6.066c0-.546-.145-.955-.435-1.227-.289-.273-.652-.41-1.086-.41-.495 0-.88.158-1.157.474-.277.311-.416.722-.416 1.233V107h-2.64v-6.124c0-.481-.138-.865-.415-1.15-.273-.286-.633-.428-1.08-.428-.303 0-.576.076-.819.23-.238.149-.428.36-.568.633a2.003 2.003 0 00-.211.946V107h-2.723zm19.217.185c-.626 0-1.184-.108-1.674-.326a2.687 2.687 0 01-1.164-.978c-.281-.434-.422-.975-.422-1.623 0-.546.1-1.004.301-1.374.2-.371.473-.67.818-.895a3.96 3.96 0 011.176-.512 8.986 8.986 0 011.394-.243 34.187 34.187 0 001.38-.166c.35-.055.603-.136.761-.243.158-.106.236-.264.236-.473v-.038c0-.405-.127-.718-.383-.94-.252-.221-.61-.332-1.074-.332-.49 0-.88.109-1.17.326a1.5 1.5 0 00-.575.805l-2.519-.204c.128-.597.38-1.112.755-1.547a3.616 3.616 0 011.451-1.01c.596-.239 1.287-.358 2.071-.358.545 0 1.067.064 1.566.192a4.11 4.11 0 011.336.594c.392.269.701.614.927 1.036.225.417.338.918.338 1.502V107h-2.582v-1.362h-.077a2.741 2.741 0 01-.633.812c-.264.23-.581.412-.952.544a3.962 3.962 0 01-1.285.191zm.78-1.879c.401 0 .754-.079 1.061-.236.307-.162.548-.38.722-.652.175-.273.263-.582.263-.927v-1.042a1.502 1.502 0 01-.352.153 6.558 6.558 0 01-.492.122 26.37 26.37 0 01-.55.096l-.499.07a3.35 3.35 0 00-.837.224 1.33 1.33 0 00-.556.415 1.015 1.015 0 00-.198.639c0 .371.134.654.403.85.272.192.617.288 1.035.288zm11.285 5.58c-.882 0-1.638-.121-2.269-.364-.626-.239-1.125-.565-1.496-.978a3.015 3.015 0 01-.722-1.393l2.518-.339c.077.196.199.379.365.55.166.17.385.306.658.409.277.106.614.159 1.01.159.592 0 1.08-.144 1.464-.434.388-.286.582-.765.582-1.438v-1.797h-.115c-.12.273-.299.531-.537.774a2.703 2.703 0 01-.921.594c-.375.154-.822.23-1.342.23-.737 0-1.409-.17-2.014-.511-.601-.345-1.08-.871-1.438-1.579-.354-.711-.53-1.611-.53-2.697 0-1.112.181-2.041.543-2.787.362-.746.844-1.304 1.445-1.675a3.73 3.73 0 011.987-.556c.55 0 1.01.094 1.381.281.371.184.669.414.895.69.23.273.407.542.531.806h.102v-1.65h2.704v9.915c0 .835-.205 1.534-.614 2.096-.409.563-.976.985-1.7 1.266-.72.286-1.549.428-2.487.428zm.058-6.072c.439 0 .809-.109 1.112-.326.307-.222.541-.537.703-.946.166-.413.249-.908.249-1.483 0-.575-.081-1.074-.242-1.496-.162-.426-.397-.756-.704-.99-.306-.235-.679-.352-1.118-.352-.448 0-.825.121-1.132.364-.306.239-.539.571-.696.997-.158.427-.237.919-.237 1.477 0 .567.079 1.057.237 1.47.162.409.394.727.696.953.307.221.684.332 1.132.332zm11.384 2.378c-1.01 0-1.879-.205-2.608-.614a4.204 4.204 0 01-1.675-1.751c-.392-.759-.588-1.656-.588-2.691 0-1.01.196-1.897.588-2.66a4.345 4.345 0 011.656-1.783c.716-.426 1.555-.639 2.518-.639a5.12 5.12 0 011.809.313 4.003 4.003 0 011.47.927c.422.413.75.933.985 1.56.234.622.351 1.351.351 2.186v.748h-8.29V101.1h5.727c0-.392-.085-.739-.255-1.042a1.835 1.835 0 00-.71-.71 2.024 2.024 0 00-1.042-.261 2.1 2.1 0 00-1.099.287 2.013 2.013 0 00-.742.761c-.179.315-.27.667-.275 1.055v1.604c0 .486.09.906.269 1.259.183.354.441.627.773.818.333.192.727.288 1.183.288.302 0 .579-.043.831-.128.251-.085.466-.213.645-.383.179-.171.316-.38.409-.627l2.519.167a3.444 3.444 0 01-.786 1.585c-.392.447-.9.797-1.522 1.048-.618.247-1.331.371-2.141.371zm14.452-7.21l-2.492.153a1.3 1.3 0 00-.275-.575 1.46 1.46 0 00-.556-.416 1.89 1.89 0 00-.812-.16c-.422 0-.778.09-1.068.269-.289.175-.434.409-.434.703 0 .234.093.432.281.594.187.162.509.292.965.39l1.777.358c.955.196 1.666.512 2.135.946.469.435.703 1.006.703 1.713a2.67 2.67 0 01-.569 1.694c-.375.486-.89.865-1.547 1.138-.652.269-1.404.403-2.256.403-1.3 0-2.335-.271-3.107-.812-.767-.545-1.216-1.287-1.348-2.224l2.678-.141c.081.396.277.699.588.908.311.204.71.306 1.195.306.478 0 .861-.091 1.151-.274.294-.188.443-.429.447-.723a.75.75 0 00-.313-.607c-.204-.162-.52-.286-.946-.371l-1.7-.339c-.959-.191-1.673-.524-2.141-.997-.465-.473-.697-1.076-.697-1.809 0-.63.17-1.174.511-1.63.345-.456.829-.807 1.451-1.054.627-.247 1.36-.371 2.199-.371 1.24 0 2.216.262 2.928.786.715.524 1.133 1.238 1.252 2.141z" fill="#475569"/><defs><filter id="filter0_d_6115_29376" x="81" y="56" width="474" height="294" filterUnits="userSpaceOnUse" color-interpolation-filters="sRGB"><feFlood flood-opacity="0" result="BackgroundImageFix"/><feColorMatrix in="SourceAlpha" values="0 0 0 0 0 0 0 0 0 0 0 0 0 0 0 0 0 0 127 0" result="hardAlpha"/><feOffset dy="3"/><feGaussianBlur stdDeviation="3"/><feColorMatrix values="0 0 0 0 0.0117647 0 0 0 0 0 0 0 0 0 0.278431 0 0 0 0.1 0"/><feBlend in2="BackgroundImageFix" result="effect1_dropShadow_6115_29376"/><feBlend in="SourceGraphic" in2="effect1_dropShadow_6115_29376" result="shape"/></filter></defs></svg>