<svg width="636" height="400" fill="none" xmlns="http://www.w3.org/2000/svg"><path fill="#E2E8F0" d="M0 0h636v400H0z"/><g filter="url(#filter0_d_6113_30003)"><rect x="87" y="60" width="462" height="280" rx="12" fill="#fff"/></g><path d="M256 141h124.306" stroke="#CBD5E1" stroke-width="4" stroke-linecap="round"/><path d="M278 93h80" stroke="#94A3B8" stroke-width="3" stroke-linecap="round"/><path d="M267 149h101.959" stroke="#E2E8F0" stroke-width="4" stroke-linecap="round"/><rect x="290" y="266" width="56" height="16" rx="4" fill="#754FFE"/><path d="M218.326 109.909V123h-2.767v-13.091h2.767zm4.949 7.415V123h-2.723v-9.818h2.596v1.732h.115a2.732 2.732 0 011.093-1.355c.511-.337 1.131-.505 1.86-.505.682 0 1.276.149 1.783.447.507.299.901.725 1.183 1.279.281.55.422 1.206.422 1.969V123h-2.723v-5.766c.004-.6-.15-1.069-.461-1.406-.311-.341-.739-.511-1.284-.511a1.96 1.96 0 00-.972.236 1.651 1.651 0 00-.652.691c-.153.298-.232.658-.237 1.08zm13.697-4.142v2.045h-5.913v-2.045h5.913zm-4.57-2.352h2.723v9.153c0 .251.038.447.115.588a.637.637 0 00.319.288c.141.055.303.083.486.083.128 0 .256-.011.384-.032l.294-.058.428 2.027a8.266 8.266 0 01-.575.147 4.69 4.69 0 01-.902.108c-.656.026-1.231-.062-1.725-.262a2.41 2.41 0 01-1.145-.933c-.272-.422-.407-.955-.402-1.598v-9.511zm10.713 12.362c-1.01 0-1.879-.205-2.608-.614a4.198 4.198 0 01-1.675-1.751c-.392-.759-.588-1.656-.588-2.691 0-1.01.196-1.897.588-2.659a4.345 4.345 0 011.656-1.784c.716-.426 1.555-.639 2.518-.639.648 0 1.251.104 1.809.313a4.014 4.014 0 011.47.927c.422.413.75.933.985 1.56.234.622.351 1.351.351 2.186v.748h-8.29V117.1h5.727c0-.392-.085-.739-.256-1.042a1.83 1.83 0 00-.709-.709 2.024 2.024 0 00-1.042-.262c-.413 0-.78.096-1.1.287a2.02 2.02 0 00-.741.761 2.145 2.145 0 00-.275 1.055v1.604c0 .486.09.906.269 1.259.183.354.441.627.773.818.332.192.727.288 1.183.288.302 0 .579-.043.831-.128.251-.085.466-.213.645-.383.179-.171.315-.38.409-.627l2.519.167a3.436 3.436 0 01-.787 1.585c-.392.447-.899.797-1.521 1.048-.618.247-1.332.371-2.141.371zm10.706 3.694c-.882 0-1.638-.121-2.269-.364-.626-.239-1.125-.565-1.495-.978a3.008 3.008 0 01-.723-1.393l2.519-.339c.076.196.198.379.364.55.166.17.386.306.658.409.277.106.614.159 1.01.159.593 0 1.081-.144 1.464-.434.388-.286.582-.765.582-1.438v-1.797h-.115c-.12.273-.299.531-.537.774a2.703 2.703 0 01-.921.594c-.375.154-.822.23-1.342.23-.737 0-1.408-.17-2.013-.511-.601-.345-1.081-.871-1.439-1.579-.353-.711-.53-1.611-.53-2.697 0-1.112.181-2.041.543-2.787.362-.746.844-1.304 1.445-1.675a3.731 3.731 0 011.988-.556c.549 0 1.01.094 1.38.281.371.183.669.414.895.691.23.272.407.541.531.805h.102v-1.649h2.704v9.914c0 .835-.205 1.534-.614 2.096-.409.563-.976.985-1.7 1.266-.72.286-1.549.428-2.487.428zm.058-6.072c.439 0 .81-.109 1.112-.326.307-.222.541-.537.703-.946.167-.413.25-.908.25-1.483 0-.575-.081-1.074-.243-1.496-.162-.426-.397-.756-.703-.991-.307-.234-.68-.351-1.119-.351-.447 0-.825.121-1.131.364-.307.239-.539.571-.697.997-.158.427-.237.919-.237 1.477 0 .567.079 1.057.237 1.47.162.409.394.727.697.953.306.221.684.332 1.131.332zm6.91 2.186v-9.818h2.64v1.713h.102c.179-.609.479-1.07.901-1.381a2.373 2.373 0 011.458-.473 4.147 4.147 0 01.856.096v2.416a3.65 3.65 0 00-.53-.102 4.747 4.747 0 00-.62-.045c-.401 0-.759.088-1.074.262a1.94 1.94 0 00-.742.716 2.068 2.068 0 00-.268 1.061V123h-2.723zm9.883.185c-.626 0-1.184-.108-1.674-.326a2.693 2.693 0 01-1.164-.978c-.281-.434-.421-.975-.421-1.623 0-.546.1-1.004.3-1.374.2-.371.473-.67.818-.895a3.96 3.96 0 011.176-.512 8.986 8.986 0 011.394-.243 34.187 34.187 0 001.38-.166c.35-.055.603-.136.761-.243a.533.533 0 00.237-.473v-.038c0-.405-.128-.718-.384-.94-.251-.221-.609-.332-1.074-.332-.49 0-.88.109-1.17.326a1.503 1.503 0 00-.575.805l-2.518-.204a3.423 3.423 0 01.754-1.547 3.618 3.618 0 011.451-1.01c.597-.239 1.287-.358 2.071-.358.545 0 1.067.064 1.566.192a4.11 4.11 0 011.336.594c.392.269.701.614.927 1.036.226.417.339.918.339 1.502V123h-2.583v-1.362h-.076a2.774 2.774 0 01-.633.812c-.264.23-.582.412-.953.544-.37.127-.799.191-1.285.191zm.78-1.879c.401 0 .755-.079 1.061-.236.307-.162.548-.38.723-.652.174-.273.262-.582.262-.927v-1.042a1.484 1.484 0 01-.352.153 6.558 6.558 0 01-.492.122c-.183.034-.366.066-.55.096l-.498.07c-.32.047-.599.121-.838.224-.238.102-.424.24-.556.415a1.015 1.015 0 00-.198.639c0 .371.134.654.403.85.273.192.618.288 1.035.288zm12.084-8.124v2.045h-5.912v-2.045h5.912zm-4.57-2.352h2.723v9.153c0 .251.039.447.115.588a.639.639 0 00.32.288c.14.055.302.083.486.083.127 0 .255-.011.383-.032l.294-.058.428 2.027a8.266 8.266 0 01-.575.147 4.678 4.678 0 01-.901.108c-.656.026-1.232-.062-1.726-.262-.49-.2-.871-.511-1.144-.933-.273-.422-.407-.955-.403-1.598v-9.511zm10.713 12.362c-1.01 0-1.879-.205-2.608-.614a4.202 4.202 0 01-1.674-1.751c-.392-.759-.588-1.656-.588-2.691 0-1.01.196-1.897.588-2.659a4.343 4.343 0 011.655-1.784c.716-.426 1.556-.639 2.519-.639.647 0 1.25.104 1.809.313a4.03 4.03 0 011.47.927c.422.413.75.933.984 1.56.234.622.352 1.351.352 2.186v.748h-8.291V117.1h5.727c0-.392-.085-.739-.255-1.042a1.833 1.833 0 00-.71-.709 2.019 2.019 0 00-1.042-.262 2.1 2.1 0 00-1.099.287 2.022 2.022 0 00-.742.761c-.179.315-.27.667-.274 1.055v1.604c0 .486.089.906.268 1.259.183.354.441.627.773.818.333.192.727.288 1.183.288.303 0 .58-.043.831-.128s.467-.213.646-.383c.179-.171.315-.38.409-.627l2.518.167a3.444 3.444 0 01-.786 1.585c-.392.447-.899.797-1.521 1.048-.618.247-1.332.371-2.142.371zm12.386-.192l-2.671-9.818h2.755l1.521 6.596h.089l1.586-6.596h2.703l1.611 6.558h.083l1.496-6.558h2.749L311.321 123h-2.883l-1.687-6.175h-.122L304.942 123h-2.877zm13.374 0v-9.818h2.723V123h-2.723zm1.368-11.084c-.405 0-.752-.134-1.042-.403a1.304 1.304 0 01-.428-.977c0-.375.143-.697.428-.966a1.47 1.47 0 011.042-.409c.405 0 .75.137 1.036.409.289.269.434.591.434.966 0 .379-.145.705-.434.977a1.457 1.457 0 01-1.036.403zm8.759 1.266v2.045h-5.913v-2.045h5.913zm-4.571-2.352h2.723v9.153c0 .251.039.447.116.588a.637.637 0 00.319.288c.141.055.303.083.486.083.128 0 .256-.011.383-.032l.294-.058.429 2.027a8.321 8.321 0 01-.576.147 4.678 4.678 0 01-.901.108c-.656.026-1.231-.062-1.726-.262-.49-.2-.871-.511-1.144-.933-.273-.422-.407-.955-.403-1.598v-9.511zm9.279 6.494V123h-2.723v-13.091h2.646v5.005h.115a2.773 2.773 0 011.074-1.361c.494-.333 1.114-.499 1.86-.499.682 0 1.276.149 1.783.447.512.294.908.718 1.189 1.272.286.55.426 1.209.422 1.976V123h-2.723v-5.766c.004-.605-.149-1.076-.46-1.412-.307-.337-.737-.505-1.291-.505-.371 0-.699.079-.985.236a1.68 1.68 0 00-.665.691c-.157.298-.238.658-.242 1.08zm17.897-4.142v2.045h-5.912v-2.045h5.912zm-4.57-2.352h2.723v9.153c0 .251.038.447.115.588a.639.639 0 00.32.288c.14.055.302.083.485.083.128 0 .256-.011.384-.032l.294-.058.428 2.027a8.266 8.266 0 01-.575.147 4.688 4.688 0 01-.901.108c-.657.026-1.232-.062-1.726-.262-.49-.2-.872-.511-1.144-.933-.273-.422-.407-.955-.403-1.598v-9.511zm9.278 6.494V123h-2.723v-13.091h2.646v5.005h.115a2.784 2.784 0 011.074-1.361c.495-.333 1.115-.499 1.86-.499.682 0 1.277.149 1.784.447.511.294.907.718 1.189 1.272.285.55.426 1.209.421 1.976V123h-2.723v-5.766c.005-.605-.149-1.076-.46-1.412-.307-.337-.737-.505-1.291-.505-.371 0-.699.079-.984.236a1.674 1.674 0 00-.665.691c-.158.298-.239.658-.243 1.08zm12.984 5.868c-1.01 0-1.879-.205-2.608-.614a4.198 4.198 0 01-1.675-1.751c-.392-.759-.588-1.656-.588-2.691 0-1.01.196-1.897.588-2.659a4.345 4.345 0 011.656-1.784c.716-.426 1.555-.639 2.518-.639.648 0 1.251.104 1.809.313a4.014 4.014 0 011.47.927c.422.413.75.933.985 1.56.234.622.351 1.351.351 2.186v.748h-8.29V117.1h5.727c0-.392-.085-.739-.256-1.042a1.83 1.83 0 00-.709-.709 2.021 2.021 0 00-1.042-.262c-.413 0-.78.096-1.1.287a2.02 2.02 0 00-.741.761 2.145 2.145 0 00-.275 1.055v1.604c0 .486.09.906.269 1.259.183.354.441.627.773.818.332.192.727.288 1.183.288.302 0 .579-.043.831-.128.251-.085.466-.213.645-.383.179-.171.315-.38.409-.627l2.519.167a3.436 3.436 0 01-.787 1.585c-.392.447-.899.797-1.521 1.048-.618.247-1.332.371-2.141.371zM378.62 123h-2.966l4.519-13.091h3.567L388.253 123h-2.966l-3.279-10.099h-.103L378.62 123zm-.186-5.146h7.006v2.161h-7.006v-2.161zm11.343 8.828v-13.5h2.685v1.649h.121c.12-.264.292-.533.518-.805.23-.277.528-.508.895-.691.371-.187.831-.281 1.381-.281a3.69 3.69 0 011.981.562c.605.371 1.089.932 1.451 1.682.362.745.543 1.681.543 2.806 0 1.095-.176 2.02-.53 2.774-.35.75-.827 1.319-1.432 1.707a3.68 3.68 0 01-2.02.575c-.528 0-.978-.088-1.349-.262a2.783 2.783 0 01-.901-.659 3.369 3.369 0 01-.537-.811h-.083v5.254h-2.723zm2.666-8.591c0 .584.081 1.093.242 1.528.162.434.397.773.704 1.016.306.239.679.358 1.118.358.443 0 .818-.122 1.125-.364.307-.248.539-.589.697-1.023.162-.439.243-.944.243-1.515 0-.567-.079-1.065-.237-1.496-.157-.43-.39-.767-.696-1.01-.307-.243-.684-.364-1.132-.364-.443 0-.818.117-1.125.351-.302.235-.535.567-.697.998-.161.43-.242.937-.242 1.521zm8.725 8.591v-13.5h2.684v1.649h.122c.119-.264.292-.533.518-.805.23-.277.528-.508.894-.691.371-.187.831-.281 1.381-.281.716 0 1.377.187 1.982.562.605.371 1.088.932 1.451 1.682.362.745.543 1.681.543 2.806 0 1.095-.177 2.02-.531 2.774-.349.75-.826 1.319-1.431 1.707a3.682 3.682 0 01-2.02.575c-.529 0-.978-.088-1.349-.262a2.783 2.783 0 01-.901-.659 3.31 3.31 0 01-.537-.811h-.083v5.254h-2.723zm2.665-8.591c0 .584.081 1.093.243 1.528.162.434.396.773.703 1.016.307.239.68.358 1.119.358.443 0 .818-.122 1.125-.364.307-.248.539-.589.697-1.023.161-.439.242-.944.242-1.515 0-.567-.078-1.065-.236-1.496-.158-.43-.39-.767-.697-1.01-.307-.243-.684-.364-1.131-.364-.443 0-.818.117-1.125.351-.303.235-.535.567-.697.998-.162.43-.243.937-.243 1.521zm16.894-2.109l-2.493.153a1.284 1.284 0 00-.274-.575 1.454 1.454 0 00-.557-.416 1.892 1.892 0 00-.811-.16c-.422 0-.778.09-1.068.269-.29.175-.434.409-.434.703 0 .234.093.432.281.594.187.162.509.292.965.39l1.777.358c.955.196 1.666.512 2.135.946.469.435.703 1.006.703 1.713 0 .644-.19 1.208-.569 1.694-.375.486-.89.865-1.547 1.138-.652.269-1.404.403-2.256.403-1.3 0-2.335-.271-3.107-.812-.767-.545-1.216-1.287-1.348-2.224l2.678-.141c.081.396.277.699.588.908.311.204.71.306 1.195.306.478 0 .861-.091 1.151-.274.294-.188.443-.429.447-.723a.75.75 0 00-.313-.607c-.204-.162-.52-.286-.946-.371l-1.7-.339c-.959-.191-1.673-.524-2.142-.997-.464-.473-.696-1.076-.696-1.809 0-.63.17-1.174.511-1.63.345-.456.829-.807 1.451-1.054.627-.247 1.359-.371 2.199-.371 1.24 0 2.216.262 2.928.786.715.524 1.133 1.238 1.252 2.142z" fill="#475569"/><rect x="143" y="180" width="48" height="56" rx="4" fill="#E2E8F0"/><rect x="204" y="180" width="48" height="56" rx="4" fill="#E2E8F0"/><rect x="265" y="180" width="48" height="56" rx="4" fill="#E2E8F0"/><rect x="326" y="180" width="48" height="56" rx="4" fill="#E2E8F0"/><rect x="387" y="180" width="48" height="56" rx="4" fill="#E2E8F0"/><rect x="448" y="180" width="48" height="56" rx="4" fill="#E2E8F0"/><defs><filter id="filter0_d_6113_30003" x="84" y="58" width="468" height="286" filterUnits="userSpaceOnUse" color-interpolation-filters="sRGB"><feFlood flood-opacity="0" result="BackgroundImageFix"/><feColorMatrix in="SourceAlpha" values="0 0 0 0 0 0 0 0 0 0 0 0 0 0 0 0 0 0 127 0" result="hardAlpha"/><feOffset dy="1"/><feGaussianBlur stdDeviation="1.5"/><feColorMatrix values="0 0 0 0 0.0117647 0 0 0 0 0 0 0 0 0 0.278431 0 0 0 0.13 0"/><feBlend in2="BackgroundImageFix" result="effect1_dropShadow_6113_30003"/><feBlend in="SourceGraphic" in2="effect1_dropShadow_6113_30003" result="shape"/></filter></defs></svg>