<svg width="636" height="400" fill="none" xmlns="http://www.w3.org/2000/svg"><g clip-path="url(#clip0_6114_29122)"><path fill="#E2E8F0" d="M0 0h636v400H0z"/><g filter="url(#filter0_d_6114_29122)"><path d="M87 67a8 8 0 018-8h446a8 8 0 018 8v343H87V67z" fill="#fff"/></g><rect x="386" y="188" width="104" height="153" rx="8" fill="#F1F5F9"/><path d="M212.667 93.674c-.051-.516-.271-.916-.658-1.202-.388-.285-.914-.428-1.579-.428-.452 0-.833.064-1.144.192-.311.123-.55.296-.716.518a1.246 1.246 0 00-.243.754c-.009.234.04.439.147.613.111.175.262.326.454.454.191.124.413.233.665.326.251.09.519.166.805.23l1.176.282a8.287 8.287 0 011.572.511 4.78 4.78 0 011.241.786c.349.311.62.678.811 1.1.196.421.296.905.301 1.45-.005.802-.209 1.496-.614 2.084-.4.584-.98 1.038-1.739 1.362-.754.32-1.664.479-2.729.479-1.057 0-1.977-.162-2.761-.485-.78-.324-1.389-.804-1.828-1.439-.435-.639-.663-1.43-.684-2.371h2.678c.03.439.155.805.377 1.1.226.289.526.509.901.658.38.145.808.217 1.285.217.469 0 .876-.068 1.221-.204.349-.137.62-.326.812-.569.192-.243.287-.522.287-.838 0-.294-.087-.54-.262-.741-.17-.2-.422-.371-.754-.512a7.68 7.68 0 00-1.208-.383l-1.425-.358c-1.104-.269-1.976-.688-2.615-1.26-.639-.57-.956-1.34-.952-2.307-.004-.792.206-1.485.633-2.077.43-.593 1.02-1.055 1.77-1.387.75-.333 1.602-.499 2.557-.499.972 0 1.82.166 2.544.499.729.332 1.296.794 1.7 1.387.405.592.614 1.278.627 2.058h-2.653zm4.642 9.326v-9.818h2.723V103h-2.723zm1.368-11.084a1.48 1.48 0 01-1.042-.403 1.307 1.307 0 01-.428-.978c0-.374.143-.696.428-.965.29-.272.637-.409 1.042-.409s.75.137 1.036.41c.289.268.434.59.434.965 0 .379-.145.705-.434.977a1.459 1.459 0 01-1.036.403zM222.214 103v-9.818h2.595v1.732h.115a2.716 2.716 0 011.023-1.361c.477-.333 1.048-.499 1.713-.499.673 0 1.246.168 1.719.505.473.332.788.784.946 1.355h.102a2.617 2.617 0 011.087-1.349c.528-.34 1.153-.511 1.873-.511.916 0 1.66.292 2.231.876.575.58.863 1.402.863 2.467V103h-2.717v-6.066c0-.546-.145-.955-.435-1.227-.289-.273-.652-.41-1.086-.41-.495 0-.88.158-1.157.474-.277.31-.416.722-.416 1.233V103h-2.64v-6.124c0-.481-.138-.865-.415-1.15-.273-.286-.633-.428-1.08-.428-.303 0-.576.076-.819.23a1.58 1.58 0 00-.568.632 2.007 2.007 0 00-.211.947V103h-2.723zm16.418 3.682v-13.5h2.684v1.649h.122c.119-.264.292-.533.517-.805a2.74 2.74 0 01.895-.69c.371-.188.831-.282 1.381-.282.716 0 1.376.188 1.982.563.605.37 1.088.93 1.451 1.68.362.746.543 1.682.543 2.807 0 1.095-.177 2.02-.531 2.774-.349.75-.826 1.319-1.432 1.707-.6.383-1.274.575-2.019.575-.529 0-.978-.088-1.349-.262a2.773 2.773 0 01-.901-.659 3.31 3.31 0 01-.537-.811h-.083v5.254h-2.723zm2.665-8.591c0 .584.081 1.093.243 1.528.162.434.396.773.703 1.016.307.239.68.358 1.119.358.443 0 .818-.122 1.125-.364.307-.248.539-.589.696-1.023.162-.44.243-.944.243-1.515 0-.567-.079-1.065-.236-1.496-.158-.43-.39-.767-.697-1.01-.307-.243-.684-.364-1.131-.364-.443 0-.818.117-1.125.351-.303.235-.535.567-.697.998-.162.43-.243.937-.243 1.52zm11.448-8.182V103h-2.723V89.91h2.723zm6.656 13.283c-1.01 0-1.879-.205-2.608-.614a4.204 4.204 0 01-1.675-1.751c-.392-.759-.588-1.656-.588-2.691 0-1.01.196-1.897.588-2.66a4.345 4.345 0 011.656-1.783c.716-.426 1.555-.639 2.518-.639a5.12 5.12 0 011.809.313 4.003 4.003 0 011.47.927c.422.413.75.933.985 1.56.234.622.351 1.35.351 2.186v.748h-8.29V97.1h5.727c0-.392-.085-.74-.256-1.042a1.831 1.831 0 00-.709-.71 2.024 2.024 0 00-1.042-.261 2.1 2.1 0 00-1.099.287 2.013 2.013 0 00-.742.76 2.145 2.145 0 00-.275 1.056v1.604c0 .486.09.906.269 1.259.183.354.441.627.773.818.333.192.727.288 1.183.288.302 0 .579-.043.831-.128.251-.085.466-.213.645-.383.179-.171.316-.38.409-.627l2.519.167a3.444 3.444 0 01-.786 1.585c-.392.447-.9.797-1.522 1.048-.618.247-1.331.371-2.141.371zm10.449 3.49v-13.5h2.685v1.649h.121c.12-.264.292-.533.518-.805a2.73 2.73 0 01.895-.69c.371-.188.831-.282 1.381-.282.716 0 1.376.188 1.981.563.605.37 1.089.93 1.451 1.68.362.746.544 1.682.544 2.807 0 1.095-.177 2.02-.531 2.774-.349.75-.827 1.319-1.432 1.707a3.68 3.68 0 01-2.02.575c-.528 0-.978-.088-1.348-.262a2.788 2.788 0 01-.902-.659 3.369 3.369 0 01-.537-.811h-.083v5.254h-2.723zm2.666-8.591c0 .584.081 1.093.243 1.528.162.434.396.773.703 1.016.307.239.68.358 1.118.358.444 0 .819-.122 1.125-.364.307-.248.539-.589.697-1.023.162-.44.243-.944.243-1.515 0-.567-.079-1.065-.236-1.496-.158-.43-.39-.767-.697-1.01-.307-.243-.684-.364-1.132-.364-.443 0-.818.117-1.125.351-.302.235-.534.567-.696.998-.162.43-.243.937-.243 1.52zm8.725 4.909v-9.818h2.64v1.713h.102c.179-.61.48-1.07.901-1.38a2.37 2.37 0 011.458-.474 4.114 4.114 0 01.856.096v2.416a3.538 3.538 0 00-.53-.102 4.78 4.78 0 00-.62-.045c-.401 0-.759.088-1.074.262a1.94 1.94 0 00-.742.716c-.179.307-.268.66-.268 1.061V103h-2.723zm7.365 0v-9.818h2.723V103h-2.723zm1.368-11.084a1.48 1.48 0 01-1.042-.403 1.307 1.307 0 01-.428-.978c0-.374.143-.696.428-.965.29-.272.637-.409 1.042-.409s.75.137 1.036.41c.289.268.434.59.434.965 0 .379-.145.705-.434.977a1.459 1.459 0 01-1.036.403zm7.973 11.276c-1.006 0-1.871-.213-2.596-.639a4.327 4.327 0 01-1.662-1.79c-.383-.763-.575-1.64-.575-2.634 0-1.005.194-1.888.582-2.646a4.32 4.32 0 011.668-1.783c.72-.43 1.577-.646 2.57-.646.856 0 1.606.156 2.25.467a3.762 3.762 0 011.527 1.31c.375.563.582 1.223.62 1.981h-2.569c-.073-.49-.264-.884-.575-1.182-.307-.303-.71-.454-1.208-.454-.422 0-.791.115-1.106.345-.311.226-.554.556-.729.991-.175.435-.262.961-.262 1.579 0 .626.085 1.159.256 1.598.174.439.419.773.735 1.003a1.82 1.82 0 001.106.346c.311 0 .59-.064.837-.192.251-.128.458-.313.62-.556a2.13 2.13 0 00.326-.889h2.569c-.042.75-.247 1.411-.613 1.982a3.699 3.699 0 01-1.502 1.329c-.639.32-1.396.48-2.269.48zm6.128-.192v-9.818h2.723V103h-2.723zm1.368-11.084a1.48 1.48 0 01-1.042-.403 1.304 1.304 0 01-.428-.978c0-.374.142-.696.428-.965.29-.272.637-.409 1.042-.409s.75.137 1.035.41c.29.268.435.59.435.965 0 .379-.145.705-.435.977-.285.269-.63.403-1.035.403zm6.259 5.408V103h-2.723v-9.818h2.595v1.732h.115a2.744 2.744 0 011.093-1.355c.512-.337 1.132-.505 1.861-.505.681 0 1.276.15 1.783.447a3.04 3.04 0 011.182 1.279c.282.55.422 1.206.422 1.969V103h-2.723v-5.766c.005-.6-.149-1.07-.46-1.406-.311-.34-.739-.511-1.285-.511-.366 0-.69.079-.971.236a1.644 1.644 0 00-.652.69c-.154.299-.233.659-.237 1.08zm12.898 9.562c-.882 0-1.639-.121-2.269-.364-.627-.239-1.125-.565-1.496-.978a2.996 2.996 0 01-.722-1.393l2.518-.339c.077.196.198.379.364.55.167.17.386.306.659.409.277.106.613.159 1.01.159.592 0 1.08-.144 1.463-.434.388-.286.582-.765.582-1.438v-1.797h-.115a2.575 2.575 0 01-.537.774 2.69 2.69 0 01-.92.594c-.375.154-.823.23-1.343.23-.737 0-1.408-.17-2.013-.511-.601-.345-1.08-.871-1.438-1.579-.354-.711-.531-1.61-.531-2.697 0-1.112.181-2.041.543-2.787.363-.746.844-1.304 1.445-1.675a3.733 3.733 0 011.988-.556c.55 0 1.01.094 1.381.281.37.184.669.414.895.69.23.273.407.542.53.806h.102v-1.65h2.704v9.915c0 .835-.204 1.534-.613 2.096-.41.563-.976.985-1.701 1.266-.72.286-1.549.428-2.486.428zm.057-6.072c.439 0 .81-.109 1.113-.326.306-.222.541-.537.703-.946.166-.413.249-.908.249-1.483 0-.575-.081-1.074-.243-1.496-.162-.426-.396-.756-.703-.99-.307-.235-.68-.352-1.119-.352-.447 0-.824.121-1.131.364-.307.239-.539.571-.697.997-.157.427-.236.919-.236 1.477 0 .567.079 1.057.236 1.47.162.41.394.727.697.953.307.221.684.332 1.131.332zm16.298-7.632v2.045h-5.912v-2.045h5.912zm-4.57-2.353h2.723v9.154c0 .251.038.447.115.588a.639.639 0 00.32.288c.14.055.302.083.486.083.127 0 .255-.011.383-.032l.294-.058.428 2.027a8.266 8.266 0 01-.575.147 4.678 4.678 0 01-.901.108c-.656.026-1.232-.062-1.726-.262-.49-.2-.871-.511-1.144-.933-.273-.422-.407-.955-.403-1.598V90.83zm9.278 6.495V103h-2.723V89.91h2.646v5.004h.116a2.776 2.776 0 011.073-1.361c.495-.333 1.115-.499 1.86-.499.682 0 1.277.15 1.784.447a2.99 2.99 0 011.189 1.272c.285.55.426 1.209.422 1.976V103h-2.723v-5.766c.004-.605-.15-1.076-.461-1.412-.306-.337-.737-.505-1.291-.505-.371 0-.699.079-.984.236a1.679 1.679 0 00-.665.69c-.158.299-.239.659-.243 1.08zm11.309 5.861c-.626 0-1.184-.108-1.674-.326a2.693 2.693 0 01-1.164-.978c-.281-.434-.422-.975-.422-1.623 0-.546.101-1.004.301-1.374.2-.371.473-.67.818-.895a3.965 3.965 0 011.176-.512 8.95 8.95 0 011.394-.243c.571-.06 1.031-.115 1.38-.166.35-.055.603-.136.761-.243a.533.533 0 00.236-.473v-.038c0-.405-.127-.718-.383-.94-.252-.221-.609-.332-1.074-.332-.49 0-.88.109-1.17.326a1.505 1.505 0 00-.575.805l-2.518-.204a3.413 3.413 0 01.754-1.547 3.616 3.616 0 011.451-1.01c.596-.239 1.287-.358 2.071-.358.545 0 1.067.064 1.566.192a4.11 4.11 0 011.336.594c.392.269.701.614.927 1.036.225.417.338.918.338 1.502V103h-2.582v-1.362h-.077a2.754 2.754 0 01-.632.812 2.94 2.94 0 01-.953.544 3.962 3.962 0 01-1.285.191zm.78-1.879c.401 0 .754-.079 1.061-.236.307-.162.548-.38.723-.652.174-.273.262-.582.262-.927v-1.042a1.48 1.48 0 01-.352.153 6.431 6.431 0 01-.492.122 26.37 26.37 0 01-.55.096l-.498.07c-.32.047-.599.121-.838.224-.238.102-.424.24-.556.415-.132.17-.198.384-.198.639 0 .371.134.654.403.85.272.192.618.288 1.035.288zm12.084-8.124v2.045h-5.912v-2.045h5.912zm-4.57-2.353h2.723v9.154c0 .251.038.447.115.588a.639.639 0 00.32.288c.14.055.302.083.485.083.128 0 .256-.011.384-.032l.294-.058.428 2.027a8.266 8.266 0 01-.575.147 4.688 4.688 0 01-.901.108c-.657.026-1.232-.062-1.726-.262-.49-.2-.872-.511-1.144-.933-.273-.422-.407-.955-.403-1.598V90.83zm18.679 5.153l-2.493.153a1.278 1.278 0 00-.275-.575 1.453 1.453 0 00-.556-.416 1.888 1.888 0 00-.812-.16c-.421 0-.777.09-1.067.269-.29.175-.435.409-.435.703 0 .234.094.432.282.594.187.162.509.292.965.39l1.777.358c.954.196 1.666.512 2.135.946.468.435.703 1.006.703 1.713 0 .644-.19 1.208-.569 1.694-.375.486-.891.865-1.547 1.138-.652.269-1.404.403-2.256.403-1.3 0-2.336-.271-3.107-.812-.767-.545-1.216-1.287-1.349-2.224l2.679-.141c.081.396.277.699.588.908.311.204.709.306 1.195.306.477 0 .861-.091 1.151-.274.294-.188.443-.429.447-.723a.752.752 0 00-.313-.607c-.205-.162-.52-.285-.946-.37l-1.7-.34c-.959-.191-1.673-.524-2.142-.997-.464-.473-.696-1.076-.696-1.809 0-.63.17-1.174.511-1.63.345-.456.829-.807 1.451-1.054.626-.247 1.359-.371 2.199-.371 1.24 0 2.216.262 2.927.786.716.524 1.134 1.238 1.253 2.141zm6.375 7.21c-1.006 0-1.871-.213-2.596-.639a4.327 4.327 0 01-1.662-1.79c-.383-.763-.575-1.64-.575-2.634 0-1.005.194-1.888.582-2.646a4.32 4.32 0 011.668-1.783c.72-.43 1.577-.646 2.57-.646.856 0 1.606.156 2.25.467a3.765 3.765 0 011.528 1.31c.375.563.581 1.223.62 1.981h-2.57c-.072-.49-.264-.884-.575-1.182-.307-.303-.71-.454-1.208-.454-.422 0-.791.115-1.106.345-.311.226-.554.556-.729.991-.175.435-.262.961-.262 1.579 0 .626.085 1.159.256 1.598.174.439.419.773.735 1.003a1.82 1.82 0 001.106.346c.311 0 .59-.064.837-.192.251-.128.458-.313.62-.556a2.13 2.13 0 00.326-.889h2.57c-.043.75-.248 1.411-.614 1.982a3.699 3.699 0 01-1.502 1.329c-.639.32-1.396.48-2.269.48zm8.928-.007c-.627 0-1.185-.108-1.675-.326a2.685 2.685 0 01-1.163-.978c-.282-.434-.422-.975-.422-1.623 0-.546.1-1.004.3-1.374.2-.371.473-.67.818-.895a3.987 3.987 0 011.176-.512 8.97 8.97 0 011.394-.243 36.46 36.46 0 001.381-.166c.349-.055.603-.136.76-.243a.534.534 0 00.237-.473v-.038c0-.405-.128-.718-.384-.94-.251-.221-.609-.332-1.074-.332-.49 0-.88.109-1.169.326a1.5 1.5 0 00-.576.805l-2.518-.204a3.423 3.423 0 01.754-1.547 3.623 3.623 0 011.451-1.01c.597-.239 1.287-.358 2.071-.358.546 0 1.068.064 1.566.192a4.11 4.11 0 011.336.594c.392.269.701.614.927 1.036.226.417.339.918.339 1.502V103h-2.583v-1.362h-.076a2.774 2.774 0 01-.633.812c-.264.23-.582.412-.953.544-.37.127-.799.191-1.284.191zm.78-1.879a2.3 2.3 0 001.061-.236c.306-.162.547-.38.722-.652a1.68 1.68 0 00.262-.927v-1.042a1.445 1.445 0 01-.352.153 6.316 6.316 0 01-.492.122c-.183.034-.366.066-.549.096l-.499.07c-.32.047-.599.121-.837.224a1.34 1.34 0 00-.557.415c-.132.17-.198.384-.198.639 0 .371.135.654.403.85.273.192.618.288 1.036.288zm9.584-11.397V103h-2.723V89.91h2.723zm6.656 13.283c-1.01 0-1.879-.205-2.608-.614a4.204 4.204 0 01-1.675-1.751c-.392-.759-.588-1.656-.588-2.691 0-1.01.196-1.897.588-2.66a4.345 4.345 0 011.656-1.783c.716-.426 1.555-.639 2.518-.639a5.12 5.12 0 011.809.313 4.015 4.015 0 011.471.927c.421.413.75.933.984 1.56.234.622.352 1.35.352 2.186v.748h-8.291V97.1h5.727c0-.392-.085-.74-.255-1.042a1.834 1.834 0 00-.71-.71 2.024 2.024 0 00-1.042-.261 2.1 2.1 0 00-1.099.287 2.013 2.013 0 00-.742.76c-.179.316-.27.668-.275 1.056v1.604c0 .486.09.906.269 1.259.183.354.441.627.773.818.333.192.727.288 1.183.288.302 0 .579-.043.831-.128.251-.085.466-.213.645-.383a1.68 1.68 0 00.41-.627l2.518.167a3.444 3.444 0 01-.786 1.585c-.392.447-.899.797-1.522 1.048-.617.247-1.331.371-2.141.371zm14.453-7.21l-2.493.153a1.3 1.3 0 00-.275-.575 1.46 1.46 0 00-.556-.416 1.89 1.89 0 00-.812-.16c-.422 0-.778.09-1.068.269-.289.175-.434.409-.434.703 0 .234.093.432.281.594.187.162.509.292.965.39l1.777.358c.955.196 1.666.512 2.135.946.469.435.703 1.006.703 1.713a2.67 2.67 0 01-.569 1.694c-.375.486-.89.865-1.547 1.138-.652.269-1.404.403-2.256.403-1.3 0-2.335-.271-3.106-.812-.767-.545-1.217-1.287-1.349-2.224l2.678-.141c.081.396.277.699.588.908.311.204.71.306 1.195.306.478 0 .861-.091 1.151-.274.294-.188.443-.429.447-.723a.75.75 0 00-.313-.607c-.204-.162-.52-.285-.946-.37l-1.7-.34c-.959-.191-1.673-.524-2.141-.997-.465-.473-.697-1.076-.697-1.809 0-.63.17-1.174.511-1.63.345-.456.829-.807 1.451-1.054.627-.247 1.36-.371 2.199-.371 1.24 0 2.216.262 2.928.786.716.524 1.133 1.238 1.253 2.141zM237.703 125l-2.672-9.818h2.755l1.522 6.596h.089l1.585-6.596h2.704l1.611 6.558h.083l1.496-6.558h2.748L246.959 125h-2.883l-1.688-6.175h-.121L240.58 125h-2.877zm13.374 0v-9.818h2.723V125h-2.723zm1.368-11.084c-.405 0-.752-.134-1.042-.403a1.3 1.3 0 01-.428-.977c0-.375.142-.697.428-.966a1.47 1.47 0 011.042-.409c.405 0 .75.137 1.035.409.29.269.435.591.435.966 0 .379-.145.705-.435.977-.285.269-.63.403-1.035.403zm8.758 1.266v2.045h-5.912v-2.045h5.912zm-4.57-2.352h2.723v9.153c0 .251.039.447.115.588a.639.639 0 00.32.288c.14.055.302.083.486.083.127 0 .255-.011.383-.032l.294-.058.428 2.027a8.266 8.266 0 01-.575.147 4.678 4.678 0 01-.901.108c-.656.026-1.232-.062-1.726-.262-.49-.2-.871-.511-1.144-.933-.273-.422-.407-.955-.403-1.598v-9.511zm9.278 6.494V125h-2.723v-13.091h2.647v5.005h.115a2.777 2.777 0 011.073-1.361c.495-.333 1.115-.499 1.861-.499.681 0 1.276.149 1.783.447.511.294.908.718 1.189 1.272.285.55.426 1.209.422 1.976V125h-2.723v-5.766c.004-.605-.149-1.076-.461-1.412-.306-.337-.737-.505-1.291-.505-.37 0-.699.079-.984.236a1.68 1.68 0 00-.665.691c-.158.298-.239.658-.243 1.08zm14.357 9.358a5.44 5.44 0 01-.972-.083 3.528 3.528 0 01-.741-.198l.613-2.033c.32.098.608.151.863.16.26.008.484-.051.671-.179.192-.128.348-.345.467-.652l.16-.416-3.522-10.099h2.863l2.033 7.21h.102l2.052-7.21h2.883l-3.816 10.879a4.577 4.577 0 01-.748 1.381 3.067 3.067 0 01-1.182.914c-.478.217-1.053.326-1.726.326zm12.985-3.49c-.993 0-1.851-.211-2.576-.633a4.333 4.333 0 01-1.668-1.777c-.392-.763-.588-1.647-.588-2.653 0-1.014.196-1.9.588-2.659a4.279 4.279 0 011.668-1.777c.725-.426 1.583-.639 2.576-.639.993 0 1.85.213 2.57.639a4.276 4.276 0 011.675 1.777c.392.759.588 1.645.588 2.659 0 1.006-.196 1.89-.588 2.653a4.33 4.33 0 01-1.675 1.777c-.72.422-1.577.633-2.57.633zm.013-2.11c.452 0 .829-.127 1.131-.383.303-.26.531-.614.684-1.061.158-.448.237-.957.237-1.528 0-.571-.079-1.08-.237-1.528-.153-.447-.381-.801-.684-1.061-.302-.26-.679-.39-1.131-.39-.456 0-.84.13-1.151.39-.306.26-.539.614-.696 1.061-.154.448-.23.957-.23 1.528 0 .571.076 1.08.23 1.528.157.447.39.801.696 1.061.311.256.695.383 1.151.383zm12.886-2.262v-5.638h2.723V125h-2.614v-1.783h-.102a2.903 2.903 0 01-1.106 1.387c-.511.349-1.136.524-1.873.524-.656 0-1.234-.149-1.732-.448a3.069 3.069 0 01-1.17-1.272c-.277-.549-.418-1.208-.422-1.975v-6.251h2.723v5.765c.004.58.16 1.038.467 1.375.307.336.718.505 1.233.505.329 0 .635-.075.921-.224.285-.153.516-.379.69-.678.179-.298.267-.666.262-1.105zm4.901 4.18v-9.818h2.64v1.713h.103c.179-.609.479-1.07.901-1.381a2.372 2.372 0 011.457-.473 4.117 4.117 0 01.857.096v2.416a3.64 3.64 0 00-.531-.102 4.735 4.735 0 00-.62-.045c-.4 0-.758.088-1.074.262a1.93 1.93 0 00-.741.716 2.069 2.069 0 00-.269 1.061V125h-2.723zm11.583 0v-13.091h2.723v4.922h.083c.119-.264.292-.533.518-.805.23-.277.528-.508.895-.691.37-.187.831-.281 1.38-.281.716 0 1.377.187 1.982.562.605.371 1.089.932 1.451 1.682.362.745.543 1.681.543 2.806 0 1.095-.177 2.02-.53 2.774-.35.75-.827 1.319-1.432 1.707a3.68 3.68 0 01-2.02.575c-.529 0-.978-.088-1.349-.262a2.783 2.783 0 01-.901-.659 3.34 3.34 0 01-.537-.811h-.122V125h-2.684zm2.665-4.909c0 .584.081 1.093.243 1.528.162.434.397.773.703 1.016.307.239.68.358 1.119.358.443 0 .818-.122 1.125-.364.307-.248.539-.589.697-1.023.162-.439.243-.944.243-1.515 0-.567-.079-1.065-.237-1.496-.158-.43-.39-.767-.697-1.01-.306-.243-.684-.364-1.131-.364-.443 0-.818.117-1.125.351-.303.235-.535.567-.697.998-.162.43-.243.937-.243 1.521zm15.023.729v-5.638h2.723V125h-2.614v-1.783h-.102a2.91 2.91 0 01-1.106 1.387c-.512.349-1.136.524-1.873.524-.656 0-1.234-.149-1.732-.448a3.069 3.069 0 01-1.17-1.272c-.277-.549-.418-1.208-.422-1.975v-6.251h2.723v5.765c.004.58.16 1.038.467 1.375.307.336.718.505 1.233.505.328 0 .635-.075.921-.224.285-.153.515-.379.69-.678.179-.298.266-.666.262-1.105zm13.07-2.838l-2.493.153a1.284 1.284 0 00-.274-.575 1.454 1.454 0 00-.557-.416 1.892 1.892 0 00-.811-.16c-.422 0-.778.09-1.068.269-.29.175-.434.409-.434.703 0 .234.093.432.281.594.187.162.509.292.965.39l1.777.358c.955.196 1.666.512 2.135.946.469.435.703 1.006.703 1.713 0 .644-.19 1.208-.569 1.694-.375.486-.89.865-1.547 1.138-.652.269-1.404.403-2.256.403-1.3 0-2.335-.271-3.107-.812-.767-.545-1.216-1.287-1.348-2.224l2.678-.141c.081.396.277.699.588.908.311.204.71.306 1.195.306.478 0 .861-.091 1.151-.274.294-.188.443-.429.447-.723a.75.75 0 00-.313-.607c-.204-.162-.52-.286-.946-.371l-1.7-.339c-.959-.191-1.673-.524-2.142-.997-.464-.473-.696-1.076-.696-1.809 0-.63.17-1.174.511-1.63.345-.456.829-.807 1.451-1.054.627-.247 1.359-.371 2.199-.371 1.24 0 2.216.262 2.928.786.715.524 1.133 1.238 1.252 2.142zm1.939 7.018v-9.818h2.723V125h-2.723zm1.368-11.084c-.405 0-.752-.134-1.042-.403a1.302 1.302 0 01-.429-.977c0-.375.143-.697.429-.966a1.47 1.47 0 011.042-.409c.404 0 .75.137 1.035.409.29.269.435.591.435.966 0 .379-.145.705-.435.977a1.454 1.454 0 01-1.035.403zm6.259 5.408V125h-2.723v-9.818h2.595v1.732h.115a2.743 2.743 0 011.093-1.355c.512-.337 1.132-.505 1.86-.505.682 0 1.277.149 1.784.447.507.299.901.725 1.182 1.279.282.55.422 1.206.422 1.969V125h-2.723v-5.766c.004-.6-.149-1.069-.46-1.406-.311-.341-.739-.511-1.285-.511-.366 0-.69.079-.971.236a1.645 1.645 0 00-.652.691c-.154.298-.233.658-.237 1.08zm12.949 5.868c-1.01 0-1.88-.205-2.608-.614a4.198 4.198 0 01-1.675-1.751c-.392-.759-.588-1.656-.588-2.691 0-1.01.196-1.897.588-2.659a4.345 4.345 0 011.656-1.784c.716-.426 1.555-.639 2.518-.639.648 0 1.251.104 1.809.313a4.014 4.014 0 011.47.927c.422.413.75.933.985 1.56.234.622.351 1.351.351 2.186v.748h-8.29V119.1h5.727c0-.392-.085-.739-.256-1.042a1.83 1.83 0 00-.709-.709 2.024 2.024 0 00-1.042-.262c-.414 0-.78.096-1.1.287a2.02 2.02 0 00-.741.761 2.145 2.145 0 00-.275 1.055v1.604c0 .486.09.906.269 1.259.183.354.441.627.773.818.332.192.727.288 1.182.288.303 0 .58-.043.831-.128.252-.085.467-.213.646-.383.179-.171.315-.38.409-.627l2.519.167a3.436 3.436 0 01-.787 1.585c-.392.447-.899.797-1.521 1.048-.618.247-1.332.371-2.141.371zm14.452-7.21l-2.493.153a1.276 1.276 0 00-.275-.575 1.45 1.45 0 00-.556-.416 1.897 1.897 0 00-.812-.16c-.421 0-.777.09-1.067.269-.29.175-.435.409-.435.703 0 .234.094.432.282.594.187.162.509.292.965.39l1.777.358c.954.196 1.666.512 2.135.946.468.435.703 1.006.703 1.713 0 .644-.19 1.208-.569 1.694-.375.486-.891.865-1.547 1.138-.652.269-1.404.403-2.256.403-1.3 0-2.336-.271-3.107-.812-.767-.545-1.216-1.287-1.349-2.224l2.679-.141c.081.396.277.699.588.908.311.204.709.306 1.195.306.477 0 .861-.091 1.151-.274.294-.188.443-.429.447-.723a.752.752 0 00-.313-.607c-.205-.162-.52-.286-.946-.371l-1.7-.339c-.959-.191-1.673-.524-2.142-.997-.464-.473-.696-1.076-.696-1.809 0-.63.17-1.174.511-1.63.345-.456.829-.807 1.451-1.054.626-.247 1.359-.371 2.199-.371 1.24 0 2.216.262 2.927.786.716.524 1.134 1.238 1.253 2.142zm10.108 0l-2.493.153a1.297 1.297 0 00-.275-.575 1.458 1.458 0 00-.556-.416 1.9 1.9 0 00-.812-.16c-.422 0-.778.09-1.068.269-.289.175-.434.409-.434.703 0 .234.094.432.281.594.188.162.509.292.965.39l1.777.358c.955.196 1.666.512 2.135.946.469.435.703 1.006.703 1.713a2.67 2.67 0 01-.569 1.694c-.375.486-.89.865-1.546 1.138-.652.269-1.405.403-2.257.403-1.3 0-2.335-.271-3.106-.812-.767-.545-1.217-1.287-1.349-2.224l2.678-.141c.081.396.277.699.588.908.311.204.71.306 1.196.306.477 0 .86-.091 1.15-.274.294-.188.443-.429.448-.723a.753.753 0 00-.314-.607c-.204-.162-.52-.286-.946-.371l-1.7-.339c-.959-.191-1.673-.524-2.141-.997-.465-.473-.697-1.076-.697-1.809 0-.63.17-1.174.511-1.63.345-.456.829-.807 1.451-1.054.627-.247 1.36-.371 2.199-.371 1.24 0 2.216.262 2.928.786.716.524 1.133 1.238 1.253 2.142z" fill="#475569"/><path d="M248 147h141" stroke="#CBD5E1" stroke-width="4" stroke-linecap="round"/><path d="M273 157h91" stroke="#E2E8F0" stroke-width="4" stroke-linecap="round"/><rect x="146" y="188" width="104" height="153" rx="8" fill="#F1F5F9"/><path d="M191.72 252.636v-16.363h1.048v16.363h-1.048zm2.524-10.802c-.042-.469-.232-.833-.568-1.093-.333-.264-.808-.397-1.426-.397-.409 0-.75.054-1.023.16-.272.107-.477.254-.613.441a1.06 1.06 0 00-.211.633.938.938 0 00.115.518c.089.149.217.281.383.396.171.111.375.209.614.294.239.085.507.16.805.224l1.125.256c.648.14 1.219.328 1.714.562.498.234.916.514 1.252.837.341.324.599.697.774 1.119.175.422.264.895.268 1.419-.004.827-.213 1.536-.626 2.129-.413.592-1.008 1.046-1.783 1.361-.772.316-1.703.473-2.794.473-1.095 0-2.05-.164-2.863-.492-.814-.328-1.447-.827-1.899-1.496-.452-.669-.684-1.515-.697-2.537h3.03c.026.421.139.773.339 1.054.2.282.475.495.825.64a3.23 3.23 0 001.227.217c.426 0 .788-.058 1.086-.173.303-.115.535-.275.697-.479.162-.205.245-.439.249-.703a.964.964 0 00-.23-.633c-.149-.179-.379-.332-.69-.46a7.123 7.123 0 00-1.176-.365l-1.368-.319c-1.134-.26-2.026-.68-2.678-1.259-.652-.584-.976-1.373-.972-2.366-.004-.809.213-1.519.652-2.128.439-.609 1.046-1.085 1.822-1.426.775-.34 1.66-.511 2.653-.511 1.014 0 1.894.173 2.639.518.75.341 1.332.82 1.746 1.438.413.618.624 1.334.632 2.148h-3.03zm10.196 9.486c-1.142 0-2.127-.271-2.953-.812-.827-.546-1.464-1.328-1.912-2.346-.447-1.023-.669-2.252-.664-3.688.004-1.436.228-2.655.671-3.657.447-1.005 1.082-1.77 1.905-2.294.826-.529 1.811-.793 2.953-.793s2.126.264 2.953.793c.831.524 1.47 1.289 1.918 2.294.447 1.006.669 2.225.664 3.657 0 1.44-.223 2.672-.671 3.694-.447 1.023-1.084 1.805-1.911 2.346-.823.537-1.807.806-2.953.806zm0-2.589c.682 0 1.233-.347 1.655-1.042.422-.699.631-1.771.627-3.215 0-.946-.096-1.726-.288-2.34-.192-.618-.458-1.078-.799-1.38a1.742 1.742 0 00-1.195-.454c-.678 0-1.225.343-1.643 1.029-.418.682-.628 1.73-.633 3.145-.004.959.088 1.753.275 2.384.192.631.46 1.102.805 1.413.346.306.744.46 1.196.46z" fill="#94A3B8"/><rect x="266" y="179" width="104" height="162" rx="8" fill="#F1F5F9"/><rect x="168" y="265" width="60" height="8" rx="2" fill="#E2E8F0"/><rect x="288" y="265" width="60" height="8" rx="2" fill="#754FFE"/><rect x="408" y="265" width="60" height="8" rx="2" fill="#E2E8F0"/><rect x="188" y="204" width="20" height="20" rx="3" fill="#E2E8F0"/><path d="M159 302l78 1m-67 9h57m-48 6h39" stroke="#E2E8F0" stroke-width="4" stroke-linecap="round"/><path d="M163 292h70" stroke="#CBD5E1" stroke-width="4" stroke-linecap="round"/><rect x="308" y="199" width="20" height="20" rx="3" fill="#CBD5E1"/><rect x="428" y="204" width="20" height="20" rx="3" fill="#E2E8F0"/><path d="M279 299l78 1m42-1l78 1m-187 9h57m63 0h57m-168 9h39" stroke="#E2E8F0" stroke-width="4" stroke-linecap="round"/><path d="M283 289h70m50 0h70" stroke="#CBD5E1" stroke-width="4" stroke-linecap="round"/><path d="M305.84 252.636v-16.363h1.048v16.363h-1.048zm2.525-10.802c-.043-.469-.233-.833-.569-1.093-.333-.264-.808-.397-1.426-.397-.409 0-.75.054-1.022.16-.273.107-.478.254-.614.441a1.067 1.067 0 00-.211.633.938.938 0 00.115.518c.09.149.217.281.384.396.17.111.375.209.613.294.239.085.507.16.806.224l1.125.256c.647.14 1.218.328 1.713.562.498.234.916.514 1.253.837.34.324.598.697.773 1.119.175.422.264.895.268 1.419-.004.827-.213 1.536-.626 2.129-.413.592-1.008 1.046-1.783 1.361-.772.316-1.703.473-2.794.473-1.095 0-2.049-.164-2.863-.492-.814-.328-1.447-.827-1.899-1.496-.451-.669-.684-1.515-.697-2.537h3.03c.026.421.139.773.339 1.054.2.282.475.495.825.64a3.23 3.23 0 001.227.217c.426 0 .788-.058 1.087-.173.302-.115.534-.275.696-.479.162-.205.245-.439.25-.703a.97.97 0 00-.231-.633c-.149-.179-.379-.332-.69-.46a7.123 7.123 0 00-1.176-.365l-1.368-.319c-1.133-.26-2.026-.68-2.678-1.259-.652-.584-.976-1.373-.972-2.366-.004-.809.213-1.519.652-2.128.439-.609 1.046-1.085 1.822-1.426.776-.34 1.66-.511 2.653-.511 1.014 0 1.894.173 2.64.518.75.341 1.331.82 1.745 1.438.413.618.624 1.334.632 2.148h-3.029zm4.621 6.993v-2.468l5.363-8.45h2.192v3.35h-1.272l-3.138 4.973v.102h7.766v2.493h-10.911zm6.322 2.173v-2.928l.064-1.08v-9.083h2.959V251h-3.023zm11.176-13.27c.716 0 1.4.117 2.052.352.652.23 1.234.598 1.745 1.106.512.502.914 1.165 1.208 1.987.294.823.441 1.826.441 3.011.005 1.091-.123 2.069-.383 2.934-.26.861-.633 1.594-1.119 2.199a4.841 4.841 0 01-1.738 1.387c-.678.315-1.434.473-2.27.473-.92 0-1.732-.177-2.435-.531a4.518 4.518 0 01-1.681-1.444 4.338 4.338 0 01-.748-2.033h3.113c.098.435.305.763.62.985.315.217.692.326 1.131.326.802 0 1.4-.348 1.797-1.042.396-.695.594-1.639.594-2.832h-.077a2.897 2.897 0 01-.78 1.01 3.525 3.525 0 01-1.157.645c-.438.15-.901.224-1.387.224-.784 0-1.476-.179-2.077-.537a3.81 3.81 0 01-1.406-1.476c-.337-.627-.507-1.343-.512-2.148-.004-.903.207-1.7.633-2.391a4.363 4.363 0 011.784-1.623c.762-.392 1.647-.586 2.652-.582zm.019 2.429c-.392 0-.741.092-1.048.275-.302.183-.541.43-.716.741a2.06 2.06 0 00-.255 1.049c.004.388.091.737.262 1.048.174.311.411.558.709.741.303.184.648.275 1.036.275.289 0 .558-.053.805-.159.247-.107.462-.254.646-.441.183-.192.326-.414.428-.665.106-.252.158-.52.153-.806a2.12 2.12 0 00-.268-1.035 1.992 1.992 0 00-.722-.742 1.92 1.92 0 00-1.03-.281zm90.363 12.477v-16.363h1.048v16.363h-1.048zm2.525-10.802c-.043-.469-.232-.833-.569-1.093-.332-.264-.807-.397-1.425-.397-.409 0-.75.054-1.023.16-.273.107-.477.254-.614.441a1.074 1.074 0 00-.211.633.947.947 0 00.115.518c.09.149.218.281.384.396.17.111.375.209.614.294.238.085.507.16.805.224l1.125.256c.648.14 1.219.328 1.713.562.499.234.916.514 1.253.837.341.324.599.697.773 1.119.175.422.265.895.269 1.419-.004.827-.213 1.536-.627 2.129-.413.592-1.007 1.046-1.783 1.361-.771.316-1.702.473-2.793.473-1.096 0-2.05-.164-2.864-.492-.814-.328-1.447-.827-1.898-1.496-.452-.669-.684-1.515-.697-2.537h3.03c.025.421.138.773.338 1.054.201.282.476.495.825.64.354.144.763.217 1.227.217.426 0 .789-.058 1.087-.173.303-.115.535-.275.697-.479.162-.205.245-.439.249-.703a.97.97 0 00-.23-.633c-.149-.179-.379-.332-.69-.46a7.107 7.107 0 00-1.177-.365l-1.368-.319c-1.133-.26-2.026-.68-2.678-1.259-.652-.584-.976-1.373-.971-2.366-.005-.809.213-1.519.652-2.128.439-.609 1.046-1.085 1.821-1.426.776-.34 1.66-.511 2.653-.511 1.014 0 1.894.173 2.64.518.75.341 1.332.82 1.745 1.438.413.618.624 1.334.633 2.148h-3.03zm10.834-3.925V251h-3.157v-10.138h-.077l-2.927 1.79v-2.736l3.228-2.007h2.933zm2.735 10.918v-2.468l5.363-8.45h2.192v3.35h-1.272l-3.138 4.973v.102h7.766v2.493H436.96zm6.321 2.173v-2.928l.064-1.08v-9.083h2.96V251h-3.024zm11.177-13.27c.716 0 1.4.117 2.052.352a4.65 4.65 0 011.745 1.106c.511.502.914 1.165 1.208 1.987.294.823.441 1.826.441 3.011.004 1.091-.124 2.069-.384 2.934-.26.861-.632 1.594-1.118 2.199a4.845 4.845 0 01-1.739 1.387c-.677.315-1.434.473-2.269.473-.92 0-1.732-.177-2.435-.531a4.51 4.51 0 01-1.681-1.444 4.338 4.338 0 01-.748-2.033h3.113c.098.435.304.763.62.985.315.217.692.326 1.131.326.801 0 1.4-.348 1.796-1.042.396-.695.595-1.639.595-2.832h-.077a2.897 2.897 0 01-.78 1.01 3.525 3.525 0 01-1.157.645c-.439.15-.901.224-1.387.224-.784 0-1.477-.179-2.077-.537a3.813 3.813 0 01-1.407-1.476c-.336-.627-.507-1.343-.511-2.148-.004-.903.207-1.7.633-2.391a4.36 4.36 0 011.783-1.623c.763-.392 1.647-.586 2.653-.582zm.019 2.429c-.392 0-.741.092-1.048.275a1.99 1.99 0 00-.716.741 2.06 2.06 0 00-.256 1.049c.004.388.092.737.262 1.048.175.311.412.558.71.741.302.184.648.275 1.035.275.29 0 .559-.053.806-.159.247-.107.462-.254.645-.441a2.105 2.105 0 00.582-1.471 2.131 2.131 0 00-.268-1.035 1.988 1.988 0 00-.723-.742 1.915 1.915 0 00-1.029-.281z" fill="#94A3B8"/></g><defs><clipPath id="clip0_6114_29122"><path fill="#fff" d="M0 0h636v400H0z"/></clipPath><filter id="filter0_d_6114_29122" x="84" y="57" width="468" height="357" filterUnits="userSpaceOnUse" color-interpolation-filters="sRGB"><feFlood flood-opacity="0" result="BackgroundImageFix"/><feColorMatrix in="SourceAlpha" values="0 0 0 0 0 0 0 0 0 0 0 0 0 0 0 0 0 0 127 0" result="hardAlpha"/><feOffset dy="1"/><feGaussianBlur stdDeviation="1.5"/><feColorMatrix values="0 0 0 0 0.0117647 0 0 0 0 0 0 0 0 0 0.278431 0 0 0 0.13 0"/><feBlend in2="BackgroundImageFix" result="effect1_dropShadow_6114_29122"/><feBlend in="SourceGraphic" in2="effect1_dropShadow_6114_29122" result="shape"/></filter></defs></svg>