<svg width="636" height="400" fill="none" xmlns="http://www.w3.org/2000/svg"><path fill="#E2E8F0" d="M0 0h636v400H0z"/><g filter="url(#filter0_d_6114_29158)"><rect x="87" y="59" width="462" height="282" rx="12" fill="#fff"/></g><path d="M150.085 124l-3.746-13.091h3.023l2.167 9.096h.109l2.39-9.096h2.589l2.384 9.115h.115l2.167-9.115h3.024L160.561 124h-2.697l-2.493-8.559h-.103L152.782 124h-2.697zm18.375-5.676V124h-2.723v-13.091h2.646v5.005h.115a2.784 2.784 0 011.074-1.361c.495-.333 1.115-.499 1.86-.499.682 0 1.277.149 1.784.447.511.294.907.718 1.189 1.272.285.55.426 1.209.422 1.976V124h-2.723v-5.766c.004-.605-.15-1.076-.461-1.412-.307-.337-.737-.505-1.291-.505-.371 0-.699.079-.984.236a1.674 1.674 0 00-.665.691c-.158.298-.239.658-.243 1.08zm11.309 5.861c-.626 0-1.184-.108-1.675-.326a2.69 2.69 0 01-1.163-.978c-.281-.434-.422-.975-.422-1.623 0-.546.1-1.004.301-1.374.2-.371.473-.67.818-.895a3.96 3.96 0 011.176-.512 8.993 8.993 0 011.393-.243 34.271 34.271 0 001.381-.166c.35-.055.603-.136.761-.243a.534.534 0 00.236-.473v-.038c0-.405-.128-.718-.383-.94-.252-.221-.61-.332-1.074-.332-.49 0-.88.109-1.17.326-.29.213-.481.481-.575.805l-2.519-.204c.128-.597.38-1.112.755-1.547a3.61 3.61 0 011.451-1.01c.596-.239 1.287-.358 2.071-.358.545 0 1.067.064 1.566.192a4.11 4.11 0 011.336.594c.392.269.701.614.927 1.036.225.417.338.918.338 1.502V124h-2.582v-1.362h-.077a2.741 2.741 0 01-.633.812c-.264.23-.581.412-.952.544a3.962 3.962 0 01-1.285.191zm.78-1.879c.401 0 .754-.079 1.061-.236.307-.162.548-.38.722-.652a1.68 1.68 0 00.262-.927v-1.042a1.474 1.474 0 01-.351.153 6.558 6.558 0 01-.492.122c-.184.034-.367.066-.55.096l-.499.07a3.35 3.35 0 00-.837.224 1.33 1.33 0 00-.556.415 1.015 1.015 0 00-.198.639c0 .371.134.654.402.85.273.192.618.288 1.036.288zm12.084-8.124v2.045h-5.912v-2.045h5.912zm-4.57-2.352h2.723v9.153c0 .251.038.447.115.588a.639.639 0 00.32.288c.14.055.302.083.485.083.128 0 .256-.011.384-.032l.294-.058.428 2.027a8.266 8.266 0 01-.575.147 4.688 4.688 0 01-.901.108c-.657.026-1.232-.062-1.726-.262-.49-.2-.872-.511-1.144-.933-.273-.422-.407-.955-.403-1.598v-9.511zm14.946 12.362c-.993 0-1.852-.211-2.576-.633a4.333 4.333 0 01-1.668-1.777c-.392-.763-.588-1.647-.588-2.653 0-1.014.196-1.9.588-2.659a4.279 4.279 0 011.668-1.777c.724-.426 1.583-.639 2.576-.639.993 0 1.849.213 2.57.639a4.267 4.267 0 011.674 1.777c.392.759.588 1.645.588 2.659 0 1.006-.196 1.89-.588 2.653a4.321 4.321 0 01-1.674 1.777c-.721.422-1.577.633-2.57.633zm.013-2.11c.452 0 .829-.127 1.131-.383.303-.26.531-.614.684-1.061.158-.448.237-.957.237-1.528 0-.571-.079-1.08-.237-1.528-.153-.447-.381-.801-.684-1.061-.302-.26-.679-.39-1.131-.39-.456 0-.84.13-1.151.39-.307.26-.539.614-.696 1.061a4.686 4.686 0 00-.231 1.528c0 .571.077 1.08.231 1.528.157.447.389.801.696 1.061.311.256.695.383 1.151.383zm12.886-2.262v-5.638h2.723V124h-2.614v-1.783h-.102a2.91 2.91 0 01-1.106 1.387c-.512.349-1.136.524-1.873.524-.656 0-1.234-.149-1.732-.448a3.069 3.069 0 01-1.17-1.272c-.277-.549-.418-1.208-.422-1.975v-6.251h2.723v5.765c.004.58.16 1.038.467 1.375.306.336.718.505 1.233.505.328 0 .635-.075.921-.224.285-.153.515-.379.69-.678.179-.298.266-.666.262-1.105zm4.901 4.18v-9.818h2.64v1.713h.102c.179-.609.48-1.07.902-1.381a2.37 2.37 0 011.457-.473 4.117 4.117 0 01.857.096v2.416a3.64 3.64 0 00-.531-.102 4.735 4.735 0 00-.62-.045c-.4 0-.758.088-1.074.262a1.93 1.93 0 00-.741.716 2.069 2.069 0 00-.269 1.061V124h-2.723zm15.968.192c-1.006 0-1.871-.213-2.596-.639a4.318 4.318 0 01-1.661-1.79c-.384-.763-.576-1.641-.576-2.634 0-1.005.194-1.888.582-2.646a4.318 4.318 0 011.668-1.783c.72-.431 1.577-.646 2.57-.646.856 0 1.606.156 2.25.467a3.76 3.76 0 011.528 1.31c.375.562.581 1.223.62 1.981h-2.57c-.072-.49-.264-.884-.575-1.182-.307-.303-.71-.454-1.208-.454-.422 0-.791.115-1.106.345-.311.226-.554.556-.729.991-.175.435-.262.961-.262 1.579 0 .626.085 1.159.256 1.598.174.439.419.773.735 1.003a1.82 1.82 0 001.106.346c.311 0 .59-.064.837-.192.251-.128.458-.313.62-.556.166-.247.275-.544.326-.889h2.57c-.043.75-.248 1.411-.614 1.982a3.699 3.699 0 01-1.502 1.329c-.639.32-1.396.48-2.269.48zm12.424-4.372v-5.638h2.723V124h-2.614v-1.783h-.102a2.91 2.91 0 01-1.106 1.387c-.512.349-1.136.524-1.873.524-.656 0-1.234-.149-1.732-.448a3.069 3.069 0 01-1.17-1.272c-.277-.549-.418-1.208-.422-1.975v-6.251h2.723v5.765c.004.58.16 1.038.467 1.375.306.336.718.505 1.233.505.328 0 .635-.075.921-.224.285-.153.515-.379.69-.678.179-.298.266-.666.262-1.105zm13.07-2.838l-2.493.153a1.284 1.284 0 00-.274-.575 1.454 1.454 0 00-.557-.416 1.892 1.892 0 00-.811-.16c-.422 0-.778.09-1.068.269-.29.175-.434.409-.434.703 0 .234.093.432.281.594.187.162.509.292.965.39l1.777.358c.955.196 1.666.512 2.135.946.469.435.703 1.006.703 1.713 0 .644-.19 1.208-.569 1.694-.375.486-.89.865-1.547 1.138-.652.269-1.404.403-2.256.403-1.3 0-2.335-.271-3.107-.812-.767-.545-1.216-1.287-1.348-2.224l2.678-.141c.081.396.277.699.588.908.311.204.709.306 1.195.306.478 0 .861-.091 1.151-.274.294-.188.443-.429.447-.723a.75.75 0 00-.313-.607c-.204-.162-.52-.286-.946-.371l-1.7-.339c-.959-.191-1.673-.524-2.142-.997-.464-.473-.696-1.076-.696-1.809 0-.63.17-1.174.511-1.63.345-.456.829-.807 1.451-1.054.626-.247 1.359-.371 2.199-.371 1.24 0 2.216.262 2.927.786.716.524 1.134 1.238 1.253 2.142zm7.161-2.8v2.045h-5.913v-2.045h5.913zm-4.57-2.352h2.723v9.153c0 .251.038.447.115.588a.637.637 0 00.319.288c.141.055.303.083.486.083.128 0 .256-.011.384-.032l.294-.058.428 2.027a8.266 8.266 0 01-.575.147 4.69 4.69 0 01-.902.108c-.656.026-1.231-.062-1.725-.262a2.41 2.41 0 01-1.145-.933c-.272-.422-.407-.955-.402-1.598v-9.511zm10.674 12.362c-.992 0-1.851-.211-2.576-.633a4.333 4.333 0 01-1.668-1.777c-.392-.763-.588-1.647-.588-2.653 0-1.014.196-1.9.588-2.659a4.279 4.279 0 011.668-1.777c.725-.426 1.584-.639 2.576-.639.993 0 1.85.213 2.57.639a4.27 4.27 0 011.675 1.777c.392.759.588 1.645.588 2.659 0 1.006-.196 1.89-.588 2.653a4.323 4.323 0 01-1.675 1.777c-.72.422-1.577.633-2.57.633zm.013-2.11c.452 0 .829-.127 1.132-.383.302-.26.53-.614.684-1.061.157-.448.236-.957.236-1.528 0-.571-.079-1.08-.236-1.528-.154-.447-.382-.801-.684-1.061-.303-.26-.68-.39-1.132-.39-.456 0-.839.13-1.15.39-.307.26-.539.614-.697 1.061-.154.448-.23.957-.23 1.528 0 .571.076 1.08.23 1.528.158.447.39.801.697 1.061.311.256.694.383 1.15.383zm6.59 1.918v-9.818h2.596v1.732h.115a2.719 2.719 0 011.022-1.361c.478-.333 1.049-.499 1.713-.499.674 0 1.247.168 1.72.505.473.332.788.784.946 1.355h.102c.2-.562.563-1.012 1.087-1.349.528-.341 1.153-.511 1.873-.511.916 0 1.659.292 2.231.876.575.579.862 1.402.862 2.467V124h-2.716v-6.066c0-.546-.145-.955-.435-1.227-.29-.273-.652-.409-1.086-.409-.495 0-.88.157-1.157.473-.277.311-.416.722-.416 1.233V124h-2.64v-6.124c0-.481-.138-.865-.415-1.15-.273-.286-.633-.428-1.081-.428-.302 0-.575.076-.818.23-.238.149-.428.36-.569.633-.14.268-.211.583-.211.946V124h-2.723zm20.893.192c-1.01 0-1.879-.205-2.608-.614a4.198 4.198 0 01-1.675-1.751c-.392-.759-.588-1.656-.588-2.691 0-1.01.196-1.897.588-2.659a4.345 4.345 0 011.656-1.784c.716-.426 1.555-.639 2.518-.639.648 0 1.251.104 1.809.313a4.014 4.014 0 011.47.927c.422.413.75.933.985 1.56.234.622.351 1.351.351 2.186v.748h-8.29V118.1h5.727c0-.392-.085-.739-.256-1.042a1.83 1.83 0 00-.709-.709 2.024 2.024 0 00-1.042-.262c-.413 0-.78.096-1.1.287a2.02 2.02 0 00-.741.761 2.145 2.145 0 00-.275 1.055v1.604c0 .486.09.906.269 1.259.183.354.441.627.773.818.332.192.727.288 1.183.288.302 0 .579-.043.83-.128.252-.085.467-.213.646-.383.179-.171.315-.38.409-.627l2.519.167a3.436 3.436 0 01-.787 1.585c-.392.447-.899.797-1.521 1.048-.618.247-1.332.371-2.141.371zm6.283-.192v-9.818h2.64v1.713h.102c.179-.609.48-1.07.902-1.381a2.37 2.37 0 011.457-.473 4.147 4.147 0 01.857.096v2.416a3.64 3.64 0 00-.531-.102 4.747 4.747 0 00-.62-.045c-.401 0-.759.088-1.074.262a1.93 1.93 0 00-.741.716 2.069 2.069 0 00-.269 1.061V124h-2.723zm15.534-7.018l-2.492.153a1.297 1.297 0 00-.275-.575 1.458 1.458 0 00-.556-.416 1.9 1.9 0 00-.812-.16c-.422 0-.778.09-1.068.269-.289.175-.434.409-.434.703 0 .234.093.432.281.594.187.162.509.292.965.39l1.777.358c.955.196 1.666.512 2.135.946.469.435.703 1.006.703 1.713a2.67 2.67 0 01-.569 1.694c-.375.486-.89.865-1.547 1.138-.652.269-1.404.403-2.256.403-1.3 0-2.335-.271-3.107-.812-.767-.545-1.216-1.287-1.348-2.224l2.678-.141c.081.396.277.699.588.908.311.204.71.306 1.195.306.478 0 .861-.091 1.151-.274.294-.188.443-.429.447-.723a.75.75 0 00-.313-.607c-.204-.162-.52-.286-.946-.371l-1.7-.339c-.959-.191-1.673-.524-2.141-.997-.465-.473-.697-1.076-.697-1.809 0-.63.17-1.174.511-1.63.345-.456.829-.807 1.451-1.054.627-.247 1.36-.371 2.199-.371 1.24 0 2.216.262 2.928.786.716.524 1.133 1.238 1.252 2.142zm14.274 0l-2.493.153a1.286 1.286 0 00-.275-.575 1.458 1.458 0 00-.556-.416 1.897 1.897 0 00-.812-.16c-.422 0-.777.09-1.067.269-.29.175-.435.409-.435.703 0 .234.094.432.281.594.188.162.51.292.966.39l1.777.358c.954.196 1.666.512 2.134.946.469.435.704 1.006.704 1.713 0 .644-.19 1.208-.569 1.694-.375.486-.891.865-1.547 1.138-.652.269-1.404.403-2.257.403-1.299 0-2.335-.271-3.106-.812-.767-.545-1.217-1.287-1.349-2.224l2.678-.141c.081.396.277.699.589.908.311.204.709.306 1.195.306.477 0 .861-.091 1.15-.274.294-.188.444-.429.448-.723a.752.752 0 00-.313-.607c-.205-.162-.52-.286-.946-.371l-1.701-.339c-.958-.191-1.672-.524-2.141-.997-.465-.473-.697-1.076-.697-1.809 0-.63.171-1.174.512-1.63.345-.456.828-.807 1.451-1.054.626-.247 1.359-.371 2.198-.371 1.241 0 2.216.262 2.928.786.716.524 1.134 1.238 1.253 2.142zm4.738 7.203c-.626 0-1.185-.108-1.675-.326a2.685 2.685 0 01-1.163-.978c-.281-.434-.422-.975-.422-1.623 0-.546.1-1.004.3-1.374.201-.371.473-.67.819-.895a3.96 3.96 0 011.176-.512 8.973 8.973 0 011.393-.243 34.498 34.498 0 001.381-.166c.349-.055.603-.136.761-.243a.534.534 0 00.236-.473v-.038c0-.405-.128-.718-.383-.94-.252-.221-.61-.332-1.074-.332-.49 0-.88.109-1.17.326-.29.213-.482.481-.575.805l-2.519-.204a3.423 3.423 0 01.754-1.547 3.618 3.618 0 011.451-1.01c.597-.239 1.287-.358 2.071-.358.546 0 1.068.064 1.567.192.502.128.948.326 1.335.594.393.269.701.614.927 1.036.226.417.339.918.339 1.502V124h-2.582v-1.362h-.077a2.774 2.774 0 01-.633.812c-.264.23-.581.412-.952.544a3.962 3.962 0 01-1.285.191zm.78-1.879a2.3 2.3 0 001.061-.236c.307-.162.547-.38.722-.652a1.68 1.68 0 00.262-.927v-1.042a1.474 1.474 0 01-.351.153 6.558 6.558 0 01-.492.122c-.184.034-.367.066-.55.096l-.499.07a3.339 3.339 0 00-.837.224 1.33 1.33 0 00-.556.415 1.015 1.015 0 00-.198.639c0 .371.134.654.402.85.273.192.618.288 1.036.288zm8.191 5.376c-.345 0-.669-.028-.971-.083a3.522 3.522 0 01-.742-.198l.614-2.033c.319.098.607.151.863.16.26.008.483-.051.671-.179.192-.128.347-.345.466-.652l.16-.416-3.522-10.099h2.864l2.033 7.21h.102l2.052-7.21h2.883l-3.817 10.879a4.575 4.575 0 01-.747 1.381 3.07 3.07 0 01-1.183.914c-.477.217-1.052.326-1.726.326z" fill="#475569"/><path d="M146 140h141" stroke="#CBD5E1" stroke-width="4" stroke-linecap="round"/><path d="M146 150h91m-28-56h17" stroke="#E2E8F0" stroke-width="4" stroke-linecap="round"/><g clip-path="url(#clip0_6114_29158)"><path d="M147.805 97.722c-.193.099-.412-.075-.373-.296l.415-2.365-1.761-1.679c-.165-.157-.079-.444.141-.475l2.449-.347 1.092-2.164a.257.257 0 01.464 0l1.092 2.163 2.449.349c.22.03.306.317.141.474l-1.761 1.678.415 2.365c.039.222-.18.395-.373.297l-2.196-1.128-2.194 1.128z" fill="#754FFE"/></g><g clip-path="url(#clip1_6114_29158)"><path d="M158.805 97.722c-.193.099-.412-.075-.373-.296l.415-2.365-1.761-1.679c-.165-.157-.079-.444.141-.475l2.449-.347 1.092-2.164a.257.257 0 01.464 0l1.092 2.163 2.449.349c.22.03.306.317.141.474l-1.761 1.678.415 2.365c.039.222-.18.395-.373.297l-2.196-1.128-2.194 1.128z" fill="#754FFE"/></g><g clip-path="url(#clip2_6114_29158)"><path d="M169.805 97.722c-.193.099-.412-.075-.373-.296l.415-2.365-1.761-1.679c-.165-.157-.079-.444.141-.475l2.449-.347 1.092-2.164a.257.257 0 01.464 0l1.092 2.163 2.449.349c.22.03.306.317.141.474l-1.761 1.678.415 2.365c.039.222-.18.395-.373.297l-2.196-1.128-2.194 1.128z" fill="#754FFE"/></g><g clip-path="url(#clip3_6114_29158)"><path d="M180.805 97.722c-.193.099-.412-.075-.373-.296l.415-2.365-1.761-1.679c-.165-.157-.079-.444.141-.475l2.449-.347 1.092-2.164a.257.257 0 01.464 0l1.092 2.163 2.449.349c.22.03.306.317.141.474l-1.761 1.678.415 2.365c.039.222-.18.395-.373.297l-2.196-1.128-2.194 1.128z" fill="#754FFE"/></g><g clip-path="url(#clip4_6114_29158)"><path d="M191.805 97.722c-.193.099-.412-.075-.373-.296l.415-2.365-1.761-1.679c-.165-.157-.079-.444.141-.475l2.449-.347 1.092-2.164a.257.257 0 01.464 0l1.092 2.163 2.449.349c.22.03.306.317.141.474l-1.761 1.678.415 2.365c.039.222-.18.395-.373.297l-2.196-1.128-2.194 1.128z" fill="#754FFE"/></g><rect x="146" y="177" width="115" height="111" rx="8" fill="#F1F5F9"/><rect x="269" y="177" width="115" height="111" rx="8" fill="#F1F5F9"/><rect x="392" y="177" width="115" height="111" rx="8" fill="#F1F5F9"/><rect x="194" y="193" width="20" height="20" rx="10" fill="#CBD5E1"/><rect x="317" y="193" width="20" height="20" rx="10" fill="#CBD5E1"/><rect x="440" y="193" width="20" height="20" rx="10" fill="#CBD5E1"/><path d="M165 232h78m45 0h78m45 0h78m-314 6h57m66 0h57m66 0h57" stroke="#E2E8F0" stroke-width="3" stroke-linecap="round"/><path d="M192 280h24m99 0h24m99 0h24" stroke="#E2E8F0" stroke-width="2" stroke-linecap="round"/><path d="M184 244h39m84 0h39m84 0h39" stroke="#E2E8F0" stroke-width="3" stroke-linecap="round"/><path d="M169 226h70m53 0h70m53 0h70" stroke="#CBD5E1" stroke-width="3" stroke-linecap="round"/><path d="M187 274h33m90 0h33m90 0h33" stroke="#CBD5E1" stroke-width="4" stroke-linecap="round"/><g clip-path="url(#clip5_6114_29158)"><path d="M186.354 261.791c-.145.074-.309-.056-.28-.222l.311-1.774-1.321-1.258c-.123-.118-.059-.333.106-.356l1.837-.261.819-1.623a.193.193 0 01.348 0l.819 1.623 1.837.261c.165.023.229.238.105.356l-1.32 1.258.311 1.774c.029.166-.135.296-.28.222l-1.647-.846-1.645.846z" fill="#754FFE"/></g><g clip-path="url(#clip6_6114_29158)"><path d="M194.354 261.791c-.145.074-.309-.056-.28-.222l.311-1.774-1.321-1.258c-.123-.118-.059-.333.106-.356l1.837-.261.819-1.623a.193.193 0 01.348 0l.819 1.623 1.837.261c.165.023.229.238.105.356l-1.32 1.258.311 1.774c.029.166-.135.296-.28.222l-1.647-.846-1.645.846z" fill="#754FFE"/></g><g clip-path="url(#clip7_6114_29158)"><path d="M202.354 261.791c-.145.074-.309-.056-.28-.222l.311-1.774-1.321-1.258c-.123-.118-.059-.333.106-.356l1.837-.261.819-1.623a.193.193 0 01.348 0l.819 1.623 1.837.261c.165.023.229.238.105.356l-1.32 1.258.311 1.774c.029.166-.135.296-.28.222l-1.647-.846-1.645.846z" fill="#754FFE"/></g><g clip-path="url(#clip8_6114_29158)"><path d="M210.354 261.791c-.145.074-.309-.056-.28-.222l.311-1.774-1.321-1.258c-.123-.118-.059-.333.106-.356l1.837-.261.819-1.623a.193.193 0 01.348 0l.819 1.623 1.837.261c.165.023.229.238.105.356l-1.32 1.258.311 1.774c.029.166-.135.296-.28.222l-1.647-.846-1.645.846z" fill="#754FFE"/></g><g clip-path="url(#clip9_6114_29158)"><path d="M218.354 261.791c-.145.074-.309-.056-.28-.222l.311-1.774-1.321-1.258c-.123-.118-.059-.333.106-.356l1.837-.261.819-1.623a.193.193 0 01.348 0l.819 1.623 1.837.261c.165.023.229.238.105.356l-1.32 1.258.311 1.774c.029.166-.135.296-.28.222l-1.647-.846-1.645.846z" fill="#754FFE"/></g><g clip-path="url(#clip10_6114_29158)"><path d="M309.354 261.791c-.145.074-.309-.056-.28-.222l.311-1.774-1.321-1.258c-.123-.118-.059-.333.106-.356l1.837-.261.819-1.623a.193.193 0 01.348 0l.819 1.623 1.837.261c.165.023.229.238.105.356l-1.32 1.258.311 1.774c.029.166-.135.296-.28.222l-1.647-.846-1.645.846z" fill="#754FFE"/></g><g clip-path="url(#clip11_6114_29158)"><path d="M317.354 261.791c-.145.074-.309-.056-.28-.222l.311-1.774-1.321-1.258c-.123-.118-.059-.333.106-.356l1.837-.261.819-1.623a.193.193 0 01.348 0l.819 1.623 1.837.261c.165.023.229.238.105.356l-1.32 1.258.311 1.774c.029.166-.135.296-.28.222l-1.647-.846-1.645.846z" fill="#754FFE"/></g><g clip-path="url(#clip12_6114_29158)"><path d="M325.354 261.791c-.145.074-.309-.056-.28-.222l.311-1.774-1.321-1.258c-.123-.118-.059-.333.106-.356l1.837-.261.819-1.623a.193.193 0 01.348 0l.819 1.623 1.837.261c.165.023.229.238.105.356l-1.32 1.258.311 1.774c.029.166-.135.296-.28.222l-1.647-.846-1.645.846z" fill="#754FFE"/></g><g clip-path="url(#clip13_6114_29158)"><path d="M333.354 261.791c-.145.074-.309-.056-.28-.222l.311-1.774-1.321-1.258c-.123-.118-.059-.333.106-.356l1.837-.261.819-1.623a.193.193 0 01.348 0l.819 1.623 1.837.261c.165.023.229.238.105.356l-1.32 1.258.311 1.774c.029.166-.135.296-.28.222l-1.647-.846-1.645.846z" fill="#754FFE"/></g><g clip-path="url(#clip14_6114_29158)"><path d="M341.354 261.791c-.145.074-.309-.056-.28-.222l.311-1.774-1.321-1.258c-.123-.118-.059-.333.106-.356l1.837-.261.819-1.623a.193.193 0 01.348 0l.819 1.623 1.837.261c.165.023.229.238.105.356l-1.32 1.258.311 1.774c.029.166-.135.296-.28.222l-1.647-.846-1.645.846z" fill="#754FFE"/></g><g clip-path="url(#clip15_6114_29158)"><path d="M432.354 261.791c-.145.074-.309-.056-.28-.222l.311-1.774-1.321-1.258c-.123-.118-.059-.333.106-.356l1.837-.261.819-1.623a.193.193 0 01.348 0l.819 1.623 1.837.261c.165.023.229.238.105.356l-1.32 1.258.311 1.774c.029.166-.135.296-.28.222l-1.647-.846-1.645.846z" fill="#754FFE"/></g><g clip-path="url(#clip16_6114_29158)"><path d="M440.354 261.791c-.145.074-.309-.056-.28-.222l.311-1.774-1.321-1.258c-.123-.118-.059-.333.106-.356l1.837-.261.819-1.623a.193.193 0 01.348 0l.819 1.623 1.837.261c.165.023.229.238.105.356l-1.32 1.258.311 1.774c.029.166-.135.296-.28.222l-1.647-.846-1.645.846z" fill="#754FFE"/></g><g clip-path="url(#clip17_6114_29158)"><path d="M448.354 261.791c-.145.074-.309-.056-.28-.222l.311-1.774-1.321-1.258c-.123-.118-.059-.333.106-.356l1.837-.261.819-1.623a.193.193 0 01.348 0l.819 1.623 1.837.261c.165.023.229.238.105.356l-1.32 1.258.311 1.774c.029.166-.135.296-.28.222l-1.647-.846-1.645.846z" fill="#754FFE"/></g><g clip-path="url(#clip18_6114_29158)"><path d="M456.354 261.791c-.145.074-.309-.056-.28-.222l.311-1.774-1.321-1.258c-.123-.118-.059-.333.106-.356l1.837-.261.819-1.623a.193.193 0 01.348 0l.819 1.623 1.837.261c.165.023.229.238.105.356l-1.32 1.258.311 1.774c.029.166-.135.296-.28.222l-1.647-.846-1.645.846z" fill="#754FFE"/></g><g clip-path="url(#clip19_6114_29158)"><path d="M464.354 261.791c-.145.074-.309-.056-.28-.222l.311-1.774-1.321-1.258c-.123-.118-.059-.333.106-.356l1.837-.261.819-1.623a.193.193 0 01.348 0l.819 1.623 1.837.261c.165.023.229.238.105.356l-1.32 1.258.311 1.774c.029.166-.135.296-.28.222l-1.647-.846-1.645.846z" fill="#754FFE"/></g><defs><clipPath id="clip0_6114_29158"><path fill="#fff" transform="translate(146 90)" d="M0 0h8v8H0z"/></clipPath><clipPath id="clip1_6114_29158"><path fill="#fff" transform="translate(157 90)" d="M0 0h8v8H0z"/></clipPath><clipPath id="clip2_6114_29158"><path fill="#fff" transform="translate(168 90)" d="M0 0h8v8H0z"/></clipPath><clipPath id="clip3_6114_29158"><path fill="#fff" transform="translate(179 90)" d="M0 0h8v8H0z"/></clipPath><clipPath id="clip4_6114_29158"><path fill="#fff" transform="translate(190 90)" d="M0 0h8v8H0z"/></clipPath><clipPath id="clip5_6114_29158"><path fill="#fff" transform="translate(185 256)" d="M0 0h6v6H0z"/></clipPath><clipPath id="clip6_6114_29158"><path fill="#fff" transform="translate(193 256)" d="M0 0h6v6H0z"/></clipPath><clipPath id="clip7_6114_29158"><path fill="#fff" transform="translate(201 256)" d="M0 0h6v6H0z"/></clipPath><clipPath id="clip8_6114_29158"><path fill="#fff" transform="translate(209 256)" d="M0 0h6v6H0z"/></clipPath><clipPath id="clip9_6114_29158"><path fill="#fff" transform="translate(217 256)" d="M0 0h6v6H0z"/></clipPath><clipPath id="clip10_6114_29158"><path fill="#fff" transform="translate(308 256)" d="M0 0h6v6H0z"/></clipPath><clipPath id="clip11_6114_29158"><path fill="#fff" transform="translate(316 256)" d="M0 0h6v6H0z"/></clipPath><clipPath id="clip12_6114_29158"><path fill="#fff" transform="translate(324 256)" d="M0 0h6v6H0z"/></clipPath><clipPath id="clip13_6114_29158"><path fill="#fff" transform="translate(332 256)" d="M0 0h6v6H0z"/></clipPath><clipPath id="clip14_6114_29158"><path fill="#fff" transform="translate(340 256)" d="M0 0h6v6H0z"/></clipPath><clipPath id="clip15_6114_29158"><path fill="#fff" transform="translate(431 256)" d="M0 0h6v6H0z"/></clipPath><clipPath id="clip16_6114_29158"><path fill="#fff" transform="translate(439 256)" d="M0 0h6v6H0z"/></clipPath><clipPath id="clip17_6114_29158"><path fill="#fff" transform="translate(447 256)" d="M0 0h6v6H0z"/></clipPath><clipPath id="clip18_6114_29158"><path fill="#fff" transform="translate(455 256)" d="M0 0h6v6H0z"/></clipPath><clipPath id="clip19_6114_29158"><path fill="#fff" transform="translate(463 256)" d="M0 0h6v6H0z"/></clipPath><filter id="filter0_d_6114_29158" x="84" y="57" width="468" height="288" filterUnits="userSpaceOnUse" color-interpolation-filters="sRGB"><feFlood flood-opacity="0" result="BackgroundImageFix"/><feColorMatrix in="SourceAlpha" values="0 0 0 0 0 0 0 0 0 0 0 0 0 0 0 0 0 0 127 0" result="hardAlpha"/><feOffset dy="1"/><feGaussianBlur stdDeviation="1.5"/><feColorMatrix values="0 0 0 0 0.0117647 0 0 0 0 0 0 0 0 0 0.278431 0 0 0 0.13 0"/><feBlend in2="BackgroundImageFix" result="effect1_dropShadow_6114_29158"/><feBlend in="SourceGraphic" in2="effect1_dropShadow_6114_29158" result="shape"/></filter></defs></svg>