<svg width="636" height="400" fill="none" xmlns="http://www.w3.org/2000/svg"><path fill="#E2E8F0" d="M0 0h636v400H0z"/><g filter="url(#filter0_d_6625_29065)"><rect x="86" y="83" width="464" height="235" rx="8" fill="#fff"/><rect x="87.358" y="84.358" width="461.283" height="232.283" rx="6.642" stroke="#fff" stroke-width="2.717"/></g><path d="M146.688 137.492h-2.8a2.727 2.727 0 00-.313-.965 2.45 2.45 0 00-.607-.729 2.691 2.691 0 00-.856-.46 3.294 3.294 0 00-1.042-.16c-.678 0-1.268.169-1.771.505-.503.333-.893.818-1.17 1.458-.277.635-.415 1.406-.415 2.314 0 .933.138 1.717.415 2.352.282.635.674 1.114 1.176 1.438.503.324 1.085.486 1.745.486a3.46 3.46 0 001.03-.147c.319-.098.603-.241.85-.428a2.47 2.47 0 00.613-.697c.167-.273.282-.584.345-.933l2.8.012a5.049 5.049 0 01-.543 1.739 5.23 5.23 0 01-1.157 1.489 5.453 5.453 0 01-1.726 1.036c-.665.251-1.417.377-2.256.377-1.168 0-2.212-.264-3.132-.793-.917-.528-1.641-1.293-2.174-2.294-.528-1.002-.792-2.214-.792-3.637 0-1.428.268-2.643.805-3.644.537-1.001 1.266-1.764 2.186-2.288.921-.529 1.956-.793 3.107-.793.758 0 1.461.107 2.109.32a5.349 5.349 0 011.732.933c.503.405.912.901 1.228 1.489.319.588.524 1.262.613 2.02zm4.734 8.693c-.627 0-1.185-.108-1.675-.326a2.693 2.693 0 01-1.164-.978c-.281-.434-.421-.975-.421-1.623 0-.546.1-1.004.3-1.374.2-.371.473-.67.818-.895a3.96 3.96 0 011.176-.512 9.006 9.006 0 011.394-.243 34.187 34.187 0 001.38-.166c.35-.055.603-.136.761-.243a.533.533 0 00.237-.473v-.038c0-.405-.128-.718-.384-.94-.251-.221-.609-.332-1.074-.332-.49 0-.88.109-1.17.326a1.503 1.503 0 00-.575.805l-2.518-.204a3.423 3.423 0 01.754-1.547 3.618 3.618 0 011.451-1.01c.597-.239 1.287-.358 2.071-.358.545 0 1.067.064 1.566.192a4.11 4.11 0 011.336.594c.392.269.701.614.927 1.036.226.417.339.918.339 1.502V146h-2.583v-1.362h-.076a2.774 2.774 0 01-.633.812c-.264.23-.582.412-.953.544-.37.127-.799.191-1.284.191zm.779-1.879c.401 0 .755-.079 1.061-.236.307-.162.548-.38.723-.652.174-.273.262-.582.262-.927v-1.042a1.484 1.484 0 01-.352.153 6.558 6.558 0 01-.492.122c-.183.034-.366.066-.55.096l-.498.07c-.32.047-.599.121-.838.224-.238.102-.424.24-.556.415a1.015 1.015 0 00-.198.639c0 .371.134.654.403.85.273.192.618.288 1.035.288zm6.862 1.694v-9.818h2.64v1.713h.102c.179-.609.48-1.07.902-1.381a2.37 2.37 0 011.457-.473 4.147 4.147 0 01.857.096v2.416a3.64 3.64 0 00-.531-.102 4.735 4.735 0 00-.62-.045c-.401 0-.758.088-1.074.262a1.93 1.93 0 00-.741.716 2.069 2.069 0 00-.269 1.061V146h-2.723zm11.344.192c-.992 0-1.851-.211-2.576-.633a4.333 4.333 0 01-1.668-1.777c-.392-.763-.588-1.647-.588-2.653 0-1.014.196-1.9.588-2.659a4.279 4.279 0 011.668-1.777c.725-.426 1.584-.639 2.576-.639.993 0 1.85.213 2.57.639a4.263 4.263 0 011.675 1.777c.392.759.588 1.645.588 2.659 0 1.006-.196 1.89-.588 2.653a4.317 4.317 0 01-1.675 1.777c-.72.422-1.577.633-2.57.633zm.013-2.11c.452 0 .829-.127 1.132-.383.302-.26.53-.614.684-1.061.157-.448.236-.957.236-1.528 0-.571-.079-1.08-.236-1.528-.154-.447-.382-.801-.684-1.061-.303-.26-.68-.39-1.132-.39-.456 0-.839.13-1.15.39-.307.26-.539.614-.697 1.061-.153.448-.23.957-.23 1.528 0 .571.077 1.08.23 1.528.158.447.39.801.697 1.061.311.256.694.383 1.15.383zm12.887-2.262v-5.638h2.723V146h-2.615v-1.783h-.102a2.903 2.903 0 01-1.106 1.387c-.511.349-1.135.524-1.873.524-.656 0-1.233-.149-1.732-.448a3.082 3.082 0 01-1.17-1.272c-.277-.549-.417-1.208-.422-1.975v-6.251h2.723v5.765c.005.58.16 1.038.467 1.375.307.336.718.505 1.234.505.328 0 .635-.075.92-.224a1.75 1.75 0 00.691-.678c.179-.298.266-.666.262-1.105zm13.07-2.838l-2.493.153a1.286 1.286 0 00-.275-.575 1.458 1.458 0 00-.556-.416 1.9 1.9 0 00-.812-.16c-.422 0-.778.09-1.067.269-.29.175-.435.409-.435.703 0 .234.094.432.281.594.188.162.509.292.965.39l1.777.358c.955.196 1.667.512 2.135.946.469.435.703 1.006.703 1.713 0 .644-.189 1.208-.568 1.694-.375.486-.891.865-1.547 1.138-.652.269-1.404.403-2.257.403-1.299 0-2.335-.271-3.106-.812-.767-.545-1.217-1.287-1.349-2.224l2.678-.141c.081.396.277.699.588.908.311.204.71.306 1.196.306.477 0 .861-.091 1.15-.274.294-.188.443-.429.448-.723a.755.755 0 00-.313-.607c-.205-.162-.52-.286-.946-.371l-1.701-.339c-.959-.191-1.672-.524-2.141-.997-.465-.473-.697-1.076-.697-1.809 0-.63.171-1.174.512-1.63.345-.456.828-.807 1.451-1.054.626-.247 1.359-.371 2.198-.371 1.24 0 2.216.262 2.928.786.716.524 1.133 1.238 1.253 2.142zm6.413 7.21c-1.01 0-1.88-.205-2.608-.614a4.198 4.198 0 01-1.675-1.751c-.392-.759-.588-1.656-.588-2.691 0-1.01.196-1.897.588-2.659a4.35 4.35 0 011.655-1.784c.716-.426 1.556-.639 2.519-.639.648 0 1.251.104 1.809.313a4.03 4.03 0 011.47.927c.422.413.75.933.984 1.56.235.622.352 1.351.352 2.186v.748h-8.29V140.1h5.727c0-.392-.085-.739-.256-1.042a1.83 1.83 0 00-.709-.709 2.024 2.024 0 00-1.042-.262c-.414 0-.78.096-1.1.287a2.02 2.02 0 00-.741.761 2.145 2.145 0 00-.275 1.055v1.604c0 .486.089.906.268 1.259.184.354.441.627.774.818.332.192.726.288 1.182.288.303 0 .58-.043.831-.128.252-.085.467-.213.646-.383.179-.171.315-.38.409-.627l2.518.167a3.425 3.425 0 01-.786 1.585c-.392.447-.899.797-1.521 1.048-.618.247-1.332.371-2.141.371zm9.006-13.283V146h-2.723v-13.091h2.723zm11.57 3.273v2.045h-5.913v-2.045h5.913zm-4.571-2.352h2.723v9.153c0 .251.039.447.115.588a.643.643 0 00.32.288c.141.055.303.083.486.083.128 0 .255-.011.383-.032l.294-.058.429 2.027a8.475 8.475 0 01-.576.147 4.678 4.678 0 01-.901.108c-.656.026-1.232-.062-1.726-.262-.49-.2-.871-.511-1.144-.933-.273-.422-.407-.955-.403-1.598v-9.511zm9.278 6.494V146h-2.723v-13.091h2.647v5.005h.115a2.773 2.773 0 011.074-1.361c.494-.333 1.114-.499 1.86-.499.681 0 1.276.149 1.783.447.511.294.908.718 1.189 1.272.285.55.426 1.209.422 1.976V146h-2.723v-5.766c.004-.605-.149-1.076-.46-1.412-.307-.337-.738-.505-1.292-.505-.37 0-.698.079-.984.236a1.68 1.68 0 00-.665.691c-.157.298-.238.658-.243 1.08zm14.806 1.496v-5.638h2.723V146h-2.614v-1.783h-.103a2.898 2.898 0 01-1.106 1.387c-.511.349-1.135.524-1.872.524-.657 0-1.234-.149-1.733-.448a3.073 3.073 0 01-1.169-1.272c-.277-.549-.418-1.208-.422-1.975v-6.251h2.723v5.765c.004.58.16 1.038.466 1.375.307.336.718.505 1.234.505.328 0 .635-.075.92-.224a1.75 1.75 0 00.691-.678c.179-.298.266-.666.262-1.105zm4.901 4.18v-9.818h2.595v1.732h.115a2.726 2.726 0 011.023-1.361c.477-.333 1.048-.499 1.713-.499.673 0 1.246.168 1.719.505.474.332.789.784.947 1.355h.102c.2-.562.562-1.012 1.086-1.349.529-.341 1.153-.511 1.873-.511.916 0 1.66.292 2.231.876.575.579.863 1.402.863 2.467V146h-2.717v-6.066c0-.546-.144-.955-.434-1.227-.29-.273-.652-.409-1.087-.409-.494 0-.88.157-1.157.473-.277.311-.415.722-.415 1.233V146h-2.64v-6.124c0-.481-.139-.865-.416-1.15-.272-.286-.633-.428-1.08-.428-.303 0-.575.076-.818.23-.239.149-.428.36-.569.633a2.003 2.003 0 00-.211.946V146h-2.723zm16.469 0v-13.091h2.723v4.922h.083c.12-.264.292-.533.518-.805.23-.277.528-.508.895-.691.371-.187.831-.281 1.381-.281a3.69 3.69 0 011.981.562c.605.371 1.089.932 1.451 1.682.362.745.543 1.681.543 2.806 0 1.095-.176 2.02-.53 2.774-.35.75-.827 1.319-1.432 1.707a3.68 3.68 0 01-2.02.575c-.528 0-.978-.088-1.349-.262a2.794 2.794 0 01-.901-.659 3.369 3.369 0 01-.537-.811h-.121V146h-2.685zm2.666-4.909c0 .584.081 1.093.242 1.528.162.434.397.773.704 1.016.306.239.679.358 1.118.358.443 0 .818-.122 1.125-.364.307-.248.539-.589.697-1.023.162-.439.243-.944.243-1.515 0-.567-.079-1.065-.237-1.496-.157-.43-.39-.767-.696-1.01-.307-.243-.684-.364-1.132-.364-.443 0-.818.117-1.125.351-.302.235-.535.567-.697.998-.161.43-.242.937-.242 1.521zm11.449-.767V146h-2.723v-9.818h2.596v1.732h.115a2.732 2.732 0 011.093-1.355c.511-.337 1.131-.505 1.86-.505.682 0 1.276.149 1.783.447.507.299.901.725 1.183 1.279.281.55.421 1.206.421 1.969V146h-2.723v-5.766c.005-.6-.149-1.069-.46-1.406-.311-.341-.739-.511-1.285-.511-.366 0-.69.079-.971.236a1.651 1.651 0 00-.652.691c-.154.298-.232.658-.237 1.08zm11.274 5.861c-.626 0-1.184-.108-1.674-.326a2.693 2.693 0 01-1.164-.978c-.281-.434-.422-.975-.422-1.623 0-.546.101-1.004.301-1.374.2-.371.473-.67.818-.895a3.96 3.96 0 011.176-.512 8.986 8.986 0 011.394-.243 34.187 34.187 0 001.38-.166c.35-.055.603-.136.761-.243.158-.106.236-.264.236-.473v-.038c0-.405-.127-.718-.383-.94-.252-.221-.609-.332-1.074-.332-.49 0-.88.109-1.17.326a1.503 1.503 0 00-.575.805l-2.518-.204a3.413 3.413 0 01.754-1.547 3.61 3.61 0 011.451-1.01c.596-.239 1.287-.358 2.071-.358.545 0 1.067.064 1.566.192a4.11 4.11 0 011.336.594c.392.269.701.614.927 1.036.226.417.338.918.338 1.502V146h-2.582v-1.362h-.077a2.754 2.754 0 01-.632.812 2.94 2.94 0 01-.953.544 3.962 3.962 0 01-1.285.191zm.78-1.879c.401 0 .754-.079 1.061-.236.307-.162.548-.38.723-.652.174-.273.262-.582.262-.927v-1.042a1.502 1.502 0 01-.352.153 6.558 6.558 0 01-.492.122 26.37 26.37 0 01-.55.096l-.498.07c-.32.047-.599.121-.838.224-.238.102-.424.24-.556.415a1.015 1.015 0 00-.198.639c0 .371.134.654.403.85.272.192.618.288 1.035.288zM297.28 146v-9.818h2.723V146h-2.723zm1.368-11.084c-.405 0-.752-.134-1.042-.403a1.3 1.3 0 01-.428-.977c0-.375.142-.697.428-.966a1.47 1.47 0 011.042-.409c.405 0 .75.137 1.035.409.29.269.435.591.435.966 0 .379-.145.705-.435.977-.285.269-.63.403-1.035.403zm6.259-2.007V146h-2.723v-13.091h2.723zm14.517 6.073l-2.493.153a1.286 1.286 0 00-.275-.575 1.458 1.458 0 00-.556-.416 1.9 1.9 0 00-.812-.16c-.422 0-.778.09-1.067.269-.29.175-.435.409-.435.703 0 .234.094.432.281.594.188.162.509.292.965.39l1.777.358c.955.196 1.666.512 2.135.946.469.435.703 1.006.703 1.713a2.67 2.67 0 01-.569 1.694c-.375.486-.89.865-1.546 1.138-.652.269-1.405.403-2.257.403-1.3 0-2.335-.271-3.106-.812-.767-.545-1.217-1.287-1.349-2.224l2.678-.141c.081.396.277.699.588.908.311.204.71.306 1.196.306.477 0 .86-.091 1.15-.274.294-.188.443-.429.448-.723a.753.753 0 00-.314-.607c-.204-.162-.519-.286-.946-.371l-1.7-.339c-.959-.191-1.672-.524-2.141-.997-.465-.473-.697-1.076-.697-1.809 0-.63.17-1.174.511-1.63.346-.456.829-.807 1.451-1.054.627-.247 1.36-.371 2.199-.371 1.24 0 2.216.262 2.928.786.716.524 1.133 1.238 1.253 2.142zm4.661-6.073V146h-2.723v-13.091h2.723zM326.266 146v-9.818h2.723V146h-2.723zm1.368-11.084c-.405 0-.752-.134-1.042-.403a1.304 1.304 0 01-.428-.977c0-.375.143-.697.428-.966a1.47 1.47 0 011.042-.409c.405 0 .75.137 1.036.409.29.269.434.591.434.966 0 .379-.144.705-.434.977a1.457 1.457 0 01-1.036.403zm7.155 11.244a3.712 3.712 0 01-2.027-.575c-.601-.388-1.078-.957-1.432-1.707-.349-.754-.524-1.679-.524-2.774 0-1.125.181-2.061.544-2.806.362-.75.843-1.311 1.444-1.682a3.701 3.701 0 011.988-.562c.55 0 1.008.094 1.374.281.371.183.669.414.895.691.23.272.405.541.524.805h.084v-4.922h2.716V146h-2.684v-1.572h-.116a3.463 3.463 0 01-.543.811 2.69 2.69 0 01-.901.659c-.367.174-.814.262-1.342.262zm.862-2.167c.439 0 .81-.119 1.113-.358.306-.243.541-.582.703-1.016.166-.435.249-.944.249-1.528 0-.584-.081-1.091-.243-1.521-.162-.431-.396-.763-.703-.998-.307-.234-.68-.351-1.119-.351-.447 0-.824.121-1.131.364-.307.243-.539.58-.697 1.01-.157.431-.236.929-.236 1.496 0 .571.079 1.076.236 1.515.162.434.395.775.697 1.023.307.242.684.364 1.131.364zm11.437 2.199c-1.01 0-1.879-.205-2.608-.614a4.202 4.202 0 01-1.674-1.751c-.392-.759-.588-1.656-.588-2.691 0-1.01.196-1.897.588-2.659a4.35 4.35 0 011.655-1.784c.716-.426 1.556-.639 2.519-.639.647 0 1.25.104 1.809.313a4.03 4.03 0 011.47.927c.422.413.75.933.984 1.56.235.622.352 1.351.352 2.186v.748h-8.291V140.1h5.728c0-.392-.086-.739-.256-1.042a1.833 1.833 0 00-.71-.709 2.018 2.018 0 00-1.041-.262c-.414 0-.78.096-1.1.287a2.02 2.02 0 00-.741.761 2.145 2.145 0 00-.275 1.055v1.604c0 .486.089.906.268 1.259.183.354.441.627.774.818.332.192.726.288 1.182.288.303 0 .58-.043.831-.128.252-.085.467-.213.646-.383.179-.171.315-.38.409-.627l2.518.167a3.444 3.444 0 01-.786 1.585c-.392.447-.899.797-1.521 1.048-.618.247-1.332.371-2.142.371zm6.284-.192v-9.818h2.64v1.713h.102c.179-.609.479-1.07.901-1.381a2.373 2.373 0 011.458-.473 4.147 4.147 0 01.856.096v2.416a3.623 3.623 0 00-.53-.102 4.747 4.747 0 00-.62-.045c-.401 0-.759.088-1.074.262a1.94 1.94 0 00-.742.716 2.068 2.068 0 00-.268 1.061V146h-2.723z" fill="#475569"/><path fill-rule="evenodd" clip-rule="evenodd" d="M109.355 214.646a.506.506 0 010 .708L103.708 221l5.647 5.646a.5.5 0 11-.708.708l-6-6a.492.492 0 01-.147-.354.506.506 0 01.147-.354l6-6a.508.508 0 01.354-.147.506.506 0 01.354.147zm417.292 0a.508.508 0 01.354-.147.506.506 0 01.354.147l6 6a.506.506 0 010 .708l-6 6a.5.5 0 11-.708-.708l5.647-5.646-5.647-5.646a.492.492 0 01-.147-.354.506.506 0 01.147-.354z" fill="#64748B"/><rect x="134.25" y="175.25" width="79.5" height="90.929" rx="5.75" fill="#fff" stroke="#E2E8F0" stroke-width=".5"/><g clip-path="url(#clip0_6625_29065)"><path d="M148.501 249.416l.644 1.304 1.44.211-1.042 1.014.246 1.434-1.288-.677-1.287.677.246-1.434-1.042-1.014 1.44-.211.643-1.304z" stroke="#F59E0B" stroke-width=".417" stroke-linecap="round" stroke-linejoin="round"/></g><g clip-path="url(#clip1_6625_29065)"><path d="M153.501 249.416l.644 1.304 1.44.211-1.042 1.014.246 1.434-1.288-.677-1.287.677.246-1.434-1.042-1.014 1.44-.211.643-1.304z" stroke="#F59E0B" stroke-width=".417" stroke-linecap="round" stroke-linejoin="round"/></g><g clip-path="url(#clip2_6625_29065)"><path d="M158.501 249.416l.644 1.304 1.44.211-1.042 1.014.246 1.434-1.288-.677-1.287.677.246-1.434-1.042-1.014 1.44-.211.643-1.304z" stroke="#F59E0B" stroke-width=".417" stroke-linecap="round" stroke-linejoin="round"/></g><g clip-path="url(#clip3_6625_29065)"><path d="M163.501 249.416l.644 1.304 1.44.211-1.042 1.014.246 1.434-1.288-.677-1.287.677.246-1.434-1.042-1.014 1.44-.211.643-1.304z" stroke="#F59E0B" stroke-width=".417" stroke-linecap="round" stroke-linejoin="round"/></g><g clip-path="url(#clip4_6625_29065)"><path d="M168.501 249.416l.644 1.304 1.44.211-1.042 1.014.246 1.434-1.288-.677-1.287.677.246-1.434-1.042-1.014 1.44-.211.643-1.304z" stroke="#F59E0B" stroke-width=".417" stroke-linecap="round" stroke-linejoin="round"/></g><path d="M134 181a6 6 0 016-6h68a6 6 0 016 6v34h-80v-34z" fill="#E2E8F0"/><path d="M165.711 189.567L134 215h80v-7.28l-13.545-9.978a1 1 0 00-1.159-.02l-13.884 9.523a1.002 1.002 0 01-1.281-.126l-17.079-17.471a1 1 0 00-1.341-.081z" fill="url(#paint0_linear_6625_29065)"/><path stroke="#CBD5E1" stroke-width="2.5" stroke-linecap="round" d="M147.25 226.75h37.5"/><path stroke="#E2E8F0" stroke-width="2" stroke-linecap="round" d="M147 234h54m-54 6h48"/><circle cx="188" cy="189" r="5" fill="#CBD5E1"/><circle cx="200" cy="253" r="4" fill="#E2E8F0"/><circle cx="200" cy="252" r="1" fill="#94A3B8"/><path d="M202 254.5c0-.197-.052-.392-.152-.574a1.568 1.568 0 00-.434-.487 2.16 2.16 0 00-.649-.325A2.595 2.595 0 00200 253c-.263 0-.523.039-.765.114a2.16 2.16 0 00-.649.325c-.186.14-.333.305-.434.487-.1.182-.152.377-.152.574h4z" fill="#94A3B8"/><rect x="326.25" y="175.25" width="79.5" height="90.929" rx="5.75" fill="#fff" stroke="#E2E8F0" stroke-width=".5"/><g clip-path="url(#clip5_6625_29065)"><path d="M340.501 249.416l.644 1.304 1.44.211-1.042 1.014.246 1.434-1.288-.677-1.287.677.246-1.434-1.042-1.014 1.44-.211.643-1.304z" stroke="#F59E0B" stroke-width=".417" stroke-linecap="round" stroke-linejoin="round"/></g><g clip-path="url(#clip6_6625_29065)"><path d="M345.501 249.416l.644 1.304 1.44.211-1.042 1.014.246 1.434-1.288-.677-1.287.677.246-1.434-1.042-1.014 1.44-.211.643-1.304z" stroke="#F59E0B" stroke-width=".417" stroke-linecap="round" stroke-linejoin="round"/></g><g clip-path="url(#clip7_6625_29065)"><path d="M350.501 249.416l.644 1.304 1.44.211-1.042 1.014.246 1.434-1.288-.677-1.287.677.246-1.434-1.042-1.014 1.44-.211.643-1.304z" stroke="#F59E0B" stroke-width=".417" stroke-linecap="round" stroke-linejoin="round"/></g><g clip-path="url(#clip8_6625_29065)"><path d="M355.501 249.416l.644 1.304 1.44.211-1.042 1.014.246 1.434-1.288-.677-1.287.677.246-1.434-1.042-1.014 1.44-.211.643-1.304z" stroke="#F59E0B" stroke-width=".417" stroke-linecap="round" stroke-linejoin="round"/></g><g clip-path="url(#clip9_6625_29065)"><path d="M360.501 249.416l.644 1.304 1.44.211-1.042 1.014.246 1.434-1.288-.677-1.287.677.246-1.434-1.042-1.014 1.44-.211.643-1.304z" stroke="#F59E0B" stroke-width=".417" stroke-linecap="round" stroke-linejoin="round"/></g><path d="M326 181a6 6 0 016-6h68a6 6 0 016 6v34h-80v-34z" fill="#E2E8F0"/><path d="M357.711 189.567L326 215h80v-7.28l-13.545-9.978a1 1 0 00-1.159-.02l-13.884 9.523a1.002 1.002 0 01-1.281-.126l-17.079-17.471a1 1 0 00-1.341-.081z" fill="url(#paint1_linear_6625_29065)"/><path stroke="#CBD5E1" stroke-width="2.5" stroke-linecap="round" d="M339.25 226.75h37.5"/><path stroke="#E2E8F0" stroke-width="2" stroke-linecap="round" d="M339 234h54m-54 6h48"/><circle cx="380" cy="189" r="5" fill="#CBD5E1"/><circle cx="392" cy="253" r="4" fill="#E2E8F0"/><circle cx="392" cy="252" r="1" fill="#94A3B8"/><path d="M394 254.5c0-.197-.052-.392-.152-.574a1.568 1.568 0 00-.434-.487 2.16 2.16 0 00-.649-.325A2.595 2.595 0 00392 253c-.263 0-.523.039-.765.114a2.16 2.16 0 00-.649.325c-.186.14-.333.305-.434.487-.1.182-.152.377-.152.574h4z" fill="#94A3B8"/><g filter="url(#filter1_d_6625_29065)"><rect x="230.25" y="175.25" width="79.5" height="90.929" rx="5.75" fill="#fff" stroke="#E2E8F0" stroke-width=".5"/><g clip-path="url(#clip10_6625_29065)"><path d="M244.501 249.416l.644 1.304 1.44.211-1.042 1.014.246 1.434-1.288-.677-1.287.677.246-1.434-1.042-1.014 1.44-.211.643-1.304z" stroke="#F59E0B" stroke-width=".417" stroke-linecap="round" stroke-linejoin="round"/></g><g clip-path="url(#clip11_6625_29065)"><path d="M249.501 249.416l.644 1.304 1.44.211-1.042 1.014.246 1.434-1.288-.677-1.287.677.246-1.434-1.042-1.014 1.44-.211.643-1.304z" stroke="#F59E0B" stroke-width=".417" stroke-linecap="round" stroke-linejoin="round"/></g><g clip-path="url(#clip12_6625_29065)"><path d="M254.501 249.416l.644 1.304 1.44.211-1.042 1.014.246 1.434-1.288-.677-1.287.677.246-1.434-1.042-1.014 1.44-.211.643-1.304z" stroke="#F59E0B" stroke-width=".417" stroke-linecap="round" stroke-linejoin="round"/></g><g clip-path="url(#clip13_6625_29065)"><path d="M259.501 249.416l.644 1.304 1.44.211-1.042 1.014.246 1.434-1.288-.677-1.287.677.246-1.434-1.042-1.014 1.44-.211.643-1.304z" stroke="#F59E0B" stroke-width=".417" stroke-linecap="round" stroke-linejoin="round"/></g><g clip-path="url(#clip14_6625_29065)"><path d="M264.501 249.416l.644 1.304 1.44.211-1.042 1.014.246 1.434-1.288-.677-1.287.677.246-1.434-1.042-1.014 1.44-.211.643-1.304z" stroke="#F59E0B" stroke-width=".417" stroke-linecap="round" stroke-linejoin="round"/></g><path d="M230 181a6 6 0 016-6h68a6 6 0 016 6v34h-80v-34z" fill="#E2E8F0"/><path d="M261.711 189.567L230 215h80v-7.28l-13.545-9.978a1 1 0 00-1.159-.02l-13.884 9.523a1.002 1.002 0 01-1.281-.126l-17.079-17.471a1 1 0 00-1.341-.081z" fill="url(#paint2_linear_6625_29065)"/><path stroke="#754FFE" stroke-width="2.5" stroke-linecap="round" d="M243.25 226.75h37.5"/><path stroke="#E2E8F0" stroke-width="2" stroke-linecap="round" d="M243 234h54m-54 6h48"/><circle cx="284" cy="189" r="5" fill="#CBD5E1"/><circle cx="296" cy="253" r="4" fill="#E2E8F0"/><circle cx="296" cy="252" r="1" fill="#94A3B8"/><path d="M298 254.5c0-.197-.052-.392-.152-.574a1.568 1.568 0 00-.434-.487 2.16 2.16 0 00-.649-.325A2.595 2.595 0 00296 253c-.263 0-.523.039-.765.114a2.16 2.16 0 00-.649.325c-.186.14-.333.305-.434.487-.1.182-.152.377-.152.574h4z" fill="#94A3B8"/></g><rect x="422.25" y="175.25" width="79.5" height="90.929" rx="5.75" fill="#fff" stroke="#E2E8F0" stroke-width=".5"/><g clip-path="url(#clip15_6625_29065)"><path d="M436.501 249.416l.644 1.304 1.44.211-1.042 1.014.246 1.434-1.288-.677-1.287.677.246-1.434-1.042-1.014 1.44-.211.643-1.304z" stroke="#F59E0B" stroke-width=".417" stroke-linecap="round" stroke-linejoin="round"/></g><g clip-path="url(#clip16_6625_29065)"><path d="M441.501 249.416l.644 1.304 1.44.211-1.042 1.014.246 1.434-1.288-.677-1.287.677.246-1.434-1.042-1.014 1.44-.211.643-1.304z" stroke="#F59E0B" stroke-width=".417" stroke-linecap="round" stroke-linejoin="round"/></g><g clip-path="url(#clip17_6625_29065)"><path d="M446.501 249.416l.644 1.304 1.44.211-1.042 1.014.246 1.434-1.288-.677-1.287.677.246-1.434-1.042-1.014 1.44-.211.643-1.304z" stroke="#F59E0B" stroke-width=".417" stroke-linecap="round" stroke-linejoin="round"/></g><g clip-path="url(#clip18_6625_29065)"><path d="M451.501 249.416l.644 1.304 1.44.211-1.042 1.014.246 1.434-1.288-.677-1.287.677.246-1.434-1.042-1.014 1.44-.211.643-1.304z" stroke="#F59E0B" stroke-width=".417" stroke-linecap="round" stroke-linejoin="round"/></g><g clip-path="url(#clip19_6625_29065)"><path d="M456.501 249.416l.644 1.304 1.44.211-1.042 1.014.246 1.434-1.288-.677-1.287.677.246-1.434-1.042-1.014 1.44-.211.643-1.304z" stroke="#F59E0B" stroke-width=".417" stroke-linecap="round" stroke-linejoin="round"/></g><path d="M422 181a6 6 0 016-6h68a6 6 0 016 6v34h-80v-34z" fill="#E2E8F0"/><path d="M453.711 189.567L422 215h80v-7.28l-13.545-9.978a1 1 0 00-1.159-.02l-13.884 9.523a1.002 1.002 0 01-1.281-.126l-17.079-17.471a1 1 0 00-1.341-.081z" fill="url(#paint3_linear_6625_29065)"/><path stroke="#CBD5E1" stroke-width="2.5" stroke-linecap="round" d="M435.25 226.75h37.5"/><path stroke="#E2E8F0" stroke-width="2" stroke-linecap="round" d="M435 234h54m-54 6h48"/><circle cx="476" cy="189" r="5" fill="#CBD5E1"/><circle cx="488" cy="253" r="4" fill="#E2E8F0"/><circle cx="488" cy="252" r="1" fill="#94A3B8"/><path d="M490 254.5c0-.197-.052-.392-.152-.574a1.568 1.568 0 00-.434-.487 2.16 2.16 0 00-.649-.325A2.595 2.595 0 00488 253c-.263 0-.523.039-.765.114a2.16 2.16 0 00-.649.325c-.186.14-.333.305-.434.487-.1.182-.152.377-.152.574h4z" fill="#94A3B8"/><defs><clipPath id="clip0_6625_29065"><path fill="#fff" transform="translate(146 249)" d="M0 0h5v5H0z"/></clipPath><clipPath id="clip1_6625_29065"><path fill="#fff" transform="translate(151 249)" d="M0 0h5v5H0z"/></clipPath><clipPath id="clip2_6625_29065"><path fill="#fff" transform="translate(156 249)" d="M0 0h5v5H0z"/></clipPath><clipPath id="clip3_6625_29065"><path fill="#fff" transform="translate(161 249)" d="M0 0h5v5H0z"/></clipPath><clipPath id="clip4_6625_29065"><path fill="#fff" transform="translate(166 249)" d="M0 0h5v5H0z"/></clipPath><clipPath id="clip5_6625_29065"><path fill="#fff" transform="translate(338 249)" d="M0 0h5v5H0z"/></clipPath><clipPath id="clip6_6625_29065"><path fill="#fff" transform="translate(343 249)" d="M0 0h5v5H0z"/></clipPath><clipPath id="clip7_6625_29065"><path fill="#fff" transform="translate(348 249)" d="M0 0h5v5H0z"/></clipPath><clipPath id="clip8_6625_29065"><path fill="#fff" transform="translate(353 249)" d="M0 0h5v5H0z"/></clipPath><clipPath id="clip9_6625_29065"><path fill="#fff" transform="translate(358 249)" d="M0 0h5v5H0z"/></clipPath><clipPath id="clip10_6625_29065"><path fill="#fff" transform="translate(242 249)" d="M0 0h5v5H0z"/></clipPath><clipPath id="clip11_6625_29065"><path fill="#fff" transform="translate(247 249)" d="M0 0h5v5H0z"/></clipPath><clipPath id="clip12_6625_29065"><path fill="#fff" transform="translate(252 249)" d="M0 0h5v5H0z"/></clipPath><clipPath id="clip13_6625_29065"><path fill="#fff" transform="translate(257 249)" d="M0 0h5v5H0z"/></clipPath><clipPath id="clip14_6625_29065"><path fill="#fff" transform="translate(262 249)" d="M0 0h5v5H0z"/></clipPath><clipPath id="clip15_6625_29065"><path fill="#fff" transform="translate(434 249)" d="M0 0h5v5H0z"/></clipPath><clipPath id="clip16_6625_29065"><path fill="#fff" transform="translate(439 249)" d="M0 0h5v5H0z"/></clipPath><clipPath id="clip17_6625_29065"><path fill="#fff" transform="translate(444 249)" d="M0 0h5v5H0z"/></clipPath><clipPath id="clip18_6625_29065"><path fill="#fff" transform="translate(449 249)" d="M0 0h5v5H0z"/></clipPath><clipPath id="clip19_6625_29065"><path fill="#fff" transform="translate(454 249)" d="M0 0h5v5H0z"/></clipPath><linearGradient id="paint0_linear_6625_29065" x1="174" y1="175.103" x2="174" y2="215" gradientUnits="userSpaceOnUse"><stop stop-color="#B4BED8"/><stop offset="1" stop-color="#C1C6D2" stop-opacity="0"/></linearGradient><linearGradient id="paint1_linear_6625_29065" x1="366" y1="175.103" x2="366" y2="215" gradientUnits="userSpaceOnUse"><stop stop-color="#B4BED8"/><stop offset="1" stop-color="#C1C6D2" stop-opacity="0"/></linearGradient><linearGradient id="paint2_linear_6625_29065" x1="270" y1="175.103" x2="270" y2="215" gradientUnits="userSpaceOnUse"><stop stop-color="#B4BED8"/><stop offset="1" stop-color="#C1C6D2" stop-opacity="0"/></linearGradient><linearGradient id="paint3_linear_6625_29065" x1="462" y1="175.103" x2="462" y2="215" gradientUnits="userSpaceOnUse"><stop stop-color="#B4BED8"/><stop offset="1" stop-color="#C1C6D2" stop-opacity="0"/></linearGradient><filter id="filter0_d_6625_29065" x="83" y="81" width="470" height="241" filterUnits="userSpaceOnUse" color-interpolation-filters="sRGB"><feFlood flood-opacity="0" result="BackgroundImageFix"/><feColorMatrix in="SourceAlpha" values="0 0 0 0 0 0 0 0 0 0 0 0 0 0 0 0 0 0 127 0" result="hardAlpha"/><feOffset dy="1"/><feGaussianBlur stdDeviation="1.5"/><feColorMatrix values="0 0 0 0 0.0117647 0 0 0 0 0 0 0 0 0 0.278431 0 0 0 0.13 0"/><feBlend in2="BackgroundImageFix" result="effect1_dropShadow_6625_29065"/><feBlend in="SourceGraphic" in2="effect1_dropShadow_6625_29065" result="shape"/></filter><filter id="filter1_d_6625_29065" x="224" y="172" width="92" height="103.429" filterUnits="userSpaceOnUse" color-interpolation-filters="sRGB"><feFlood flood-opacity="0" result="BackgroundImageFix"/><feColorMatrix in="SourceAlpha" values="0 0 0 0 0 0 0 0 0 0 0 0 0 0 0 0 0 0 127 0" result="hardAlpha"/><feOffset dy="3"/><feGaussianBlur stdDeviation="3"/><feColorMatrix values="0 0 0 0 0.0117647 0 0 0 0 0 0 0 0 0 0.278431 0 0 0 0.1 0"/><feBlend in2="BackgroundImageFix" result="effect1_dropShadow_6625_29065"/><feBlend in="SourceGraphic" in2="effect1_dropShadow_6625_29065" result="shape"/></filter></defs></svg>