<svg width="636" height="400" fill="none" xmlns="http://www.w3.org/2000/svg"><path fill="#E2E8F0" d="M0 0h636v400H0z"/><g filter="url(#filter0_d_6114_29250)"><rect x="87" y="59" width="462" height="282" rx="12" fill="#fff"/></g><path d="M143.239 130.674c-.051-.516-.27-.916-.658-1.202-.388-.285-.914-.428-1.579-.428-.452 0-.833.064-1.144.192-.311.123-.55.296-.716.518a1.244 1.244 0 00-.243.754c-.008.234.041.439.147.613.111.175.262.326.454.454.192.124.413.233.665.326.251.09.52.166.805.23l1.176.282a8.264 8.264 0 011.573.511c.477.213.89.475 1.24.786.349.311.62.678.812 1.1.196.422.296.905.3 1.451-.004.801-.209 1.495-.614 2.083-.4.584-.98 1.038-1.738 1.362-.755.32-1.664.479-2.73.479-1.056 0-1.977-.162-2.761-.485-.78-.324-1.389-.804-1.828-1.439-.435-.639-.663-1.429-.684-2.371h2.678c.03.439.156.805.377 1.099.226.29.527.51.902.659.379.145.807.217 1.284.217.469 0 .876-.068 1.221-.204.35-.137.62-.326.812-.569.192-.243.288-.522.288-.838a1.09 1.09 0 00-.262-.741c-.171-.201-.422-.371-.755-.512a7.703 7.703 0 00-1.208-.383l-1.425-.358c-1.104-.269-1.975-.688-2.615-1.259-.639-.571-.956-1.34-.952-2.308-.004-.792.207-1.485.633-2.077.43-.593 1.02-1.055 1.77-1.387.75-.333 1.603-.499 2.557-.499.972 0 1.82.166 2.544.499.729.332 1.296.794 1.701 1.387.404.592.613 1.278.626 2.058h-2.653zm9.865-.492v2.045h-5.913v-2.045h5.913zm-4.57-2.352h2.723v9.153c0 .251.038.447.115.588a.637.637 0 00.319.288c.141.055.303.083.486.083.128 0 .256-.011.384-.032l.294-.058.428 2.027a8.418 8.418 0 01-.575.147 4.7 4.7 0 01-.902.108c-.656.026-1.231-.062-1.726-.262-.49-.2-.871-.511-1.144-.933-.272-.422-.407-.955-.402-1.598v-9.511zm9.143 12.355c-.626 0-1.184-.108-1.674-.326a2.693 2.693 0 01-1.164-.978c-.281-.434-.422-.975-.422-1.623 0-.546.101-1.004.301-1.374.2-.371.473-.67.818-.895a3.96 3.96 0 011.176-.512 8.986 8.986 0 011.394-.243 34.187 34.187 0 001.38-.166c.35-.055.603-.136.761-.243.158-.106.236-.264.236-.473v-.038c0-.405-.127-.718-.383-.94-.251-.221-.609-.332-1.074-.332-.49 0-.88.109-1.17.326a1.503 1.503 0 00-.575.805l-2.518-.204a3.413 3.413 0 01.754-1.547 3.618 3.618 0 011.451-1.01c.596-.239 1.287-.358 2.071-.358.545 0 1.067.064 1.566.192a4.11 4.11 0 011.336.594c.392.269.701.614.927 1.036.226.417.338.918.338 1.502V140h-2.582v-1.362h-.077a2.754 2.754 0 01-.632.812 2.94 2.94 0 01-.953.544 3.962 3.962 0 01-1.285.191zm.78-1.879c.401 0 .754-.079 1.061-.236.307-.162.548-.38.723-.652.174-.273.262-.582.262-.927v-1.042a1.502 1.502 0 01-.352.153 6.558 6.558 0 01-.492.122 26.37 26.37 0 01-.55.096l-.498.07c-.32.047-.599.121-.838.224-.238.102-.424.24-.556.415a1.015 1.015 0 00-.198.639c0 .371.134.654.403.85.272.192.618.288 1.035.288zm12.084-8.124v2.045h-5.912v-2.045h5.912zm-4.57-2.352h2.723v9.153c0 .251.038.447.115.588a.639.639 0 00.32.288c.14.055.302.083.486.083.127 0 .255-.011.383-.032l.294-.058.428 2.027a8.266 8.266 0 01-.575.147 4.688 4.688 0 01-.901.108c-.656.026-1.232-.062-1.726-.262-.49-.2-.872-.511-1.144-.933-.273-.422-.407-.955-.403-1.598v-9.511zm14.39 5.152l-2.493.153a1.276 1.276 0 00-.275-.575 1.45 1.45 0 00-.556-.416 1.897 1.897 0 00-.812-.16c-.421 0-.777.09-1.067.269-.29.175-.435.409-.435.703 0 .234.094.432.282.594.187.162.509.292.965.39l1.777.358c.954.196 1.666.512 2.135.946.468.435.703 1.006.703 1.713 0 .644-.19 1.208-.569 1.694-.375.486-.891.865-1.547 1.138-.652.269-1.404.403-2.256.403-1.3 0-2.336-.271-3.107-.812-.767-.545-1.216-1.287-1.349-2.224l2.679-.141c.081.396.277.699.588.908.311.204.709.306 1.195.306.477 0 .861-.091 1.151-.274.294-.188.443-.429.447-.723a.752.752 0 00-.313-.607c-.205-.162-.52-.286-.946-.371l-1.7-.339c-.959-.191-1.673-.524-2.142-.997-.464-.473-.696-1.076-.696-1.809 0-.63.17-1.174.511-1.63.345-.456.829-.807 1.451-1.054.626-.247 1.359-.371 2.199-.371 1.24 0 2.216.262 2.927.786.716.524 1.134 1.238 1.253 2.142z" fill="#475569"/><path d="M135.965 235v-2.276l4.775-4.18c.358-.324.663-.62.914-.888.252-.273.443-.546.575-.819.133-.277.199-.577.199-.901 0-.362-.079-.671-.237-.927a1.59 1.59 0 00-.652-.601 2.081 2.081 0 00-.952-.211c-.363 0-.68.075-.953.224a1.552 1.552 0 00-.639.633c-.149.277-.224.614-.224 1.01h-2.998c0-.891.201-1.66.601-2.308a3.952 3.952 0 011.688-1.495c.728-.354 1.574-.531 2.537-.531.993 0 1.856.166 2.589.499.733.332 1.3.797 1.7 1.393.405.592.608 1.281.608 2.065 0 .498-.1.993-.301 1.483-.2.49-.56 1.031-1.08 1.623-.516.593-1.249 1.302-2.199 2.129l-1.566 1.444v.084h5.306V235h-9.691zm16.893.32c-1.142 0-2.127-.271-2.953-.812-.827-.546-1.464-1.328-1.912-2.346-.447-1.023-.669-2.252-.664-3.688.004-1.436.228-2.655.671-3.657.447-1.005 1.082-1.77 1.905-2.294.826-.529 1.811-.793 2.953-.793s2.126.264 2.953.793c.831.524 1.47 1.289 1.918 2.294.447 1.006.669 2.225.664 3.657 0 1.44-.223 2.672-.671 3.694-.447 1.023-1.084 1.805-1.911 2.346-.823.537-1.807.806-2.953.806zm0-2.589c.682 0 1.233-.347 1.655-1.042.422-.699.631-1.771.627-3.215 0-.946-.096-1.726-.288-2.34-.192-.618-.458-1.078-.799-1.38a1.742 1.742 0 00-1.195-.454c-.678 0-1.225.343-1.643 1.029-.418.682-.629 1.73-.633 3.145-.004.959.088 1.753.275 2.384.192.631.46 1.102.805 1.413.346.306.744.46 1.196.46zm7.373-10.822h3.918l3.324 8.105h.154l3.323-8.105h3.919V235h-3.081v-8.041h-.109l-3.145 7.958h-1.968l-3.145-8.003h-.109V235h-3.081v-13.091zm76.746 13.27c-.955 0-1.803-.173-2.544-.518-.742-.345-1.328-.82-1.758-1.425-.426-.605-.648-1.3-.665-2.084h3.068c.026.482.222.869.588 1.163.367.29.803.435 1.311.435a2.09 2.09 0 001.054-.262c.307-.175.548-.42.723-.735.174-.32.259-.686.255-1.1.004-.421-.083-.79-.262-1.105a1.857 1.857 0 00-.729-.736 2.073 2.073 0 00-1.061-.268 2.333 2.333 0 00-1.08.249 1.827 1.827 0 00-.767.697l-2.793-.524.569-7.057h8.399v2.551h-5.798l-.3 3.087h.076c.218-.362.567-.661 1.049-.895.486-.239 1.037-.358 1.655-.358.784 0 1.483.183 2.097.55a3.87 3.87 0 011.457 1.508c.358.644.537 1.381.537 2.212 0 .899-.213 1.696-.639 2.391a4.403 4.403 0 01-1.777 1.636c-.758.392-1.647.588-2.665.588zm7.374-.179l5.28-10.457v-.083h-6.175v-2.551h9.448v2.57L247.605 235h-3.254zm10.316 0v-13.091h3.164v5.536h.172l4.328-5.536h3.726l-4.64 5.842L266.14 235h-3.784l-3.26-5.146-1.265 1.598V235h-3.164zm73.298 0v-2.276l4.775-4.18c.358-.324.663-.62.914-.888.252-.273.443-.546.575-.819.133-.277.199-.577.199-.901 0-.362-.079-.671-.237-.927a1.59 1.59 0 00-.652-.601 2.081 2.081 0 00-.952-.211c-.363 0-.68.075-.953.224a1.552 1.552 0 00-.639.633c-.149.277-.224.614-.224 1.01h-2.998c0-.891.201-1.66.601-2.308a3.952 3.952 0 011.688-1.495c.728-.354 1.574-.531 2.537-.531.993 0 1.856.166 2.589.499.733.332 1.3.797 1.7 1.393.405.592.608 1.281.608 2.065 0 .498-.1.993-.301 1.483-.2.49-.56 1.031-1.08 1.623-.516.593-1.249 1.302-2.199 2.129l-1.566 1.444v.084h5.306V235h-9.691zm17.532-13.091V235h-3.158v-10.138h-.076l-2.928 1.79v-2.736l3.228-2.007h2.934zm2.92 13.091v-13.091h3.164v5.536h.172l4.328-5.536h3.726l-4.64 5.842L359.89 235h-3.784l-3.26-5.146-1.265 1.598V235h-3.164zm80.528.179c-.998 0-1.882-.17-2.653-.511-.767-.346-1.372-.821-1.815-1.426-.444-.605-.669-1.302-.678-2.09h3.183c.013.285.105.539.275.761.171.217.403.387.697.511.294.124.628.185 1.003.185.375 0 .706-.066.991-.198a1.66 1.66 0 00.678-.556c.162-.239.24-.511.236-.818a1.296 1.296 0 00-.262-.818 1.722 1.722 0 00-.761-.556c-.323-.132-.707-.199-1.15-.199h-1.272v-2.25h1.272c.388 0 .729-.063 1.023-.191.298-.128.53-.307.696-.537.167-.235.248-.503.243-.806a1.337 1.337 0 00-.211-.773 1.387 1.387 0 00-.594-.524 1.958 1.958 0 00-.876-.186c-.349 0-.667.062-.952.186a1.618 1.618 0 00-.671.524 1.35 1.35 0 00-.262.786h-3.024c.009-.78.226-1.466.652-2.058.426-.597 1.006-1.063 1.739-1.4.737-.337 1.576-.505 2.518-.505.938 0 1.762.164 2.474.492.712.328 1.266.776 1.662 1.343.396.562.594 1.199.594 1.911.005.737-.236 1.344-.722 1.822-.482.477-1.102.771-1.86.882v.102c1.014.119 1.779.447 2.295.984.52.537.777 1.208.773 2.014a3.25 3.25 0 01-.671 2.02c-.443.584-1.061 1.044-1.854 1.38-.788.333-1.694.499-2.716.499zm12.14 0c-1.019 0-1.929-.162-2.73-.486-.797-.328-1.423-.771-1.879-1.329a2.963 2.963 0 01-.678-1.905c0-.541.13-1.038.39-1.49.26-.451.612-.826 1.055-1.125a3.634 3.634 0 011.496-.581v-.102a2.97 2.97 0 01-1.771-1.004 2.824 2.824 0 01-.684-1.886c0-.682.207-1.289.62-1.821.418-.533.987-.953 1.707-1.26.724-.306 1.549-.46 2.474-.46.924 0 1.747.154 2.467.46.724.307 1.293.727 1.707 1.26.417.532.626 1.139.626 1.821 0 .725-.232 1.355-.697 1.892a2.973 2.973 0 01-1.757.998v.102a3.584 3.584 0 011.483.581c.447.299.801.674 1.061 1.125.264.452.396.949.396 1.49 0 .707-.228 1.342-.684 1.905-.456.558-1.082 1.001-1.879 1.329-.793.324-1.701.486-2.723.486zm0-2.244c.387 0 .728-.072 1.022-.217.294-.149.525-.356.691-.62.17-.264.255-.562.255-.895 0-.341-.085-.643-.255-.908a1.76 1.76 0 00-.703-.62 2.157 2.157 0 00-1.01-.23 2.18 2.18 0 00-1.01.23c-.299.15-.533.356-.703.62a1.636 1.636 0 00-.256.908c0 .333.083.631.249.895.171.26.403.464.697.614.298.149.639.223 1.023.223zm0-5.721c.332 0 .626-.068.882-.204a1.547 1.547 0 00.831-1.394 1.494 1.494 0 00-.825-1.361 1.862 1.862 0 00-.888-.205c-.333 0-.629.069-.889.205-.26.132-.462.315-.607.55a1.51 1.51 0 00-.217.811c0 .307.072.582.217.825.149.239.354.428.614.569.26.136.554.204.882.204zm12.464 8.106c-1.142 0-2.126-.271-2.953-.812-.827-.546-1.464-1.328-1.911-2.346-.448-1.023-.669-2.252-.665-3.688.004-1.436.228-2.655.671-3.657.448-1.005 1.083-1.77 1.905-2.294.827-.529 1.811-.793 2.953-.793s2.127.264 2.953.793c.831.524 1.47 1.289 1.918 2.294.447 1.006.669 2.225.665 3.657 0 1.44-.224 2.672-.671 3.694-.448 1.023-1.085 1.805-1.912 2.346-.822.537-1.807.806-2.953.806zm0-2.589c.682 0 1.234-.347 1.656-1.042.422-.699.63-1.771.626-3.215 0-.946-.096-1.726-.287-2.34-.192-.618-.459-1.078-.8-1.38a1.74 1.74 0 00-1.195-.454c-.677 0-1.225.343-1.643 1.029-.417.682-.628 1.73-.632 3.145-.005.959.087 1.753.274 2.384.192.631.461 1.102.806 1.413.345.306.743.46 1.195.46zm7.373-10.822h3.919l3.324 8.105h.153l3.324-8.105h3.918V235h-3.081v-8.041h-.108l-3.145 7.958h-1.969l-3.145-8.003h-.109V235h-3.081v-13.091z" fill="#754FFE"/><path d="M135 156h141" stroke="#CBD5E1" stroke-width="4" stroke-linecap="round"/><path d="M135 166h91" stroke="#E2E8F0" stroke-width="4" stroke-linecap="round"/><path d="M135 200h80m16 0h80m16 0h80m16 0h80" stroke="#E2E8F0" stroke-linecap="round"/><path d="M135 245h33m63 0h33m63 0h50m46 0h65" stroke="#E2E8F0" stroke-width="4" stroke-linecap="round"/><defs><filter id="filter0_d_6114_29250" x="84" y="57" width="468" height="288" filterUnits="userSpaceOnUse" color-interpolation-filters="sRGB"><feFlood flood-opacity="0" result="BackgroundImageFix"/><feColorMatrix in="SourceAlpha" values="0 0 0 0 0 0 0 0 0 0 0 0 0 0 0 0 0 0 127 0" result="hardAlpha"/><feOffset dy="1"/><feGaussianBlur stdDeviation="1.5"/><feColorMatrix values="0 0 0 0 0.0117647 0 0 0 0 0 0 0 0 0 0.278431 0 0 0 0.13 0"/><feBlend in2="BackgroundImageFix" result="effect1_dropShadow_6114_29250"/><feBlend in="SourceGraphic" in2="effect1_dropShadow_6114_29250" result="shape"/></filter></defs></svg>