<svg width="636" height="400" fill="none" xmlns="http://www.w3.org/2000/svg"><path fill="#E2E8F0" d="M0 0h636v400H0z"/><g filter="url(#filter0_d_6114_29337)"><rect x="87" y="59" width="462" height="282" rx="12" fill="#fff"/></g><path d="M141.168 100.455c0 1.427-.271 2.642-.812 3.643-.537 1.001-1.27 1.766-2.199 2.295-.925.524-1.965.786-3.119.786-1.164 0-2.208-.264-3.132-.793-.925-.528-1.656-1.293-2.193-2.294-.537-1.002-.805-2.214-.805-3.637 0-1.428.268-2.642.805-3.644.537-1.001 1.268-1.764 2.193-2.288.924-.529 1.968-.793 3.132-.793 1.154 0 2.194.264 3.119.793.929.524 1.662 1.287 2.199 2.288.541 1.001.812 2.216.812 3.644zm-2.806 0c0-.925-.139-1.705-.416-2.34-.273-.635-.658-1.116-1.157-1.444-.499-.329-1.082-.493-1.751-.493-.669 0-1.253.164-1.752.493-.498.328-.886.81-1.163 1.444-.273.635-.409 1.415-.409 2.34 0 .924.136 1.704.409 2.339.277.635.665 1.117 1.163 1.445.499.328 1.083.492 1.752.492s1.252-.164 1.751-.492c.499-.328.884-.81 1.157-1.445.277-.635.416-1.415.416-2.339zm11.101 2.365v-5.638h2.723V107h-2.614v-1.783h-.103a2.898 2.898 0 01-1.106 1.387c-.511.349-1.135.524-1.872.524-.657 0-1.234-.149-1.733-.448a3.073 3.073 0 01-1.169-1.272c-.277-.549-.418-1.208-.422-1.975v-6.251h2.723v5.765c.004.58.16 1.038.466 1.375.307.336.718.505 1.234.505.328 0 .635-.075.92-.224a1.75 1.75 0 00.691-.678c.179-.298.266-.666.262-1.105zm4.901 4.18v-9.818h2.64v1.713h.102c.179-.61.48-1.07.901-1.38a2.37 2.37 0 011.458-.474 4.114 4.114 0 01.856.096v2.416a3.512 3.512 0 00-.53-.102 4.78 4.78 0 00-.62-.045c-.401 0-.759.088-1.074.262-.311.17-.558.409-.742.716a2.068 2.068 0 00-.268 1.061V107h-2.723zm11.084-10.809V93.91h10.751v2.282h-4.008V107h-2.735V96.191h-4.008zm15.521 11.001c-1.01 0-1.879-.205-2.608-.614a4.202 4.202 0 01-1.674-1.751c-.392-.759-.588-1.656-.588-2.691 0-1.01.196-1.897.588-2.66a4.35 4.35 0 011.655-1.783c.716-.426 1.556-.639 2.519-.639.647 0 1.25.104 1.809.313a4.02 4.02 0 011.47.927c.422.413.75.933.984 1.56.234.622.352 1.351.352 2.186v.748h-8.291V101.1h5.727c0-.392-.085-.739-.255-1.042a1.835 1.835 0 00-.71-.71 2.022 2.022 0 00-1.042-.261c-.413 0-.779.096-1.099.287a2.02 2.02 0 00-.742.761c-.179.315-.27.667-.274 1.055v1.604c0 .486.089.906.268 1.259.183.354.441.627.773.818.333.192.727.288 1.183.288.303 0 .58-.043.831-.128s.467-.213.646-.383c.179-.171.315-.38.409-.627l2.518.167a3.444 3.444 0 01-.786 1.585c-.392.447-.899.797-1.521 1.048-.618.247-1.332.371-2.142.371zm9.083-.007c-.626 0-1.184-.108-1.674-.326a2.693 2.693 0 01-1.164-.978c-.281-.434-.422-.975-.422-1.623 0-.546.101-1.004.301-1.374.2-.371.473-.67.818-.895a3.96 3.96 0 011.176-.512 8.986 8.986 0 011.394-.243 34.187 34.187 0 001.38-.166c.35-.055.603-.136.761-.243.158-.106.236-.264.236-.473v-.038c0-.405-.127-.718-.383-.94-.251-.221-.609-.332-1.074-.332-.49 0-.88.109-1.17.326a1.505 1.505 0 00-.575.805l-2.518-.204a3.413 3.413 0 01.754-1.547 3.623 3.623 0 011.451-1.01c.596-.239 1.287-.358 2.071-.358.545 0 1.067.064 1.566.192a4.11 4.11 0 011.336.594c.392.269.701.614.927 1.036.226.417.338.918.338 1.502V107h-2.582v-1.362h-.077a2.754 2.754 0 01-.632.812 2.94 2.94 0 01-.953.544 3.962 3.962 0 01-1.285.191zm.78-1.879c.401 0 .754-.079 1.061-.236.307-.162.548-.38.723-.652.174-.273.262-.582.262-.927v-1.042a1.502 1.502 0 01-.352.153 6.558 6.558 0 01-.492.122 26.37 26.37 0 01-.55.096l-.498.07c-.32.047-.599.121-.838.224-.238.102-.424.24-.556.415a1.015 1.015 0 00-.198.639c0 .371.134.654.403.85.272.192.618.288 1.035.288zm6.862 1.694v-9.818h2.595v1.732h.115a2.728 2.728 0 011.023-1.361c.477-.333 1.048-.499 1.713-.499.673 0 1.247.168 1.72.505.473.332.788.784.946 1.355h.102a2.61 2.61 0 011.086-1.349c.529-.34 1.153-.511 1.873-.511.917 0 1.66.292 2.231.876.575.58.863 1.402.863 2.467V107h-2.717v-6.066c0-.546-.144-.955-.434-1.227-.29-.273-.652-.41-1.087-.41-.494 0-.88.158-1.157.474-.277.311-.415.722-.415 1.233V107h-2.64v-6.124c0-.481-.139-.865-.416-1.15-.272-.286-.632-.428-1.08-.428-.302 0-.575.076-.818.23-.239.149-.428.36-.569.633a2.003 2.003 0 00-.211.946V107h-2.723z" fill="#475569"/><path d="M128 123h141" stroke="#CBD5E1" stroke-width="4" stroke-linecap="round"/><path d="M128 133h91" stroke="#E2E8F0" stroke-width="4" stroke-linecap="round"/><rect x="126" y="167" width="80" height="80" rx="4" fill="#E2E8F0"/><rect x="227" y="167" width="80" height="80" rx="4" fill="#E2E8F0"/><rect x="328" y="167" width="80" height="80" rx="4" fill="#E2E8F0"/><rect x="429" y="167" width="80" height="80" rx="4" fill="#E2E8F0"/><rect x="126" y="255" width="59" height="6" rx="3" fill="#CBD5E1"/><rect x="227" y="255" width="59" height="6" rx="3" fill="#754FFE"/><rect x="328" y="255" width="59" height="6" rx="3" fill="#CBD5E1"/><rect x="429" y="255" width="59" height="6" rx="3" fill="#CBD5E1"/><rect x="126" y="265" width="42" height="4" rx="2" fill="#E2E8F0"/><rect x="227" y="265" width="42" height="4" rx="2" fill="#E2E8F0"/><rect x="328" y="265" width="42" height="4" rx="2" fill="#E2E8F0"/><rect x="429" y="265" width="42" height="4" rx="2" fill="#E2E8F0"/><circle cx="166.5" cy="193.5" r="13.5" fill="#E2E8F0"/><circle cx="267.5" cy="197.5" r="13.5" fill="#E2E8F0"/><circle cx="368.5" cy="193.5" r="13.5" fill="#E2E8F0"/><circle cx="469.5" cy="193.5" r="13.5" fill="#E2E8F0"/><path d="M194 247c0-7.426-2.95-21.548-8.201-26.799a28 28 0 00-39.598 0C140.95 225.452 138 239.574 138 247h56zm101 0c0-7.426-2.95-18.548-8.201-23.799a28 28 0 00-39.598 0C241.95 228.452 239 239.574 239 247h56zm101 0c0-7.426-2.95-21.548-8.201-26.799a28 28 0 00-39.598 0C342.95 225.452 340 239.574 340 247h56zm101 0c0-7.426-2.95-21.548-8.201-26.799a28 28 0 00-39.598 0C443.95 225.452 441 239.574 441 247h56z" fill="#E2E8F0"/><defs><filter id="filter0_d_6114_29337" x="84" y="57" width="468" height="288" filterUnits="userSpaceOnUse" color-interpolation-filters="sRGB"><feFlood flood-opacity="0" result="BackgroundImageFix"/><feColorMatrix in="SourceAlpha" values="0 0 0 0 0 0 0 0 0 0 0 0 0 0 0 0 0 0 127 0" result="hardAlpha"/><feOffset dy="1"/><feGaussianBlur stdDeviation="1.5"/><feColorMatrix values="0 0 0 0 0.0117647 0 0 0 0 0 0 0 0 0 0.278431 0 0 0 0.13 0"/><feBlend in2="BackgroundImageFix" result="effect1_dropShadow_6114_29337"/><feBlend in="SourceGraphic" in2="effect1_dropShadow_6114_29337" result="shape"/></filter></defs></svg>