<svg width="170" height="168" viewBox="0 0 170 168" fill="none" xmlns="http://www.w3.org/2000/svg">
<g opacity="0.6">
<path opacity="0.54" d="M63.944 109.536C58.2872 107.682 52.2581 106.999 46.3169 107.504C42.4202 107.887 38.4384 108.793 35.1359 110.909C31.7677 113.022 29.142 116.413 28.6048 120.276C27.9824 124.662 30.1835 129.218 33.701 131.98C46.1815 141.521 63.2365 128.725 68.7328 117.083L63.944 109.536Z" fill="#1479F4"/>
</g>
<g opacity="0.6">
<path opacity="0.54" d="M109.798 104.515C115.457 102.749 121.534 102.118 127.5 102.732C131.434 103.141 135.345 104.14 138.69 106.238C141.966 108.399 144.605 111.786 145.119 115.688C145.68 120.117 143.407 124.64 139.823 127.272C127.17 136.676 110.342 123.684 104.985 111.905L109.798 104.515Z" fill="#1479F4"/>
</g>
<g opacity="0.6">
<path opacity="0.54" d="M70.8848 106.897C67.313 100.25 62.3297 94.4069 56.3828 89.7128C52.4831 86.6077 48.0358 84.0747 43.1361 83.1044C38.2364 82.1341 32.877 82.9236 28.9442 86.0689C24.5369 89.5916 22.6005 95.706 23.5142 101.267C26.6719 120.928 53.4751 123.957 68.6328 118.001L70.8848 106.897Z" fill="#1479F4"/>
</g>
<path d="M64.3553 104.309C55.3126 98.7797 44.8909 100.017 35.574 104.186C34.2563 104.751 35.2117 106.774 36.5294 106.209C45.0668 102.424 54.7519 101.052 63.008 106.143C64.2901 106.921 65.5631 105.082 64.3553 104.309Z" fill="#3E3E40"/>
<path d="M30.1394 103.889C32.9662 102.252 38.3379 101.497 37.489 106.363C37.2183 107.836 34.3018 112.382 33.1531 109.072C32.9792 108.46 33.0341 107.791 33.0891 107.123C32.3717 107.662 31.5119 108.115 30.6642 108.419C29.8909 108.729 28.9812 108.879 28.2751 108.372C27.5007 107.785 27.4499 106.584 27.9689 105.729C28.4136 104.869 29.2796 104.342 30.1394 103.889Z" fill="#3E3E40"/>
<path d="M45.9986 145.651C44.9577 144.668 43.8364 143.753 42.4495 143.34C41.0626 142.926 39.4783 143.095 38.4271 144.056C36.8875 145.5 37.2059 147.994 37.8702 149.918C39.2112 153.618 45.0016 162.32 50.0996 160.346C56.8125 157.832 48.5637 148.105 45.9986 145.651Z" fill="#3E3E40"/>
<g opacity="0.6">
<path opacity="0.54" d="M100.298 99.821C103.963 93.2438 108.98 87.4404 115.006 82.8587C118.934 79.8448 123.436 77.3127 128.341 76.3748C133.245 75.4369 138.607 76.3585 142.507 79.4636C146.85 83.0456 148.73 89.1691 147.735 94.726C144.314 114.342 117.497 117.038 102.391 110.888L100.298 99.821Z" fill="#1479F4"/>
</g>
<path d="M117.134 117.256C122.746 118.8 128.398 118.411 133.749 116.243C135.07 115.692 135.691 117.817 134.37 118.368C128.679 120.69 122.528 121.06 116.553 119.402C115.197 119.085 115.713 116.903 117.134 117.256Z" fill="#3E3E40"/>
<path d="M139.044 119.143C136.245 120.839 130.843 121.705 131.66 116.799C131.882 115.306 134.787 110.778 135.9 114.022C136.077 114.629 136.052 115.295 136.027 115.961C136.748 115.421 137.599 114.953 138.445 114.651C139.188 114.379 140.129 114.214 140.812 114.673C141.626 115.204 141.713 116.441 141.212 117.356C140.717 118.105 139.895 118.674 139.044 119.143Z" fill="#3E3E40"/>
<path d="M105.009 101.181C114.687 101.832 122.711 96.1378 128.496 88.8064C129.397 87.692 131.186 89.0354 130.284 90.1497C123.961 98.1165 115.32 104.074 104.742 103.402C103.313 103.283 103.581 101.062 105.009 101.181Z" fill="#3E3E40"/>
<path d="M135.23 87.8765C133.493 90.6436 129.095 93.8177 127.575 89.118C127.127 87.6885 127.585 82.3067 130.145 84.6983C130.585 85.1589 130.848 85.7758 131.112 86.3928C131.495 85.581 132.044 84.7794 132.652 84.1148C133.191 83.4794 133.926 82.9227 134.787 83.0414C135.745 83.1994 136.351 84.2376 136.29 85.2358C136.299 86.2046 135.779 87.0749 135.23 87.8765Z" fill="#3E3E40"/>
<path d="M35.9266 130.554C39.0938 131.204 44.4745 130.078 42.0534 125.77C41.2948 124.434 37.0422 121.161 37.0732 124.664C37.0503 125.305 37.341 125.905 37.6317 126.505C36.7547 126.3 35.8322 126.155 34.9234 126.114C34.0736 126.118 33.192 126.286 32.692 126.936C32.101 127.703 32.4734 128.93 33.2412 129.521C34.0091 130.112 34.9451 130.362 35.9266 130.554Z" fill="#3E3E40"/>
<path d="M57.1595 123.006C52.06 126.699 46.1202 128.429 39.8765 128.232C38.4314 128.155 38.7273 125.937 40.1724 126.015C45.8345 126.234 51.2516 124.572 55.8693 121.261C56.9828 120.425 58.3321 122.216 57.1595 123.006Z" fill="#3E3E40"/>
<path d="M117.268 126.534C118.468 108.311 104.952 92.6167 87.168 91.5281C69.3905 90.3653 54.0433 104.209 52.8499 122.358C51.8825 137.759 61.3115 151.322 75.0013 155.813C74.529 159.738 73.6853 163.632 72.402 167.415C76.2331 167.207 79.9635 165.494 82.653 162.799C83.7102 161.764 84.563 160.488 85.4097 159.286C85.836 158.648 86.2624 158.01 86.6084 157.441C102.83 156.606 116.179 143.42 117.268 126.534Z" fill="#FFDE5A"/>
<path d="M96.1391 93.3877C96.0475 94.5019 96.3456 95.4238 96.433 96.1788C100.754 96.3846 104.779 103.82 106.293 107.235C108.768 112.599 110.884 117.783 111.671 123.681C112.357 128.972 110.822 134.903 108.928 139.758C107.033 144.612 102.055 148.765 97.5142 151.233C93.5925 153.453 87.4424 155.49 83.1656 155.662C80.6633 159.719 77.404 162.068 74.7318 163.643C74.2617 163.904 73.7916 164.164 73.2411 164.493C73.0131 165.446 72.7048 166.468 72.4025 167.415C76.2336 167.207 79.964 165.494 82.6535 162.799C83.7107 161.764 84.5635 160.488 85.4102 159.287C85.8365 158.649 86.2629 158.011 86.6089 157.441C102.756 156.6 116.173 143.495 117.269 126.534C118.206 111.505 109.272 98.2817 96.1391 93.3877Z" fill="#FBC900"/>
<path d="M61.3462 137.266C55.2845 140.955 50.9393 146.506 49.1023 153.384C48.7634 154.777 50.7944 155.542 51.2076 154.155C52.9214 147.865 56.7904 142.649 62.3016 139.289C63.4891 138.489 62.608 136.472 61.3462 137.266Z" fill="#3E3E40"/>
<path d="M108.42 134.107C104.069 139.732 102.163 146.53 102.852 153.616C102.959 155.046 105.162 154.629 105.055 153.199C104.392 146.713 106.242 140.584 110.26 135.38C111.1 134.253 109.267 132.906 108.42 134.107Z" fill="#3E3E40"/>
<path d="M97.1689 147.241C95.8685 146.686 94.4073 146.266 92.9776 146.373C91.548 146.48 90.0695 147.181 89.5138 148.481C88.6122 150.352 89.7721 152.616 91.1416 154.149C93.7383 157.13 102.212 163.211 106.324 159.586C111.654 154.789 100.42 148.63 97.1689 147.241Z" fill="#3E3E40"/>
<path d="M68.0614 41.2517C68.8132 31.7923 64.8201 19.3854 55.011 15.9474C53.6734 15.4887 54.2881 13.3325 55.6258 13.7912C66.4012 17.5356 71.1332 30.6941 70.2973 41.2708C70.1355 42.7601 67.8996 42.741 68.0614 41.2517Z" fill="#3E3E40"/>
<path d="M85.064 40.2048C88.037 32.4787 89.2571 20.5637 83.2777 13.8044C82.3177 12.7527 83.8969 11.1265 84.8562 12.2527C91.4267 19.6133 90.499 32.2016 87.2203 40.8195C86.6871 42.1565 84.5302 41.6163 85.064 40.2048Z" fill="#3E3E40"/>
<path d="M79.2775 10.938C79.1838 13.1732 80.9559 15.1262 83.1911 15.2199C85.4263 15.3136 87.3794 13.5415 87.4731 11.3063C87.5667 9.07105 85.7947 7.11799 83.5594 7.02431C81.2497 6.93 79.3712 8.70273 79.2775 10.938Z" fill="#FFDE5A"/>
<path d="M48.5407 14.2523C48.447 16.4875 50.2191 18.4405 52.4543 18.5342C54.6895 18.6279 56.6426 16.8558 56.7363 14.6206C56.8299 12.3853 55.0578 10.4323 52.8226 10.3386C50.5129 10.2443 48.635 11.9425 48.5407 14.2523Z" fill="#FFDE5A"/>
<path d="M122.091 69.7217C123.138 93.3645 104.167 98.5348 80.5238 99.5818C56.8811 100.629 37.4919 97.2395 36.4449 73.5967C35.3979 49.954 53.7279 29.8491 77.3706 28.8021C101.013 27.7551 121.044 46.079 122.091 69.7217Z" fill="#FFDE5A"/>
<path d="M78.6267 89.2352C81.0323 89.1445 82.5589 88.2409 82.7124 87.3426C81.517 85.4236 78.7405 84.4528 76.3879 84.5475C73.9823 84.6382 74.8784 86.4578 75.022 87.3935C75.1097 88.3635 76.2183 89.3642 78.6267 89.2352Z" fill="#FBC900"/>
<path d="M122.09 69.7217C121.33 53.5061 111.69 39.7759 98.1033 33.1246C109.395 40.4097 117.12 52.8607 117.805 67.2753C118.852 90.9181 99.8802 96.0884 76.2374 97.1354C64.6018 97.6741 53.9552 97.0977 46.0969 93.5349C54.1495 99.2824 66.6347 100.234 80.5975 99.5879C104.172 98.4605 123.137 93.3644 122.09 69.7217Z" fill="#FBC900"/>
<path d="M40.9433 74.2502C39.3891 73.5799 42.0067 67.5099 43.5609 68.1801C45.1151 68.8503 42.4975 74.9204 40.9433 74.2502Z" fill="white"/>
<path d="M45.6344 73.9083C44.4561 73.4973 46.0615 68.8954 47.2398 69.3064C48.4181 69.7175 46.8127 74.3194 45.6344 73.9083Z" fill="white"/>
<path d="M82.2019 66.8002C82.2136 68.4719 79.8453 69.7807 76.9198 69.6964C73.9943 69.6122 71.5747 68.1839 71.563 66.5121C71.5513 64.8404 73.9197 63.5316 76.8451 63.6159C79.7706 63.7001 82.1902 65.1284 82.2019 66.8002Z" fill="#FBC900"/>
<path d="M113.302 75.7727C114.777 74.9429 111.537 69.1813 110.061 70.0111C108.586 70.8409 111.827 76.6024 113.302 75.7727Z" fill="white"/>
<path d="M108.593 75.8856C109.721 75.3519 107.637 70.9463 106.509 71.4801C105.381 72.0138 107.465 76.4194 108.593 75.8856Z" fill="white"/>
<path d="M106.222 29.6487C108.165 27.0061 112.14 28.5649 111.768 31.8545C111.584 33.313 113.847 33.5519 113.985 32.1524C114.609 26.7045 107.76 23.8701 104.451 28.2833C103.586 29.4048 105.357 30.7701 106.222 29.6487Z" fill="#3E3E40"/>
<path d="M44.935 32.2111C46.3506 34.2003 49.5415 33.8927 50.1625 31.3591C50.478 30.0091 52.699 30.2772 52.3835 31.6272C51.3875 35.9413 45.8949 37.3116 43.1808 33.6075C42.3802 32.4905 44.1052 31.0255 44.935 32.2111Z" fill="#3E3E40"/>
<path fill-rule="evenodd" clip-rule="evenodd" d="M45.0292 63.3624C45.0819 68.5074 48.9609 72.9376 54.1662 73.5566C59.884 74.2671 65.0462 70.2169 65.7567 64.4991C66.4672 58.7814 62.3705 53.583 56.6993 52.9087C53.1651 52.4695 49.8293 53.867 47.6377 56.3377L41.4422 54.6468L45.0292 63.3624Z" fill="#3E3E40"/>
<path d="M45.9205 69.1345C42.4401 64.3231 44.0449 58.8429 49.5081 56.8706C54.9712 54.8983 62.1968 57.1943 65.6773 62.0056C69.1577 66.8169 67.5529 72.2971 62.0898 74.2695C56.6453 76.1885 49.401 73.9458 45.9205 69.1345Z" fill="#FFDE5A"/>
<path fill-rule="evenodd" clip-rule="evenodd" d="M110.871 62.2628C108.23 67.9623 101.688 70.9447 95.5853 69.0191C88.8672 66.9384 85.1577 59.8399 87.2385 53.1218C89.3192 46.4036 96.4876 42.6773 103.136 44.7749C107.288 46.061 110.298 49.291 111.496 53.1405L119.236 54.3701L110.871 62.2628Z" fill="#3E3E40"/>
<path d="M108.582 65.2504C112.253 59.753 110.775 52.3453 105.277 48.6739C99.7799 45.0025 92.3722 46.4808 88.7008 51.9782C85.0294 57.4756 86.5078 64.8833 92.0052 68.5547C97.4851 72.1534 104.91 70.7478 108.582 65.2504Z" fill="#FEFEFE"/>
<path d="M103.684 63.4325C106.401 59.3952 105.305 53.8939 101.268 51.1774C97.2309 48.4608 91.7296 49.5564 89.013 53.5937C86.2964 57.631 87.3921 63.1322 91.4293 65.8488C95.5392 68.5479 100.968 67.4698 103.684 63.4325Z" fill="#3E3E40"/>
<path d="M89.0131 53.594C87.7099 55.5224 87.2182 57.9471 87.6885 60.2168C88.1763 62.5591 89.5009 64.5459 91.4294 65.8491C92.907 66.8766 94.7155 67.363 96.474 67.3235C99.3748 67.2391 102.106 65.8121 103.684 63.4328C104.767 61.865 105.236 59.9838 105.179 58.1527C105.179 58.1527 105.196 58.2253 105.124 58.2428C105.028 58.8039 104.951 59.4377 104.692 59.9611C104.507 60.4671 104.304 60.9004 104.028 61.3512C103.753 61.802 103.404 62.2704 103.038 62.6661C102.673 63.0617 102.289 63.3848 101.888 63.6352C101.432 63.9757 100.959 64.2436 100.395 64.4564C99.9041 64.6516 99.4131 64.8469 98.887 64.8968C98.3785 65.0194 97.7797 65.0869 97.2362 65.0642C96.6926 65.0415 96.149 65.0188 95.6606 64.9059C95.0995 64.8106 94.5935 64.625 94.0701 64.3669C93.8171 64.2741 93.6192 64.0912 93.3663 63.9984C93.0958 63.833 92.9154 63.7228 92.7176 63.5398C92.2493 63.1915 91.8536 62.8257 91.5305 62.4423C91.2075 62.059 90.867 61.603 90.6166 61.2021C90.3487 60.7286 90.0633 60.1824 89.9232 59.6012C89.9056 59.5285 89.9056 59.5285 89.8881 59.4559C89.8356 59.238 89.7655 58.9474 89.713 58.7294C89.6604 58.5115 89.6079 58.2935 89.628 58.058C89.6306 57.7499 89.5781 57.532 89.5806 57.2239C89.5631 57.1512 89.6008 56.9884 89.5832 56.9157L89.5657 56.8431C89.5307 56.6978 89.5858 56.6076 89.6235 56.4448C89.6637 55.9739 89.759 55.4128 89.9621 54.9795C90.0548 54.7265 90.1476 54.4735 90.2403 54.2206C90.2955 54.1304 90.2779 54.0578 90.3506 54.0402C90.4433 53.7873 90.6263 53.5894 90.719 53.3364C90.8293 53.1561 90.8844 53.0659 90.9947 52.8856C91.1601 52.6151 91.343 52.4173 91.5811 52.1293C91.7089 52.0216 91.8191 51.8413 91.9469 51.7336C92.0747 51.6259 92.2576 51.4281 92.3854 51.3204C92.8414 50.9798 93.2974 50.6393 93.8436 50.3539C94.044 50.2287 94.262 50.1762 94.3898 50.0685C94.4624 50.051 94.4624 50.051 94.5351 50.0334C94.8257 49.9634 95.0261 49.8382 95.3167 49.7681C95.3894 49.7506 95.462 49.7331 95.6073 49.6981C92.977 49.9478 90.5543 51.3775 89.0131 53.594Z" fill="#353535"/>
<path d="M104.079 59.6476C106.218 59.5931 107.874 58.8095 107.865 57.8125C107.855 56.8155 106.122 56.0034 103.982 56.0579C101.843 56.1124 100.187 56.896 100.197 57.893C100.297 58.9451 102.013 59.6846 104.079 59.6476Z" fill="#FEFEFE"/>
<path d="M50.2361 46.8368C51.2985 44.8302 52.9247 43.244 54.9537 42.2143C56.2033 41.5692 55.2479 39.5463 53.9983 40.1914C51.4249 41.4754 49.465 43.4829 48.1309 46.0654C47.5009 47.3597 49.6062 48.1311 50.2361 46.8368Z" fill="white"/>
<path d="M57.4836 40.553C58.895 40.6691 59.0782 38.4407 57.6669 38.3246C56.2556 38.2085 56.0723 40.437 57.4836 40.553Z" fill="white"/>
<path d="M115.78 134.638C116.588 132.087 117.111 129.363 117.343 126.54C117.489 124.758 117.413 122.956 117.263 121.149C108.065 126.6 98.2219 130.801 87.6272 132.323C75.8999 133.976 63.7912 132.082 52.9667 127.304C53.3186 132.119 54.7409 136.648 56.9549 140.644C67.1648 143.802 78.0037 144.768 88.8091 143.413C98.2591 142.171 107.274 138.949 115.78 134.638Z" fill="#3E3E40"/>
<path d="M115.211 112.455C113.858 108.904 111.954 105.681 109.574 102.793C93.7448 111.587 74.6709 113.459 57.3586 107.548C55.5299 110.688 54.1968 114.168 53.4457 117.845C73.953 124.916 96.4001 122.948 115.211 112.455Z" fill="#3E3E40"/>
<rect x="113.688" y="74.304" width="3.90127" height="13.4405" rx="1.95063" transform="rotate(-40.8051 113.688 74.304)" fill="#0C4BAA"/>
<rect x="110.25" y="72.3951" width="6.71865" height="5.79814" rx="2.89907" transform="rotate(-40.8051 110.25 72.3951)" fill="#3E3E40"/>
<rect x="119.313" y="81.8203" width="5.36087" height="19.74" rx="2.68044" transform="rotate(-40.8051 119.313 81.8203)" fill="#3E3E40"/>
<mask id="mask0_5753_22483" style="mask-type:alpha" maskUnits="userSpaceOnUse" x="77" y="33" width="45" height="45">
<circle cx="99.7817" cy="55.0359" r="17.0743" fill="#B1D5FF" fill-opacity="0.6" stroke="#0C4BAA" stroke-width="9.91399"/>
</mask>
<g mask="url(#mask0_5753_22483)">
<g filter="url(#filter0_i_5753_22483)">
<path d="M121.813 55.0359C121.813 67.2034 111.949 77.0671 99.7817 77.0671C87.6142 77.0671 77.7505 67.2034 77.7505 55.0359C77.7505 42.8684 87.6142 33.0046 99.7817 33.0046C111.949 33.0046 121.813 42.8684 121.813 55.0359Z" fill="#B1D5FF" fill-opacity="0.22"/>
</g>
<g filter="url(#filter1_i_5753_22483)">
<path fill-rule="evenodd" clip-rule="evenodd" d="M99.7817 73.969C110.238 73.969 118.715 65.4924 118.715 55.0359C118.715 44.5794 110.238 36.1028 99.7817 36.1028C89.3253 36.1028 80.8486 44.5794 80.8486 55.0359C80.8486 65.4924 89.3253 73.969 99.7817 73.969ZM99.7817 77.0671C111.949 77.0671 121.813 67.2034 121.813 55.0359C121.813 42.8684 111.949 33.0046 99.7817 33.0046C87.6142 33.0046 77.7505 42.8684 77.7505 55.0359C77.7505 67.2034 87.6142 77.0671 99.7817 77.0671Z" fill="#0C4BAA"/>
</g>
</g>
<path d="M26.0533 97.6571L42.5578 115.955C43.0883 116.549 43.0839 117.58 42.3982 118.052L24.3581 133.942C23.7648 134.473 22.7334 134.468 22.2612 133.782L1.24915 109.926C0.718621 109.332 0.723057 108.301 1.40875 107.829L14.4941 96.3094L26.0533 97.6571Z" fill="white"/>
<path d="M14.587 96.3679L19.0843 101.532C19.7073 102.184 20.8311 102.246 21.5752 101.682L26.1457 97.7152" fill="#CED3DB"/>
<path d="M15.3673 111.725C15.4499 111.389 15.5325 111.053 15.6151 110.718C15.6976 110.382 15.78 110.046 16.0133 109.676C16.2466 109.307 16.4217 109.029 16.655 108.659C16.8883 108.29 17.2143 107.978 17.5401 107.667C17.9242 107.263 18.4935 106.976 19.0042 106.781C19.5149 106.586 19.9672 106.484 20.512 106.44C20.9985 106.488 21.4848 106.536 21.9129 106.677C22.4335 106.877 22.8373 107.261 23.1488 107.587C23.4603 107.912 23.7136 108.331 23.9084 108.841C24.0691 109.201 24.1714 109.653 24.1814 110.047C24.1913 110.441 24.2011 110.836 24.1186 111.171L23.8713 112.178C23.8471 112.422 23.7644 112.757 23.7402 113C23.716 113.244 23.7841 113.545 23.969 113.662L24.8213 114.975L23.4257 116.163L22.1213 114.952C21.8439 114.777 21.7755 114.475 21.7072 114.174C21.639 113.872 21.5707 113.571 21.6532 113.235C21.7358 112.899 21.8185 112.564 21.8427 112.32C21.9253 111.985 22.008 111.649 21.9981 111.255C22.0806 110.919 22.0122 110.618 22.0023 110.224C21.9341 109.922 21.773 109.562 21.4615 109.236C21.3349 109.027 21.1504 108.911 20.9655 108.794C20.7806 108.677 20.5373 108.653 20.2941 108.629C20.0508 108.605 19.8417 108.731 19.5401 108.799C19.331 108.926 19.1216 109.052 18.8542 109.271C18.5867 109.49 18.4121 109.768 18.1788 110.138C18.0621 110.323 17.8866 110.6 17.8624 110.843C17.7458 111.028 17.7216 111.271 17.6633 111.364C17.605 111.456 17.6392 111.607 17.43 111.733C17.3134 111.918 17.0119 111.987 16.827 111.87L15.3673 111.725ZM25.4025 119.995C25.2759 119.786 25.091 119.669 25.1152 119.426C24.9886 119.217 25.0129 118.974 24.9787 118.823C25.0272 118.337 25.2605 117.967 25.5279 117.748C25.737 117.621 25.946 117.494 26.0968 117.46C26.2475 117.426 26.549 117.358 26.6998 117.324C27.5803 117.362 28.2375 118.165 28.199 119.045C28.1506 119.532 27.9173 119.902 27.6498 120.121C27.4407 120.247 27.3242 120.432 27.081 120.408C26.8719 120.535 26.6288 120.51 26.478 120.544C26.2347 120.52 26.1422 120.462 25.8989 120.438C25.714 120.321 25.5291 120.204 25.4025 119.995Z" fill="#CED3DB"/>
<path d="M169.323 113.249L162.267 144.054C162.035 145.048 160.949 145.803 159.948 145.431L129.978 138.193C128.984 137.961 128.23 136.875 128.602 135.874L138.174 96.2428C138.406 95.2488 139.492 94.494 140.493 94.8662L162.225 100.121L169.323 113.249Z" fill="white"/>
<path d="M162.232 100.261L160.122 108.786C159.897 109.92 160.658 111.146 161.799 111.512L169.33 113.389" fill="#CED3DB"/>
<path d="M146.683 112.391C147.097 112.23 147.51 112.07 147.923 111.909C148.336 111.749 148.749 111.588 149.31 111.56C149.87 111.533 150.29 111.512 150.85 111.485C151.41 111.458 151.977 111.571 152.544 111.683C153.251 111.789 153.972 112.175 154.552 112.568C155.133 112.961 155.574 113.36 156.021 113.9C156.329 114.446 156.636 114.992 156.803 115.546C156.978 116.239 156.872 116.946 156.759 117.513C156.646 118.08 156.394 118.654 156.001 119.235C155.741 119.668 155.342 120.109 154.936 120.409C154.529 120.71 154.123 121.011 153.709 121.171L152.47 121.653C152.197 121.807 151.784 121.967 151.51 122.121C151.237 122.275 150.971 122.569 150.984 122.849L150.233 124.711L147.959 124.12L148.269 121.859C148.249 121.439 148.515 121.145 148.781 120.851C149.048 120.557 149.314 120.263 149.727 120.103C150.14 119.942 150.554 119.782 150.827 119.628C151.24 119.468 151.654 119.307 152.06 119.006C152.473 118.846 152.739 118.552 153.146 118.252C153.412 117.958 153.671 117.523 153.784 116.956C153.91 116.67 153.897 116.39 153.883 116.11C153.87 115.83 153.716 115.557 153.562 115.283C153.408 115.01 153.122 114.884 152.828 114.617C152.541 114.491 152.254 114.364 151.827 114.245C151.4 114.125 150.98 114.146 150.42 114.174C150.14 114.187 149.72 114.207 149.446 114.361C149.166 114.375 148.893 114.529 148.753 114.535C148.613 114.542 148.48 114.689 148.193 114.563C147.913 114.577 147.62 114.31 147.606 114.03L146.683 112.391ZM145.391 129.018C145.517 128.731 145.504 128.451 145.777 128.297C145.903 128.01 146.176 127.857 146.309 127.71C146.856 127.402 147.416 127.375 147.843 127.494C148.13 127.621 148.417 127.747 148.564 127.88C148.71 128.013 149.004 128.279 149.151 128.413C149.759 129.365 149.401 130.646 148.448 131.254C147.901 131.562 147.341 131.589 146.914 131.47C146.627 131.344 146.347 131.357 146.194 131.084C145.907 130.958 145.753 130.685 145.606 130.552C145.453 130.278 145.445 130.138 145.292 129.865C145.278 129.585 145.264 129.305 145.391 129.018Z" fill="#CED3DB"/>
<path d="M146.352 41.9766L146.678 41.5235C148.159 42.3159 149.347 42.8691 150.393 43.2161L150.29 43.7766C149.096 43.3388 147.832 42.769 146.352 41.9766ZM154.932 43.6319C158.219 43.2471 160.352 41.6167 161.094 38.922L161.839 39.2028C161.017 41.9964 158.725 43.7667 155.282 44.2339L154.932 43.6319Z" fill="#353535"/>
<path d="M139.853 36.8735L136.731 30.2964L137.499 30.2291C138.808 30.0434 139.88 30.0439 140.791 30.1885C141.701 30.333 142.607 30.5962 143.503 31.0373C144.4 31.4784 146.111 32.4622 148.638 33.9888C149.974 34.8284 150.952 35.1678 151.721 35.1004C152.413 35.0161 152.96 34.7791 153.135 34.3386C153.385 33.9151 153.262 33.288 152.916 32.5506C152.497 31.7369 151.917 31.0672 151.021 30.6261C150.124 30.185 148.91 29.9725 147.301 30.031L145.11 23.1833C148.099 23.0747 150.748 23.6693 153.283 25.0179C155.743 26.3496 157.772 28.6639 159.298 31.8846C160.475 34.4273 160.83 36.5458 160.365 38.2403C159.717 40.5531 158.044 41.9165 155.349 42.2709C154.194 42.4313 152.977 42.2781 151.697 41.8707C150.416 41.4633 148.55 40.5048 146.25 39.0292C144.617 38.003 143.424 37.3753 142.67 37.1461C141.843 36.8407 140.929 36.7554 139.853 36.8735ZM134.661 30.3716L137.99 37.4148L130.831 38.3261L127.502 31.2829L134.661 30.3716Z" fill="#353535"/>
<path d="M125.636 18.4899L120.525 14.1335L120.932 13.7865C121.663 13.1994 122.305 12.8443 122.938 12.6766C123.571 12.509 124.278 12.422 124.98 12.4599C125.759 12.516 127.233 12.7351 129.481 13.1352C130.644 13.3444 131.503 13.356 131.832 12.991C132.239 12.644 132.411 12.3052 132.277 11.8315C132.217 11.4384 131.851 10.9103 131.247 10.4529C130.647 9.93304 129.882 9.56446 129.181 9.52648C128.402 9.4704 127.608 9.72683 126.646 10.2595L121.951 5.36862C123.644 4.24886 125.615 3.88905 127.713 4.12797C129.89 4.38499 132.177 5.61576 134.658 7.71338C136.612 9.37173 137.865 10.9921 138.416 12.5745C139.176 14.7113 138.788 16.3264 137.324 17.563C136.753 18.0612 135.957 18.3801 134.937 18.4572C133.918 18.5343 132.44 18.3778 130.273 17.9333C128.801 17.6517 127.79 17.5413 127.163 17.5839C126.765 17.7434 126.204 18.0541 125.636 18.4899ZM119.242 14.8437L124.727 19.5407L120.907 22.6898L115.422 17.9928L119.242 14.8437Z" fill="#353535"/>
<path d="M73.1547 83.0006C74.0067 80.2473 77.6981 79.413 79.3306 82.0242C80.1833 83.4213 82.5745 82.2999 81.7218 80.9029C79.0109 76.4339 72.3461 76.9272 70.6718 82.0832C70.187 83.6315 72.6624 84.6366 73.1547 83.0006Z" fill="#3E3E40"/>
<defs>
<filter id="filter0_i_5753_22483" x="77.7505" y="33.0046" width="53.0625" height="53.0625" filterUnits="userSpaceOnUse" color-interpolation-filters="sRGB">
<feFlood flood-opacity="0" result="BackgroundImageFix"/>
<feBlend mode="normal" in="SourceGraphic" in2="BackgroundImageFix" result="shape"/>
<feColorMatrix in="SourceAlpha" type="matrix" values="0 0 0 0 0 0 0 0 0 0 0 0 0 0 0 0 0 0 127 0" result="hardAlpha"/>
<feOffset dx="20" dy="11"/>
<feGaussianBlur stdDeviation="4.5"/>
<feComposite in2="hardAlpha" operator="arithmetic" k2="-1" k3="1"/>
<feColorMatrix type="matrix" values="0 0 0 0 0.154063 0 0 0 0 0.412158 0 0 0 0 0.725 0 0 0 0.25 0"/>
<feBlend mode="normal" in2="shape" result="effect1_innerShadow_5753_22483"/>
</filter>
<filter id="filter1_i_5753_22483" x="77.7505" y="33.0046" width="53.0625" height="53.0625" filterUnits="userSpaceOnUse" color-interpolation-filters="sRGB">
<feFlood flood-opacity="0" result="BackgroundImageFix"/>
<feBlend mode="normal" in="SourceGraphic" in2="BackgroundImageFix" result="shape"/>
<feColorMatrix in="SourceAlpha" type="matrix" values="0 0 0 0 0 0 0 0 0 0 0 0 0 0 0 0 0 0 127 0" result="hardAlpha"/>
<feOffset dx="20" dy="11"/>
<feGaussianBlur stdDeviation="4.5"/>
<feComposite in2="hardAlpha" operator="arithmetic" k2="-1" k3="1"/>
<feColorMatrix type="matrix" values="0 0 0 0 0.154063 0 0 0 0 0.412158 0 0 0 0 0.725 0 0 0 0.25 0"/>
<feBlend mode="normal" in2="shape" result="effect1_innerShadow_5753_22483"/>
</filter>
</defs>
</svg>
