<svg width="16" height="16" fill="none" xmlns="http://www.w3.org/2000/svg"><path d="M14.192 3.833l.368-.922s-.463-.51-1.032-1.091c-.57-.583-1.768-.243-1.768-.243L10.396 0H5.604L4.228 1.59s-1.198-.34-1.768.242c-.57.582-1.032 1.091-1.032 1.091l.368.922-.463 1.359s1.376 5.313 1.53 5.968c.32 1.274.534 1.771 1.436 2.426a92.49 92.49 0 002.8 1.941c.26.17.604.461.901.461.297 0 .629-.291.902-.461.26-.17 1.898-1.298 2.8-1.94.9-.644 1.114-1.141 1.434-2.427l1.53-5.968-.474-1.37z" fill="url(#paint0_linear)"/><path d="M11.38 2.596s1.756 2.171 1.756 2.644c0 .474-.225.583-.45.825-.226.243-1.198 1.298-1.317 1.432-.13.133-.38.34-.237.715.154.364.38.837.13 1.323-.249.473-.676.8-.949.74-.273-.049-.925-.4-1.162-.558-.238-.158-.985-.789-.985-1.032 0-.242.783-.679.925-.776.143-.097.795-.485.807-.63.012-.146.012-.195-.19-.57-.19-.377-.545-.874-.486-1.202.06-.327.617-.497 1.02-.655.403-.157 1.174-.449 1.27-.497.094-.049.07-.085-.226-.121-.297-.025-1.115-.146-1.495-.037-.38.11-1.008.267-1.067.352-.048.085-.095.085-.048.388.048.291.332 1.723.356 1.977.024.255.083.425-.19.486-.26.06-.712.17-.866.17-.154 0-.605-.11-.866-.17-.26-.061-.213-.23-.19-.486.024-.254.297-1.674.356-1.977.048-.291.012-.303-.047-.388-.048-.085-.688-.243-1.068-.352-.38-.109-1.198 0-1.494.037-.297.024-.32.072-.226.12.095.05.866.34 1.27.498.403.158.96.328 1.02.655.059.328-.285.825-.487 1.201-.19.376-.201.413-.19.57.012.146.665.534.807.631.143.097.925.534.925.776 0 .243-.747.874-.984 1.032-.237.157-.878.497-1.163.557-.272.05-.7-.266-.949-.74-.249-.473-.023-.946.13-1.322.155-.364-.106-.57-.236-.715-.13-.134-1.092-1.19-1.317-1.432-.225-.242-.439-.364-.439-.825 0-.46 1.756-2.644 1.756-2.644s1.482.291 1.684.291c.202 0 .629-.17 1.032-.303.403-.134.664-.134.664-.134s.261 0 .665.134c.403.133.83.303 1.032.303.201 0 1.72-.291 1.72-.291zm-1.316 8.31c.107.072.047.205-.06.266-.094.073-1.435 1.128-1.553 1.25-.13.12-.32.303-.451.303-.13 0-.32-.194-.45-.303a85.477 85.477 0 00-1.555-1.25c-.095-.073-.166-.206-.06-.267.108-.072.452-.242.914-.497.475-.255 1.056-.461 1.151-.461.095 0 .676.206 1.15.461.463.255.807.437.914.497z" fill="#fff"/><path d="M11.76 1.59L10.396 0H5.604L4.228 1.59s-1.198-.34-1.768.242c0 0 1.602-.146 2.147.764 0 0 1.483.291 1.685.291.202 0 .629-.17 1.032-.303.403-.134.664-.134.664-.134s.261 0 .664.134c.404.133.83.303 1.033.303.201 0 1.684-.291 1.684-.291.546-.91 2.147-.764 2.147-.764-.557-.583-1.756-.243-1.756-.243" fill="url(#paint1_linear)"/><defs><linearGradient id="paint0_linear" x1="1.341" y1="7.996" x2="14.664" y2="7.996" gradientUnits="userSpaceOnUse"><stop stop-color="#F50"/><stop offset=".41" stop-color="#F50"/><stop offset=".582" stop-color="#FF2000"/><stop offset="1" stop-color="#FF2000"/></linearGradient><linearGradient id="paint1_linear" x1="2.707" y1="1.439" x2="13.533" y2="1.439" gradientUnits="userSpaceOnUse"><stop stop-color="#FF452A"/><stop offset="1" stop-color="#FF2000"/></linearGradient></defs></svg>