<svg width="16" height="16" fill="none" xmlns="http://www.w3.org/2000/svg"><path d="M7.987.002s4.707-.21 7.203 4.503H7.586s-1.435-.046-2.66 1.687c-.353.728-.731 1.478-.306 2.955-.612-1.032-3.25-5.605-3.25-5.605S3.231.188 7.987.002z" fill="#EF3F36"/><path d="M14.946 11.966s-2.172 4.167-7.516 3.961l3.803-6.558s.76-1.215-.136-3.14c-.456-.668-.92-1.367-2.417-1.74 1.204-.01 6.497 0 6.497 0s1.983 3.282-.231 7.477z" fill="#FCD900"/><path d="M1.06 11.999s-2.537-3.957.315-8.463l3.801 6.558s.678 1.263 2.797 1.451c.808-.059 1.649-.11 2.723-1.212a1231.16 1231.16 0 01-3.249 5.603s-3.847.07-6.387-3.937z" fill="#61BC5B"/><path d="M7.428 15.967l1.07-4.446s1.175-.092 2.16-1.168c-.611 1.072-3.23 5.614-3.23 5.614z" fill="#5AB055"/><path d="M4.404 8.034a3.556 3.556 0 013.563-3.55 3.557 3.557 0 013.563 3.55 3.556 3.556 0 01-3.563 3.549 3.558 3.558 0 01-3.563-3.55z" fill="#fff"/><path d="M5 8.034a2.96 2.96 0 012.967-2.955 2.96 2.96 0 012.967 2.955 2.96 2.96 0 01-2.967 2.955A2.962 2.962 0 015 8.034z" fill="url(#paint0_linear)"/><path d="M15.175 4.491L10.77 5.778s-.665-.97-2.093-1.287c1.239-.006 6.497 0 6.497 0z" fill="#EACA05"/><path d="M4.534 8.985L1.37 3.542l3.262 3.214s-.335.686-.21 1.668l.11.561z" fill="#DF3A32"/><defs><linearGradient id="paint0_linear" x1="7.967" y1="5.121" x2="7.967" y2="10.811" gradientUnits="userSpaceOnUse"><stop stop-color="#86BBE5"/><stop offset="1" stop-color="#1072BA"/></linearGradient></defs></svg>