<svg width="16" height="16" fill="none" xmlns="http://www.w3.org/2000/svg"><path d="M13.539 3.65a7.117 7.117 0 00-2.41-2.05 7.051 7.051 0 00-3.05-.798c-1.67-.034-2.825.472-3.478.88C5.474 1.17 6.738.88 7.845.896c2.848.036 5.906 1.993 6.36 5.52.522 4.048-2.273 7.426-6.204 7.437-4.326.01-6.957-3.853-6.269-7.324.013-.17.038-.339.074-.506a6.902 6.902 0 01.755-2.544c-.499.26-1.133 1.083-1.446 1.845a7.567 7.567 0 00-.467 3.662c.01.094.02.188.033.281a7.306 7.306 0 001.25 3.003 7.228 7.228 0 002.426 2.15 7.158 7.158 0 008.888-1.656 7.293 7.293 0 001.504-2.883 7.333 7.333 0 00-1.21-6.23z" fill="url(#paint0_radial)"/><path opacity=".67" d="M13.539 3.65a7.117 7.117 0 00-2.41-2.05 7.051 7.051 0 00-3.05-.798c-1.67-.034-2.825.472-3.478.88C5.474 1.17 6.738.88 7.845.896c2.848.036 5.906 1.993 6.36 5.52.522 4.048-2.273 7.426-6.204 7.437-4.326.01-6.957-3.853-6.269-7.324.013-.17.038-.339.074-.506a6.902 6.902 0 01.755-2.544c-.499.26-1.133 1.083-1.446 1.845a7.567 7.567 0 00-.467 3.662c.01.094.02.188.033.281a7.306 7.306 0 001.25 3.003 7.228 7.228 0 002.426 2.15 7.158 7.158 0 008.888-1.656 7.293 7.293 0 001.504-2.883 7.333 7.333 0 00-1.21-6.23z" fill="url(#paint1_radial)"/><path d="M13.539 3.65a7.117 7.117 0 00-2.41-2.05 7.051 7.051 0 00-3.05-.798c-1.67-.034-2.825.472-3.478.88C5.474 1.17 6.738.88 7.845.896c2.848.036 5.906 1.993 6.36 5.52.522 4.048-2.273 7.426-6.204 7.437-4.326.01-6.957-3.853-6.269-7.324.013-.17.038-.339.074-.506a6.902 6.902 0 01.755-2.544c-.499.26-1.133 1.083-1.446 1.845a7.567 7.567 0 00-.467 3.662c.01.094.02.188.033.281a7.306 7.306 0 001.25 3.003 7.228 7.228 0 002.426 2.15 7.158 7.158 0 008.888-1.656 7.293 7.293 0 001.504-2.883 7.333 7.333 0 00-1.21-6.23z" fill="url(#paint2_radial)"/><path d="M13.539 3.65a7.117 7.117 0 00-2.41-2.05 7.051 7.051 0 00-3.05-.798c-1.67-.034-2.825.472-3.478.88C5.474 1.17 6.738.88 7.845.896c2.848.036 5.906 1.993 6.36 5.52.522 4.048-2.273 7.426-6.204 7.437-4.326.01-6.957-3.853-6.269-7.324.013-.17.038-.339.074-.506a6.902 6.902 0 01.755-2.544c-.499.26-1.133 1.083-1.446 1.845a7.567 7.567 0 00-.467 3.662c.01.094.02.188.033.281a7.306 7.306 0 001.25 3.003 7.228 7.228 0 002.426 2.15 7.158 7.158 0 008.888-1.656 7.293 7.293 0 001.504-2.883 7.333 7.333 0 00-1.21-6.23z" fill="url(#paint3_radial)"/><path d="M13.539 3.65a7.117 7.117 0 00-2.41-2.05 7.051 7.051 0 00-3.05-.798c-1.67-.034-2.825.472-3.478.88C5.474 1.17 6.738.88 7.845.896c2.848.036 5.906 1.993 6.36 5.52.522 4.048-2.273 7.426-6.204 7.437-4.326.01-6.957-3.853-6.269-7.324.013-.17.038-.339.074-.506a6.902 6.902 0 01.755-2.544c-.499.26-1.133 1.083-1.446 1.845a7.567 7.567 0 00-.467 3.662c.01.094.02.188.033.281a7.306 7.306 0 001.25 3.003 7.228 7.228 0 002.426 2.15 7.158 7.158 0 008.888-1.656 7.293 7.293 0 001.504-2.883 7.333 7.333 0 00-1.21-6.23z" fill="url(#paint4_radial)"/><path d="M14.206 6.415c.056.436.074.876.054 1.316.238-.037.477-.069.717-.097a7.301 7.301 0 00-1.438-3.984 7.117 7.117 0 00-2.41-2.05A7.051 7.051 0 008.08.802c-1.672-.034-2.826.472-3.479.88C5.474 1.17 6.738.88 7.845.896c2.848.036 5.907 1.992 6.36 5.52z" fill="url(#paint5_linear)"/><path d="M14.38 6.214C13.977 2.528 10.719.872 7.846.896c-1.107.009-2.371.275-3.245.787a3.547 3.547 0 00-.64.49 2.6 2.6 0 01.207-.157l.011-.008.01-.006c.424-.29.891-.508 1.384-.649a7.76 7.76 0 012.371-.28 5.96 5.96 0 013.923 1.808 6.062 6.062 0 011.699 3.999c.066 2.397-1.878 4.308-4.12 4.418-1.63.08-3.166-.715-3.916-2.307a3.96 3.96 0 01-.353-1.15c-.356-2.422 1.257-4.488 2.736-5-.798-.703-2.797-.655-4.285.449-1.072.795-1.767 2.005-1.997 3.448a6.028 6.028 0 00.421 3.267 6.396 6.396 0 002.161 2.717 6.314 6.314 0 003.252 1.175c.178.013.357.02.537.02 4.76 0 6.825-3.645 6.38-7.703z" fill="url(#paint6_radial)"/><path d="M14.38 6.214C13.977 2.528 10.719.872 7.846.896c-1.107.009-2.371.275-3.245.787a3.547 3.547 0 00-.64.49 2.6 2.6 0 01.207-.157l.011-.008.01-.006c.424-.29.891-.508 1.384-.649a7.76 7.76 0 012.371-.28 5.96 5.96 0 013.923 1.808 6.062 6.062 0 011.699 3.999c.066 2.397-1.878 4.308-4.12 4.418-1.63.08-3.166-.715-3.916-2.307a3.96 3.96 0 01-.353-1.15c-.356-2.422 1.257-4.488 2.736-5-.798-.703-2.797-.655-4.285.449-1.072.795-1.767 2.005-1.997 3.448a6.028 6.028 0 00.421 3.267 6.396 6.396 0 002.161 2.717 6.314 6.314 0 003.252 1.175c.178.013.357.02.537.02 4.76 0 6.825-3.645 6.38-7.703z" fill="url(#paint7_radial)"/><path opacity=".53" d="M14.38 6.214C13.977 2.528 10.719.872 7.846.896c-1.107.009-2.371.275-3.245.787a3.547 3.547 0 00-.64.49 2.6 2.6 0 01.207-.157l.011-.008.01-.006c.424-.29.891-.508 1.384-.649a7.76 7.76 0 012.371-.28 5.96 5.96 0 013.923 1.808 6.062 6.062 0 011.699 3.999c.066 2.397-1.878 4.308-4.12 4.418-1.63.08-3.166-.715-3.916-2.307a3.96 3.96 0 01-.353-1.15c-.356-2.422 1.257-4.488 2.736-5-.798-.703-2.797-.655-4.285.449-1.072.795-1.767 2.005-1.997 3.448a6.028 6.028 0 00.421 3.267 6.396 6.396 0 002.161 2.717 6.314 6.314 0 003.252 1.175c.178.013.357.02.537.02 4.76 0 6.825-3.645 6.38-7.703z" fill="url(#paint8_radial)"/><path opacity=".53" d="M14.38 6.214C13.977 2.528 10.719.872 7.846.896c-1.107.009-2.371.275-3.245.787a3.547 3.547 0 00-.64.49 2.6 2.6 0 01.207-.157l.011-.008.01-.006c.424-.29.891-.508 1.384-.649a7.76 7.76 0 012.371-.28 5.96 5.96 0 013.923 1.808 6.062 6.062 0 011.699 3.999c.066 2.397-1.878 4.308-4.12 4.418-1.63.08-3.166-.715-3.916-2.307a3.96 3.96 0 01-.353-1.15c-.356-2.422 1.257-4.488 2.736-5-.798-.703-2.797-.655-4.285.449-1.072.795-1.767 2.005-1.997 3.448a6.028 6.028 0 00.421 3.267 6.396 6.396 0 002.161 2.717 6.314 6.314 0 003.252 1.175c.178.013.357.02.537.02 4.76 0 6.825-3.645 6.38-7.703z" fill="url(#paint9_radial)"/><path d="M9.445 11.298c3.076-.188 4.393-2.758 4.476-4.581.129-2.849-1.546-5.92-5.977-5.644-.8-.03-1.6.065-2.372.28a5.17 5.17 0 00-1.384.65l-.01.006-.011.008c-.069.048-.136.1-.202.153a5.978 5.978 0 013.773-.715c2.545.337 4.87 2.334 4.87 4.968 0 2.027-1.552 3.575-3.37 3.464C6.537 9.724 5.856 6.93 7.26 5.721c-.379-.082-1.091.08-1.587.827-.445.672-.42 1.708-.145 2.443.342.741.9 1.36 1.6 1.772a3.95 3.95 0 002.316.535z" fill="url(#paint10_radial)"/><path d="M13.539 3.65a7.226 7.226 0 00-.627-.722 5.67 5.67 0 00-.571-.531c.116.102.227.21.333.325.393.423.693.927.878 1.478.376 1.148.351 2.586-.367 3.715a4.248 4.248 0 01-1.613 1.495 4.204 4.204 0 01-2.138.482c-.065 0-.13 0-.196-.005C6.537 9.724 5.856 6.93 7.26 5.721c-.379-.082-1.091.08-1.587.827-.445.672-.42 1.708-.145 2.443a3.96 3.96 0 01-.353-1.15c-.356-2.422 1.257-4.488 2.736-5-.798-.703-2.797-.655-4.285.449a5.054 5.054 0 00-1.814 2.65c.096-.86.35-1.694.748-2.46-.498.26-1.133 1.083-1.446 1.844a7.567 7.567 0 00-.467 3.662c.01.094.02.188.033.281a7.306 7.306 0 001.25 3.003 7.226 7.226 0 002.426 2.15 7.157 7.157 0 008.888-1.656 7.293 7.293 0 001.504-2.883 7.331 7.331 0 00-1.21-6.23z" fill="url(#paint11_linear)"/><path d="M13.552 4.2a4.082 4.082 0 00-.878-1.478 5.437 5.437 0 00-1.636-1.179A7.246 7.246 0 009.429.968 7.104 7.104 0 006.45.95c-1.022.218-1.92.664-2.49 1.222a5.74 5.74 0 011.445-.581 5.987 5.987 0 012.99.012c.98.257 1.88.758 2.618 1.458.299.286.56.61.779.962.88 1.444.797 3.26.11 4.331-.51.796-1.602 1.543-2.62 1.534a4.219 4.219 0 002.222-.441 4.264 4.264 0 001.682-1.532c.718-1.13.743-2.567.367-3.715z" fill="url(#paint12_linear)"/><path d="M13.552 4.2a4.082 4.082 0 00-.878-1.478 5.437 5.437 0 00-1.636-1.179A7.246 7.246 0 009.429.968 7.104 7.104 0 006.45.95c-1.022.218-1.92.664-2.49 1.222a5.74 5.74 0 011.445-.581 5.987 5.987 0 012.99.012c.98.257 1.88.758 2.618 1.458.299.286.56.61.779.962.88 1.444.797 3.26.11 4.331-.51.796-1.602 1.543-2.62 1.534a4.219 4.219 0 002.222-.441 4.264 4.264 0 001.682-1.532c.718-1.13.743-2.567.367-3.715z" fill="url(#paint13_linear)"/><defs><radialGradient id="paint0_radial" cx="0" cy="0" r="1" gradientUnits="userSpaceOnUse" gradientTransform="matrix(16.3305 0 0 16.4755 13.464 3.775)"><stop stop-color="#FFF36E"/><stop offset=".5" stop-color="#FC4055"/><stop offset="1" stop-color="#E31587"/></radialGradient><radialGradient id="paint1_radial" cx="0" cy="0" r="1" gradientUnits="userSpaceOnUse" gradientTransform="matrix(9.6648 0 0 9.75061 1.79 4.456)"><stop offset=".001" stop-color="#C60084"/><stop offset="1" stop-color="#FC4055" stop-opacity="0"/></radialGradient><radialGradient id="paint2_radial" cx="0" cy="0" r="1" gradientUnits="userSpaceOnUse" gradientTransform="matrix(19.1762 0 0 19.3464 14.86 2.837)"><stop stop-color="#FFDE67" stop-opacity=".6"/><stop offset=".093" stop-color="#FFD966" stop-opacity=".581"/><stop offset=".203" stop-color="#FFCA65" stop-opacity=".525"/><stop offset=".321" stop-color="#FEB262" stop-opacity=".432"/><stop offset=".446" stop-color="#FE8F5E" stop-opacity=".302"/><stop offset=".573" stop-color="#FD6459" stop-opacity=".137"/><stop offset=".664" stop-color="#FC4055" stop-opacity="0"/></radialGradient><radialGradient id="paint3_radial" cx="0" cy="0" r="1" gradientUnits="userSpaceOnUse" gradientTransform="matrix(24.7387 0 0 24.9584 8.203 8.86)"><stop offset=".153" stop-color="#810220"/><stop offset=".167" stop-color="#920B27" stop-opacity=".861"/><stop offset=".216" stop-color="#CB2740" stop-opacity=".398"/><stop offset=".253" stop-color="#EF394F" stop-opacity=".11"/><stop offset=".272" stop-color="#FC4055" stop-opacity="0"/></radialGradient><radialGradient id="paint4_radial" cx="0" cy="0" r="1" gradientUnits="userSpaceOnUse" gradientTransform="matrix(24.7387 0 0 24.9584 6.331 8.546)"><stop offset=".113" stop-color="#810220"/><stop offset=".133" stop-color="#920B27" stop-opacity=".861"/><stop offset=".204" stop-color="#CB2740" stop-opacity=".398"/><stop offset=".257" stop-color="#EF394F" stop-opacity=".11"/><stop offset=".284" stop-color="#FC4055" stop-opacity="0"/></radialGradient><radialGradient id="paint6_radial" cx="0" cy="0" r="1" gradientUnits="userSpaceOnUse" gradientTransform="matrix(15.3301 0 0 15.4986 13.091 2.995)"><stop stop-color="#FF9640"/><stop offset=".8" stop-color="#FC4055"/></radialGradient><radialGradient id="paint7_radial" cx="0" cy="0" r="1" gradientUnits="userSpaceOnUse" gradientTransform="matrix(15.3301 0 0 15.4986 13.091 2.995)"><stop offset=".084" stop-color="#FFDE67"/><stop offset=".147" stop-color="#FFDC66" stop-opacity=".968"/><stop offset=".246" stop-color="#FFD562" stop-opacity=".879"/><stop offset=".369" stop-color="#FFCB5D" stop-opacity=".734"/><stop offset=".511" stop-color="#FFBC55" stop-opacity=".533"/><stop offset=".667" stop-color="#FFAA4B" stop-opacity=".28"/><stop offset=".822" stop-color="#FF9640" stop-opacity="0"/></radialGradient><radialGradient id="paint8_radial" cx="0" cy="0" r="1" gradientUnits="userSpaceOnUse" gradientTransform="matrix(1.85684 7.36443 -7.61168 1.91918 9.58 7.816)"><stop offset=".363" stop-color="#FC4055"/><stop offset=".443" stop-color="#FD604D" stop-opacity=".633"/><stop offset=".545" stop-color="#FE8644" stop-opacity=".181"/><stop offset=".59" stop-color="#FF9640" stop-opacity="0"/></radialGradient><radialGradient id="paint9_radial" cx="0" cy="0" r="1" gradientUnits="userSpaceOnUse" gradientTransform="matrix(7.5176 0 0 7.58437 8.285 8.441)"><stop offset=".216" stop-color="#FC4055" stop-opacity=".8"/><stop offset=".267" stop-color="#FD5251" stop-opacity=".633"/><stop offset=".41" stop-color="#FE8345" stop-opacity=".181"/><stop offset=".474" stop-color="#FF9640" stop-opacity="0"/></radialGradient><radialGradient id="paint10_radial" cx="0" cy="0" r="1" gradientUnits="userSpaceOnUse" gradientTransform="matrix(25.9111 0 0 26.1956 16.15 1.245)"><stop offset=".054" stop-color="#FFF36E"/><stop offset=".457" stop-color="#FF9640"/><stop offset=".639" stop-color="#FF9640"/></radialGradient><linearGradient id="paint5_linear" x1="8.841" y1="2.214" x2="13.136" y2="9.587" gradientUnits="userSpaceOnUse"><stop stop-color="#FFBD4F"/><stop offset=".508" stop-color="#FF9640" stop-opacity="0"/></linearGradient><linearGradient id="paint11_linear" x1="11.22" y1="2.087" x2="3.765" y2="14.886" gradientUnits="userSpaceOnUse"><stop stop-color="#FFF36E" stop-opacity=".8"/><stop offset=".094" stop-color="#FFF36E" stop-opacity=".699"/><stop offset=".752" stop-color="#FFF36E" stop-opacity="0"/></linearGradient><linearGradient id="paint12_linear" x1="7.898" y1=".679" x2="11.866" y2="12.069" gradientUnits="userSpaceOnUse"><stop stop-color="#B833E1"/><stop offset=".371" stop-color="#9059FF"/><stop offset=".614" stop-color="#5B6DF8"/><stop offset="1" stop-color="#0090ED"/></linearGradient><linearGradient id="paint13_linear" x1="5.582" y1=".86" x2="12.906" y2="8.12" gradientUnits="userSpaceOnUse"><stop offset=".805" stop-color="#722291" stop-opacity="0"/><stop offset="1" stop-color="#592ACB" stop-opacity=".5"/></linearGradient></defs></svg>