<svg width="16" height="16" fill="none" xmlns="http://www.w3.org/2000/svg"><g clip-path="url(#clip0)"><path d="M16 8.355a7.36 7.36 0 00-.9-3.54C17.544-.806 12.48.016 12.199.073a12.734 12.734 0 00-2.98.99 7.12 7.12 0 00-.409-.013c-3.416 0-6.276 2.421-7.008 5.666 1.8-2.052 3.061-2.88 3.816-3.211-.12.108-.238.219-.355.33l-.114.113-.227.225-.131.135-.197.206c-.046.048-.09.097-.135.146a18.065 18.065 0 00-.9 1.052l-.14.177-.133.172-.123.163-.137.184-.094.13a22.678 22.678 0 00-.96 1.443l-.01.016a23.05 23.05 0 00-.169.283l-.006.01c-.14.237-.276.477-.408.72-.648 1.192-.963 2.024-.977 2.074-2.045 7.426 4.337 4.29 5.228 3.822a7.07 7.07 0 003.18.752c3.127 0 5.787-2.027 6.777-4.858h-3.778c-.56.96-1.635 1.61-2.872 1.61-1.811 0-3.28-1.395-3.28-3.115h10.284a7.3 7.3 0 00.06-.94zm-1.343-7.187c.62.424 1.116 1.09.263 3.336a7.242 7.242 0 00-3.511-2.96c.665-.327 2.313-1.018 3.248-.376zM1.5 14.892c-.504-.525-.593-1.805.52-4.136a7.301 7.301 0 003.13 3.886c-.72.403-2.633 1.31-3.65.25zM5.642 7.3c.057-1.672 1.49-3.01 3.249-3.01 1.76 0 3.191 1.338 3.249 3.01H5.642z" fill="#1EBBEE"/></g><defs><clipPath id="clip0"><path fill="#fff" d="M0 0h16v16H0z"/></clipPath></defs></svg>