<svg width="16" height="16" fill="none" xmlns="http://www.w3.org/2000/svg"><path d="M5.369 12.506C4.48 11.463 3.913 9.92 3.875 8.187v-.374c.038-1.732.612-3.276 1.494-4.32 1.15-1.487 2.837-2.155 4.744-2.155 1.175 0 2.28.08 3.218.706A7.916 7.916 0 008.031 0H8a8 8 0 00-8 8 8.004 8.004 0 007.619 7.994C7.744 16 7.875 16 8 16a7.95 7.95 0 005.331-2.037c-.937.625-1.981.65-3.156.65-1.9.006-3.663-.613-4.806-2.107z" fill="url(#paint0_linear)"/><path d="M5.369 3.494c.731-.87 1.681-1.388 2.719-1.388 2.33 0 4.218 2.638 4.218 5.9 0 3.263-1.887 5.9-4.218 5.9-1.038 0-1.982-.525-2.72-1.387 1.15 1.487 2.857 2.437 4.757 2.437a5.757 5.757 0 003.206-.981A8.022 8.022 0 0016 8c0-2.369-1.031-4.5-2.669-5.963a5.742 5.742 0 00-3.206-.98c-1.906 0-3.612.943-4.756 2.437z" fill="url(#paint1_linear)"/><defs><linearGradient id="paint0_linear" x1="6.666" y1=".261" x2="6.666" y2="15.767" gradientUnits="userSpaceOnUse"><stop offset=".3" stop-color="#FF1B2D"/><stop offset=".438" stop-color="#FA1A2C"/><stop offset=".594" stop-color="#ED1528"/><stop offset=".758" stop-color="#D60E21"/><stop offset=".927" stop-color="#B70519"/><stop offset="1" stop-color="#A70014"/></linearGradient><linearGradient id="paint1_linear" x1="10.683" y1="1.175" x2="10.683" y2="14.889" gradientUnits="userSpaceOnUse"><stop stop-color="#9C0000"/><stop offset=".7" stop-color="#FF4B4B"/></linearGradient></defs></svg>