<svg width="16" height="16" fill="none" xmlns="http://www.w3.org/2000/svg"><path d="M8 16A8 8 0 108 0a8 8 0 000 16z" fill="#EEE"/><path d="M8 15.4A7.4 7.4 0 108 .6a7.4 7.4 0 000 14.8z" fill="url(#paint0_radial)"/><path d="M8.013 2.4c-.05 0-.094-.038-.094-.088V1.006c0-.05.044-.087.094-.087s.093.037.093.087v1.306c-.006.05-.043.088-.093.088z" fill="#F3F3F3"/><path d="M8.012 2.406c-.056 0-.1-.043-.1-.093V1.006c0-.05.044-.093.1-.093.057 0 .1.043.1.093v1.307c0 .05-.05.093-.1.093zm0-1.481c-.043 0-.087.038-.087.081v1.307c0 .043.037.08.087.08.044 0 .088-.037.088-.08V1.006C8.094.963 8.056.925 8.012.925z" fill="#fff"/><path d="M8.638 1.7c-.05-.006-.088-.044-.088-.094l.044-.581a.091.091 0 01.1-.081c.05.006.087.044.087.094l-.043.58a.091.091 0 01-.1.082z" fill="#F3F3F3"/><path d="M8.638 1.706a.101.101 0 01-.094-.1l.044-.581c.006-.05.05-.094.106-.088.056.007.094.05.094.1l-.044.582a.094.094 0 01-.106.087zM8.694.95c-.044 0-.088.031-.088.075l-.043.581c0 .044.03.081.08.088.045 0 .088-.032.088-.075l.044-.582c0-.043-.037-.08-.081-.087z" fill="#fff"/><path d="M9.106 2.512a.096.096 0 01-.075-.106l.256-1.281c.013-.05.057-.081.107-.069.05.013.08.056.075.106l-.257 1.282c-.006.043-.056.075-.106.068z" fill="#F3F3F3"/><path d="M9.106 2.519a.102.102 0 01-.081-.113l.256-1.281A.1.1 0 019.4 1.05a.102.102 0 01.081.113l-.256 1.28c-.013.05-.063.082-.119.076zM9.4 1.063a.09.09 0 00-.1.062l-.256 1.281a.089.089 0 00.068.1.09.09 0 00.1-.062l.257-1.281c.006-.05-.025-.088-.07-.1z" fill="#fff"/><path d="M9.856 1.95a.093.093 0 01-.069-.112l.157-.563c.012-.05.062-.075.112-.062.05.012.081.062.069.112l-.156.563c-.013.05-.063.075-.113.062z" fill="#F3F3F3"/><path d="M9.856 1.956c-.05-.012-.088-.068-.069-.118l.157-.563c.012-.05.068-.081.118-.069.05.013.088.07.069.12l-.156.562c-.013.05-.063.08-.119.068zm.206-.73a.087.087 0 00-.106.055l-.156.563c-.013.044.012.087.062.1.044.012.094-.013.107-.056l.156-.563a.09.09 0 00-.063-.1z" fill="#fff"/><path d="M10.163 2.831a.088.088 0 01-.05-.118l.5-1.207c.018-.043.075-.068.118-.043a.09.09 0 01.05.118l-.5 1.207c-.018.043-.075.068-.118.043z" fill="#F3F3F3"/><path d="M10.162 2.838a.097.097 0 01-.056-.125l.5-1.207c.019-.05.075-.068.131-.05a.097.097 0 01.057.125l-.5 1.207c-.025.05-.082.075-.132.05zm.57-1.37a.085.085 0 00-.113.045l-.5 1.206c-.02.044.006.087.05.106.043.019.093 0 .112-.044l.5-1.206a.089.089 0 00-.05-.106z" fill="#fff"/><path d="M11.007 2.431c-.044-.025-.063-.075-.044-.118l.262-.52a.091.091 0 01.125-.037c.044.025.063.075.044.119l-.263.519a.091.091 0 01-.125.037z" fill="#F3F3F3"/><path d="M11.007 2.437a.096.096 0 01-.044-.13l.262-.52a.095.095 0 01.131-.043c.05.025.07.081.044.131l-.262.519a.096.096 0 01-.132.043zm.343-.68c-.044-.02-.094-.007-.112.037l-.263.518c-.018.038 0 .088.038.113.043.019.093.006.112-.038l.263-.518c.018-.038 0-.088-.038-.113z" fill="#fff"/><path d="M11.131 3.356c-.043-.031-.056-.087-.025-.125l.725-1.081c.025-.044.082-.05.125-.025.044.031.056.087.025.125l-.725 1.081a.085.085 0 01-.125.025z" fill="#F3F3F3"/><path d="M11.131 3.363a.108.108 0 01-.03-.138l.724-1.081a.099.099 0 01.138-.025.108.108 0 01.03.137l-.724 1.082a.1.1 0 01-.138.025zm.825-1.232c-.037-.025-.093-.018-.118.02l-.725 1.08a.081.081 0 00.025.113c.037.025.093.019.118-.019l.725-1.075a.089.089 0 00-.025-.119z" fill="#fff"/><path d="M12.044 3.125c-.038-.031-.05-.088-.02-.125l.363-.456a.09.09 0 01.125-.013c.038.031.05.088.02.125l-.363.457a.09.09 0 01-.125.012z" fill="#F3F3F3"/><path d="M12.037 3.131c-.043-.031-.05-.094-.018-.137l.362-.457c.031-.043.094-.05.138-.012.043.031.05.094.018.137l-.362.457c-.031.043-.094.05-.138.012zm.47-.594a.084.084 0 00-.12.013l-.362.456a.089.089 0 00.019.119c.037.031.087.025.118-.013l.363-.456c.025-.037.019-.094-.019-.119z" fill="#fff"/><path d="M11.981 4.062c-.037-.037-.037-.093 0-.125l.925-.918a.089.089 0 01.125 0c.031.031.038.093 0 .125l-.919.918a.09.09 0 01-.131 0z" fill="#F3F3F3"/><path d="M11.975 4.069a.098.098 0 010-.138l.925-.918a.098.098 0 01.138 0 .098.098 0 010 .137l-.925.919a.098.098 0 01-.138 0zm1.056-1.05a.087.087 0 00-.118 0l-.925.918a.087.087 0 000 .12.087.087 0 00.118 0l.925-.92c.032-.03.032-.08 0-.118z" fill="#fff"/><path d="M12.919 4.013c-.031-.038-.031-.094.006-.125l.444-.375a.09.09 0 01.125.012c.031.038.031.094-.006.125l-.444.375a.09.09 0 01-.125-.012z" fill="#F3F3F3"/><path d="M12.913 4.019a.098.098 0 01.006-.138l.444-.375c.037-.037.1-.03.137.013.038.044.031.106-.006.137l-.444.375c-.037.038-.1.032-.137-.012zm.575-.494c-.032-.037-.082-.037-.119-.012l-.444.375a.087.087 0 00-.006.118c.031.038.081.038.119.013l.443-.375c.038-.031.038-.081.007-.119z" fill="#fff"/><path d="M12.669 4.913a.085.085 0 01.025-.125l1.087-.725c.044-.025.1-.013.125.025.031.043.019.1-.025.125l-1.087.725c-.038.025-.094.012-.125-.025z" fill="#F3F3F3"/><path d="M12.662 4.912a.1.1 0 01.025-.137l1.088-.725a.096.096 0 01.137.031.1.1 0 01-.024.138l-1.088.725a.096.096 0 01-.138-.031zm1.238-.818a.081.081 0 00-.112-.025l-1.088.725a.081.081 0 00-.019.118c.025.038.075.05.113.026l1.087-.726a.088.088 0 00.019-.118z" fill="#fff"/><path d="M13.6 5.044a.09.09 0 01.031-.125l.507-.288c.043-.025.1-.006.125.038.025.044.012.1-.032.125l-.506.287a.093.093 0 01-.125-.037z" fill="#F3F3F3"/><path d="M13.594 5.05c-.025-.05-.013-.106.031-.131l.506-.288a.1.1 0 01.131.038c.026.05.013.106-.03.131l-.507.288c-.044.025-.106.006-.131-.038zm.662-.375c-.025-.044-.075-.056-.112-.031l-.506.287a.09.09 0 00-.032.113c.025.044.075.056.113.031l.506-.287c.037-.02.05-.07.031-.113z" fill="#fff"/><path d="M13.181 5.875c-.018-.05 0-.1.05-.119l1.207-.5c.043-.018.1.007.118.05.02.05 0 .1-.05.119l-1.206.5a.09.09 0 01-.119-.05z" fill="#F3F3F3"/><path d="M13.175 5.881a.104.104 0 01.05-.131l1.206-.5a.097.097 0 01.125.056c.02.05 0 .106-.05.131l-1.206.5a.097.097 0 01-.125-.056zm1.369-.569a.09.09 0 00-.106-.05l-1.207.5a.086.086 0 00-.043.113.089.089 0 00.106.05l1.206-.5a.085.085 0 00.044-.113z" fill="#fff"/><path d="M14.063 6.187c-.02-.05.006-.1.056-.118l.55-.182c.043-.018.1.013.112.057.019.05-.006.1-.056.118l-.55.182c-.044.018-.094-.007-.113-.057z" fill="#F3F3F3"/><path d="M14.057 6.194a.095.095 0 01.062-.125l.55-.181c.05-.02.106.012.125.062a.096.096 0 01-.062.125l-.55.181a.106.106 0 01-.125-.062zm.725-.238c-.013-.043-.063-.068-.107-.056l-.55.181c-.043.013-.062.063-.05.107.013.043.063.068.107.056l.55-.181a.086.086 0 00.05-.107z" fill="#fff"/><path d="M13.5 6.931c-.013-.05.018-.1.069-.106l1.28-.25c.05-.012.095.025.107.075.013.05-.019.1-.069.106l-1.281.25c-.05.007-.1-.025-.106-.075z" fill="#F3F3F3"/><path d="M13.487 6.931a.1.1 0 01.075-.119l1.282-.25c.05-.012.1.026.112.082a.1.1 0 01-.075.118l-1.281.25c-.05.013-.1-.024-.113-.08zm1.457-.281a.084.084 0 00-.094-.069l-1.281.25c-.044.006-.075.056-.063.1.006.044.05.075.094.069l1.281-.25c.044-.013.075-.056.063-.1z" fill="#fff"/><path d="M14.3 7.413c-.006-.05.025-.094.075-.1l.575-.07a.091.091 0 01.1.082c.006.05-.025.094-.075.1l-.575.069c-.043.006-.094-.031-.1-.081z" fill="#F3F3F3"/><path d="M14.294 7.413c-.007-.057.031-.107.081-.113l.575-.069c.05-.006.1.032.106.088.006.056-.031.106-.081.112l-.575.07a.097.097 0 01-.106-.088zm.756-.088c-.006-.044-.05-.081-.094-.075l-.575.069a.084.084 0 00-.069.094c.007.043.05.08.094.075l.575-.07a.084.084 0 00.069-.093z" fill="#fff"/><path d="M13.6 8.019c0-.05.037-.094.088-.094h1.306c.05 0 .087.044.087.094s-.037.094-.087.094h-1.306c-.05 0-.088-.044-.088-.094z" fill="#F3F3F3"/><path d="M13.594 8.019c0-.057.044-.1.094-.1h1.306c.05 0 .094.043.094.1 0 .056-.044.1-.094.1h-1.306c-.05 0-.094-.044-.094-.1zm1.481.006c0-.044-.037-.088-.081-.088h-1.306c-.044 0-.082.038-.082.088 0 .044.038.087.082.087h1.306c.044-.006.081-.043.081-.087z" fill="#fff"/><path d="M14.294 8.65c.006-.05.043-.088.093-.088l.582.044c.05.007.087.05.08.1a.094.094 0 01-.093.088l-.581-.044c-.044-.006-.081-.05-.081-.1z" fill="#F3F3F3"/><path d="M14.287 8.65a.101.101 0 01.1-.094l.582.044c.05.006.094.05.087.106a.101.101 0 01-.1.094l-.581-.044c-.05-.006-.088-.056-.088-.106zm.763.056a.08.08 0 00-.075-.087l-.581-.044a.088.088 0 00-.088.081.08.08 0 00.075.088l.582.044c.043 0 .08-.038.087-.082z" fill="#fff"/><path d="M13.488 9.106a.096.096 0 01.106-.075l1.281.257c.05.012.082.056.069.106a.096.096 0 01-.106.075l-1.282-.256c-.043-.007-.074-.057-.068-.107z" fill="#F3F3F3"/><path d="M13.481 9.106a.102.102 0 01.113-.081l1.281.256a.1.1 0 01.075.119.102.102 0 01-.112.081l-1.282-.256c-.05-.013-.081-.063-.075-.119zm1.457.294a.09.09 0 00-.063-.1l-1.281-.256a.089.089 0 00-.1.068.09.09 0 00.062.1l1.282.257c.05.006.087-.025.1-.069z" fill="#fff"/><path d="M14.05 9.856a.094.094 0 01.076-.07.093.093 0 01.036.002l.563.156c.05.012.075.062.062.112a.093.093 0 01-.112.069l-.563-.156c-.05-.013-.075-.063-.062-.113z" fill="#F3F3F3"/><path d="M14.044 9.856c.012-.05.069-.087.119-.068l.562.156c.05.012.082.069.069.119-.013.05-.069.087-.119.068l-.562-.156c-.05-.012-.082-.062-.069-.119zm.731.207a.087.087 0 00-.056-.107l-.563-.156c-.043-.012-.087.013-.1.063a.088.088 0 00.057.106l.562.156a.09.09 0 00.1-.062z" fill="#fff"/><path d="M13.169 10.156a.09.09 0 01.118-.05l1.207.5c.043.019.069.075.05.119-.019.05-.075.069-.119.05l-1.206-.5a.09.09 0 01-.05-.119z" fill="#F3F3F3"/><path d="M13.162 10.15a.097.097 0 01.126-.056l1.206.5c.05.019.069.075.05.131a.097.097 0 01-.125.056l-1.207-.5a.104.104 0 01-.05-.131zm1.37.569a.085.085 0 00-.044-.113l-1.207-.5c-.043-.018-.087.006-.106.05a.085.085 0 00.044.113l1.206.5c.044.012.094-.007.106-.05z" fill="#fff"/><path d="M13.575 11c.025-.044.075-.063.119-.044l.519.263c.043.019.062.075.037.125-.025.043-.075.062-.118.043l-.52-.262c-.043-.025-.062-.081-.037-.125z" fill="#F3F3F3"/><path d="M13.569 10.994a.096.096 0 01.131-.044l.519.263c.05.025.069.08.044.13a.095.095 0 01-.132.044l-.518-.262c-.05-.019-.07-.081-.044-.131zm.675.344c.019-.044.006-.094-.038-.113l-.518-.262c-.038-.02-.088 0-.113.037-.019.044-.006.094.038.113l.518.262c.044.019.094.006.113-.037z" fill="#fff"/><path d="M12.656 11.119c.031-.044.081-.056.125-.025l1.088.725c.043.025.05.081.025.125-.032.044-.082.056-.125.025l-1.088-.725c-.044-.031-.056-.088-.025-.125z" fill="#F3F3F3"/><path d="M12.65 11.113a.108.108 0 01.137-.032l1.088.725a.099.099 0 01.025.138.108.108 0 01-.138.031l-1.087-.725a.094.094 0 01-.025-.137zm1.231.825c.025-.038.019-.094-.019-.12l-1.087-.724a.082.082 0 00-.113.025c-.025.037-.018.094.019.119l1.088.725a.081.081 0 00.112-.025z" fill="#fff"/><path d="M12.888 12.025c.03-.038.087-.05.124-.019l.457.357a.09.09 0 01.012.125c-.03.037-.087.05-.125.018l-.456-.356a.09.09 0 01-.012-.125z" fill="#F3F3F3"/><path d="M12.882 12.019c.03-.044.093-.05.137-.019l.456.356c.044.031.05.094.019.138-.031.043-.094.05-.138.018l-.456-.356c-.044-.031-.05-.094-.018-.137zm.6.469a.085.085 0 00-.013-.12l-.456-.356a.089.089 0 00-.119.02.081.081 0 00.012.118l.457.356a.088.088 0 00.118-.018z" fill="#fff"/><path d="M11.956 11.962c.038-.037.094-.037.125 0l.925.92a.089.089 0 010 .124c-.037.038-.093.038-.125 0l-.925-.918a.095.095 0 010-.126z" fill="#F3F3F3"/><path d="M11.956 11.956a.098.098 0 01.138 0l.925.919a.098.098 0 010 .137.098.098 0 01-.138 0l-.925-.918a.088.088 0 010-.138zM13.006 13a.087.087 0 000-.119l-.925-.919a.087.087 0 00-.118 0 .087.087 0 000 .12l.925.918c.03.037.08.037.118 0z" fill="#fff"/><path d="M12.012 12.894c.038-.031.094-.031.125.006l.382.438a.09.09 0 01-.013.125c-.037.03-.094.03-.125-.007L12 13.02c-.031-.031-.025-.088.012-.125z" fill="#F3F3F3"/><path d="M12.006 12.894a.098.098 0 01.138.006l.381.437c.037.038.031.1-.013.138a.098.098 0 01-.137-.006l-.381-.438c-.031-.044-.031-.106.012-.137zm.5.568c.038-.03.038-.08.013-.118l-.382-.438a.087.087 0 00-.118-.006c-.038.031-.038.081-.013.118l.381.438c.032.038.082.038.12.006z" fill="#fff"/><path d="M11.113 12.656a.085.085 0 01.125.025l.725 1.082c.025.043.012.1-.025.125a.085.085 0 01-.126-.025l-.724-1.082c-.025-.043-.013-.1.025-.125z" fill="#F3F3F3"/><path d="M11.113 12.65a.1.1 0 01.137.025l.725 1.081a.096.096 0 01-.031.138.1.1 0 01-.138-.025l-.725-1.082a.095.095 0 01.032-.137zm.825 1.231a.081.081 0 00.025-.112l-.725-1.082c-.025-.037-.075-.043-.12-.018a.081.081 0 00-.024.112l.725 1.081a.094.094 0 00.118.02z" fill="#fff"/><path d="M10.981 13.581a.091.091 0 01.125.032l.288.506c.025.044.006.1-.038.125a.09.09 0 01-.125-.031l-.287-.507c-.019-.043-.007-.1.037-.125z" fill="#F3F3F3"/><path d="M10.981 13.575c.05-.025.107-.012.132.031l.287.507c.025.043.013.106-.037.13-.05.026-.107.013-.132-.03l-.287-.507c-.025-.043-.013-.1.037-.131zm.375.663c.038-.025.057-.075.032-.113l-.288-.506a.09.09 0 00-.112-.031c-.038.025-.057.075-.032.112l.288.506c.019.038.075.057.112.032z" fill="#fff"/><path d="M10.15 13.169c.05-.019.1 0 .119.044l.506 1.206c.019.043-.006.1-.05.118-.044.02-.1 0-.119-.043l-.506-1.206c-.019-.044.006-.1.05-.12z" fill="#F3F3F3"/><path d="M10.15 13.162c.05-.018.106 0 .131.05l.506 1.207a.098.098 0 01-.056.125.103.103 0 01-.131-.05l-.506-1.207c-.02-.043.006-.1.056-.125zm.569 1.37c.043-.02.062-.07.043-.107l-.506-1.206a.085.085 0 00-.112-.044c-.044.019-.063.069-.044.106l.506 1.207c.025.043.069.062.113.043z" fill="#fff"/><path d="M9.844 14.056a.09.09 0 01.118.057l.182.55c.018.043-.013.1-.056.112-.05.019-.1-.006-.12-.056l-.18-.55c-.02-.044.006-.094.056-.113z" fill="#F3F3F3"/><path d="M9.837 14.05a.097.097 0 01.125.056l.182.55c.018.05-.013.106-.063.125a.097.097 0 01-.125-.056l-.181-.55a.106.106 0 01.062-.125zm.244.719a.087.087 0 00.056-.107l-.18-.55c-.013-.043-.063-.062-.107-.05a.087.087 0 00-.056.107l.18.55a.079.079 0 00.107.05z" fill="#fff"/><path d="M9.107 13.488c.05-.013.1.018.106.068l.262 1.282c.013.05-.025.093-.075.106-.05.012-.1-.019-.106-.069l-.263-1.281a.1.1 0 01.075-.106z" fill="#F3F3F3"/><path d="M9.106 13.481a.1.1 0 01.12.075l.262 1.282c.012.05-.025.106-.075.112a.1.1 0 01-.12-.075l-.262-1.281c-.012-.05.02-.1.075-.113zm.294 1.456c.044-.006.075-.05.069-.1l-.263-1.28c-.006-.045-.056-.076-.1-.063-.043.006-.075.05-.068.1l.262 1.281a.09.09 0 00.1.063z" fill="#fff"/><path d="M8.631 14.3a.096.096 0 01.107.075l.075.575a.091.091 0 01-.082.1.096.096 0 01-.106-.075L8.55 14.4a.091.091 0 01.081-.1z" fill="#F3F3F3"/><path d="M8.632 14.294c.056-.007.106.03.112.08l.075.576c.006.05-.031.1-.088.106-.056.006-.106-.031-.112-.081l-.075-.575a.097.097 0 01.088-.106zm.093.75c.044-.007.082-.05.075-.094l-.075-.575a.084.084 0 00-.093-.069c-.044.006-.082.05-.076.094l.076.575c.006.044.05.075.093.069z" fill="#fff"/><path d="M7.988 13.6c.05 0 .093.037.093.087v1.307c0 .05-.043.087-.093.087s-.094-.037-.094-.087v-1.307a.095.095 0 01.094-.087z" fill="#F3F3F3"/><path d="M7.988 13.594c.056 0 .1.043.1.094v1.306c0 .05-.044.094-.1.094a.097.097 0 01-.1-.094v-1.306c0-.05.05-.094.1-.094zm0 1.481c.043 0 .087-.037.087-.081v-1.306a.084.084 0 00-.087-.082c-.044 0-.088.038-.088.082v1.306c.006.044.044.081.088.081z" fill="#fff"/><path d="M7.362 14.3c.05.006.088.044.088.094l-.044.581a.091.091 0 01-.1.081c-.05-.006-.087-.043-.087-.093l.043-.582a.091.091 0 01.1-.081z" fill="#F3F3F3"/><path d="M7.363 14.294a.1.1 0 01.093.1l-.043.581c-.007.05-.05.094-.107.088a.102.102 0 01-.093-.1l.043-.582c.007-.056.05-.093.107-.087zm-.057.756c.044 0 .088-.031.088-.075l.044-.581c0-.044-.032-.081-.082-.088-.043 0-.087.032-.087.075l-.044.582c0 .043.038.081.081.087z" fill="#fff"/><path d="M6.894 13.488c.05.012.08.056.075.106l-.257 1.281c-.012.05-.056.081-.106.069a.096.096 0 01-.075-.107l.256-1.28c.007-.044.057-.076.107-.07z" fill="#F3F3F3"/><path d="M6.894 13.481a.102.102 0 01.08.113l-.255 1.281a.1.1 0 01-.12.075.102.102 0 01-.08-.112l.256-1.282c.012-.05.062-.081.119-.075zM6.6 14.938a.09.09 0 00.1-.063l.256-1.281a.089.089 0 00-.069-.1.09.09 0 00-.1.062l-.256 1.282c-.006.05.025.087.069.1z" fill="#fff"/><path d="M6.144 14.05c.05.013.081.063.069.112l-.157.563c-.012.05-.062.075-.112.063a.092.092 0 01-.07-.077.093.093 0 01.001-.036l.156-.562c.013-.05.063-.075.113-.063z" fill="#F3F3F3"/><path d="M6.144 14.044c.05.012.087.069.069.118l-.157.563c-.012.05-.068.081-.118.069-.05-.013-.088-.069-.07-.119l.157-.563c.013-.05.063-.08.119-.068zm-.206.731a.087.087 0 00.106-.056l.156-.563c.013-.043-.012-.087-.062-.1-.044-.012-.094.013-.107.057l-.156.562a.09.09 0 00.063.1z" fill="#fff"/><path d="M5.838 13.169c.05.018.068.075.05.118l-.5 1.207c-.019.043-.075.068-.119.043-.044-.025-.069-.075-.05-.118l.5-1.207c.019-.043.075-.068.119-.043z" fill="#F3F3F3"/><path d="M5.837 13.162a.097.097 0 01.057.125l-.5 1.207c-.019.05-.075.068-.132.05a.097.097 0 01-.056-.125l.5-1.207c.025-.05.081-.075.131-.05zm-.568 1.37c.043.018.093 0 .112-.044l.5-1.207c.019-.044-.006-.087-.05-.106a.085.085 0 00-.112.044l-.5 1.206a.089.089 0 00.05.106z" fill="#fff"/><path d="M4.994 13.569c.044.025.063.075.044.118l-.263.52a.091.091 0 01-.125.037.095.095 0 01-.044-.119l.263-.519a.091.091 0 01.125-.037z" fill="#F3F3F3"/><path d="M4.994 13.563c.05.024.068.08.043.13l-.262.52a.095.095 0 01-.131.043.095.095 0 01-.044-.131l.262-.519a.096.096 0 01.132-.043zm-.344.68c.044.02.094.007.112-.037l.263-.518c.019-.038 0-.088-.038-.113-.043-.019-.093-.006-.112.038l-.263.518c-.018.038 0 .088.038.113z" fill="#fff"/><path d="M4.869 12.644c.043.031.056.087.025.125l-.725 1.081c-.025.044-.082.05-.125.025-.044-.031-.057-.087-.025-.125l.725-1.081a.085.085 0 01.125-.025z" fill="#F3F3F3"/><path d="M4.869 12.637a.108.108 0 01.031.138l-.725 1.081a.099.099 0 01-.137.025.108.108 0 01-.032-.137l.725-1.082a.1.1 0 01.138-.025zm-.825 1.232c.037.025.094.018.119-.019l.725-1.081a.081.081 0 00-.025-.113c-.038-.025-.094-.019-.12.019L4.02 13.75a.089.089 0 00.025.119z" fill="#fff"/><path d="M3.956 12.875c.038.031.05.088.019.125l-.363.456a.09.09 0 01-.125.013c-.037-.031-.05-.088-.018-.125l.362-.457a.09.09 0 01.125-.012z" fill="#F3F3F3"/><path d="M3.962 12.869c.044.031.05.094.02.137l-.363.457c-.031.043-.094.05-.138.012-.043-.031-.05-.094-.018-.137l.362-.457a.092.092 0 01.137-.012zm-.468.594c.037.03.087.025.118-.013l.363-.456a.089.089 0 00-.019-.119c-.037-.031-.087-.025-.118.013l-.363.456c-.025.037-.019.094.019.119z" fill="#fff"/><path d="M4.019 11.938c.037.037.037.093 0 .125l-.925.918a.089.089 0 01-.125 0c-.031-.031-.038-.094 0-.125l.919-.918a.09.09 0 01.13 0z" fill="#F3F3F3"/><path d="M4.025 11.931a.098.098 0 010 .138l-.925.918a.098.098 0 01-.137 0 .098.098 0 010-.137l.925-.919a.098.098 0 01.137 0zm-1.056 1.05a.087.087 0 00.119 0l.925-.919a.087.087 0 000-.118.087.087 0 00-.12 0l-.924.918c-.031.032-.031.082 0 .12z" fill="#fff"/><path d="M3.081 11.988c.031.037.031.093-.006.125l-.444.375a.09.09 0 01-.125-.013c-.031-.037-.031-.094.006-.125l.444-.375a.09.09 0 01.125.013z" fill="#F3F3F3"/><path d="M3.087 11.981c.038.044.032.106-.006.138l-.444.375c-.037.037-.1.03-.137-.013-.038-.044-.031-.106.006-.137l.444-.375c.037-.038.1-.031.137.012zm-.575.494c.032.037.082.037.12.012l.443-.375a.087.087 0 00.006-.118c-.031-.038-.081-.038-.119-.013l-.443.375c-.038.031-.038.081-.007.119z" fill="#fff"/><path d="M3.331 11.088c.032.043.02.1-.025.125l-1.087.725c-.044.025-.1.012-.125-.025a.085.085 0 01.025-.126l1.087-.724c.038-.025.094-.013.125.024z" fill="#F3F3F3"/><path d="M3.338 11.088a.1.1 0 01-.026.137l-1.087.725a.096.096 0 01-.137-.031.1.1 0 01.025-.138l1.087-.725a.096.096 0 01.137.032zm-1.238.818c.025.038.075.05.113.025l1.087-.725c.038-.025.05-.075.019-.118a.081.081 0 00-.113-.025l-1.087.725a.088.088 0 00-.019.118z" fill="#fff"/><path d="M2.4 10.956a.09.09 0 01-.031.125l-.506.288c-.044.025-.1.006-.125-.038a.091.091 0 01.03-.125l.507-.287a.093.093 0 01.125.037z" fill="#F3F3F3"/><path d="M2.406 10.95c.025.05.013.106-.03.131l-.507.288c-.044.025-.106.006-.131-.038-.025-.05-.013-.106.03-.13l.507-.288c.044-.026.106-.007.131.037zm-.662.375c.025.044.075.056.112.031l.507-.287a.09.09 0 00.03-.113c-.024-.043-.074-.056-.112-.03l-.506.287c-.037.018-.05.068-.031.112z" fill="#fff"/><path d="M2.819 10.125c.018.05 0 .1-.05.119l-1.207.5a.094.094 0 01-.118-.05c-.019-.05 0-.1.05-.119l1.206-.5a.09.09 0 01.119.05z" fill="#F3F3F3"/><path d="M2.825 10.119c.019.05 0 .106-.05.13l-1.206.5a.098.098 0 01-.125-.055.104.104 0 01.05-.132l1.206-.5a.097.097 0 01.125.057zm-1.369.568a.089.089 0 00.107.05l1.206-.5c.043-.018.062-.068.043-.112a.089.089 0 00-.106-.05l-1.206.5a.085.085 0 00-.044.112z" fill="#fff"/><path d="M1.937 9.812c.02.05-.006.1-.056.12l-.55.18c-.044.02-.1-.012-.112-.056-.02-.05.006-.1.056-.118l.55-.182c.044-.018.094.006.112.056z" fill="#F3F3F3"/><path d="M1.944 9.806a.095.095 0 01-.063.125l-.55.182c-.05.018-.106-.013-.125-.063a.095.095 0 01.063-.125l.55-.181a.106.106 0 01.125.062zm-.725.238c.012.044.062.069.106.056l.55-.181c.044-.013.062-.063.05-.106a.087.087 0 00-.106-.057l-.55.182a.086.086 0 00-.05.106z" fill="#fff"/><path d="M2.5 9.069c.012.05-.019.1-.069.106l-1.281.25c-.05.013-.094-.025-.106-.075-.013-.05.018-.1.068-.106l1.282-.25c.05-.006.1.025.106.075z" fill="#F3F3F3"/><path d="M2.513 9.069a.1.1 0 01-.075.118l-1.281.25c-.05.013-.1-.024-.113-.08a.1.1 0 01.075-.12l1.281-.25c.05-.012.1.025.113.082zm-1.456.281c.006.044.05.075.093.069l1.282-.25c.043-.006.074-.056.062-.1A.084.084 0 002.4 9l-1.281.25c-.044.013-.075.056-.062.1z" fill="#fff"/><path d="M1.7 8.588a.087.087 0 01-.075.1l-.575.068a.09.09 0 01-.1-.081.087.087 0 01.075-.1l.575-.069c.044-.006.094.032.1.082z" fill="#F3F3F3"/><path d="M1.706 8.587c.007.057-.031.107-.081.113l-.575.069a.097.097 0 01-.106-.088c-.006-.056.031-.106.081-.112l.575-.07c.05-.005.1.032.106.088zm-.756.088c.006.044.05.081.094.075l.575-.069a.084.084 0 00.069-.094c-.007-.043-.05-.08-.094-.075l-.575.07a.084.084 0 00-.069.093z" fill="#fff"/><path d="M2.4 7.981c0 .05-.037.094-.088.094H1.006c-.05 0-.087-.044-.087-.094s.037-.094.087-.094h1.307c.05 0 .087.044.087.094z" fill="#F3F3F3"/><path d="M2.406 7.981c0 .056-.043.1-.093.1H1.006c-.05 0-.093-.044-.093-.1 0-.056.043-.1.093-.1h1.307c.05 0 .093.044.093.1zM.925 7.975c0 .044.038.087.081.087h1.307c.043 0 .08-.037.08-.087 0-.044-.037-.088-.08-.088H1.006c-.043.007-.08.044-.08.088H.924z" fill="#fff"/><path d="M1.706 7.35c-.006.05-.043.088-.093.088l-.582-.044a.091.091 0 01-.081-.1c.006-.05.044-.088.094-.088l.581.044c.044.006.081.05.081.1z" fill="#E2E2E2"/><path d="M1.713 7.35a.101.101 0 01-.1.094L1.03 7.4a.098.098 0 01-.087-.106.101.101 0 01.1-.094l.581.044c.05.006.088.056.088.106zM.95 7.294a.08.08 0 00.075.087l.581.044a.088.088 0 00.088-.081.08.08 0 00-.075-.088l-.581-.044c-.044 0-.082.038-.088.082z" fill="#fff"/><path d="M2.513 6.894a.096.096 0 01-.107.075l-1.28-.263c-.05-.012-.082-.056-.07-.106a.096.096 0 01.107-.075l1.28.256c.045.013.076.063.07.113z" fill="#F3F3F3"/><path d="M2.518 6.894a.102.102 0 01-.112.08L1.125 6.72a.1.1 0 01-.075-.12.102.102 0 01.112-.08l1.282.256c.05.012.08.062.074.119zM1.062 6.6a.09.09 0 00.063.1l1.281.256a.089.089 0 00.1-.069.09.09 0 00-.063-.1l-1.28-.256a.09.09 0 00-.1.069z" fill="#fff"/><path d="M1.95 6.144a.093.093 0 01-.112.069l-.563-.157c-.05-.012-.075-.062-.062-.112a.093.093 0 01.112-.069l.563.156c.05.013.075.063.062.113z" fill="#F3F3F3"/><path d="M1.956 6.144c-.012.05-.068.087-.118.068l-.563-.156a.1.1 0 01-.069-.119c.013-.05.07-.087.12-.068l.562.156c.05.012.081.062.068.119zm-.73-.207c-.013.044.012.094.055.107l.563.156c.044.012.087-.013.1-.063.012-.043-.013-.093-.056-.106l-.563-.156a.09.09 0 00-.1.062z" fill="#fff"/><path d="M2.832 5.844c-.02.05-.076.068-.12.05l-1.206-.5c-.043-.02-.068-.075-.05-.12.02-.05.076-.068.12-.05l1.206.5a.09.09 0 01.05.12z" fill="#F3F3F3"/><path d="M2.838 5.85a.097.097 0 01-.125.056l-1.207-.5c-.05-.018-.068-.075-.05-.13a.097.097 0 01.125-.057l1.207.5c.05.025.068.081.05.131zm-1.37-.569a.085.085 0 00.045.113l1.206.5c.044.019.087-.006.106-.05a.085.085 0 00-.044-.113l-1.206-.5c-.044-.012-.094.007-.106.05z" fill="#fff"/><path d="M2.425 5c-.025.044-.075.063-.119.044l-.519-.263c-.043-.019-.062-.075-.037-.125a.095.095 0 01.119-.044l.518.263c.044.025.063.081.038.125z" fill="#F3F3F3"/><path d="M2.431 5.006a.096.096 0 01-.131.044l-.519-.262a.095.095 0 01-.044-.132.095.095 0 01.132-.043l.518.262c.05.019.07.081.044.131zm-.675-.343c-.019.043-.006.093.038.112l.518.263c.038.018.088 0 .113-.038.019-.044.006-.094-.038-.112l-.525-.263a.077.077 0 00-.106.038z" fill="#fff"/><path d="M3.344 4.881c-.031.044-.081.057-.125.025l-1.081-.718c-.044-.025-.05-.082-.025-.125a.085.085 0 01.125-.025l1.087.725c.038.025.05.081.019.118z" fill="#F3F3F3"/><path d="M3.35 4.887a.108.108 0 01-.137.032L2.13 4.194a.099.099 0 01-.025-.138.108.108 0 01.138-.031l1.081.725c.05.031.056.094.025.137zm-1.231-.825c-.025.038-.019.094.018.12l1.088.724a.081.081 0 00.112-.025c.025-.037.02-.094-.018-.118L2.23 4.037a.081.081 0 00-.112.025z" fill="#fff"/><path d="M3.113 3.975c-.032.038-.088.05-.125.019l-.457-.356a.09.09 0 01-.012-.125c.031-.038.087-.05.125-.02l.456.357a.09.09 0 01.013.125z" fill="#F3F3F3"/><path d="M3.119 3.981c-.032.044-.094.05-.138.019l-.456-.356c-.044-.031-.05-.094-.019-.138.031-.043.094-.05.138-.018l.456.356c.044.031.05.094.019.137zm-.6-.469c-.032.038-.025.088.012.12l.456.355a.089.089 0 00.12-.018.084.084 0 00-.013-.119l-.457-.356a.089.089 0 00-.118.018z" fill="#fff"/><path d="M4.044 4.037c-.037.038-.094.038-.125 0l-.931-.918a.089.089 0 010-.125c.037-.038.094-.038.125 0l.925.918a.089.089 0 01.006.125z" fill="#F3F3F3"/><path d="M4.044 4.044a.098.098 0 01-.137 0l-.926-.92a.098.098 0 010-.137.098.098 0 01.138 0l.925.92c.044.037.044.1 0 .137zM2.994 3a.087.087 0 000 .119l.925.918a.087.087 0 00.119 0 .087.087 0 000-.118l-.925-.925c-.031-.032-.082-.032-.119.006z" fill="#fff"/><path d="M3.988 3.106c-.038.031-.094.031-.125-.006l-.382-.438a.09.09 0 01.013-.125c.037-.03.094-.03.125.007L4 2.98c.031.031.025.088-.012.125z" fill="#F3F3F3"/><path d="M3.994 3.106a.098.098 0 01-.138-.006l-.381-.438c-.038-.037-.031-.1.012-.137a.098.098 0 01.138.006l.381.438c.031.043.031.106-.012.137zm-.5-.568c-.038.03-.038.08-.013.118l.381.438a.087.087 0 00.12.006c.037-.031.037-.081.012-.119l-.382-.437c-.03-.038-.08-.038-.118-.006z" fill="#fff"/><path d="M4.888 3.344a.085.085 0 01-.125-.025L4.03 2.238c-.025-.044-.012-.1.025-.125a.085.085 0 01.125.025l.725 1.08c.032.045.02.1-.018.126z" fill="#F3F3F3"/><path d="M4.888 3.35a.1.1 0 01-.138-.025l-.725-1.081a.096.096 0 01.031-.138.1.1 0 01.138.025l.725 1.081a.095.095 0 01-.031.138zm-.825-1.231a.081.081 0 00-.025.112l.725 1.081c.025.038.075.044.118.02a.081.081 0 00.025-.113l-.725-1.075a.089.089 0 00-.118-.025z" fill="#fff"/><path d="M5.019 2.419a.091.091 0 01-.125-.032l-.288-.506c-.025-.044-.006-.1.038-.125a.091.091 0 01.125.031l.287.507c.019.043.006.1-.037.125z" fill="#F3F3F3"/><path d="M5.019 2.425c-.05.025-.107.012-.132-.031L4.6 1.887c-.025-.043-.013-.106.037-.13.05-.026.107-.013.132.03l.287.507c.025.043.013.1-.037.13zm-.375-.663c-.038.025-.057.075-.032.113l.288.506a.09.09 0 00.112.031c.038-.025.057-.075.032-.112l-.288-.506c-.019-.038-.075-.057-.112-.032z" fill="#fff"/><path d="M5.85 2.831c-.05.02-.1 0-.118-.043L5.225 1.58c-.018-.043.007-.1.05-.118.05-.02.1 0 .119.043L5.9 2.713c.019.043-.006.1-.05.118z" fill="#F3F3F3"/><path d="M5.85 2.838a.104.104 0 01-.131-.05L5.212 1.58a.097.097 0 01.057-.125c.05-.018.106 0 .13.05l.507 1.207c.019.043-.006.1-.056.125zm-.569-1.37c-.044.02-.062.07-.044.107l.507 1.206a.084.084 0 00.112.044c.044-.019.063-.069.044-.106l-.506-1.206c-.026-.044-.07-.063-.113-.044z" fill="#fff"/><path d="M6.156 1.944a.09.09 0 01-.118-.057l-.182-.55c-.018-.043.013-.1.057-.112.043-.013.1.006.118.056l.182.55c.018.044-.007.094-.057.113z" fill="#F3F3F3"/><path d="M6.163 1.95a.097.097 0 01-.125-.056l-.182-.55c-.018-.05.013-.106.063-.125a.097.097 0 01.125.056l.181.55a.106.106 0 01-.062.125zm-.244-.719a.087.087 0 00-.056.107l.181.55c.012.043.062.062.106.05a.087.087 0 00.056-.107l-.18-.55a.079.079 0 00-.107-.05z" fill="#fff"/><path d="M6.894 2.512a.085.085 0 01-.107-.068l-.262-1.282c-.013-.05.025-.093.075-.106.05-.012.1.019.106.069l.263 1.281a.1.1 0 01-.075.106z" fill="#F3F3F3"/><path d="M6.894 2.519a.1.1 0 01-.12-.075l-.262-1.281c-.012-.05.025-.107.075-.113a.1.1 0 01.12.075l.262 1.281c.012.05-.019.1-.075.113zM6.6 1.063c-.044.006-.075.05-.069.1l.263 1.28c.006.045.056.076.1.063.043-.006.075-.05.068-.1L6.7 1.125a.09.09 0 00-.1-.062z" fill="#fff"/><path d="M7.369 1.7a.096.096 0 01-.106-.075l-.075-.575a.091.091 0 01.08-.1.096.096 0 01.107.075l.075.575a.091.091 0 01-.081.1z" fill="#F3F3F3"/><path d="M7.369 1.706c-.057.007-.107-.03-.113-.081l-.075-.575A.097.097 0 017.27.944c.056-.006.106.031.112.081l.075.575c.006.05-.031.1-.087.106zm-.094-.75c-.044.007-.081.05-.075.094l.075.575c.006.044.05.075.094.069.043-.006.08-.05.075-.094l-.075-.575a.084.084 0 00-.094-.069z" fill="#fff"/><path d="M8.044 15.394a7.4 7.4 0 100-14.8 7.4 7.4 0 000 14.8z" fill="url(#paint1_linear)" fill-opacity=".2"/><path d="M13.169 3.3L7.2 7.125h-.006v.006l-.006.007-3.725 6.143 5.475-4.406.006-.006v-.006L13.169 3.3z" fill="#000" fill-opacity=".05"/><path d="M13.056 2.944l-5.9 4.194 1.75 1.737 4.15-5.931" fill="#CD151E"/><path d="M7.162 7.125l.882.869 5.012-5.05-5.894 4.181z" fill="#FA5153"/><path d="M7.163 7.125l1.75 1.737-5.9 4.194 4.15-5.931z" fill="#ACACAC"/><path d="M3.013 13.056l5.03-5.062-.88-.869-4.15 5.931z" fill="#EEE"/><defs><radialGradient id="paint0_radial" cx="0" cy="0" r="1" gradientUnits="userSpaceOnUse" gradientTransform="translate(9.04 6.375) scale(9.03274)"><stop stop-color="#2ABCE1"/><stop offset=".114" stop-color="#2ABBE1"/><stop offset="1" stop-color="#3375F8"/></radialGradient><linearGradient id="paint1_linear" x1="7.903" y1="5.878" x2="4.449" y2="12.074" gradientUnits="userSpaceOnUse"><stop stop-opacity="0"/><stop offset="1"/></linearGradient></defs></svg>