<svg width="42" height="42" fill="none" xmlns="http://www.w3.org/2000/svg"><rect width="42" height="42" rx="21" fill="#F2EFFF"/><path d="M28 30v1H11v-1h17zm-.25-13c.69 0 1.25.56 1.25 1.25v.775c.08-.016.164-.025.25-.025h1.5c.69 0 1.25.56 1.25 1.25v2.5c0 .69-.56 1.25-1.25 1.25h-1.5c-.207 0-.402-.05-.573-.139A5.077 5.077 0 0124 27.153v.597c0 .69-.56 1.25-1.25 1.25h-6.5c-.69 0-1.25-.56-1.25-1.25v-.71a5.079 5.079 0 01-4-4.963V18.25c0-.69.56-1.25 1.25-1.25h15.5zm0 1h-15.5a.25.25 0 00-.25.25v3.827a4.078 4.078 0 003.211 3.985 1 1 0 01.79.978l-.001.71c0 .138.112.25.25.25h6.5a.25.25 0 00.25-.25v-.598a1 1 0 01.986-.999A4.077 4.077 0 0028 22.077V18.25a.25.25 0 00-.25-.25zm3 2h-1.5a.25.25 0 00-.25.25v2.5c0 .138.112.25.25.25h1.5a.25.25 0 00.25-.25v-2.5a.25.25 0 00-.25-.25zM17.5 13v3h-1v-3h1zm6 0v3h-1v-3h1zm-3-1v4h-1v-4h1z" fill="#754FFE"/></svg>