<svg width="42" height="42" fill="none" xmlns="http://www.w3.org/2000/svg"><rect width="42" height="42" rx="21" fill="#F2EFFF"/><path d="M22.826 12.6c.264.948.126 1.722-.373 2.284 3.53.715 6.233 3.689 6.512 7.335l.024-.001c.345 0 .625.28.625.625v1.25a.625.625 0 01-.838.588c-.835 3.601-4.087 6.287-7.97 6.287-3.882 0-7.133-2.686-7.971-6.288a.625.625 0 01-.835-.587v-1.25c0-.345.28-.625.625-.625l.024.001c.308-4.033 3.581-7.243 7.66-7.486l.172-.034c1.202-.254 1.557-.788 1.303-1.725-.593-1.33-2.6-1.01-2.603.014a.556.556 0 11-1.11-.002c.003-2.266 3.663-2.852 4.755-.387zm-2.02 3.229c-3.906 0-7.07 3.142-7.07 7.014 0 3.872 3.164 7.014 7.07 7.014 3.908 0 7.072-3.142 7.072-7.014 0-3.872-3.164-7.014-7.071-7.014zm2.965 9.741a.556.556 0 01-.008.786c-1.976 1.932-4.02 1.932-5.856-.016a.556.556 0 01.808-.762c1.402 1.488 2.733 1.488 4.27-.016a.556.556 0 01.786.008zm1.72-3.944a.556.556 0 11-.885.672c-.525-.691-.832-.691-1.357 0a.556.556 0 01-.885-.672c.97-1.277 2.157-1.277 3.127 0zm-6.25 0a.556.556 0 11-.885.672c-.525-.691-.832-.691-1.357 0a.556.556 0 01-.885-.672c.97-1.277 2.157-1.277 3.127 0z" fill="#754FFE"/></svg>