<svg width="42" height="42" fill="none" xmlns="http://www.w3.org/2000/svg"><rect width="42" height="42" rx="21" fill="#F2EFFF"/><path d="M27.212 20.263v4.8a2.526 2.526 0 01-2.527 2.526h-7.579a2.526 2.526 0 01-2.526-2.526v-4.8l6.316 1.905 6.316-1.905zm-1.053 1.417l-4.96 1.496c-.198.06-.41.06-.607 0l-4.96-1.496v3.383c0 .814.66 1.474 1.474 1.474h7.58c.813 0 1.473-.66 1.473-1.474V21.68zm-5.236-7.204l.094.018 9.647 2.78c.474.136.505.771.095.974l-.095.037-1.663.479V20.9a.501.501 0 01-.025.156c.163.08.275.249.275.444v.5a.5.5 0 01-.5.5h-.5a.5.5 0 01-.5-.5v-.5a.5.5 0 01.276-.447A.445.445 0 0128 20.9v-1.848l-6.984 2.012a.526.526 0 01-.197.018l-.097-.02-9.87-2.905c-.477-.14-.5-.781-.085-.978l.096-.035 9.87-2.652a.525.525 0 01.19-.016zm7.578 7.09a.502.502 0 00-.183.184c.044.076.107.14.183.183a.503.503 0 00.183-.183.502.502 0 00-.183-.183zm-7.635-6.02l-7.923 2.129 7.93 2.335L28 17.956V17.9a.5.5 0 01.082-.275l-7.217-2.079z" fill="#754FFE"/></svg>