<svg width="42" height="42" fill="none" xmlns="http://www.w3.org/2000/svg"><rect width="42" height="42" rx="21" fill="#F2EFFF"/><path d="M25.438 13c.655 0 1.187.532 1.187 1.188v1.687a.5.5 0 011 0v1.375a.5.5 0 01-1 0v.3c0 .068-.006.136-.017.2H29a2.375 2.375 0 012.375 2.375v5.438c0 .655-.532 1.187-1.188 1.187h-.023c.015.077.023.156.023.238v1.187c0 .656-.531 1.188-1.187 1.188h-1.375a1.188 1.188 0 01-1.188-1.188v-1.188c0-.08.009-.16.024-.237H14.914c.015.077.024.156.024.238v1.187c0 .656-.532 1.188-1.188 1.188h-1.375a1.188 1.188 0 01-1.188-1.188v-1.188c0-.08.009-.16.024-.237h-.024A1.188 1.188 0 0110 25.562v-5.437a2.375 2.375 0 012.375-2.375h2.392a1.198 1.198 0 01-.017-.2l.002-.087a.5.5 0 01-.952-.213v-1.375a.5.5 0 01.952-.213l-.002-1.475c0-.655.532-1.187 1.188-1.187h9.5zM13.75 26.8h-1.375a.187.187 0 00-.188.188v1.187c0 .104.084.188.188.188h1.375a.187.187 0 00.188-.188v-1.188a.187.187 0 00-.188-.187zm15.25 0h-1.375a.187.187 0 00-.188.188v1.187c0 .104.084.188.188.188H29a.187.187 0 00.188-.188v-1.188A.187.187 0 0029 26.8zm-.456-2.616l-.044.003H12.875l-.044-.003a1.17 1.17 0 01-.456.091h-1.188A1.16 1.16 0 0111 24.26v1.302c0 .104.084.188.188.188h19a.187.187 0 00.187-.188l.001-1.302c-.061.01-.124.015-.189.015H29c-.162 0-.316-.032-.456-.09zm1.643-2.472H29a.187.187 0 00-.188.188v1.188c0 .103.084.187.188.187h1.188a.187.187 0 00.187-.188V21.9a.187.187 0 00-.188-.188zm-17.812 0h-1.188A.187.187 0 0011 21.9v1.188c0 .103.084.187.188.187h1.187a.187.187 0 00.188-.188V21.9a.187.187 0 00-.188-.188zM29 18.75H12.375c-.76 0-1.375.616-1.375 1.375v.602c.06-.01.124-.015.188-.015h1.187c.656 0 1.188.532 1.188 1.188v1.188l-.006.099 14.26.001a1.196 1.196 0 01-.005-.1V21.9c0-.656.532-1.188 1.188-1.188h1.188c.064 0 .127.006.188.015l-.001-.602c0-.76-.616-1.375-1.375-1.375zm-2.875.875a.5.5 0 010 1H15.25a.5.5 0 010-1h10.875zM25.437 14h-9.5a.187.187 0 00-.187.188v3.362c0 .104.084.188.188.188h9.5a.187.187 0 00.187-.188v-3.363a.187.187 0 00-.188-.187z" fill="#754FFE"/></svg>