<svg width="42" height="42" fill="none" xmlns="http://www.w3.org/2000/svg"><rect width="42" height="42" rx="21" fill="#F2EFFF"/><path d="M34 28v1H8v-1h26zM21.5 13c.69 0 1.25.56 1.25 1.25v1.5c0 .086-.009.17-.025.25H25.5a5.5 5.5 0 015.5 5.5v4.25c0 .086-.009.17-.025.25h1.775v1H9.25v-1h1.775a1.257 1.257 0 01-.025-.25V21.5a5.5 5.5 0 015.5-5.5h2.525a1.257 1.257 0 01-.025-.25v-1.5c0-.69.56-1.25 1.25-1.25h1.25zm4 4h-9a4.5 4.5 0 00-4.5 4.5v4.25c0 .138.112.25.25.25H14v-4.25h1V26h14.75a.25.25 0 00.25-.25V21.5a4.5 4.5 0 00-4.5-4.5zm-4-3h-1.25a.25.25 0 00-.25.25v1.5c0 .138.112.25.25.25h1.25a.25.25 0 00.25-.25v-1.5a.25.25 0 00-.25-.25z" fill="#754FFE"/></svg>