<svg width="42" height="42" fill="none" xmlns="http://www.w3.org/2000/svg"><rect width="42" height="42" rx="21" fill="#F2EFFF"/><path d="M12.75 14c.69 0 1.25.56 1.25 1.25V18h14v-2.75c0-.69.56-1.25 1.25-1.25h2.5c.69 0 1.25.56 1.25 1.25v10.5c0 .69-.56 1.25-1.25 1.25h-2.5c-.69 0-1.25-.56-1.25-1.25V23H14v2.75c0 .69-.56 1.25-1.25 1.25h-2.5C9.56 27 9 26.44 9 25.75v-10.5c0-.69.56-1.25 1.25-1.25h2.5zm19 1h-2.5a.25.25 0 00-.25.25v10.5c0 .138.112.25.25.25h2.5a.25.25 0 00.25-.25v-10.5a.25.25 0 00-.25-.25zm-19 0h-2.5a.25.25 0 00-.25.25v10.5c0 .138.112.25.25.25h2.5a.25.25 0 00.25-.25v-10.5a.25.25 0 00-.25-.25zM35 17.25v7.5h-1v-7.5h1zm-27 0v7.5H7v-7.5h1zM28 19H14v3h14v-3z" fill="#754FFE"/></svg>