<svg width="42" height="42" fill="none" xmlns="http://www.w3.org/2000/svg"><rect width="42" height="42" rx="21" fill="#F2EFFF"/><path d="M24.75 12c.69 0 1.25.56 1.25 1.25v2.5c0 .086-.009.17-.025.25h4.775c.69 0 1.25.56 1.25 1.25v10.5c0 .69-.56 1.25-1.25 1.25h-19.5c-.69 0-1.25-.56-1.25-1.25v-10.5c0-.69.56-1.25 1.25-1.25h4.775a1.257 1.257 0 01-.025-.25v-2.5c0-.69.56-1.25 1.25-1.25h7.5zm6 5h-19.5a.25.25 0 00-.25.25v10.5c0 .138.112.25.25.25h19.5a.25.25 0 00.25-.25v-10.5a.25.25 0 00-.25-.25zM13.5 19v7h-1v-7h1zm15.75 0v7h-1v-7h1zm-7.6.5l-.001 2.375h2.376v1.25h-2.376l.001 2.375H20.4l-.001-2.375h-2.374v-1.25h2.374L20.4 19.5h1.25zm3.1-6.5h-7.5a.25.25 0 00-.25.25v2.5c0 .138.112.25.25.25h7.5a.25.25 0 00.25-.25v-2.5a.25.25 0 00-.25-.25z" fill="#754FFE"/></svg>