<svg width="42" height="42" fill="none" xmlns="http://www.w3.org/2000/svg"><rect width="42" height="42" rx="21" fill="#F2EFFF"/><path d="M20.758 17.849a6.063 6.063 0 015.939 4.847l9.212.001a.606.606 0 110 1.212h-9.09a6.06 6.06 0 11-12.122 0h-9.09a.606.606 0 010-1.212h9.211a6.063 6.063 0 015.94-4.848zm0 1a5.06 5.06 0 100 10.12 5.06 5.06 0 000-10.12zm12.727 5.06a1.818 1.818 0 110 3.636 1.818 1.818 0 010-3.636zm-25.455 0a1.818 1.818 0 110 3.636 1.818 1.818 0 010-3.636zm25.455 1a.818.818 0 100 1.636.818.818 0 000-1.636zm-25.455 0a.818.818 0 100 1.636.818.818 0 000-1.636zm12.728-5.136a4.136 4.136 0 014.136 4.136.5.5 0 11-1 0 3.136 3.136 0 10-6.273 0 .5.5 0 11-1 0 4.136 4.136 0 014.137-4.136zM20.7 13a.5.5 0 01.5.5v3.849a.5.5 0 01-1 0V13.5a.5.5 0 01.5-.5z" fill="#754FFE"/></svg>