<svg width="111" height="88" fill="none" xmlns="http://www.w3.org/2000/svg"><path d="M55.065 87.41c30.411 0 55.065-1.44 55.065-3.216 0-1.775-24.654-3.215-55.065-3.215C24.653 80.98 0 82.42 0 84.195c0 1.776 24.653 3.215 55.065 3.215z" fill="#D4BDA2"/><path d="M16.094 6.183s-1.42.525-1.869 2.47c-.448 1.946.744 6.144.935 8.129.19 1.985-1.988 6.01 3.672 6.376C24.492 23.524 25.31 8.08 22.688 7c-2.62-1.08-6.594-.818-6.594-.818z" fill="#263238"/><path d="M22.422 7.225C24 6.48 24.677 11.62 24.126 15.33" stroke="#263238" stroke-width=".5" stroke-linecap="round" stroke-linejoin="round"/><path d="M35.848 5.15l.673-1.853s-.284-.338 1.01-.957c1.296-.619 2.085-.954 2.616-.786.532.167 1.261 1.363 1.205 1.778-.057.414-3.596.99-3.596.99l-.505 1.42-1.403-.593z" fill="#E4897B"/><path d="M24.898 14.617s6.18-1.854 7.191-2.803C33.1 10.866 35.96 3.8 35.96 3.8l2.076.852s-2.127 8.207-3.925 10.107c-1.797 1.9-8.707 5.269-8.707 5.269l-.506-5.41z" fill="#754FFE"/><path opacity=".6" d="M24.898 14.617s6.18-1.854 7.191-2.803C33.1 10.866 35.96 3.8 35.96 3.8l2.076.852s-2.127 8.207-3.925 10.107c-1.797 1.9-8.707 5.269-8.707 5.269l-.506-5.41z" fill="#fff"/><path d="M13.719 77.612l1.372.806c.643-.865 1.34-1.69 2.084-2.47.398-.42.815-.886 1.25-1.386a113.58 113.58 0 002.794-3.36l.883-1.105c3.425-4.322 7.146-9.4 8.538-12.834.431-1.068.641-1.988.548-2.652-.284-2.05-1.08-5.138-1.988-8.12-1.386-4.558-2.945-8.878-2.945-8.878l-3.832 6.49s1.176 2.803 2.247 5.788c1.053 2.93 2.005 6.04 1.653 6.85-.034.08-.077.173-.125.284-.637 1.317-2.397 4.302-4.397 7.6l-.61 1.002c-1.074 1.76-2.19 3.57-3.224 5.231-.403.653-.795 1.284-1.167 1.88a641.693 641.693 0 01-3.081 4.874z" fill="#E4897B"/><path opacity=".2" d="M22.184 70.094a208.99 208.99 0 01-4.848 5.85 44.438 44.438 0 01-.52-3.217 807.975 807.975 0 004.993-8.114c-.035 1.835.09 3.669.375 5.481z" fill="#18113C"/><path d="M15.344 51.316a77.896 77.896 0 001.59 7.912c.264 1.048.443 1.667.443 1.667.007 3.322.202 6.64.585 9.94.145 1.301.301 2.556.463 3.712.597 4.3 1.224 7.384 1.224 7.384l1.633-.213-.062-10.533-.034-5.584-.046-7.597-.017-1.323-.08-5.777-.116-8.52-5.68-2.556c-.76 3.252-.477 7.591.097 11.488z" fill="#E4897B"/><path opacity=".2" d="M30.544 51.37c-1.451 1.003-3.408 1.605-4.751 1.929a54.43 54.43 0 00-1.136-3.408c-1.071-2.985-2.247-5.788-2.247-5.788l3.831-6.49s1.56 4.32 2.945 8.878a79.662 79.662 0 011.358 4.88zm-9.452 3.124a52.517 52.517 0 01-5.28-.38 75.47 75.47 0 01-.468-2.798c-.568-3.896-.852-8.236-.097-11.473l5.68 2.556.117 8.52.048 3.575z" fill="#18113C"/><path d="M30.819 50.805c-3.553 2.087-14.004 2.974-14.004 2.974l-1.704-4.806.193 4.766h-.508s-3.817-12.922 1.255-21.391l9.088-.701.994 4.68s2.55 6.697 4.686 14.478z" fill="#263238"/><path d="M24.153 84.04a2.572 2.572 0 00-.87-.325s-1.005-.747-1.8-3.317l-1.195-.136a.992.992 0 00-.989.568.54.54 0 00-.05.162 6.3 6.3 0 000 .869 24.2 24.2 0 00.391 2.888l.21-.028-.176-1.824c-.057-.619.517.034.747.68.23.644.614 1.306 1.965 1.135 1.577-.19 2.221-.344 1.767-.673z" fill="#2E353A"/><path d="M21.155 79.49s.426 1.16.994 2.439a5.56 5.56 0 001.136 1.786s-.988.321-1.52-.298c-.53-.62-1.445-2.854-2.464-2.596.054-.182.13-.356.227-.52.153-.252 1.627-.812 1.627-.812z" fill="#E4897B"/><path d="M14.148 83.03a2.536 2.536 0 00-.335-.869s-.106-1.246 1.292-3.544l-.69-.986a.991.991 0 00-1.074-.372.637.637 0 00-.156.069c-.23.175-.447.365-.653.567a24.146 24.146 0 00-1.903 2.21l.162.136 1.25-1.34c.425-.452.315.412-.015 1.008-.33.596-.568 1.326.443 2.235 1.19 1.062 1.733 1.443 1.679.886z" fill="#2E353A"/><path d="M15.57 77.765s-.589 1.09-1.171 2.363a5.594 5.594 0 00-.585 2.034s-.892-.526-.781-1.335c.11-.81 1.179-2.97.31-3.567a2.46 2.46 0 01.54-.174c.286-.06 1.686.68 1.686.68z" fill="#E4897B"/><path d="M15.957 31.407l-.05 1.372 9.391-.366.063-1.622-9.404.616z" fill="#263238"/><path opacity=".2" d="M15.957 31.407l-.05 1.372 9.391-.366.063-1.622-9.404.616z" fill="#fff"/><path d="M19.13 30.948l-.466.006.032 2.371.466-.006-.032-2.371z" fill="#263238"/><path d="M23.178 30.952l-2.053.107.08 1.557 2.054-.106-.08-1.558z" fill="#fff"/><path d="M24.872 30.534l-.466.006.032 2.371.465-.006-.031-2.371z" fill="#263238"/><path d="M13.408 31.987l2.147 1.227c.5.19.918.552 1.179 1.02.525.852-.23 4.1-.64 4.1-.408 0-2.717-.505-2.686-.954.031-.448.926-2.584.926-2.584l-2.076-1.292 1.15-1.517z" fill="#E4897B"/><path d="M15.905 31.405s-.568-8.327-2.499-13.087c0 0 3.976-2.136 11.49-3.692 0 0 2.154 5.24.464 16.265l-9.455.514z" fill="#754FFE"/><path opacity=".6" d="M22.15 23.424a.267.267 0 100-.533.267.267 0 000 .534zm.537 2.966a.27.27 0 11-.537-.056.27.27 0 01.537.055zm0 3.07a.27.27 0 11-.537-.056.27.27 0 01.537.056z" fill="#fff"/><path d="M13.407 18.318c-1.767.972-8.17 8.333-7.668 10.523.503 2.19 7.668 5.617 7.668 5.617l1.23-2.121S9.945 28.84 9.72 28.278c-.225-.562 5.163-4.8 5.163-4.8a18.752 18.752 0 00-.1-3.37 2.31 2.31 0 00-1.377-1.79z" fill="#754FFE"/><path opacity=".6" d="M13.407 18.318c-1.767.972-8.17 8.333-7.668 10.523.503 2.19 7.668 5.617 7.668 5.617l1.23-2.121S9.945 28.84 9.72 28.278c-.225-.562 5.163-4.8 5.163-4.8a18.752 18.752 0 00-.1-3.37 2.31 2.31 0 00-1.377-1.79z" fill="#fff"/><path d="M16.723 19.795s-1.798-2.937 2.135-3.95c3.934-1.014 5.132 1.349 5.132 1.349l-1.96-.338-.247 4.683a7.515 7.515 0 00-4.138-3.448l-.922 1.704z" fill="#754FFE"/><path opacity=".6" d="M16.723 19.795s-1.798-2.937 2.135-3.95c3.934-1.014 5.132 1.349 5.132 1.349l-1.96-.338-.247 4.683a7.515 7.515 0 00-4.138-3.448l-.922 1.704z" fill="#fff"/><path d="M21.191 19.236a25.678 25.678 0 01-3.777-2.173c.923-.869.755-2.153.52-2.953a4.598 4.598 0 00-.284-.739l2.718.508a7.807 7.807 0 00-.105 1.136c-.01.287.015.573.076.852.185.813.648.824.648.824.483.889.204 2.545.204 2.545z" fill="#E4897B"/><path opacity=".2" d="M20.267 15.023c-.01.286.016.573.077.852-1.08-.142-1.898-1.005-2.412-1.755a4.583 4.583 0 00-.284-.738l2.718.508c-.06.375-.093.754-.1 1.133z" fill="#18113C"/><path d="M19.728 6.229c2.928 0 3.172 1.42 3.34 3.853.21 3.045-.469 5.209-3.425 4.544-4.013-.886-3.843-8.397.085-8.397z" fill="#E4897B"/><path d="M21.55 9.946c.19.354.42.684.688.983a.656.656 0 01-.625.267l-.062-1.25z" fill="#DE5753"/><path d="M20.094 9.75c0 .193-.1.352-.228.355-.127.003-.238-.15-.24-.347-.004-.196.096-.352.223-.355.128-.002.239.15.245.347z" fill="#263238"/><path d="M19.8 9.412l.418-.174s-.201.361-.417.174zm2.708.247c0 .193-.1.352-.227.355-.128.003-.239-.153-.242-.347-.003-.193.097-.355.227-.357.131-.003.236.153.242.349z" fill="#263238"/><path d="M22.215 9.32l.417-.173s-.201.358-.417.174z" fill="#263238"/><path d="M20.075 8.117a1.236 1.236 0 00-1.028.355m2.746-.458a1.107 1.107 0 01.943.196" stroke="#263238" stroke-width=".708" stroke-linecap="round" stroke-linejoin="round"/><path d="M17.185 10.352s1.11-1.943.946-3.442c0 0 1.67-1.721 3.916-.02 0 0 .938 1.616.997 2.874 0 0 .466-4.223-3.598-4.328-4.064-.105-4.061 5.845-1.965 7.623 0 0-.983-1.494-.296-2.707z" fill="#263238"/><path d="M17.574 10.855a1.038 1.038 0 00-1.116-.951c-.733.08-1.085 1.582.739 1.948.255.048.403-.204.377-.997z" fill="#E4897B"/><path d="M21.283 12.476s-.991.224-1.4-.662" stroke="#263238" stroke-width=".708" stroke-linecap="round" stroke-linejoin="round"/><path d="M18.145 6.91s2.703-1.199 4.492.383c0 0 .702-2.084-1.704-2.794-2.405-.71-4.828 1.684-4.828 1.684l2.04.727zm-.003 0s-1.576 1.556-1.349 4.658c.227 3.1-.07 5.058-.687 6.997-.616 1.94.997 2.52.997 2.52s-1.838.454-2.215-1.514c-.25-1.29.34-4.084.045-7.413-.295-3.328.875-5.682 3.21-5.248z" fill="#263238"/><path d="M62.007 0a2.613 2.613 0 100 5.226 2.613 2.613 0 000-5.226zm0 2.36a.759.759 0 110-1.517.759.759 0 010 1.517z" fill="#754FFE"/><path opacity=".6" d="M62.007 0a2.613 2.613 0 100 5.226 2.613 2.613 0 000-5.226zm0 2.36a.759.759 0 110-1.517.759.759 0 010 1.517z" fill="#fff"/><path d="M87.859 3.43H36.15a2.127 2.127 0 00-2.128 2.128v77.055c0 1.174.953 2.127 2.128 2.127h51.708a2.127 2.127 0 002.127-2.127V5.558a2.127 2.127 0 00-2.127-2.127z" fill="#754FFE"/><path opacity=".8" d="M87.022 8.156H36.984v72.716h50.038V8.156z" fill="#fff"/><path d="M75.313 2.737H48.697a.548.548 0 00-.549.548V6.7c0 .303.246.548.549.548h26.616a.548.548 0 00.548-.548V3.285a.548.548 0 00-.548-.548z" fill="#754FFE"/><path opacity=".4" d="M75.313 2.737H48.697a.548.548 0 00-.549.548V6.7c0 .303.246.548.549.548h26.616a.548.548 0 00.548-.548V3.285a.548.548 0 00-.548-.548z" fill="#fff"/><path d="M72.249 11.437h-8.02a.894.894 0 01-.801-.466 1.61 1.61 0 00-2.84 0 .897.897 0 01-.801.466h-8.029a.852.852 0 01-.852-.852V5.799a.852.852 0 01.852-.852h20.49a.852.852 0 01.853.852v4.771a.851.851 0 01-.852.867zM62.005 9.548a2.17 2.17 0 011.923 1.156.339.339 0 00.3.165h8.02a.284.284 0 00.285-.284V5.799a.284.284 0 00-.284-.284h-20.49a.284.284 0 00-.285.284v4.771a.284.284 0 00.284.284h8.026a.335.335 0 00.298-.164 2.172 2.172 0 011.923-1.142z" fill="#263238"/><path opacity=".2" d="M72.249 11.437h-8.02a.894.894 0 01-.801-.466 1.61 1.61 0 00-2.84 0 .897.897 0 01-.801.466h-8.029a.852.852 0 01-.852-.852V5.799a.852.852 0 01.852-.852h20.49a.852.852 0 01.853.852v4.771a.851.851 0 01-.852.867zM62.005 9.548a2.17 2.17 0 011.923 1.156.339.339 0 00.3.165h8.02a.284.284 0 00.285-.284V5.799a.284.284 0 00-.284-.284h-20.49a.284.284 0 00-.285.284v4.771a.284.284 0 00.284.284h8.026a.335.335 0 00.298-.164 2.172 2.172 0 011.923-1.142z" fill="#fff"/><path d="M71.034 4.115H52.986a.33.33 0 00-.33.33v1.278c0 .182.148.33.33.33h18.048a.33.33 0 00.33-.33V4.445a.33.33 0 00-.33-.33z" fill="#754FFE"/><path opacity=".6" d="M71.026 4.115H52.978a.33.33 0 00-.33.33v1.278c0 .182.148.33.33.33h18.048a.33.33 0 00.33-.33V4.445a.33.33 0 00-.33-.33z" fill="#fff"/><path opacity=".3" d="M66.653 47.871h-5.055v5.055h5.055v-5.055zm-.591 7.089h-3.874a.59.59 0 01-.416-1.007.59.59 0 01.416-.172h3.874a.59.59 0 110 1.179zm16.268-7.089h-13a.54.54 0 00-.54.54v.002c0 .299.242.54.54.54h13a.54.54 0 00.54-.54v-.002a.54.54 0 00-.54-.54zm-2.84 2.839H69.33a.54.54 0 00-.54.54v.003c0 .298.242.54.54.54h10.16a.54.54 0 00.54-.54v-.002a.54.54 0 00-.54-.54zm2.84 2.84h-13a.54.54 0 00-.54.54v.003c0 .298.242.54.54.54h13a.54.54 0 00.54-.54v-.003a.54.54 0 00-.54-.54zm-7.384 2.84H69.33a.54.54 0 00-.54.54v.003c0 .298.242.54.54.54h5.617a.54.54 0 00.54-.54v-.003a.54.54 0 00-.54-.54zm2-40.745H46.92a.982.982 0 01-.98-.98.98.98 0 01.98-.98h30.025a.98.98 0 010 1.96zm5.009 5.8H62.137a.542.542 0 010-1.082h19.818a.54.54 0 01.382.922.542.542 0 01-.382.16zm-2.84 2.84H62.137a.543.543 0 01-.381-.924.54.54 0 01.381-.158h16.978a.54.54 0 01.382.922.543.543 0 01-.382.16zm2.84 2.84H62.137a.542.542 0 010-1.082h19.818a.54.54 0 01.382.922.542.542 0 01-.382.16zm-5.68 2.84H62.137a.543.543 0 01-.381-.924.54.54 0 01.381-.158h14.138a.54.54 0 01.381.922.543.543 0 01-.381.16zM63.016 33.35l.312.631.7.102-.507.492.12.695-.625-.329-.622.33.12-.696-.506-.492.696-.102.312-.63zm3.526 0l.313.631.695.102-.505.492.12.695-.623-.329-.624.33.119-.696-.506-.492.699-.102.312-.63zm3.525 0l.312.631.699.102-.506.492.12.695-.625-.329-.625.33.12-.696-.503-.492.695-.102.313-.63zm3.526 0l.31.631.698.102-.505.492.119.695-.622-.329-.625.33.12-.696-.506-.492.699-.102.312-.63zm3.525 0l.312.631.696.102-.503.492.12.695-.625-.329-.625.33.12-.696-.504-.492.696-.102.313-.63zm-14.102 3.619l.312.63.7.103-.507.49.12.697-.625-.33-.622.33.12-.696-.506-.491.696-.103.312-.63zm3.526 0l.313.63.695.103-.505.49.12.697-.623-.33-.624.33.119-.696-.506-.491.699-.103.312-.63zm3.525 0l.312.63.699.103-.506.49.12.697-.625-.33-.625.33.12-.696-.503-.491.695-.103.313-.63z" fill="#18113C"/><path opacity=".1" d="M73.593 36.969l.31.63.698.103-.505.49.119.697-.622-.33-.625.33.12-.696-.506-.491.699-.103.312-.63zm3.525 0l.312.63.696.103-.503.49.12.697-.625-.33-.625.33.12-.696-.504-.491.696-.103.313-.63z" fill="#18113C"/><path opacity=".3" d="M63.016 40.587l.312.63.7.103-.507.491.12.696-.625-.33-.622.33.12-.696-.506-.491.696-.103.312-.63zm3.526 0l.313.63.695.103-.505.491.12.696-.623-.33-.624.33.119-.696-.506-.491.699-.103.312-.63zm3.525 0l.312.63.699.103-.506.491.12.696-.625-.33-.625.33.12-.696-.503-.491.695-.103.313-.63zm3.526 0l.31.63.698.103-.505.491.119.696-.622-.33-.625.33.12-.696-.506-.491.699-.103.312-.63z" fill="#18113C"/><path opacity=".1" d="M77.118 40.587l.312.63.696.103-.503.491.12.696-.625-.33-.625.33.12-.696-.504-.491.696-.103.313-.63z" fill="#18113C"/><path opacity=".3" d="M66.653 62.071h-5.055v5.055h5.055v-5.055zm-.591 7.089h-3.874a.59.59 0 01-.416-1.007.59.59 0 01.416-.172h3.874a.59.59 0 01.418 1.006.59.59 0 01-.418.173zm16.268-7.089h-13a.54.54 0 00-.54.54v.003c0 .298.242.54.54.54h13a.54.54 0 00.54-.54v-.003a.54.54 0 00-.54-.54zm-2.84 2.84H69.33a.54.54 0 00-.54.54v.003c0 .298.242.54.54.54h10.16a.54.54 0 00.54-.54v-.003a.54.54 0 00-.54-.54zm2.84 2.84h-13a.54.54 0 00-.54.54v.002c0 .298.242.54.54.54h13a.54.54 0 00.54-.54v-.002a.54.54 0 00-.54-.54zm-7.384 2.839H69.33a.54.54 0 00-.54.54v.003c0 .298.242.54.54.54h5.617a.54.54 0 00.54-.54v-.003a.54.54 0 00-.54-.54z" fill="#18113C"/><path d="M58.372 20.363H40.145v24.203h18.227V20.363z" fill="#fff"/><path d="M57.52 21.215H40.995v22.498H57.52V21.215z" fill="#754FFE"/><path opacity=".4" d="M57.52 21.215H40.995v22.498H57.52V21.215z" fill="#fff"/><path d="M57.518 38.687v5.026h-1.284a6.663 6.663 0 00-1.167-.889 2.752 2.752 0 00-.648-.284c-1.928-.522.852-5.68.852-5.68.642.205 1.44.932 2.247 1.827z" fill="#754FFE"/><path opacity=".6" d="M57.518 38.687v5.026h-1.284a6.663 6.663 0 00-1.167-.889 2.752 2.752 0 00-.648-.284c-1.928-.522.852-5.68.852-5.68.642.205 1.44.932 2.247 1.827z" fill="#fff"/><path opacity=".2" d="M57.517 43.696v.017h-1.283a6.667 6.667 0 00-1.168-.889l.381-2.377c.371.308.7.663.98 1.057a7.232 7.232 0 011.09 2.192z" fill="#18113C"/><path d="M53.979 36.653c-.04.204-.08.412-.125.616-.046.205-.108.486-.168.727-.619 2.49-1.641 4.672-3.107 5.717h-5.01c-1.456-.741-1.735-1.988-1.686-3.294.03-.884.213-1.784.284-2.556a4.76 4.76 0 000-.801 18.105 18.105 0 00-.208-1.42c-.434-2.474-1.283-6.044-.852-7.876.514-2.226 2.139-2.84 2.139-2.84s.55-.037 1.397-.03c.625 0 1.42.03 2.252.11h.06c.933.084 1.858.247 2.763.488l.207.06a10.701 10.701 0 01.867.301c.143.061.273.15.38.264 1.287 1.32 1.605 6.163.807 10.534z" fill="#263238"/><path d="M52.484 26.131c1.804-.852 2.582 5.03 1.937 9.275" stroke="#263238" stroke-width=".5" stroke-linecap="round" stroke-linejoin="round"/><path d="M56.564 43.713H43.602a55.451 55.451 0 00-.165-.73 29.355 29.355 0 00-1.269-4.151c.531-.316 1.086-.59 1.659-.821.107-.049.218-.094.337-.14a18.99 18.99 0 011.557-.539l.187-.054a19.792 19.792 0 014.624-.755c.82-.04 1.641-.026 2.46.04.32.022.647.053.979.096.418.051.852.116 1.28.199.05.076.839 1.332 1.165 4.649.08.653.128 1.386.148 2.206z" fill="#754FFE"/><path d="M45.796 39.862s-1.482-3.652 3.147-4.064c4.63-.412 5.552 2.474 5.552 2.474l-2.15-.744-1.136 5.24a8.594 8.594 0 00-4.055-4.65l-1.358 1.744z" fill="#754FFE"/><path opacity=".6" d="M45.796 39.862s-1.482-3.652 3.147-4.064c4.63-.412 5.552 2.474 5.552 2.474l-2.15-.744-1.136 5.24a8.594 8.594 0 00-4.055-4.65l-1.358 1.744z" fill="#fff"/><path d="M51.017 40.448a19.09 19.09 0 00-4.025-3.181c1.108-.937.994-2.414.773-3.343a5.297 5.297 0 00-.284-.852l3.075.744a9.044 9.044 0 00-.19 1.301c-.026.322-.014.647.037.966.162.94.69.98.69.98.503 1.056-.077 3.385-.077 3.385z" fill="#E4897B"/><path opacity=".2" d="M50.377 35.113c-.026.323-.014.647.037.966-1.224-.227-2.107-1.264-2.65-2.15a5.303 5.303 0 00-.284-.852l3.076.744a9.23 9.23 0 00-.179 1.292z" fill="#18113C"/><path d="M49.404 24.992c3.348 0 3.63 1.619 3.823 4.408.238 3.487-.54 5.964-3.922 5.208-4.593-1.02-4.397-9.616.099-9.616z" fill="#E4897B"/><path d="M51.477 29.246c.215.409.478.79.783 1.136a.738.738 0 01-.712.307l-.071-1.443z" fill="#DE5753"/><path d="M49.819 29.03c0 .225-.111.407-.262.41-.15.002-.284-.174-.284-.398 0-.225.111-.403.259-.406.148-.003.281.162.287.395z" fill="#263238"/><path d="M49.48 28.635l.48-.201s-.233.411-.48.201zm3.104.279c0 .225-.11.406-.26.41-.151.002-.285-.174-.285-.398 0-.225.11-.404.258-.406.148-.003.282.173.287.394z" fill="#263238"/><path d="M52.246 28.53l.477-.198s-.216.415-.477.199z" fill="#263238"/><path d="M49.797 27.15s-.761-.099-1.176.407m3.145-.515a1.258 1.258 0 011.076.224" stroke="#263238" stroke-width=".708" stroke-linecap="round" stroke-linejoin="round"/><path d="M46.492 29.709s1.27-2.221 1.082-3.94c0 0 1.909-1.967 4.479-.022 0 0 1.076 1.852 1.136 3.289 0 0 .534-4.828-4.118-4.95-4.652-.122-4.64 6.688-2.244 8.721 0 0-1.121-1.71-.335-3.098z" fill="#263238"/><path d="M46.93 30.28a1.19 1.19 0 00-1.275-1.087c-.852.09-1.244 1.812.852 2.23.29.059.46-.234.423-1.142z" fill="#E4897B"/><path d="M51.179 32.155s-1.136.255-1.605-.759" stroke="#263238" stroke-width=".708" stroke-linecap="round" stroke-linejoin="round"/><path d="M47.574 25.77s3.093-1.372 5.14.44c0 0 .804-2.385-1.94-3.2-2.743-.815-5.532 1.928-5.532 1.928l2.332.832z" fill="#263238"/><path d="M47.574 25.77s-1.806 1.78-1.545 5.328c.261 3.547-.082 5.79-.787 8.011-.704 2.221 1.136 2.883 1.136 2.883s-2.101.517-2.533-1.732c-.284-1.477.392-4.675.051-8.483-.34-3.809 1.02-6.504 3.678-6.007z" fill="#263238"/><path opacity=".2" d="M44.202 43.714h-.6a54.17 54.17 0 00-.164-.73l.451-.395c.128.368.232.744.313 1.125z" fill="#18113C"/><path d="M43.893 43.713h-2.897v-3.976c.358-.34.75-.64 1.17-.9a2.624 2.624 0 011.576 2.045c.084.564.132 1.133.145 1.704.014.406.012.795.006 1.127z" fill="#754FFE"/><path opacity=".6" d="M43.893 43.713h-2.897v-3.976c.358-.34.75-.64 1.17-.9a2.624 2.624 0 011.576 2.045c.084.564.132 1.133.145 1.704.014.406.012.795.006 1.127z" fill="#fff"/><path opacity=".3" d="M58.372 47.386H40.145v24.168h18.227V47.386z" fill="#18113C"/><path opacity=".3" d="M55.306 51.13h-12.43a.543.543 0 01-.382-.923.54.54 0 01.382-.158h12.43a.54.54 0 110 1.082zm.004 1.941H42.875a.54.54 0 00-.54.54v.003c0 .298.242.54.54.54h12.433a.54.54 0 00.54-.54v-.003a.54.54 0 00-.54-.54zm-5.684 4.107h-6.75a.542.542 0 01-.382-.924.54.54 0 01.382-.158h6.75a.538.538 0 01.543.54.543.543 0 01-.543.542zm5.68 3.022h-12.43a.54.54 0 01-.382-.923.542.542 0 01.382-.16h12.43a.542.542 0 110 1.082zm0 3.02h-12.43a.54.54 0 010-1.078h12.43a.538.538 0 110 1.079zm-8.52 3.014h-3.91a.54.54 0 01-.383-.923.539.539 0 01.383-.159h3.91a.54.54 0 110 1.082zm5.68 3.034h-9.59a.54.54 0 110-1.08h9.59a.54.54 0 110 1.08z" fill="#fff"/><path d="M98.95 67.055a1.624 1.624 0 00-1.486.145c-1.378.787-1.954 4.019-2.195 6.532.087-3.564.673-8.494 3.01-11.178l-.213-.185c-1.957 2.244-2.718 5.924-2.982 9.153-.037-1.374-.122-2.862-.304-4.28.063-3.041.327-5.802 1.022-6.742l-.23-.17c-.613.83-.908 2.937-1.028 5.396-.349-1.843-.906-3.408-1.778-4.212l-.19.208c1.04.957 1.613 3.14 1.914 5.555 0 .34 0 .687-.014 1.034-.27-1.42-.633-2.588-1.113-3.056-1.619-1.574-3.522-.023-3.539 0l.182.216c.068-.057 1.724-1.4 3.158 0 .63.61 1.048 2.607 1.32 4.714.038 2.525.163 4.899.248 6.28 0 .218-.02.343-.02.354h.042c.032.477.054.784.06.852l.25-.02c0 .174.026.284.028.327l.284-.026c0-.022-.042-.443-.073-1.136h.088c0-.08.093-8.15 2.229-9.372a1.34 1.34 0 011.235-.127c1.25.516 1.917 2.908 1.923 2.933l.284-.076c-.054-.103-.733-2.548-2.113-3.119z" fill="#263238"/><path d="M91.564 67.313c-1.241.088-2.201 1.767-2.244 1.838l.25.139c0-.017.926-1.616 2.014-1.704.457-.028.892.219 1.295.741 1.675 2.19 1.337 8.41 1.335 8.472l.284.017c0-.261.346-6.39-1.395-8.66-.463-.596-.982-.883-1.54-.843z" fill="#263238"/><g opacity=".2" fill="#fff"><path opacity=".2" d="M98.95 67.055a1.624 1.624 0 00-1.486.145c-1.378.787-1.954 4.019-2.195 6.532.087-3.564.673-8.494 3.01-11.178l-.213-.185c-1.957 2.244-2.718 5.924-2.982 9.153-.037-1.374-.122-2.862-.304-4.28.063-3.041.327-5.802 1.022-6.742l-.23-.17c-.613.83-.908 2.937-1.028 5.396-.349-1.843-.906-3.408-1.778-4.212l-.19.208c1.04.957 1.613 3.14 1.914 5.555 0 .34 0 .687-.014 1.034-.27-1.42-.633-2.588-1.113-3.056-1.619-1.574-3.522-.023-3.539 0l.182.216c.068-.057 1.724-1.4 3.158 0 .63.61 1.048 2.607 1.32 4.714.038 2.525.163 4.899.248 6.28 0 .218-.02.343-.02.354h.042c.032.477.054.784.06.852l.25-.02c0 .174.026.284.028.327l.284-.026c0-.022-.042-.443-.073-1.136h.088c0-.08.093-8.15 2.229-9.372a1.34 1.34 0 011.235-.127c1.25.516 1.917 2.908 1.923 2.933l.284-.076c-.054-.103-.733-2.548-2.113-3.119z"/><path opacity=".2" d="M91.564 67.313c-1.241.088-2.201 1.767-2.244 1.838l.25.139c0-.017.926-1.616 2.014-1.704.457-.028.892.219 1.295.741 1.675 2.19 1.337 8.41 1.335 8.472l.284.017c0-.261.346-6.39-1.395-8.66-.463-.596-.982-.883-1.54-.843z"/></g><path d="M99.444 68.52s-1.11.409-.781 1.377c.33.969 3.845 2.556 3.845 2.556s1.474-1.349.122-3.544c-1.352-2.195-3.155-1.082-3.186-.389zm-4.834-1.843s1.185-.051 1.253.971c.068 1.022-2.556 3.843-2.556 3.843s-1.88-.68-1.477-3.227c.403-2.547 2.488-2.215 2.78-1.587zm-1.001-4.885s.79-.085.727-.568c-.063-.482-3.07-1.718-4.828.285 0 0 1.136 1.948 2.777 1.973 1.642.026 1.324-1.69 1.324-1.69zm1.469-1.167s-.713.347-.915-.096c-.202-.444 1.704-3.082 4.26-2.32 0 0 .068 2.254-1.31 3.143-1.377.89-2.035-.727-2.035-.727z" fill="#263238"/><path d="M91.341 68.131s.546-.44-.042-.656c-.588-.215-3.474-.153-3.502 2.704 0 0 3.36.568 3.774-.528.415-1.096-.23-1.52-.23-1.52zm6.852-6.41s-.545-.44.043-.656c.588-.216 3.473-.153 3.502 2.704 0 0-3.36.568-3.775-.528-.414-1.096.23-1.52.23-1.52zm-1.777 2.301s-.049-.534.383-.324c.432.21 1.937 1.832.378 3.372 0 0-2.1-1.554-1.721-2.363.377-.81.96-.685.96-.685zm-5.569.764s.324-.429-.15-.48c-.474-.051-2.616.517-2.119 2.65 0 0 2.605-.196 2.715-1.082.111-.887-.446-1.088-.446-1.088z" fill="#263238"/><path d="M99.651 84.74h-8.934l-.963-9.781h10.863l-.966 9.78z" fill="#754FFE"/><path opacity=".2" d="M99.651 84.74h-8.934l-.963-9.781h10.863l-.966 9.78z" fill="#fff"/><path d="M101.095 73.88H89.277v2.158h11.818V73.88z" fill="#754FFE"/><path opacity=".5" d="M101.095 73.88H89.277v2.158h11.818V73.88z" fill="#fff"/></svg>