<svg width="90" height="32" fill="none" xmlns="http://www.w3.org/2000/svg"><path fill-rule="evenodd" clip-rule="evenodd" d="M54.628 22.751c-4.631 3.425-11.368 5.25-17.178 5.25-8.14 0-15.44-3.004-20.997-8-.421-.394-.056-.927.477-.618 5.98 3.48 13.362 5.558 20.997 5.558 5.136 0 10.807-1.067 16.028-3.285.786-.308 1.431.534.673 1.095z" fill="#F90"/><path fill-rule="evenodd" clip-rule="evenodd" d="M56.566 20.533c-.59-.758-3.93-.364-5.418-.168-.449.056-.533-.337-.112-.618 2.667-1.88 7.018-1.319 7.523-.701.505.617-.14 4.996-2.639 7.073-.393.31-.758.14-.59-.28.562-1.404 1.825-4.52 1.236-5.306z" fill="#F90"/><path fill-rule="evenodd" clip-rule="evenodd" d="M51.232 6.555V4.73c0-.28.196-.45.449-.45h8.14c.253 0 .477.197.477.45v1.544c0 .253-.224.59-.617 1.15l-4.21 6.008c1.571-.028 3.227.196 4.63.982.31.169.394.45.422.702v1.937c0 .28-.28.59-.59.42-2.498-1.318-5.838-1.459-8.59.029-.28.14-.589-.14-.589-.421v-1.853c0-.28 0-.786.31-1.235l4.883-6.99H51.71c-.253 0-.477-.196-.477-.448zm-29.67 11.312h-2.47c-.225-.028-.422-.197-.45-.421V4.758c0-.253.225-.449.477-.449h2.302c.253 0 .421.196.45.421v1.656h.055c.59-1.6 1.74-2.358 3.257-2.358 1.543 0 2.526.758 3.2 2.358.589-1.6 1.964-2.358 3.424-2.358 1.039 0 2.161.421 2.863 1.404.786 1.066.618 2.61.618 3.986v8.028c0 .252-.225.449-.477.449h-2.443c-.252-.028-.449-.225-.449-.45V10.71c0-.533.056-1.88-.056-2.386-.196-.842-.73-1.095-1.46-1.095-.589 0-1.235.393-1.487 1.039-.253.646-.225 1.712-.225 2.442v6.737c0 .252-.224.449-.477.449h-2.47c-.253-.028-.45-.225-.45-.45V10.71c0-1.404.225-3.509-1.515-3.509-1.768 0-1.712 2.021-1.712 3.509v6.737a.493.493 0 01-.506.42zM67.315 4.028c3.677 0 5.67 3.144 5.67 7.158 0 3.874-2.19 6.962-5.67 6.962-3.593 0-5.558-3.144-5.558-7.074-.028-3.958 1.965-7.046 5.558-7.046zm0 2.61c-1.825 0-1.937 2.5-1.937 4.043 0 1.544-.028 4.856 1.909 4.856 1.909 0 2.02-2.667 2.02-4.295 0-1.066-.055-2.358-.364-3.368-.28-.898-.842-1.235-1.628-1.235zm10.415 11.23h-2.47c-.253-.028-.45-.225-.45-.45V4.703a.485.485 0 01.478-.421h2.302c.224 0 .392.168.449.365v1.937h.056c.701-1.74 1.656-2.555 3.368-2.555 1.095 0 2.19.393 2.891 1.488C85 6.526 85 8.239 85 9.474v8c-.028.224-.225.393-.477.393h-2.47c-.225-.028-.421-.197-.45-.393v-6.905c0-1.404.169-3.425-1.543-3.425-.59 0-1.151.393-1.432 1.01-.337.787-.393 1.544-.393 2.415v6.849a.514.514 0 01-.505.449zm-32.983-6.063c0 .954.028 1.768-.449 2.638-.393.702-1.01 1.123-1.712 1.123-.954 0-1.516-.73-1.516-1.796 0-2.106 1.88-2.499 3.677-2.499v.534zm2.499 6.035a.508.508 0 01-.59.056c-.814-.674-.982-1.01-1.431-1.656-1.348 1.375-2.33 1.796-4.07 1.796-2.078 0-3.706-1.29-3.706-3.845 0-2.021 1.095-3.369 2.639-4.042 1.347-.59 3.228-.702 4.66-.87v-.31c0-.589.056-1.29-.31-1.796-.308-.449-.87-.645-1.375-.645-.954 0-1.796.477-1.993 1.487-.056.225-.196.45-.42.45l-2.387-.253c-.196-.056-.42-.197-.365-.506.562-2.919 3.172-3.789 5.53-3.789 1.207 0 2.779.309 3.733 1.235 1.207 1.123 1.095 2.639 1.095 4.267v3.845c0 1.151.477 1.656.926 2.302.169.225.197.505 0 .646-.533.42-1.431 1.207-1.936 1.628zm-34.92-6.035c0 .954.028 1.768-.449 2.638-.393.702-1.01 1.123-1.712 1.123-.954 0-1.516-.73-1.516-1.796 0-2.106 1.88-2.499 3.677-2.499v.534zm2.47 6.035a.508.508 0 01-.589.056c-.814-.674-.982-1.01-1.432-1.656-1.347 1.375-2.33 1.796-4.07 1.796C6.628 18.035 5 16.745 5 14.19c0-2.021 1.095-3.369 2.639-4.042 1.347-.59 3.228-.702 4.66-.87v-.31c0-.589.055-1.29-.31-1.796-.308-.449-.87-.645-1.375-.645-.954 0-1.796.477-1.993 1.487-.056.225-.196.45-.421.45L5.814 8.21c-.196-.056-.421-.197-.365-.506.562-2.919 3.172-3.789 5.53-3.789 1.207 0 2.779.309 3.733 1.235 1.207 1.123 1.095 2.639 1.095 4.267v3.845c0 1.151.477 1.656.926 2.302.169.225.197.505 0 .646-.533.42-1.431 1.207-1.937 1.628z" fill="#000"/></svg>