<svg width="90" height="32" fill="none" xmlns="http://www.w3.org/2000/svg"><g clip-path="url(#clip0_5153_20400)"><path d="M14.853 3.002h.711c2.47.054 4.9 1.047 6.644 2.806-.644.658-1.302 1.288-1.932 1.946-.98-.886-2.162-1.57-3.45-1.812-1.906-.403-3.96-.04-5.557 1.047-1.745 1.14-2.926 3.074-3.181 5.141-.282 2.04.295 4.188 1.624 5.772a7.184 7.184 0 005.235 2.577c1.879.107 3.839-.47 5.208-1.785 1.074-.927 1.57-2.336 1.731-3.705-2.228 0-4.456.013-6.684 0v-2.765h9.382c.483 2.966-.215 6.309-2.47 8.43-1.503 1.503-3.583 2.389-5.704 2.563-2.054.202-4.175-.188-6-1.181-2.188-1.168-3.933-3.141-4.792-5.463-.806-2.134-.819-4.55-.067-6.698.684-1.96 2-3.691 3.691-4.9 1.624-1.194 3.597-1.852 5.61-1.973z" fill="#3780FF"/><path d="M68.68 3.7h2.872v19.168c-.953 0-1.92.013-2.872-.013.013-6.376 0-12.766 0-19.155z" fill="#38B137"/><path d="M30.975 10.345c1.772-.336 3.691.04 5.154 1.1a6.305 6.305 0 012.537 4.027c.363 1.866-.094 3.906-1.302 5.383-1.302 1.65-3.436 2.537-5.517 2.402-1.906-.107-3.758-1.06-4.886-2.617-1.275-1.718-1.583-4.08-.885-6.094.698-2.161 2.67-3.812 4.899-4.201zm.403 2.55a3.609 3.609 0 00-1.88 1.195c-1.302 1.557-1.221 4.094.215 5.543.819.832 2.054 1.222 3.195.994 1.06-.188 1.986-.9 2.496-1.84.886-1.597.631-3.798-.724-5.046-.873-.806-2.148-1.141-3.302-.846z" fill="#FA3913"/><path d="M45.201 10.345c2.027-.39 4.242.174 5.758 1.597 2.47 2.215 2.739 6.362.631 8.913-1.275 1.61-3.342 2.496-5.382 2.402-1.946-.053-3.866-1.02-5.02-2.617-1.302-1.758-1.584-4.175-.846-6.228.738-2.094 2.671-3.692 4.86-4.067zm.403 2.55a3.67 3.67 0 00-1.88 1.181c-1.288 1.53-1.234 4.027.148 5.49.82.873 2.094 1.302 3.276 1.06a3.682 3.682 0 002.496-1.838c.873-1.611.617-3.813-.752-5.06a3.598 3.598 0 00-3.288-.833z" fill="#FCBD06"/><path d="M57.267 11.123c1.544-.966 3.598-1.235 5.262-.403.523.229.953.618 1.37 1.007.012-.362 0-.738.012-1.114.9.014 1.8 0 2.712.014v11.838c-.014 1.786-.47 3.678-1.758 4.98-1.41 1.436-3.57 1.88-5.517 1.584-2.08-.309-3.893-1.825-4.698-3.745.805-.39 1.65-.698 2.483-1.06.47 1.1 1.423 2.04 2.617 2.255 1.195.215 2.578-.08 3.356-1.074.832-1.02.832-2.416.792-3.664-.617.604-1.329 1.14-2.188 1.342-1.866.523-3.92-.121-5.355-1.383-1.45-1.261-2.31-3.208-2.229-5.14.04-2.189 1.276-4.296 3.141-5.437zm2.779 1.718a3.532 3.532 0 00-2.108 1.222c-1.261 1.503-1.261 3.906.014 5.382a3.512 3.512 0 003.02 1.235c1.06-.107 2.04-.778 2.564-1.704.886-1.571.738-3.705-.457-5.074a3.303 3.303 0 00-3.033-1.06z" fill="#3780FF"/><path d="M75 11.808c1.61-1.504 4.094-2.014 6.161-1.222 1.96.739 3.208 2.604 3.84 4.524-2.914 1.208-5.813 2.402-8.726 3.61.403.766 1.02 1.464 1.853 1.745 1.167.417 2.563.269 3.543-.51.39-.295.698-.684.993-1.06.739.497 1.477.98 2.215 1.477-1.047 1.57-2.805 2.67-4.698 2.845-2.094.255-4.322-.55-5.678-2.188-2.228-2.577-2.013-6.9.497-9.221zm1.436 2.483c-.456.658-.644 1.463-.63 2.255a962.51 962.51 0 005.838-2.43c-.322-.751-1.1-1.208-1.892-1.328-1.275-.229-2.604.456-3.316 1.503z" fill="#FA3913"/></g><defs><clipPath id="clip0_5153_20400"><path fill="#fff" transform="translate(5 3)" d="M0 0h80v26.112H0z"/></clipPath></defs></svg>