<svg width="42" height="42" fill="none" xmlns="http://www.w3.org/2000/svg"><rect width="42" height="42" rx="21" fill="#F2EFFF"/><path d="M34 27v1h-6.75v1.125h-1V28H16v1.125h-1V28H8v-1h26zm-4.25-14c.69 0 1.25.56 1.25 1.25v9.5c0 .69-.56 1.25-1.25 1.25h-17.5c-.69 0-1.25-.56-1.25-1.25v-9.5c0-.69.56-1.25 1.25-1.25h17.5zm0 1h-17.5a.25.25 0 00-.25.25v9.5c0 .138.112.25.25.25h17.5a.25.25 0 00.25-.25v-9.5a.25.25 0 00-.25-.25zM23 21.05v1H13v-1h10zM24.875 16a1.875 1.875 0 110 3.75 1.875 1.875 0 010-3.75zm-5.625 2.55v1H13v-1h6.25zM24.875 17a.875.875 0 100 1.75.875.875 0 000-1.75zm-5.625-.95v1H13v-1h6.25z" fill="#754FFE"/></svg>