<svg width="90" height="32" fill="none" xmlns="http://www.w3.org/2000/svg"><path d="M21.52 8.104c-.853-.972-2.395-1.389-4.367-1.389h-5.724a.82.82 0 00-.81.692L8.236 22.524a.49.49 0 00.486.567h3.534l.887-5.629-.027.176a.818.818 0 01.806-.691h1.68c3.299 0 5.882-1.34 6.636-5.216.023-.115.042-.226.059-.335.224-1.433-.002-2.408-.777-3.291" fill="#003087"/><path d="M64.782 15.298c-.216 1.418-1.3 1.418-2.347 1.418h-.596l.418-2.648a.329.329 0 01.325-.278h.274c.713 0 1.387 0 1.734.406.208.243.27.604.192 1.102zm-.456-3.701h-3.952a.55.55 0 00-.543.463l-1.597 10.133a.331.331 0 00.325.38h2.028c.19 0 .35-.137.38-.324l.453-2.873a.55.55 0 01.542-.464h1.25c2.604 0 4.106-1.259 4.498-3.756.177-1.091.008-1.95-.503-2.55-.562-.66-1.558-1.01-2.88-1.01" fill="#009CDE"/><path d="M36.598 15.297c-.216 1.419-1.299 1.419-2.347 1.419h-.596l.418-2.649a.33.33 0 01.325-.277h.274c.713 0 1.387 0 1.734.406.208.243.27.603.192 1.101zm-.456-3.7h-3.951a.55.55 0 00-.543.463l-1.597 10.132a.328.328 0 00.325.38h1.887c.27 0 .5-.196.542-.463l.432-2.733a.549.549 0 01.542-.464h1.25c2.604 0 4.106-1.26 4.498-3.756.177-1.092.007-1.95-.504-2.55-.562-.66-1.558-1.01-2.88-1.01zm9.175 7.338c-.184 1.081-1.041 1.807-2.136 1.807-.549 0-.988-.177-1.27-.511-.28-.331-.386-.803-.297-1.329.17-1.072 1.042-1.82 2.12-1.82.538 0 .974.178 1.262.515.29.34.404.815.32 1.338zm2.637-3.684h-1.892a.33.33 0 00-.326.279l-.083.529-.132-.192c-.41-.594-1.324-.794-2.236-.794-2.09 0-3.876 1.585-4.223 3.806-.181 1.11.076 2.169.704 2.908.578.68 1.401.962 2.383.962 1.686 0 2.62-1.082 2.62-1.082l-.084.526a.329.329 0 00.325.38h1.704c.27 0 .5-.196.543-.463l1.023-6.478a.33.33 0 00-.327-.38" fill="#003087"/><path d="M73.503 18.935c-.184 1.081-1.041 1.807-2.136 1.807-.548 0-.988-.177-1.27-.51-.28-.332-.386-.804-.297-1.33.17-1.072 1.042-1.82 2.12-1.82.538 0 .974.178 1.262.515.29.34.404.815.321 1.338zm2.637-3.683h-1.892a.33.33 0 00-.326.278l-.083.53-.132-.192c-.41-.595-1.323-.794-2.235-.794-2.09 0-3.876 1.584-4.224 3.806-.18 1.109.076 2.168.705 2.907.577.68 1.401.962 2.383.962 1.686 0 2.62-1.082 2.62-1.082l-.084.526a.327.327 0 00.325.38h1.702c.27 0 .501-.196.544-.463l1.023-6.477a.335.335 0 00-.075-.266.333.333 0 00-.25-.115" fill="#009CDE"/><path d="M58.032 15.252H56.13a.547.547 0 00-.454.241l-2.624 3.864-1.112-3.713a.55.55 0 00-.526-.393h-1.87a.33.33 0 00-.311.437l2.094 6.147-1.97 2.78a.33.33 0 00.269.52h1.9a.55.55 0 00.451-.237l6.325-9.129a.33.33 0 00-.27-.517z" fill="#003087"/><path d="M78.369 11.875l-1.623 10.318a.335.335 0 00.075.265.325.325 0 00.251.116h1.63c.27 0 .5-.197.543-.464l1.6-10.133a.325.325 0 00-.076-.265.328.328 0 00-.25-.115h-1.825a.33.33 0 00-.325.278" fill="#009CDE"/><path d="M21.52 8.104c-.853-.972-2.395-1.389-4.367-1.389h-5.724a.82.82 0 00-.81.692L8.236 22.524a.49.49 0 00.486.567h3.534l.887-5.629-.027.176a.818.818 0 01.806-.691h1.68c3.299 0 5.882-1.34 6.636-5.216.023-.115.042-.226.059-.335.224-1.433-.002-2.408-.777-3.291" fill="#003087"/><path d="M14.097 11.414a.718.718 0 01.708-.605h4.488a9.43 9.43 0 011.48.107c.247.04.492.095.733.164.274.077.539.183.79.315.226-1.433 0-2.408-.776-3.291-.853-.972-2.394-1.389-4.366-1.389h-5.725a.82.82 0 00-.81.692L8.238 22.522a.491.491 0 00.485.568h3.534l.887-5.63.954-6.046z" fill="#003087"/><path d="M22.299 11.395a9.035 9.035 0 01-.059.335c-.754 3.876-3.337 5.216-6.636 5.216h-1.68a.816.816 0 00-.806.692l-.86 5.452-.245 1.547a.43.43 0 00.425.497h2.979a.717.717 0 00.708-.604l.029-.152.561-3.558.036-.197a.716.716 0 01.708-.605h.446c2.886 0 5.145-1.172 5.805-4.563.276-1.416.133-2.6-.596-3.43a2.843 2.843 0 00-.815-.63z" fill="#009CDE"/><path d="M21.508 11.08a6.311 6.311 0 00-.734-.163 9.25 9.25 0 00-1.48-.108h-4.488a.715.715 0 00-.707.605l-.954 6.048-.028.176a.817.817 0 01.806-.692h1.68c3.299 0 5.882-1.34 6.637-5.216.022-.114.04-.226.058-.335a4.072 4.072 0 00-.79-.315" fill="#012169"/></svg>