<svg width="90" height="32" fill="none" xmlns="http://www.w3.org/2000/svg"><g clip-path="url(#clip0_5153_20400)"><path d="M38.53 11.662c-1.444 0-3.087.665-4.091 1.997v-.003.001-1.786h-3.445v12.465h3.445v-7.093c0-1.276.996-2.633 2.84-2.633 1.426 0 2.901.985 2.901 2.633v7.093h3.446v-7.727c0-2.867-2.065-4.947-5.096-4.947zm29.583.21l-3.115 8.49-3.115-8.49h-3.935l5.162 12.46h3.775l5.163-12.46h-3.935zm-47.404 3.755c.586-.783 1.52-1.243 2.65-1.243 1.241 0 2.183.705 2.67 1.745l-6.02 2.48c-.164-1.273.164-2.269.7-2.982zm6.619 4.877c-1.45 1.066-2.279 1.32-3.601 1.32-1.19 0-2.122-.367-2.779-1.01l8.808-3.63c-.192-1.354-.709-2.562-1.504-3.481-1.157-1.335-2.87-2.042-4.956-2.042-3.788 0-6.645 2.777-6.645 6.444 0 3.762 2.864 6.443 7.025 6.443 2.331 0 4.715-1.098 5.83-2.38l-2.178-1.664zm-11.005.69h-7.83V8.143H5v16.192h11.323v-3.143zm61.911-6.6c-1.924 0-3.321 1.449-3.321 3.51 0 1.967 1.48 3.509 3.368 3.509 1.924 0 3.32-1.488 3.32-3.51 0-1.967-1.479-3.509-3.367-3.509zm0 9.952c-3.768 0-6.72-2.789-6.72-6.442 0-3.613 2.973-6.443 6.767-6.443 3.767 0 6.719 2.789 6.719 6.443 0 3.612-2.972 6.442-6.766 6.442zm-26.526-9.952c-1.924 0-3.32 1.449-3.32 3.51 0 1.967 1.48 3.509 3.367 3.509 1.924 0 3.32-1.488 3.32-3.51 0-1.967-1.479-3.509-3.367-3.509zm0 9.952c-3.768 0-6.72-2.789-6.72-6.442 0-3.613 2.973-6.443 6.767-6.443 3.767 0 6.72 2.789 6.72 6.443 0 3.612-2.973 6.442-6.767 6.442" fill="#E60012"/></g><defs><clipPath id="clip0_5153_20400"><path fill="#fff" transform="translate(5 8)" d="M0 0h80v16.691H0z"/></clipPath></defs></svg>