<svg width="42" height="42" fill="none" xmlns="http://www.w3.org/2000/svg"><rect width="42" height="42" rx="21" fill="#F2EFFF"/><path d="M14.462 16.3a1.875 1.875 0 11-.921 3.509l-.971 1.515a2 2 0 00-.307.887l-.01.19L12.25 25h3.25v-1.25A3.75 3.75 0 0119.25 20h6.25a3.75 3.75 0 013.75 3.75V25H32a1 1 0 011 1v1.75a1 1 0 01-1 1H10a1 1 0 01-1-1V26a1 1 0 011-1h1.25l.004-2.6c0-.501.126-.993.365-1.43l.109-.185 1.092-1.704a1.875 1.875 0 011.642-2.781zM32 26H10v1.75h22V26zm-6.5-5h-6.25a2.75 2.75 0 00-2.75 2.75V25h11.75v-1.25A2.75 2.75 0 0025.5 21zm-11.038-3.7a.875.875 0 00-.736 1.348.46.46 0 01.156.182.875.875 0 10.58-1.53zM22.25 13a3 3 0 110 6 3 3 0 010-6zm0 1a2 2 0 100 4 2 2 0 000-4z" fill="#754FFE"/></svg>