<svg width="42" height="42" fill="none" xmlns="http://www.w3.org/2000/svg"><rect width="42" height="42" rx="21" fill="#F2EFFF"/><path d="M22.1 13a7.049 7.049 0 016.515 4.323.5.5 0 01-.374.685l-.086.008-5.732.01v5.368a.5.5 0 01-.014.119h2.901l2.462-4.448a1.393 1.393 0 011.93-.523c.688.407.927 1.288.54 1.988l-2.925 5.282c-.29.525-.87.788-1.43.703l-1.057-.001.743 1.237a.5.5 0 01-.857.515l-1.05-1.747-.003-.005h-7.514a.126.126 0 01-.003.005l-1.05 1.747a.5.5 0 11-.857-.515l.743-1.239-2.482.001a1.5 1.5 0 010-3h8.937a.5.5 0 01-.014-.119V18.04l.001-.011-5.385.01a.5.5 0 01-.463-.69A7.049 7.049 0 0122.101 13zm6.547 6.55l-2.462 4.447a1 1 0 01-.875.515l-12.81.001a.5.5 0 100 1l13.387.002.152.011a.394.394 0 00.403-.198l2.924-5.282a.479.479 0 00-.174-.644l-.01-.006a.393.393 0 00-.535.153zM22.101 14c-2.129 0-4.05 1.1-5.135 2.827l-.126.21 10.51-.02A6.057 6.057 0 0022.1 14z" fill="#754FFE"/></svg>