<svg width="42" height="42" fill="none" xmlns="http://www.w3.org/2000/svg"><rect width="42" height="42" rx="21" fill="#F2EFFF"/><path d="M14.25 29.498a.5.5 0 01-.492-.41l-.008-.09v-7.5a.5.5 0 01.992-.09l.008.09v7h2v-4.625c0-.345.28-.625.625-.625h6.25c.345 0 .625.28.625.625v4.625h2v-7a.5.5 0 01.992-.09l.008.09v7.5a.5.5 0 01-.41.492l-.09.008h-12.5zm9-5.25h-5.5v4.25h5.5v-4.25zM22.079 14.6l.172.12 8.548 6.378a.5.5 0 01-.521.85l-.077-.048-8.548-6.379a2 2 0 00-2.255-.094l-.145.1-8.452 6.371a.5.5 0 01-.669-.738l.067-.06 8.452-6.371a3 3 0 013.428-.128zm5.94 1.148a.635.635 0 11-.782 1 .635.635 0 01.781-1zm2.013.206a.477.477 0 01-.945.116 1.472 1.472 0 00-1.64-1.281.479.479 0 01-.532-.416.479.479 0 01.416-.532 2.425 2.425 0 012.701 2.113zm1.81-.222a.479.479 0 01-.766.435.476.476 0 01-.18-.318 3.299 3.299 0 00-3.671-2.868.479.479 0 01-.532-.416.479.479 0 01.416-.532 4.25 4.25 0 014.734 3.699z" fill="#754FFE"/></svg>