<svg width="334" height="213" fill="none" xmlns="http://www.w3.org/2000/svg"><path d="M17.418 136.007L0 186.16l74.409 25.839 17.416-50.153-74.408-25.839z" fill="#ECEBF1"/><path d="M91.821 161.835a5.414 5.414 0 01-.923.43l-2.701 1.093-9.994 3.909-33.143 12.686-.275.101-.155-.246-.381-.599-19.099-30.475-5.722-9.279-1.522-2.542a5.708 5.708 0 01-.483-.913c.228.258.43.538.604.836l1.638 2.47 5.91 9.177 19.283 30.363c.125.208.256.411.377.6l-.43-.145 33.22-12.483 10.075-3.716 2.75-.967c.313-.131.639-.232.971-.3z" fill="#DBD8E9"/><path d="M.001 186.178c-.102-.169 7.882-5.099 17.828-11.014 9.945-5.915 18.093-10.569 18.194-10.4.102.169-7.882 5.099-17.832 11.014-9.95 5.915-18.089 10.545-18.19 10.4zM60.974 172.7c.184-.063 3.345 8.698 7.056 19.528 3.712 10.83 6.568 19.698 6.38 19.761-.19.063-3.345-8.699-7.056-19.529-3.712-10.83-6.568-19.698-6.38-19.76z" fill="#DBD8E9"/><path d="M311.715 105.778l-98.727 16.734 11.279 66.546 98.728-16.734-11.28-66.546z" fill="#ECEBF1"/><path d="M311.706 105.807c-.222.37-.478.72-.764 1.043l-2.34 2.871-8.748 10.471c-7.51 8.858-17.787 20.982-29.16 34.409l-.239.285-.324-.181-.791-.434-39.93-22.279-12.046-6.843-3.24-1.898a6.4 6.4 0 01-1.102-.719c.413.151.812.337 1.193.557l3.337 1.756 12.189 6.584 40.059 22.032.791.434-.564.103 29.38-34.233 8.962-10.284c1.03-1.147 1.847-2.067 2.469-2.767.265-.325.555-.629.868-.907z" fill="#DBD8E9"/><path d="M224.259 189.081c-.214-.129 5.663-10.51 13.128-23.185 7.465-12.675 13.699-22.849 13.913-22.719.213.13-5.664 10.504-13.129 23.185-7.465 12.682-13.699 22.842-13.912 22.719zm59.719-52.312c.169-.182 9.072 7.627 19.81 17.45 10.737 9.824 19.368 17.937 19.193 18.144-.175.208-9.033-7.64-19.809-17.45-10.776-9.811-19.388-17.943-19.194-18.144z" fill="#DBD8E9"/><path d="M213.03 0l-17.786 45.22 67.094 26.389 17.786-45.222L213.03 0z" fill="#ECEBF1"/><path d="M280.103 26.991a4.008 4.008 0 01-.862.357l-2.507.907-9.286 3.208-30.787 10.368-.252.084-.13-.233-.324-.558-16.323-28.583a3557.26 3557.26 0 01-4.886-8.696l-1.296-2.378a5.041 5.041 0 01-.415-.856c.201.245.379.507.532.784.349.59.816 1.361 1.406 2.32l5.067 8.6c4.251 7.341 10.076 17.385 16.505 28.511l.324.564-.383-.15 30.839-10.186 9.331-3.039 2.546-.758c.293-.112.594-.201.901-.266z" fill="#DBD8E9"/><path d="M195.228 45.835c-.091-.156 7.394-4.374 16.712-9.416 9.318-5.041 16.939-8.994 17.023-8.838.084.155-7.387 4.374-16.712 9.396-9.325 5.022-16.939 9.02-17.023 8.858zm56.259-10.05c.175-.051 2.741 8.068 5.729 18.144 2.987 10.077 5.281 18.261 5.106 18.313-.175.052-2.741-8.061-5.728-18.144-2.988-10.083-5.282-18.26-5.107-18.313z" fill="#DBD8E9"/><path d="M333.408 212.168c0 .091-74.644.169-166.698.169-92.055 0-166.71-.078-166.71-.169 0-.09 74.626-.168 166.71-.168 92.083 0 166.698.071 166.698.168z" fill="#BEB9CD"/><path d="M82.412 108.839l152.843-1.109 4.258 103.914-158.268-1.465 1.166-101.34z" fill="#754FFE"/><path d="M82.405 108.839l72.343-58.534a8.306 8.306 0 0110.491.04l70.016 57.386" fill="#754FFE"/><path opacity=".3" d="M82.405 108.839l72.343-58.534a8.306 8.306 0 0110.491.04l70.016 57.386" fill="#18113C"/><path d="M81.245 210.179c-.188-.181 12.046-13.543 27.333-29.84 15.286-16.298 27.825-29.368 28.019-29.193.195.175-12.046 13.537-27.332 29.841-15.287 16.303-27.826 29.367-28.02 29.192zm158.268 1.465c-.195.175-12.112-12.914-26.614-29.231s-26.101-29.691-25.92-29.866c.182-.175 12.111 12.914 26.614 29.237 14.502 16.324 26.127 29.685 25.92 29.86z" fill="#18113C"/><path opacity=".5" d="M235.255 107.73L158.5 169.044l-76.089-60.205" fill="#18113C"/><path d="M90.103 114.515l-.233-47.732 133.83-1.588 1.51 50.227-66.718 52.818-68.39-53.725z" fill="#ECEBF1"/><path d="M90.103 114.516s.434.324 1.257.966l3.629 2.825 13.835 10.802 49.773 39.023h-.169l66.699-52.838-.065.136c-.285-9.577-.59-19.634-.901-29.86-.201-6.888-.408-13.692-.609-20.366l.169.162-133.832 1.522.104-.103c.052 15.014.097 26.944.123 35.121v9.396c0-2.132-.045-5.274-.078-9.357-.051-8.19-.13-20.127-.227-35.16v-.11h.104l133.838-1.64h.162v.169c.201 6.668.402 13.472.609 20.36.311 10.232.609 20.282.901 29.866v.084l-.065.052-66.744 52.793-.084.065-.084-.065-49.741-39.152-13.75-10.854-3.63-2.852a92.331 92.331 0 01-1.224-.985z" fill="#18113C"/><path d="M202.551 89.237c0 .09-20.471.291-45.71.44-25.24.15-45.717.208-45.717.11 0-.097 20.464-.291 45.717-.447 25.252-.155 45.71-.2 45.71-.103zm0 13.479c0 .097-20.471.298-45.71.447-25.24.149-45.717.201-45.717.111 0-.091 20.464-.292 45.717-.448 25.252-.155 45.71-.2 45.71-.11zm0 15.545c0 .09-20.471.291-45.71.447-25.24.155-45.717.201-45.717.103 0-.097 20.464-.291 45.717-.44 25.252-.149 45.71-.208 45.71-.11zm0 15.539c0 .098-19.524.286-43.611.435-24.086.149-43.61.188-43.617.097-.006-.091 19.525-.285 43.617-.434 24.093-.149 43.611-.188 43.611-.098zm-17.121 13.641a2.858 2.858 0 01-.531.038l-1.542.046-5.651.091-18.656.265c-7.283.123-13.886.162-18.662.169h-7.193a3.366 3.366 0 01-.531-.033c.175-.029.353-.042.531-.039l1.542-.038 5.651-.098 18.656-.265a1231.9 1231.9 0 0118.656-.169h7.199c.178 0 .355.011.531.033zm-17.23 13.114c0 .091-4.361.169-9.72.169-5.359 0-9.72-.078-9.72-.169 0-.091 4.368-.168 9.72-.168 5.353 0 9.72.071 9.72.168z" fill="#18113C"/><path d="M91.153 44.98h14.787l-2.002-2.294v-5.502a5.391 5.391 0 00-9.201-3.811 5.385 5.385 0 00-1.575 3.811v5.23l-2.01 2.566zm5.359-.727a2.28 2.28 0 104.465-.765" fill="#754FFE"/><path d="M99.37 29.55h-1.452v3.085h1.451v-3.084z" fill="#754FFE"/><path d="M120.106 34.864a2.756 2.756 0 01-.104-.389c-.065-.279-.149-.648-.259-1.14-.136-.62-.311-1.23-.525-1.828-.13-.35-.221-.745-.395-1.14l-.551-1.257a22.501 22.501 0 00-3.921-5.793 21.75 21.75 0 00-7.471-5.133 21.512 21.512 0 00-5.016-1.425 21.886 21.886 0 00-5.611-.091 22.15 22.15 0 00-2.916.506c-.486.103-.96.291-1.452.44a9.891 9.891 0 00-1.445.525 20.538 20.538 0 00-5.475 3.285 21.793 21.793 0 00-7.323 11.71 21.438 21.438 0 00-.421 7.517 20.775 20.775 0 002.223 7.438l.375.707.046.09v.098c-1.199 3.888-2.365 7.776-3.506 11.489l-.304-.279 9.26-4.827.11-.059.103.078a21.546 21.546 0 0026.899-.467 22.42 22.42 0 004.866-5.702 24.16 24.16 0 002.365-5.741c.364-1.525.581-3.08.648-4.646v-1.705c0-.499-.077-.894-.103-1.237-.026-.344-.052-.57-.065-.758a1.123 1.123 0 010-.26c.023.083.038.168.045.253 0 .19.033.443.098.758.038.344.084.752.142 1.244.058.493 0 1.07 0 1.711a23.455 23.455 0 01-.583 4.692 23.86 23.86 0 01-2.333 5.832 22.565 22.565 0 01-4.899 5.832 21.91 21.91 0 01-17.392 4.834 22.2 22.2 0 01-9.96-4.258h.22l-9.246 4.84-.467.247.155-.525 3.5-11.489v.188l-.383-.72a21.275 21.275 0 01-2.268-7.6 21.515 21.515 0 01.441-7.692 22.193 22.193 0 017.484-11.93 21.089 21.089 0 015.593-3.324 9.975 9.975 0 011.47-.531c.5-.143.98-.33 1.478-.434a20.81 20.81 0 012.961-.506 21.979 21.979 0 015.703.117c1.746.29 3.451.785 5.08 1.477a21.894 21.894 0 017.53 5.262 22.311 22.311 0 013.888 5.897c.188.453.369.875.531 1.296.162.421.259.803.383 1.16.21.602.372 1.22.486 1.846.09.486.168.869.22 1.154.038.119.068.24.091.363z" fill="#18113C"/></svg>