<svg width="168" height="164" fill="none" xmlns="http://www.w3.org/2000/svg"><path d="M117.717 35.092c4.083-4.515-1.154-8.668-5.236-4.153-2.623 2.973-5.745 5.32-7.163 9-1.008 2.589 1.259 3.985 3.595 2.9 3.246-1.551 6.26-4.836 8.804-7.747zm8.469 7.077c1.915-1.774 2.97-4.143 1.956-5.895-.826-1.517-3.441-1.743-5.418-.048-2.621 2.334-5.383 4.651-6.878 7.753-1.291 2.556.253 5.293 3.217 3.71 2.587-1.413 4.738-3.373 7.123-5.52zm-24.852 17.022c2.339-2.365-.537-4.685-2.876-2.319-1.209 1.214-2.464 2.21-3.673 3.423-1.35 1.198-2.84 2.38-3.314 4.033-.347 1.17.167 2.296 1.31 2.284 3.368-.115 6.057-4.93 8.553-7.42zm25.22-2.755c1.852-1.852 1.812-4.631.499-5.634-1.579-1.176-3.899-.231-5.736 1.48-2.982 3.004-7.719 5.737-9.153 9.558-.631 1.777.337 3.31 1.903 3.346 4.134.044 9.347-5.622 12.487-8.75zm-23.445 24.081c1.852-1.852 1.812-4.631.499-5.634-1.501-1.238-3.962-.309-5.736 1.48-2.26 2.304-5.368 5.151-6.205 8.115-.458 1.513.133 3.216 1.731 2.971 3.823-.347 6.807-3.99 9.711-6.932zM87.53 56.984c1.476-1.681 3.015-3.284 4.553-4.887 1.712-1.868 1.812-4.631.5-5.634-1.501-1.238-3.962-.309-5.736 1.48-1.617 1.666-3.313 3.394-4.742 5.294-1.508 1.962-3.409 4.235-3.445 6.436-.037 2.201 1.528 2.877 3.69 2.057 2.023-.837 3.704-3.064 5.18-4.745zM70.34 84.407c1.051-1.09 1.6-1.525 2.731-2.676 2.01-1.977 3.159-4.549 1.706-6.208-1.453-1.66-3.976-.808-6.064 1.23-1.13 1.152-2.323 2.225-3.453 3.377-.644.638-1.209 1.214-1.649 1.946-.77 1.122-.96 2.167-1.23 3.275-.27 1.747 1.293 3.063 3.002 2.475.956-.247 1.85-.572 2.79-1.318.847-.544 1.523-1.463 2.167-2.1zm11.943 9.943c1.586-2.024 1.936-4.474.498-5.633-1.313-1.003-4.149-.544-5.735 1.48-2.686 3.536-6.892 7.254-8.14 11.309-.788 2.542 1.12 3.968 3.534 2.821 3.92-1.83 7.235-6.503 9.843-9.976zM54.388 82.242c1.852-1.852 1.812-4.63.499-5.634-1.58-1.175-3.9-.23-5.736 1.481-1.208 1.214-2.417 2.428-3.563 3.72-1.241 1.495-2.544 2.912-3.097 4.627-.536 1.575.196 3.294 1.857 3.128 3.963-.331 7.057-4.318 10.04-7.322zm-4.283 26.255c1.398-1.619 2.717-3.176 3.974-4.811 1.586-2.024 1.937-4.474.498-5.634-1.313-1.003-4.227-.481-5.735 1.481-2.702 3.676-7.347 7.486-7.106 11.639.06 1.359 1.499 1.878 2.894 1.539 2.193-.462 3.905-2.33 5.475-4.214zm20.678 13.87c4.488-3.686 1.26-9.176-3.213-5.63-3.608 2.861-8.067 7.546-8.547 11.76-.302 2.028 1.606 2.815 3.488 1.962 3.48-1.738 5.354-5.65 8.272-8.092zm34.748-16.825c1.696-1.728 3.47-3.518 5.228-5.167 1.852-1.852 1.749-4.71.499-5.634-1.579-1.176-3.9-.23-5.736 1.48-3.14 3.13-8.788 7.608-9.111 11.697-.13 1.763 1.152 3.047 3.001 2.475 2.586-.772 4.172-2.797 6.119-4.851zm29.668-32.336c4.082-4.515-1.154-8.668-5.237-4.153-1.476 1.681-2.749 3.457-4.162 5.217-1.508 1.962-3.22 3.83-3.538 5.999-.238 1.466.809 2.297 2.077 2.441 4.306.42 8.002-6.344 10.86-9.504zm-47.611 60.1c.895-.965 1.806-2.071 2.7-3.036 1.775-1.79 1.891-4.693.5-5.634-1.658-1.113-3.883-.371-5.736 1.481-2.103 2.179-4.255 4.78-4.919 7.478-.616 2.277.945 4.233 3.533 2.821 1.583-.745 2.697-1.756 3.922-3.11zm33.36-14.065c1.853-1.852 1.812-4.631.499-5.634-1.501-1.238-3.962-.309-5.735 1.481-1.931 1.914-3.659 3.923-5.386 5.931-1.885 2.133-3.878 3.969-4.103 6.575-.16 1.405.793 2.438 2.077 2.442 4.494.014 9.257-7.34 12.648-10.795zm-50.77-62.163c3.612-4.14-1.046-7.73-4.72-3.667-2.858 3.16-6.688 6.708-7.778 10.638-.568 1.856.93 3.734 3.001 2.476 3.623-2.362 6.624-6.146 9.497-9.447zm18.948-22.174c1.93-1.915 3.767-3.626 5.948-5.227 4.77-3.654 1.369-9.519-3.4-5.865-3.515 2.659-11.69 9.268-9.288 13.241.609.923 1.72 1.192 2.974.837 1.489-.542 2.557-1.772 3.766-2.986zM69.639 31.2c3.546-2.94 1.05-7.35-2.558-4.489-2.981 2.364-5.886 5.305-7.21 8.782-.835 2.324 1.45 2.94 3.223 1.79 2.478-1.71 4.332-4.202 6.545-6.084zM37.21 59.595c1.758-1.65 3.328-3.534 5.086-5.183 1.601-1.525 1.529-4.023.403-4.791-1.376-1.082-3.335-.167-4.937 1.358-3.28 3.112-8.176 7.25-8.593 11.542-.177 1.545 1.247 2.205 2.752 1.522 1.898-.993 3.688-2.923 5.289-4.448zm2.473 17.066c2.685-2.895-.33-6.51-3.28-3.788-3.186 2.91-6.185 6.054-8.386 9.716-1.588 2.664.915 3.874 3.08 2.413 3.309-2.113 5.76-5.461 8.586-8.34zm-9.42 26.242c1.114-1.011 1.713-2.508 1.183-3.493-.593-1.064-1.972-.865-3.21-.01-1.24.855-2.354 1.866-3.485 3.018-.565.575-1.051 1.089-1.413 1.759-.597.857-.677 1.559-.852 2.464-.443 2.012 1.906 2.067 3.302 1.087 1.648-1.306 2.67-3.395 4.475-4.825zm110.973-9.454c1.382-1.479 2.764-2.958 4.286-4.42 1.853-1.852 1.812-4.631.499-5.634-1.579-1.176-3.899-.23-5.735 1.48-2.575 2.553-6.608 6.006-7.414 9.329-.506 1.934.46 4.107 2.764 3.302 2.288-.664 3.81-2.127 5.6-4.057z" fill="#F59E0B"/></svg>