<svg width="120" height="35" fill="none" xmlns="http://www.w3.org/2000/svg"><g clip-path="url(#clip0)"><path d="M.014 6.498h4.184v9.296h8.824V6.498h4.19v22.819h-4.19v-9.491H4.198v9.49H.014V6.499zm30.453 15.386A3.47 3.47 0 0127 25.35a3.47 3.47 0 01-3.466-3.465V12.06h-3.968v9.824c0 4.099 3.335 7.433 7.434 7.433 4.098 0 7.432-3.334 7.432-7.433V12.06h-3.966v9.824zm15.043-9.709c-1.968 0-3.342.571-4.669 1.874v-7.55h-3.98v13.993c0 5.238 3.787 8.825 8.041 8.825 4.73 0 8.874-3.651 8.874-8.57 0-4.858-3.821-8.572-8.266-8.572zm.1 13.459c-2.698 0-4.76-2.253-4.76-4.888s2.062-4.889 4.76-4.889c2.285 0 4.349 2.254 4.349 4.89 0 2.634-2.064 4.887-4.35 4.887zm14.852-12.456c0-2 1.334-2.635 2.793-2.635 1.175 0 2.73.888 3.745 1.968l2.603-3.047c-1.3-1.746-3.935-2.952-6.094-2.952-4.317 0-7.428 2.507-7.428 6.666 0 7.713 9.492 5.268 9.492 9.587 0 1.331-1.301 2.507-2.792 2.507-2.35 0-3.113-1.143-4.191-2.35l-2.89 2.984c1.843 2.254 4.127 3.397 6.858 3.397 4.094 0 7.396-2.54 7.396-6.508 0-8.57-9.492-5.903-9.492-9.617zm19.971-1.226c-4.254 0-8.041 3.585-8.041 8.824v14.03h3.98v-7.587c1.327 1.301 2.7 1.873 4.67 1.873 4.444 0 8.266-3.713 8.266-8.57 0-4.92-4.146-8.57-8.875-8.57zm.708 13.459c-2.698 0-4.76-2.256-4.76-4.89s2.063-4.888 4.76-4.888c2.285 0 4.349 2.254 4.349 4.889 0 2.633-2.064 4.889-4.35 4.889zm37.469.223c-2.348 0-3.015-1.015-3.015-2.572v-6.887h3.65v-3.492h-3.65V8.08l-4.03 1.81v14.03c0 3.587 2.475 5.397 5.87 5.397.508 0 1.207-.033 1.588-.127l.984-3.619c-.444.031-.952.063-1.397.063z" fill="#45535E"/><path d="M108.113 16.378c-.763-1.313-1.837-2.366-3.179-3.158a8.536 8.536 0 00-3.214-1.114V7.934c1.171-.497 1.899-1.599 1.899-2.883a3.158 3.158 0 00-3.155-3.17 3.178 3.178 0 00-3.18 3.17c0 1.284.685 2.386 1.857 2.883v4.174a9.181 9.181 0 00-2.797.877c-1.813-1.377-7.76-5.895-11.238-8.534a3.45 3.45 0 00.146-.928 3.51 3.51 0 10-7.021 0 3.512 3.512 0 003.512 3.512c.662 0 1.274-.193 1.802-.511l.734.556 10.087 7.268a8.456 8.456 0 00-1.428 1.671c-.805 1.274-1.297 2.676-1.297 4.205v.319a8.81 8.81 0 00.552 3.038 7.974 7.974 0 001.306 2.27l-3.347 3.355a2.695 2.695 0 00-2.852.626 2.697 2.697 0 00-.793 1.92c0 .724.282 1.405.795 1.918a2.696 2.696 0 001.919.795 2.7 2.7 0 001.92-.795 2.697 2.697 0 00.794-1.919c0-.28-.043-.554-.125-.814l3.46-3.46a8.88 8.88 0 001.538.84 8.99 8.99 0 003.598.756h.24c1.451 0 2.819-.34 4.106-1.037a8.497 8.497 0 003.218-3.03c.806-1.29 1.25-2.715 1.25-4.282v-.078c0-1.542-.357-2.965-1.107-4.268zm-4.228 7.259c-.939 1.044-2.019 1.686-3.239 1.686h-.201c-.697 0-1.379-.192-2.046-.543-.753-.385-1.325-.936-1.793-1.632-.483-.684-.746-1.431-.746-2.223v-.24c0-.779.15-1.517.526-2.214a4.794 4.794 0 011.669-1.825 4.084 4.084 0 012.311-.698h.079c.765 0 1.49.151 2.174.501a4.6 4.6 0 011.707 1.554c.429.67.684 1.394.766 2.182.013.164.02.332.02.492 0 1.07-.409 2.06-1.227 2.96z" fill="#F8761F"/></g><defs><clipPath id="clip0"><path fill="#fff" d="M0 0h120v34.944H0z"/></clipPath></defs></svg>