<svg width="400" height="400" fill="none" xmlns="http://www.w3.org/2000/svg"><path d="M400 305.92H0v.2h400v-.2z" fill="#EBEBEB"/><path d="M189.6 270.24H35.128a4.565 4.565 0 01-4.56-4.568V48.528A4.568 4.568 0 0135.128 44H189.6a4.566 4.566 0 014.568 4.568v217.104a4.566 4.566 0 01-4.568 4.568zM35.128 44.16a4.368 4.368 0 00-4.36 4.368v217.144a4.369 4.369 0 004.36 4.368H189.6a4.376 4.376 0 004.368-4.368V48.528a4.378 4.378 0 00-4.368-4.368H35.128zm327.52 226.08h-154.48a4.576 4.576 0 01-4.568-4.568V48.528A4.573 4.573 0 01208.168 44h154.48a4.568 4.568 0 014.552 4.528v217.144a4.564 4.564 0 01-1.333 3.224 4.563 4.563 0 01-3.219 1.344zM208.168 44.16a4.378 4.378 0 00-4.368 4.368v217.144a4.376 4.376 0 004.368 4.368h154.48a4.376 4.376 0 004.368-4.368V48.528a4.379 4.379 0 00-4.368-4.368h-154.48z" fill="#EBEBEB" fill-opacity=".4"/><path d="M160.353 313.536h-20.8v.2h20.8v-.2zm-75.104-2.168h-43.28v.2h43.28v-.2zm53.502 9.6h-21.056v.2h21.056v-.2zm98.897-1.344h-31.064v.2h31.064v-.2zm15.672 0h-8.552v.2h8.552v-.2zm106.607-3.376h-43.648v.2h43.648v-.2z" fill="#EBEBEB"/><path d="M133.512 198.44h171.336v-6.176H133.512v6.176z" fill="#F0F0F0"/><path d="M243.544 173.384h101.624V65.352H243.544v108.032z" fill="#F5F5F5" fill-opacity=".5"/><path d="M252.057 73.864v91.008h84.6V73.864h-84.6z" fill="#fff" fill-opacity=".6"/><path d="M303.721 129.216l16.168-7.496v-4.712l-16.168-7.512v5.648l9.824 4.232-9.824 4.232v5.608zm-10.544-21.896h-2.952l5.232 24.088h2.944l-5.224-24.088zm-8.192 16.288l-9.784-4.232 9.824-4.232v-5.648l-16.224 7.512v4.712l16.168 7.496.016-5.608z" fill="#E6E6E6" fill-opacity=".4"/><path d="M93.776 305.92h5.632V122.576h-5.632V305.92z" fill="#F0F0F0"/><path d="M92.6 304.64l-.152-.8a4.454 4.454 0 002.664-2.328c1.464-2.592 2.352-8.12-1.72-19.704-6.272-17.856-2.528-32.256 4.936-60.96 1.296-5 2.768-10.664 4.296-16.8 5.736-22.936.432-37.16-3.832-48.592-3.304-8.872-5.92-15.88-2.576-24l.744.304c-3.2 7.824-.664 14.704 2.584 23.416 4.304 11.528 9.656 25.888 3.856 49.056-1.528 6.128-3 11.792-4.296 16.8-7.424 28.568-11.152 42.904-4.952 60.568 4.184 11.912 3.2 17.672 1.6 20.4a5.183 5.183 0 01-3.152 2.64z" fill="#F0F0F0"/><path d="M86.393 305.92h20.392l-5.672-3.344h-9.048l-5.672 3.344z" fill="#F0F0F0"/><path d="M56.248 145.928h80.68l-8.88-67.792h-62.92l-8.88 67.792z" fill="#F5F5F5" fill-opacity=".8"/><path d="M175.904 157.104h43.072l-5.672 35.16h-31.728l-5.672-35.16z" fill="#F0F0F0"/><path d="M193.208 168.544c11.744-4.248 20.736-10.632 10.672-23.552s-25.656-12.856-36.168-7.136c-13.392 7.28-10.704 28.36-10.704 28.36s24.456 6.584 36.2 2.328z" fill="#E0E0E0"/><path d="M204.623 156.8c-8.984-6.12-15.352-13.2-4.928-20.672 10.424-7.472 23.28-3.64 31.008 3.296 9.848 8.848 4.16 24.376 4.16 24.376s-21.264-.912-30.24-7z" fill="#E6E6E6"/><path d="M188.8 141.272c10.512-.632 19.328-3.376 14.352-14.76-4.976-11.384-17.6-14.576-27.448-12.624-12.584 2.488-15.552 18.232-15.552 18.232s18.144 9.792 28.648 9.152z" fill="#F0F0F0"/><path d="M202 134.56c-8.744-2.816-15.6-7.032-8.936-15.584s18-8.504 25.92-4.728c10.096 4.8 9.2 18.768 9.2 18.768s-17.44 4.352-26.184 1.544z" fill="#EBEBEB"/><path d="M185.6 120c8.728 2.88 16.752 3.504 16.392-7.328-.36-10.832-9.528-17.472-18.152-19.12-11-2.048-18.488 9.752-18.488 9.752S176.888 117.096 185.6 120z" fill="#F5F5F5"/><path d="M207.752 115.32c-6.248.432-11.648-.512-9.6-7.608s9.248-9.92 15.2-9.528c7.6.504 10.552 9.6 10.552 9.6s-9.912 7.112-16.152 7.536z" fill="#FAFAFA"/><path d="M200.001 342.048c85.666 0 155.112-4.054 155.112-9.056 0-5.001-69.446-9.056-155.112-9.056s-155.112 4.055-155.112 9.056c0 5.002 69.446 9.056 155.112 9.056z" fill="#F5F5F5" fill-opacity=".5"/><path d="M335.407 200.872h-271.8v9.752h271.8v-9.752z" fill="#754FFE"/><path opacity=".3" d="M136.351 200.872H63.607v9.752h72.744v-9.752z" fill="#fff"/><path d="M137.512 210.625h-6.328l3.312 122.224h6.032l3.32-122.224h-6.336z" fill="#754FFE"/><path opacity=".3" d="M134.495 332.848h3.016v-119.6l-6.224 1.136 3.208 118.464z" fill="#fff"/><path d="M77.535 210.625h-6.328l3.312 122.224h6.032l3.312-122.224h-6.328z" fill="#754FFE"/><path opacity=".3" d="M74.519 332.848h3.016v-119.6l-6.232 1.136 3.216 118.464z" fill="#fff"/><path d="M321.48 210.625h-6.328l3.312 122.224h6.032l3.32-122.224h-6.336z" fill="#754FFE"/><path opacity=".3" d="M318.464 332.848h3.016v-119.6l-6.224 1.136 3.208 118.464z" fill="#fff"/><path d="M261.504 210.625h-6.328l3.312 122.224h6.032l3.312-122.224h-6.328z" fill="#754FFE"/><path opacity=".3" d="M258.487 332.848h3.016v-119.6l-6.224 1.136 3.208 118.464z" fill="#fff"/><path d="M192.623 148.664h-64.624a3.328 3.328 0 00-3.336 4.224l8.608 41.08a5.497 5.497 0 005.104 4.216h64.672a3.32 3.32 0 002.739-1.26 3.333 3.333 0 00.597-2.956l-8.616-41.08a5.499 5.499 0 00-5.144-4.224z" fill="#263238"/><path d="M138.936 195.84a3.831 3.831 0 01-3.456-2.88l-8.608-41.08a1.875 1.875 0 01.296-1.6 1.739 1.739 0 011.384-.584h64.672a3.84 3.84 0 013.456 2.88l8.608 41.08a1.88 1.88 0 01-.296 1.6 1.704 1.704 0 01-1.384.584h-64.672z" fill="#fff"/><path opacity=".4" d="M187.728 192.552l-8.16-38.952a1.603 1.603 0 01.873-1.752 1.6 1.6 0 01.679-.16h10.496a1.6 1.6 0 011.552 1.264l8.16 38.92a1.607 1.607 0 01-.327 1.321 1.6 1.6 0 01-1.225.591H189.28a1.602 1.602 0 01-1.552-1.232z" fill="#754FFE"/><path d="M132.256 155.096l-.352-1.688h12.96l.352 1.688h-12.96z" fill="#754FFE"/><path d="M138.239 159.288l-.352-1.688h22.712l.36 1.688h-22.72zm1.201 4.184l-.36-1.688h25.464l.352 1.688H139.44zm1.191 4.192l-.352-1.688h20.496l.36 1.688h-20.504z" fill="#EBEBEB"/><path d="M136.2 174.456l-.36-1.688h8.2l.352 1.688H136.2z" fill="#754FFE"/><path d="M142.176 178.64l-.352-1.688h9.984l.36 1.688h-9.992zm12.383 0l-.36-1.688h9.992l.352 1.688h-9.984zm-11.184 4.192l-.352-1.688h33.76l.352 1.688h-33.76zm1.192 4.184l-.352-1.688h25.744l.352 1.688h-25.744z" fill="#EBEBEB"/><path d="M222.815 197.936h-85.088c-2.32 0-3.824 1.32-3.336 2.936h93.528c-.48-1.616-2.784-2.936-5.104-2.936z" fill="#263238"/><path opacity=".1" d="M109.767 138.28l-8.168-38.928a1.595 1.595 0 01.331-1.315 1.598 1.598 0 011.221-.589h66.08a1.6 1.6 0 011.552 1.256l8.168 38.896a1.592 1.592 0 01-.327 1.321 1.596 1.596 0 01-1.225.591h-66.08a1.598 1.598 0 01-1.552-1.232z" fill="#754FFE"/><path d="M133.256 98.728h-13.872l-.312-1.496h13.872l.312 1.496z" fill="#754FFE"/><path opacity=".4" d="M130.999 101.112h-5.568l-.312-1.496h5.568l.312 1.496zm9.264 0h-8.576l-.312-1.496h8.576l.312 1.496zm3.736 2.376h-18.072l-.312-1.496h18.08l.304 1.496zm-2.296 2.384h-15.28l-.312-1.496h15.28l.312 1.496zm10.136 25.288h-9.728l.312 1.488h9.728l-.312-1.488z" fill="#754FFE"/><path d="M139.712 127.896h-14.248l-.312-1.496H139.4l.312 1.496z" fill="#754FFE"/><path opacity=".4" d="M145.439 133.536h-13.248l.312 1.496h13.248l-.312-1.496zm-4.016-2.376h-9.728l.312 1.488h9.728l-.312-1.488zm9.232-2.384h-19.456l.312 1.496h19.456l-.312-1.496z" fill="#754FFE"/><path d="M132.768 87.624h-15.696l-.312-1.488h15.696l.312 1.488z" fill="#754FFE"/><path opacity=".4" d="M140.519 93.272h-17.312l.312 1.496h17.304l-.304-1.496zm-3.464-2.376h-14.344l.312 1.488h14.344l-.312-1.488zm.952-2.384h-15.792l.312 1.496h15.792l-.312-1.496z" fill="#754FFE"/><path d="M132.591 109.744h-10.912l-.312-1.496h10.912l.312 1.496z" fill="#754FFE"/><path opacity=".4" d="M149.728 115.384h-21.32l.312 1.496h21.312l-.304-1.496zm-12.984-2.376h-8.832l.312 1.496h8.832l-.312-1.496zm9.584 0h-8.832l.312 1.496h8.832l-.312-1.496zm.544-2.384h-19.456l.312 1.496h19.448l-.304-1.496zm-.04 11.904h-16.936l.312 1.488h16.936l-.312-1.488zm-12.506-2.384h-4.928l.312 1.496h4.92l-.304-1.496zm7.706 0H135l.312 1.496h7.032l-.312-1.496zm6.328-2.376h-19.456l.312 1.488h19.456l-.312-1.488zm15.318-.4h-6.968l-.312-1.496h6.976l.304 1.496zm11.602 0h-10.736l-.312-1.496h10.736l.312 1.496zm4.56 2.384h-22.632l-.312-1.496h22.632l.312 1.496zm-3.009 2.376h-19.128l-.312-1.496h19.128l.312 1.496zm8.568-14.224h-21.672l.312 1.488h21.672l-.312-1.488zm-4.207-2.384h-17.96l.312 1.496h17.952l-.304-1.496z" fill="#754FFE"/><path d="M177.944 103.144h-19.776l.312 1.488h19.776l-.312-1.488z" fill="#754FFE"/><path opacity=".4" d="M186.376 131.648h-26.688l.311 1.496h26.689l-.312-1.496zm-16.129-2.376h-11.056l.312 1.488h11.056l-.312-1.488zm12 0h-11.056l.312 1.488h11.056l-.312-1.488zm.8-2.384h-24.352l.312 1.496h24.352l-.312-1.496zm-.671 11.896h-21.2l.312 1.496h21.2l-.312-1.496zm-15.528-2.376h-6.168l.312 1.496h6.168l-.312-1.496zm9.647 0h-8.8l.312 1.496h8.8l-.312-1.496zm8.049-2.384h-24.36l.312 1.496h24.352l-.304-1.496zm-64.864 6.608h-16.592l.312 1.496h16.592l-.312-1.496zm-4.904-2.376h-12.184l.312 1.488h12.176l-.304-1.488zm13.031 0h-12.176l.312 1.488h12.184l-.32-1.488zm-1.351-2.384h-24.36l.312 1.496h24.352l-.304-1.496z" fill="#754FFE"/><path d="M312.76 185.328h-10.272l1.2 15.544h7.872l1.2-15.544z" fill="#754FFE"/><path opacity=".4" d="M312.76 185.328h-10.272l1.2 15.544h7.872l1.2-15.544z" fill="#fff"/><path d="M88.903 174.536h14.768l-5.04 26.336H83.863l5.04-26.336z" fill="#263238"/><path d="M107.711 167.48H86.856l5.84 33.392h20.855l-5.84-33.392zm-22.088 0h1.232l5.84 33.392h-1.232l-5.84-33.392z" fill="#754FFE"/><path opacity=".3" d="M85.623 167.48h1.232l5.84 33.392h-1.232l-5.84-33.392z" fill="#000"/><path d="M95.695 197.296l-4.591-26.248h13.616l4.584 26.248H95.695z" fill="#fff" fill-opacity=".7"/><path opacity=".6" d="M108.656 197.296l-4.584-26.248h.648l4.584 26.248h-.648z" fill="#754FFE"/><path d="M211.017 124.8c.296.64.2 1.32-.224 1.512-.424.192-1-.168-1.296-.8-.296-.632-.192-1.32.224-1.512.416-.192 1 .128 1.296.8z" fill="#263238"/><path d="M211.272 126.064s.256 4.368-.528 6.896c1.6.536 3.328-.8 3.328-.8l-2.8-6.096z" fill="#FF5652"/><path d="M211.096 119.512a.424.424 0 01-.24.096 3.302 3.302 0 00-2.632 1.432.419.419 0 01-.252.204.423.423 0 01-.323-.04.42.42 0 01-.203-.425.428.428 0 01.058-.155 4.122 4.122 0 013.304-1.848.415.415 0 01.288.736z" fill="#263238"/><path d="M234.578 123.808c2.472 8.56 5.232 15.2 8.6 18.992 0 0 .064 6.728-11.4 9.928-12.608 3.52-7.776-4.576-7.776-4.576 6.4-3.56 5.792-8.936.976-10.984l9.6-13.36z" fill="#FF8B7B"/><path d="M245.848 141.16c-.224-3.128-.52-6.696-2.448-6.792-2.128-.096-14.448 5.408-17.08 9.288-2.632 3.88 2.512 7.68 2.512 7.68l17.016-10.176z" fill="#263238"/><path d="M220.632 189.6l-10.64-.352.192 8.912s9.28-.96 9.688-3.4l.76-5.16zm-16.264 4.024l-1.12 4.56 6.936-.016-.192-8.912-5.624 4.368z" fill="#FF8B7B"/><path d="M263.336 152.568l-.224 2.288c-.072.736-.168 1.456-.264 2.184a99.494 99.494 0 01-.664 4.336c-.48 2.888-1.104 5.76-1.824 8.648a85.971 85.971 0 01-2.656 8.696c-.552 1.464-1.128 2.928-1.816 4.416a36.456 36.456 0 01-2.4 4.52c-.216.376-.488.8-.752 1.152-.264.352-.52.8-.8 1.168-.28.368-.576.8-.944 1.176l-.52.592a7.926 7.926 0 01-.592.624 18.258 18.258 0 01-5.544 3.72 32.798 32.798 0 01-9.944 2.52c-1.56.184-3.104.256-4.616.296-1.512.04-3.024 0-4.512-.08a67.285 67.285 0 01-4.424-.384 56.13 56.13 0 01-4.44-.72l.256-8.36a128.254 128.254 0 0015.12-3.6 33.303 33.303 0 003.248-1.248 14.89 14.89 0 002.576-1.4 3.582 3.582 0 001.168-1.136l.232-.368c.108-.157.207-.32.296-.488a5.91 5.91 0 00.312-.568c.104-.208.216-.4.32-.632a42.045 42.045 0 002.312-6.352c.656-2.352 1.272-4.8 1.768-7.336.496-2.536.976-5.096 1.416-7.68l.608-3.888.552-3.784 16.752 1.688z" fill="#754FFE"/><path opacity=".2" d="M263.336 152.568l-.224 2.288c-.072.736-.168 1.456-.264 2.184a99.494 99.494 0 01-.664 4.336c-.48 2.888-1.104 5.76-1.824 8.648a85.971 85.971 0 01-2.656 8.696c-.552 1.464-1.128 2.928-1.816 4.416a36.456 36.456 0 01-2.4 4.52c-.216.376-.488.8-.752 1.152-.264.352-.52.8-.8 1.168-.28.368-.576.8-.944 1.176l-.52.592a7.926 7.926 0 01-.592.624 18.258 18.258 0 01-5.544 3.72 32.798 32.798 0 01-9.944 2.52c-1.56.184-3.104.256-4.616.296-1.512.04-3.024 0-4.512-.08a67.285 67.285 0 01-4.424-.384 56.13 56.13 0 01-4.44-.72l.256-8.36a128.254 128.254 0 0015.12-3.6 33.303 33.303 0 003.248-1.248 14.89 14.89 0 002.576-1.4 3.582 3.582 0 001.168-1.136l.232-.368c.108-.157.207-.32.296-.488a5.91 5.91 0 00.312-.568c.104-.208.216-.4.32-.632a42.045 42.045 0 002.312-6.352c.656-2.352 1.272-4.8 1.768-7.336.496-2.536.976-5.096 1.416-7.68l.608-3.888.552-3.784 16.752 1.688z" fill="#000"/><path d="M216.096 163.2a261.261 261.261 0 016.664 52.112h46.84c.256-5.784-.72-38.4-5.432-61.96a16.316 16.316 0 00-13.062-12.911 16.31 16.31 0 00-6.458.111l-.224.056c-5.848 1.328-14.24 3.472-19.2 5.352l-.2.08a14.667 14.667 0 00-8.928 17.16z" fill="#754FFE"/><path opacity=".2" d="M219.145 178.16c.368 2.248.744 4.632 1.088 7.128 3.832-4 5.048-16.256 5.048-16.256l-6.136 9.128z" fill="#000"/><path d="M180.232 190.184l-10.632-.992-.352 8.904a9.985 9.985 0 009.952-2.808l1.032-5.104z" fill="#FF8B7B"/><path d="M164.545 191.816l-3.408 6.12 8.144.16.352-8.904-5.088 2.624z" fill="#FF8B7B"/><path d="M233.672 159.096c-.736 1.4-1.392 2.64-2.128 3.92-.736 1.28-1.44 2.528-2.2 3.768a159.28 159.28 0 01-4.712 7.368 122.735 122.735 0 01-10.968 14.112 60.464 60.464 0 01-6.952 6.616c-.312.264-.68.52-1.024.8s-.648.504-1.16.8c-.512.296-.944.592-1.408.848-.464.256-.944.488-1.416.696a25.132 25.132 0 01-5.504 1.672c-3.31.558-6.684.634-10.016.224a41.694 41.694 0 01-4.64-.8 35.262 35.262 0 01-2.256-.6c-.8-.224-1.448-.472-2.304-.8l1.32-8.256c5.024-.68 10.456-1.552 14.2-3.248.832-.341 1.614-.79 2.328-1.336.288-.198.556-.423.8-.672.056-.072.304-.288.488-.464.184-.176.4-.344.6-.552a56.916 56.916 0 004.8-5.4c3.221-4.155 6.23-8.47 9.016-12.928 1.44-2.264 2.84-4.568 4.24-6.88l2.064-3.472 1.992-3.416 14.84 8z" fill="#754FFE"/><path d="M220.816 326.08h-8.752l-4.408-20.28h8.76l4.4 20.28z" fill="#FF8B7B"/><path d="M211.577 324.208h9.84a.799.799 0 01.744.592l1.728 7.792a1.279 1.279 0 01-1.28 1.552c-3.432-.056-5.104-.256-9.432-.256-2.664 0-6.08.272-9.752.272-3.672 0-4.16-3.632-2.656-3.96 6.752-1.48 7.2-3.512 9.384-5.456.392-.349.899-.54 1.424-.536z" fill="#263238"/><path opacity=".2" d="M216.424 305.808h-8.768l2.448 11.232 8.592-.776-2.272-10.456z" fill="#000"/><path d="M231.769 113.52c3.2 8.096 5.424 12.68 3.312 18.56-3.2 8.84-14.552 9.736-20.072 2.744-4.96-6.296-9.296-18.48-3.032-25.176a11.849 11.849 0 0119.792 3.872z" fill="#FF8B7B"/><path d="M216.393 125.648c-1.312 1.76-2.32 3.096-2.32 3.096s-2.696-6.696-1.664-9.768c-1.312-2.6-3.96 1.232-4.96-3.832s3.328-10.504 4.96-11.632c.168.59.244 1.203.224 1.816a22.4 22.4 0 0115.68-4.952 5.41 5.41 0 00-.88 2.352s9.496 1.6 11.656 6.976a10.26 10.26 0 00-2.4-.8 11.593 11.593 0 011.92 8.576 88.2 88.2 0 00-1.072 13.224c.088 2.272-6.144 6.616-9.944 1.976-3.8-4.64-11.2-7.032-11.2-7.032z" fill="#263238"/><path d="M220.353 123.904a8.86 8.86 0 01-.4 5.68c-1.016 2.4-3.104 1.824-4.136-.272-.936-1.88-1.536-5.368.12-7.04 1.656-1.672 3.792-.632 4.416 1.632z" fill="#FF8B7B"/><path d="M236.801 215.28s-40.672 14.752-41.864 34.264c-2.208 35.944 12.488 64.4 12.488 64.4l13.472-1.44s-2.4-11.568-4.184-44.128c-2.248-40.92 67.2.96 52.896-53.096h-32.808z" fill="#754FFE"/><path opacity=".5" d="M236.801 215.28s-40.672 14.752-41.864 34.264c-2.208 35.944 12.488 64.4 12.488 64.4l13.472-1.44s-2.4-11.568-4.184-44.128c-2.248-40.92 67.2.96 52.896-53.096h-32.808z" fill="#fff"/><path d="M203.697 308.984c-.064 0 2.144 5.984 2.144 5.984l16.8-1.648-.84-5.44-18.104 1.104z" fill="#754FFE"/><path d="M182.984 327.08h-8.76l-2.56-20.288h8.76l2.56 20.288z" fill="#FF8B7B"/><path d="M174.161 324.2h9.6a.75.75 0 01.744.592l1.744 7.784a1.267 1.267 0 01-.229 1.114 1.263 1.263 0 01-1.027.486c-3.448-.056-8.44-.248-12.8-.24-5.072 0-6.04.28-12 .288-3.6 0-4.6-3.624-3.096-4 6.848-1.504 9.04-1.672 14.952-5.328a4 4 0 012.112-.696z" fill="#263238"/><path opacity=".2" d="M171.672 306.8l1.392 11.048 8.688-.592-1.32-10.456h-8.76z" fill="#000"/><path d="M222.762 215.28s-66.64 5.912-65.92 39.384c.744 34.816 13.752 58.296 13.752 58.296h13.008s-2.464-18.064-2.024-52.336c.128-10.264 20.88-13.656 41.136-14.856 17.504-1.04 33.888-11.016 40.688-27.2l1.4-3.288h-42.04z" fill="#754FFE"/><path opacity=".5" d="M222.762 215.28s-66.64 5.912-65.92 39.384c.744 34.816 13.752 58.296 13.752 58.296h13.008s-2.464-18.064-2.024-52.336c.128-10.264 20.88-13.656 41.136-14.856 17.504-1.04 33.888-11.016 40.688-27.2l1.4-3.288h-42.04z" fill="#fff"/><path d="M167.544 309.464c-.056 0 2.232 6.016 2.232 6.016l15.712-1.128-.92-5.44-17.024.552z" fill="#754FFE"/><path d="M240.257 177.664l-8.456 32.584a101.668 101.668 0 00-3.248 25.56v15.144c0 3.824 2.816 6.928 6.296 6.928h43.344c3.48 0 6.296-3.104 6.296-6.928v-15.144a101.665 101.665 0 013.256-25.56l7.464-28.8c1.152-4.424-1.872-8.8-6.056-8.8h-42.848a6.4 6.4 0 00-6.048 5.016z" fill="#263238"/><path d="M186.346 242.104l1.416 8.08c.752 4.248 4.488 7.696 8.352 7.696h48.184c3.864 0 6.4-3.448 5.648-7.696l-1.416-8.08c-.856-4.84-5.104-8.76-9.504-8.76h-46.224c-4.432 0-7.304 3.92-6.456 8.76z" fill="#263238"/><path d="M248.936 265.992h-25.24l-2.464-8.112H251.4l-2.464 8.112zm-8.111 0h-9.016v60.328h9.016v-60.328z" fill="#754FFE"/><path opacity=".7" d="M240.825 326.32h-9.016v-58.88l9.016.92v57.96z" fill="#fff"/><path opacity=".7" d="M238.625 326.32h-2.152v-58.408l2.152.224v58.184z" fill="#fff"/><path d="M257.049 335.648h-41.472a1.152 1.152 0 01-.672-2.08l6.576-4.8a18.465 18.465 0 0110.896-3.568h7.88a18.457 18.457 0 0110.888 3.568l6.584 4.8a1.153 1.153 0 01-.68 2.08z" fill="#754FFE"/></svg>