<svg width="80" height="40" fill="none" xmlns="http://www.w3.org/2000/svg"><path fill="#fff" d="M0 0h80v40H0z"/><path d="M16.662 15l-2.3 3.125h12.536c.634 0 .626.24.316.661-.314.427-.84 1.165-1.162 1.6-.163.22-.457.62.517.62h5.127l1.52-2.065c.942-1.279.082-3.94-3.287-3.94L16.662 15z" fill="#D80613"/><path d="M13.43 25.183l4.621-6.28h5.734c.634 0 .626.24.316.661l-1.17 1.594c-.162.22-.456.62.517.62h7.68c-.637.875-2.71 3.405-6.429 3.405H13.43zm26.462-3.407l-2.506 3.407h-6.61l2.506-3.407h6.61zm10.124-.772H33.85L38.271 15h6.607l-2.533 3.443h2.949L47.83 15h6.606l-4.42 6.004zm-.568.772l-2.505 3.407h-6.607l2.506-3.407h6.606zM4 23.12h9.735l-.53.722H4v-.722zm0-1.344h10.725l-.533.722H4v-.722zm0 2.688h8.747l-.53.719H4v-.72zm72-.622h-9.7l.532-.722H76v.722zm0 1.34H65.314l.529-.718H76v.719zm-8.18-3.406H76v.724h-8.71l.53-.724zM63.587 15l-4.42 6.004h-7.003L56.588 15h6.999zm-11.989 6.776s-.482.66-.717.977c-.829 1.122-.097 2.428 2.611 2.428h10.612l2.505-3.405H51.6z" fill="#D80613"/></svg>