<svg width="80" height="40" fill="none" xmlns="http://www.w3.org/2000/svg"><path fill="#fff" d="M0 0h80v40H0z"/><path d="M69.63 30.283l-2.95-3.308-2.923 3.308h-6.15l6.011-6.754-6.012-6.756h6.344l2.979 3.282 2.866-3.282h6.121L69.935 23.5l6.064 6.783h-6.37zm-23.835 0V9h11.811v4.744h-6.808v3.029h6.808v4.564h-6.808v4.19h6.808v4.756H45.795z" fill="#FF5A00"/><path d="M40.81 9v8.71h-.054c-1.103-1.268-2.482-1.71-4.08-1.71-3.277 0-5.745 2.23-6.611 5.173-.989-3.244-3.537-5.233-7.314-5.233-3.069 0-5.491 1.377-6.756 3.62v-2.788H9.653v-3.028h6.921V9.001H4v21.282h5.653v-8.946h5.635a8.497 8.497 0 00-.259 2.105c0 4.437 3.391 7.555 7.72 7.555 3.64 0 6.04-1.71 7.309-4.823h-4.845c-.655.937-1.153 1.213-2.463 1.213-1.518 0-2.829-1.325-2.829-2.894h9.865c.428 3.525 3.175 6.565 6.944 6.565 1.626 0 3.115-.8 4.025-2.15h.055v1.378h4.984V9h-4.983zM20.079 21.401c.315-1.352 1.364-2.236 2.672-2.236 1.441 0 2.436.856 2.698 2.236h-5.37zm17.708 5.643c-1.836 0-2.978-1.711-2.978-3.498 0-1.911.993-3.747 2.978-3.747 2.06 0 2.88 1.837 2.88 3.747 0 1.81-.869 3.498-2.88 3.498z" fill="#29007C"/></svg>