<svg width="75" height="120" fill="none" xmlns="http://www.w3.org/2000/svg"><g clip-path="url(#clip0_6050_30055)"><path fill-rule="evenodd" clip-rule="evenodd" d="M4.457 72.132c-2.201.829-3.647.864-4.095.777-.256 0-.512.194-.256 2.59.21 1.962 2.008 2.534 2.792 2.783.173.055.297.094.343.13.205.155.256.453.256.582 0 0-.256 2.395 0 7.445.256 5.049 4.479 7.164 6.143 7.703 3.092.648 10.544 1.554 15.612 0 5.713-1.751 6.742-6.03 7.499-9.18.082-.343.161-.672.243-.983.563-2.147 1.822-2.422 2.506-2.456.684.034 1.943.309 2.506 2.456.082.31.161.64.243.982.757 3.15 1.786 7.43 7.5 9.181 5.067 1.554 12.519.648 15.611 0 1.664-.54 5.887-2.654 6.143-7.703.256-5.05 0-7.445 0-7.445 0-.13.051-.427.256-.582.046-.036.17-.075.343-.13.784-.25 2.582-.821 2.792-2.783.256-2.396 0-2.59-.256-2.59-.448.087-1.894.052-4.095-.777-1.728-.453-6.386-1.307-11.197-1.1-4.812.207-9.598 1.079-11.39 1.489-.895.216-3.045 1.061-4.478 2.719-.336.388-1.19 1.035-3.391 1.035h-1.174c-2.2 0-3.055-.647-3.391-1.035-1.433-1.658-3.583-2.503-4.479-2.72-1.791-.41-6.577-1.281-11.389-1.488-4.812-.207-9.47.647-11.197 1.1zm2.303 7.963c0-2.503 2.006-4.532 4.48-4.532h12.493c3.34 0 6.04 2.754 6.014 6.133l-.017 2.218c-.035 4.55-3.692 8.221-8.19 8.221h-7.23c-4.17 0-7.55-3.42-7.55-7.638v-4.402zm57.48 0c0-2.503-2.006-4.532-4.48-4.532H47.268c-3.34 0-6.04 2.754-6.014 6.133l.017 2.218c.035 4.55 3.691 8.221 8.19 8.221h7.23c4.17 0 7.55-3.42 7.55-7.638v-4.402z" fill="#19CB98"/><path fill-rule="evenodd" clip-rule="evenodd" d="M9.68 69.231L5.178 70C3.85 62.891 1.154 45.497 1 32.79c2.872 1.153 10.261 3.638 16.845 4.355-4.565-2.497-12.91-10.618-9.773-23.12 4.78 2.541 15.224 7.699 18.773 8.006C24.617 18.594 22.692 9.376 32.825 0c.257 2.284 3.33 8.467 13.565 14.922C56.625 21.378 69.728 28.33 75 30.997l-9.901 38.875-5.015-.64-.45-10.12c-.086-2.455-1.247-7.044-5.207-5.763-.912.295-2.066.82-3.426 1.44-6.022 2.748-16.094 7.341-27.177 1.89-11.128-5.473-11.837-.063-12.627 5.964-.3 2.296-.613 4.68-1.518 6.588zM68 32.67l-2.261 13.248-7.558-6.56c-8.334 5.2-28.036 12.955-40.181 2.356 5.512 2.123 19.444 4.535 31.072-2.803-6.61-.891-20.865-4.509-25-11.846 5.857 2.484 19.225 6.853 25.84 4.458-2.26-1.635-7.248-6.828-9.108-14.522C44.012 21.013 53.944 29.764 68 32.669z" fill="#754FFE"/><path d="M25.796 80.843c0 1.017-.473 1.842-1.056 1.842-.583 0-1.056-.825-1.056-1.843 0-1.017.473-1.842 1.056-1.842.583 0 1.056.825 1.056 1.843zm19.54 0c0 1.017.473 1.842 1.057 1.842.583 0 1.056-.825 1.056-1.843 0-1.017-.473-1.842-1.056-1.842-.584 0-1.057.825-1.057 1.843zM37.855 92.82c-1.76 1.637-4.137.818-4.753 0 .176 1.023.757 3.18 2.376 3.18 1.62 0 2.289-2.362 2.377-3.18z" fill="#754FFE"/><path fill-rule="evenodd" clip-rule="evenodd" d="M31.9 100.279c.073-.386.401-.63.733-.545l6.22 1.592c.332.085.542.467.469.854-.073.386-.402.631-.734.546l-6.22-1.593c-.332-.085-.542-.467-.469-.854z" fill="#754FFE"/><path d="M35.478 117.284c-12.252.164-21.242-12.966-24.205-19.551-.44-.978-.792-1.127-1.056-.922-.423.328-.118.99 0 1.331 1.478 4.013 3.491 7.404 4.313 8.599-2.887 5.568-3.844 11.123-3.961 13.204 4.788-5.486 9.623-5.22 11.442-4.401 14.26 8.598 22.181 2.559 26.67 0 3.591-2.047 9.184 1.945 11.53 4.197-.281-5.077-2.64-10.646-3.784-12.796 1.848-2.866 3.345-6.346 4.137-8.086.633-1.393.44-1.945.264-2.048-.423-.245-.94.512-1.145.922-1.32 2.559-8.89 19.346-24.205 19.551z" fill="#754FFE"/></g><defs><clipPath id="clip0_6050_30055"><path fill="#fff" d="M0 0h75v120H0z"/></clipPath></defs></svg>