<svg width="120" height="31" fill="none" xmlns="http://www.w3.org/2000/svg"><g clip-path="url(#clip0)"><path fill-rule="evenodd" clip-rule="evenodd" d="M38.39 23.909l1.498-3.48c1.618 1.21 3.773 1.838 5.9 1.838 1.569 0 2.563-.605 2.563-1.521-.024-2.564-9.404-.557-9.476-6.984-.024-3.264 2.876-5.78 6.984-5.78 2.444 0 4.882.605 6.624 1.983l-1.401 3.552c-1.594-1.018-3.576-1.743-5.463-1.743-1.281 0-2.126.605-2.126 1.378.024 2.515 9.475 1.138 9.571 7.277 0 3.336-2.827 5.683-6.888 5.683-2.976-.005-5.707-.706-7.785-2.203zM95.9 19.17a4.347 4.347 0 01-3.773 2.198 4.32 4.32 0 01-4.325-4.324 4.322 4.322 0 014.325-4.325c1.617 0 3.024.893 3.772 2.198l4.133-2.294c-1.545-2.755-4.521-4.642-7.905-4.642a9.069 9.069 0 00-9.068 9.067 9.069 9.069 0 009.068 9.068 9.012 9.012 0 007.905-4.642l-4.133-2.304zM55.142.461h5.174v25.31h-5.174V.461zm46.92 0v25.31h5.174v-7.594l6.139 7.594H120l-7.809-9.02 7.228-8.414h-6.336l-5.851 6.985V.46h-5.169z" fill="#000"/><path d="M75.69 19.22c-.749 1.233-2.294 2.15-4.037 2.15a4.32 4.32 0 01-4.325-4.325 4.322 4.322 0 014.325-4.325c1.743 0 3.288.965 4.037 2.222v4.277zm0-10.878v2.055c-.845-1.426-2.947-2.42-5.15-2.42-4.546 0-8.122 4.013-8.122 9.044 0 5.03 3.576 9.09 8.122 9.09 2.198 0 4.3-.988 5.15-2.418v2.054h5.175V8.342H75.69z" fill="#000"/><path fill-rule="evenodd" clip-rule="evenodd" d="M6.407 19.195a3.188 3.188 0 01-3.192 3.192 3.19 3.19 0 01-3.192-3.192 3.19 3.19 0 013.192-3.192h3.192v3.192zm1.594 0a3.188 3.188 0 013.192-3.192 3.188 3.188 0 013.192 3.192v7.978a3.188 3.188 0 01-3.192 3.192 3.188 3.188 0 01-3.192-3.192v-7.978z" fill="#E01E5A"/><path fill-rule="evenodd" clip-rule="evenodd" d="M11.194 6.384a3.188 3.188 0 01-3.192-3.192A3.188 3.188 0 0111.194 0a3.188 3.188 0 013.192 3.192v3.192h-3.192zm0 1.618a3.188 3.188 0 013.192 3.192 3.188 3.188 0 01-3.192 3.192H3.192A3.19 3.19 0 010 11.194a3.19 3.19 0 013.192-3.192h8.002z" fill="#36C5F0"/><path fill-rule="evenodd" clip-rule="evenodd" d="M23.98 11.194a3.188 3.188 0 013.192-3.192 3.188 3.188 0 013.192 3.192 3.188 3.188 0 01-3.192 3.192H23.98v-3.192zm-1.594 0a3.188 3.188 0 01-3.192 3.192 3.188 3.188 0 01-3.192-3.192V3.192A3.188 3.188 0 0119.194 0a3.188 3.188 0 013.192 3.192v8.002z" fill="#2EB67D"/><path fill-rule="evenodd" clip-rule="evenodd" d="M19.194 23.98a3.187 3.187 0 013.192 3.193 3.188 3.188 0 01-3.192 3.192 3.188 3.188 0 01-3.192-3.192V23.98h3.192zm0-1.593a3.188 3.188 0 01-3.192-3.192 3.188 3.188 0 013.192-3.192h8.002a3.188 3.188 0 013.192 3.192 3.188 3.188 0 01-3.192 3.192h-8.002z" fill="#ECB22E"/></g><defs><clipPath id="clip0"><path fill="#fff" d="M0 0h120v30.365H0z"/></clipPath></defs></svg>